<svg width="1024" height="187" viewBox="0 0 1024 187" fill="none" xmlns="http://www.w3.org/2000/svg">
<g clip-path="url(#clip0_45_495)">
<rect width="1024" height="187" fill="white"/>
<rect width="1024" height="187" fill="#080808"/>
<path d="M246.343 114.512C246.343 114.609 246.318 114.699 246.27 114.78C246.221 114.862 246.139 114.927 246.025 114.976C245.911 115.024 245.757 115.065 245.562 115.098C245.366 115.13 245.13 115.146 244.854 115.146C244.561 115.146 244.316 115.13 244.121 115.098C243.942 115.065 243.796 115.024 243.682 114.976C243.568 114.927 243.486 114.862 243.438 114.78C243.389 114.699 243.364 114.609 243.364 114.512V99.79H227.593V114.512C227.593 114.609 227.568 114.699 227.52 114.78C227.471 114.862 227.389 114.927 227.275 114.976C227.161 115.024 227.007 115.065 226.812 115.098C226.632 115.13 226.396 115.146 226.104 115.146C225.827 115.146 225.591 115.13 225.396 115.098C225.2 115.065 225.046 115.024 224.932 114.976C224.818 114.927 224.736 114.862 224.688 114.78C224.639 114.699 224.614 114.609 224.614 114.512V83.8965C224.614 83.7988 224.639 83.7093 224.688 83.6279C224.736 83.5465 224.818 83.4814 224.932 83.4326C225.046 83.3838 225.2 83.3431 225.396 83.3105C225.591 83.278 225.827 83.2617 226.104 83.2617C226.396 83.2617 226.632 83.278 226.812 83.3105C227.007 83.3431 227.161 83.3838 227.275 83.4326C227.389 83.4814 227.471 83.5465 227.52 83.6279C227.568 83.7093 227.593 83.7988 227.593 83.8965V97.1289H243.364V83.8965C243.364 83.7988 243.389 83.7093 243.438 83.6279C243.486 83.5465 243.568 83.4814 243.682 83.4326C243.796 83.3838 243.942 83.3431 244.121 83.3105C244.316 83.278 244.561 83.2617 244.854 83.2617C245.13 83.2617 245.366 83.278 245.562 83.3105C245.757 83.3431 245.911 83.3838 246.025 83.4326C246.139 83.4814 246.221 83.5465 246.27 83.6279C246.318 83.7093 246.343 83.7988 246.343 83.8965V114.512ZM273.052 102.329C273.052 102.915 272.897 103.322 272.588 103.55C272.279 103.761 271.978 103.867 271.685 103.867H256.621C256.621 105.234 256.751 106.471 257.012 107.578C257.288 108.685 257.736 109.637 258.354 110.435C258.973 111.216 259.779 111.818 260.771 112.241C261.764 112.664 262.985 112.876 264.434 112.876C265.459 112.876 266.379 112.786 267.192 112.607C268.006 112.428 268.706 112.233 269.292 112.021C269.894 111.794 270.382 111.59 270.757 111.411C271.147 111.232 271.424 111.143 271.587 111.143C271.685 111.143 271.774 111.167 271.855 111.216C271.937 111.265 272.002 111.346 272.051 111.46C272.1 111.558 272.132 111.688 272.148 111.851C272.181 112.013 272.197 112.217 272.197 112.461C272.197 112.575 272.189 112.689 272.173 112.803C272.157 112.9 272.132 112.998 272.1 113.096C272.083 113.177 272.051 113.258 272.002 113.34C271.953 113.421 271.888 113.503 271.807 113.584C271.725 113.665 271.473 113.812 271.05 114.023C270.627 114.219 270.073 114.422 269.39 114.634C268.706 114.829 267.909 115.008 266.997 115.171C266.102 115.334 265.133 115.415 264.092 115.415C262.383 115.415 260.869 115.163 259.551 114.658C258.232 114.137 257.126 113.381 256.23 112.388C255.335 111.379 254.652 110.133 254.18 108.652C253.724 107.171 253.496 105.454 253.496 103.501C253.496 101.629 253.732 99.9528 254.204 98.4717C254.692 96.9906 255.384 95.7373 256.279 94.7119C257.174 93.6702 258.249 92.8809 259.502 92.3438C260.771 91.7904 262.179 91.5137 263.726 91.5137C265.386 91.5137 266.802 91.7904 267.974 92.3438C269.146 92.8971 270.106 93.6458 270.854 94.5898C271.619 95.5176 272.173 96.5999 272.515 97.8369C272.873 99.0739 273.052 100.376 273.052 101.743V102.329ZM270.049 101.475C270.098 99.1309 269.561 97.2998 268.438 95.9814C267.314 94.6631 265.679 94.0039 263.53 94.0039C262.424 94.0039 261.447 94.2155 260.601 94.6387C259.771 95.0456 259.062 95.5908 258.477 96.2744C257.907 96.958 257.467 97.7555 257.158 98.667C256.849 99.5622 256.67 100.498 256.621 101.475H270.049ZM297.563 114.512C297.563 114.609 297.539 114.699 297.49 114.78C297.458 114.862 297.384 114.927 297.271 114.976C297.157 115.024 297.01 115.065 296.831 115.098C296.652 115.13 296.432 115.146 296.172 115.146C295.879 115.146 295.643 115.13 295.464 115.098C295.285 115.065 295.146 115.024 295.049 114.976C294.951 114.927 294.878 114.862 294.829 114.78C294.797 114.699 294.78 114.609 294.78 114.512V111.387C293.511 112.803 292.266 113.828 291.045 114.463C289.84 115.098 288.636 115.415 287.432 115.415C285.983 115.415 284.762 115.171 283.77 114.683C282.777 114.194 281.971 113.535 281.353 112.705C280.75 111.859 280.311 110.882 280.034 109.775C279.774 108.669 279.644 107.334 279.644 105.771V92.417C279.644 92.3193 279.66 92.2298 279.692 92.1484C279.741 92.0671 279.823 92.002 279.937 91.9531C280.05 91.888 280.197 91.8473 280.376 91.8311C280.571 91.7985 280.807 91.7822 281.084 91.7822C281.377 91.7822 281.613 91.7985 281.792 91.8311C281.987 91.8473 282.134 91.888 282.231 91.9531C282.345 92.002 282.427 92.0671 282.476 92.1484C282.524 92.2298 282.549 92.3193 282.549 92.417V105.503C282.549 106.87 282.655 107.985 282.866 108.848C283.078 109.71 283.395 110.451 283.818 111.069C284.242 111.672 284.779 112.144 285.43 112.485C286.097 112.811 286.87 112.974 287.749 112.974C288.872 112.974 289.987 112.575 291.094 111.777C292.217 110.98 293.405 109.808 294.658 108.262V92.417C294.658 92.3193 294.674 92.2298 294.707 92.1484C294.756 92.0671 294.837 92.002 294.951 91.9531C295.065 91.888 295.212 91.8473 295.391 91.8311C295.586 91.7985 295.83 91.7822 296.123 91.7822C296.4 91.7822 296.628 91.7985 296.807 91.8311C297.002 91.8473 297.148 91.888 297.246 91.9531C297.36 92.002 297.441 92.0671 297.49 92.1484C297.539 92.2298 297.563 92.3193 297.563 92.417V114.512ZM317.974 93.54C317.974 93.7842 317.965 93.9958 317.949 94.1748C317.933 94.3376 317.9 94.4759 317.852 94.5898C317.819 94.6875 317.77 94.7689 317.705 94.834C317.656 94.8828 317.583 94.9072 317.485 94.9072C317.339 94.9072 317.168 94.8747 316.973 94.8096C316.777 94.7282 316.549 94.6468 316.289 94.5654C316.029 94.484 315.744 94.4108 315.435 94.3457C315.125 94.2643 314.784 94.2236 314.409 94.2236C313.97 94.2236 313.538 94.3213 313.115 94.5166C312.692 94.6956 312.244 94.9967 311.772 95.4199C311.317 95.8268 310.828 96.3721 310.308 97.0557C309.803 97.7393 309.242 98.5775 308.623 99.5703V114.512C308.623 114.609 308.599 114.699 308.55 114.78C308.501 114.862 308.42 114.927 308.306 114.976C308.208 115.024 308.062 115.065 307.866 115.098C307.687 115.13 307.451 115.146 307.158 115.146C306.882 115.146 306.646 115.13 306.45 115.098C306.271 115.065 306.125 115.024 306.011 114.976C305.897 114.927 305.815 114.862 305.767 114.78C305.734 114.699 305.718 114.609 305.718 114.512V92.417C305.718 92.3193 305.734 92.2298 305.767 92.1484C305.815 92.0671 305.897 92.002 306.011 91.9531C306.125 91.888 306.263 91.8473 306.426 91.8311C306.605 91.7985 306.833 91.7822 307.109 91.7822C307.386 91.7822 307.614 91.7985 307.793 91.8311C307.972 91.8473 308.11 91.888 308.208 91.9531C308.306 92.002 308.371 92.0671 308.403 92.1484C308.452 92.2298 308.477 92.3193 308.477 92.417V95.9082C309.111 94.9805 309.697 94.2318 310.234 93.6621C310.771 93.0924 311.284 92.653 311.772 92.3438C312.261 92.0182 312.733 91.7985 313.188 91.6846C313.66 91.5706 314.141 91.5137 314.629 91.5137C314.84 91.5137 315.085 91.5299 315.361 91.5625C315.638 91.5788 315.931 91.6195 316.24 91.6846C316.566 91.7497 316.851 91.8311 317.095 91.9287C317.355 92.0101 317.534 92.0915 317.632 92.1729C317.729 92.238 317.795 92.3031 317.827 92.3682C317.86 92.417 317.884 92.4902 317.9 92.5879C317.933 92.6693 317.949 92.7913 317.949 92.9541C317.965 93.1006 317.974 93.2959 317.974 93.54ZM325.859 114.512C325.859 114.609 325.835 114.699 325.786 114.78C325.737 114.862 325.656 114.927 325.542 114.976C325.444 115.024 325.298 115.065 325.103 115.098C324.924 115.13 324.688 115.146 324.395 115.146C324.118 115.146 323.882 115.13 323.687 115.098C323.507 115.065 323.361 115.024 323.247 114.976C323.133 114.927 323.052 114.862 323.003 114.78C322.97 114.699 322.954 114.609 322.954 114.512V92.417C322.954 92.3193 322.97 92.2298 323.003 92.1484C323.052 92.0671 323.133 92.002 323.247 91.9531C323.361 91.888 323.507 91.8473 323.687 91.8311C323.882 91.7985 324.118 91.7822 324.395 91.7822C324.688 91.7822 324.924 91.7985 325.103 91.8311C325.298 91.8473 325.444 91.888 325.542 91.9531C325.656 92.002 325.737 92.0671 325.786 92.1484C325.835 92.2298 325.859 92.3193 325.859 92.417V114.512ZM326.299 84.9707C326.299 85.752 326.16 86.2809 325.884 86.5576C325.607 86.8343 325.103 86.9727 324.37 86.9727C323.654 86.9727 323.158 86.8424 322.881 86.582C322.62 86.3053 322.49 85.7764 322.49 84.9951C322.49 84.2139 322.629 83.6849 322.905 83.4082C323.182 83.1315 323.687 82.9932 324.419 82.9932C325.135 82.9932 325.623 83.1315 325.884 83.4082C326.16 83.6686 326.299 84.1895 326.299 84.9707ZM346.978 108.628C346.978 109.686 346.782 110.638 346.392 111.484C346.001 112.314 345.439 113.022 344.707 113.608C343.991 114.194 343.128 114.642 342.119 114.951C341.11 115.26 339.995 115.415 338.774 115.415C338.009 115.415 337.285 115.35 336.602 115.22C335.918 115.106 335.299 114.959 334.746 114.78C334.193 114.585 333.721 114.382 333.33 114.17C332.956 113.958 332.679 113.771 332.5 113.608C332.321 113.446 332.191 113.242 332.109 112.998C332.028 112.754 331.987 112.428 331.987 112.021C331.987 111.81 332.004 111.623 332.036 111.46C332.069 111.297 332.109 111.159 332.158 111.045C332.207 110.931 332.272 110.85 332.354 110.801C332.435 110.736 332.524 110.703 332.622 110.703C332.801 110.703 333.062 110.817 333.403 111.045C333.745 111.273 334.168 111.525 334.673 111.802C335.194 112.062 335.804 112.306 336.504 112.534C337.22 112.762 338.042 112.876 338.97 112.876C339.718 112.876 340.402 112.795 341.021 112.632C341.639 112.469 342.176 112.225 342.632 111.899C343.088 111.574 343.438 111.159 343.682 110.654C343.942 110.133 344.072 109.531 344.072 108.848C344.072 108.164 343.91 107.586 343.584 107.114C343.258 106.642 342.827 106.235 342.29 105.894C341.769 105.535 341.167 105.226 340.483 104.966C339.816 104.689 339.124 104.412 338.408 104.136C337.708 103.843 337.017 103.525 336.333 103.184C335.666 102.842 335.063 102.427 334.526 101.938C334.006 101.45 333.582 100.864 333.257 100.181C332.931 99.4971 332.769 98.6751 332.769 97.7148C332.769 96.9499 332.915 96.2012 333.208 95.4688C333.501 94.7201 333.949 94.0527 334.551 93.4668C335.169 92.8809 335.951 92.4089 336.895 92.0508C337.855 91.6927 338.986 91.5137 340.288 91.5137C340.841 91.5137 341.387 91.5625 341.924 91.6602C342.477 91.7415 342.974 91.8555 343.413 92.002C343.869 92.1484 344.259 92.3112 344.585 92.4902C344.91 92.653 345.155 92.7995 345.317 92.9297C345.496 93.0599 345.61 93.1738 345.659 93.2715C345.724 93.3529 345.765 93.4424 345.781 93.54C345.814 93.6377 345.838 93.7598 345.854 93.9062C345.871 94.0365 345.879 94.1992 345.879 94.3945C345.879 94.5898 345.863 94.7689 345.83 94.9316C345.814 95.0781 345.781 95.2083 345.732 95.3223C345.684 95.4362 345.618 95.5257 345.537 95.5908C345.472 95.6396 345.391 95.6641 345.293 95.6641C345.163 95.6641 344.967 95.5745 344.707 95.3955C344.447 95.2165 344.105 95.0212 343.682 94.8096C343.258 94.598 342.754 94.4027 342.168 94.2236C341.582 94.0446 340.907 93.9551 340.142 93.9551C339.377 93.9551 338.701 94.0446 338.115 94.2236C337.546 94.4027 337.074 94.6549 336.699 94.9805C336.325 95.306 336.04 95.6885 335.845 96.1279C335.666 96.5674 335.576 97.0475 335.576 97.5684C335.576 98.2845 335.739 98.8867 336.064 99.375C336.39 99.8633 336.821 100.286 337.358 100.645C337.896 101.003 338.506 101.32 339.189 101.597C339.873 101.873 340.565 102.15 341.265 102.427C341.981 102.703 342.681 103.013 343.364 103.354C344.048 103.68 344.658 104.079 345.195 104.551C345.732 105.023 346.164 105.592 346.489 106.26C346.815 106.911 346.978 107.7 346.978 108.628ZM370.659 91.9043C371.034 91.9043 371.286 92.002 371.416 92.1973C371.546 92.3763 371.611 92.6286 371.611 92.9541V114.512C371.611 114.609 371.587 114.699 371.538 114.78C371.489 114.862 371.408 114.927 371.294 114.976C371.196 115.024 371.05 115.065 370.854 115.098C370.675 115.13 370.448 115.146 370.171 115.146C369.878 115.146 369.634 115.13 369.438 115.098C369.259 115.065 369.113 115.024 368.999 114.976C368.901 114.927 368.828 114.862 368.779 114.78C368.73 114.699 368.706 114.609 368.706 114.512V94.3701H356.499V107.725C356.499 109.401 356.735 110.679 357.207 111.558C357.695 112.437 358.574 112.876 359.844 112.876C360.234 112.876 360.584 112.835 360.894 112.754C361.219 112.673 361.504 112.583 361.748 112.485C361.992 112.388 362.196 112.298 362.358 112.217C362.537 112.135 362.692 112.095 362.822 112.095C362.904 112.095 362.977 112.111 363.042 112.144C363.107 112.176 363.156 112.241 363.188 112.339C363.237 112.42 363.27 112.534 363.286 112.681C363.319 112.811 363.335 112.982 363.335 113.193C363.335 113.535 363.302 113.812 363.237 114.023C363.188 114.235 363.099 114.406 362.969 114.536C362.855 114.65 362.676 114.764 362.432 114.878C362.204 114.976 361.935 115.057 361.626 115.122C361.317 115.203 360.991 115.26 360.649 115.293C360.308 115.342 359.974 115.366 359.648 115.366C358.558 115.366 357.63 115.22 356.865 114.927C356.1 114.634 355.474 114.194 354.985 113.608C354.497 113.006 354.139 112.249 353.911 111.338C353.7 110.426 353.594 109.352 353.594 108.115V94.3701H350.298C350.07 94.3701 349.891 94.2725 349.761 94.0771C349.631 93.8656 349.565 93.5563 349.565 93.1494C349.565 92.9378 349.582 92.7588 349.614 92.6123C349.647 92.4495 349.696 92.3193 349.761 92.2217C349.826 92.1077 349.899 92.0264 349.98 91.9775C350.078 91.9287 350.184 91.9043 350.298 91.9043H353.594V86.4844C353.594 86.3867 353.61 86.2972 353.643 86.2158C353.691 86.1344 353.773 86.0693 353.887 86.0205C354.001 85.9554 354.147 85.9147 354.326 85.8984C354.521 85.8659 354.757 85.8496 355.034 85.8496C355.327 85.8496 355.563 85.8659 355.742 85.8984C355.938 85.9147 356.084 85.9554 356.182 86.0205C356.296 86.0693 356.377 86.1344 356.426 86.2158C356.475 86.2972 356.499 86.3867 356.499 86.4844V91.9043H370.659ZM372.051 84.9707C372.051 85.752 371.912 86.2809 371.636 86.5576C371.359 86.8343 370.854 86.9727 370.122 86.9727C369.406 86.9727 368.91 86.8424 368.633 86.582C368.372 86.3053 368.242 85.7764 368.242 84.9951C368.242 84.2139 368.381 83.6849 368.657 83.4082C368.934 83.1315 369.438 82.9932 370.171 82.9932C370.887 82.9932 371.375 83.1315 371.636 83.4082C371.912 83.6686 372.051 84.1895 372.051 84.9707ZM395.22 111.24C395.22 111.436 395.212 111.615 395.195 111.777C395.179 111.924 395.155 112.054 395.122 112.168C395.09 112.282 395.041 112.388 394.976 112.485C394.927 112.567 394.797 112.713 394.585 112.925C394.373 113.136 394.015 113.405 393.511 113.73C393.022 114.056 392.469 114.341 391.851 114.585C391.232 114.829 390.565 115.024 389.849 115.171C389.132 115.334 388.392 115.415 387.627 115.415C386.097 115.415 384.738 115.163 383.55 114.658C382.378 114.137 381.393 113.381 380.596 112.388C379.798 111.379 379.188 110.15 378.765 108.701C378.358 107.236 378.154 105.552 378.154 103.647C378.154 101.499 378.407 99.6598 378.911 98.1299C379.432 96.5999 380.14 95.3467 381.035 94.3701C381.93 93.3936 382.972 92.6774 384.16 92.2217C385.365 91.7497 386.65 91.5137 388.018 91.5137C388.75 91.5137 389.45 91.5869 390.117 91.7334C390.785 91.8636 391.395 92.0426 391.948 92.2705C392.518 92.4984 393.022 92.7588 393.462 93.0518C393.901 93.3447 394.219 93.597 394.414 93.8086C394.626 94.0039 394.764 94.1585 394.829 94.2725C394.91 94.3701 394.967 94.484 395 94.6143C395.049 94.7445 395.081 94.891 395.098 95.0537C395.114 95.2002 395.122 95.3792 395.122 95.5908C395.122 96.0628 395.049 96.3965 394.902 96.5918C394.772 96.7708 394.626 96.8604 394.463 96.8604C394.235 96.8604 393.95 96.7139 393.608 96.4209C393.283 96.1279 392.86 95.8105 392.339 95.4688C391.818 95.1107 391.183 94.7852 390.435 94.4922C389.702 94.1992 388.823 94.0527 387.798 94.0527C385.682 94.0527 384.046 94.8665 382.891 96.4941C381.751 98.1217 381.182 100.474 381.182 103.55C381.182 105.096 381.336 106.455 381.646 107.627C381.955 108.783 382.394 109.751 382.964 110.532C383.55 111.297 384.258 111.875 385.088 112.266C385.918 112.64 386.854 112.827 387.896 112.827C388.872 112.827 389.735 112.673 390.483 112.363C391.232 112.054 391.883 111.712 392.437 111.338C392.99 110.964 393.446 110.622 393.804 110.312C394.178 110.003 394.455 109.849 394.634 109.849C394.731 109.849 394.813 109.881 394.878 109.946C394.959 109.995 395.024 110.085 395.073 110.215C395.122 110.329 395.155 110.475 395.171 110.654C395.203 110.817 395.22 111.012 395.22 111.24ZM429.888 113.682C429.888 113.893 429.871 114.08 429.839 114.243C429.806 114.406 429.749 114.544 429.668 114.658C429.603 114.772 429.521 114.862 429.424 114.927C429.326 114.976 429.22 115 429.106 115H414.312C414.019 115 413.717 114.894 413.408 114.683C413.099 114.455 412.944 114.048 412.944 113.462V84.9463C412.944 84.3604 413.099 83.9616 413.408 83.75C413.717 83.5221 414.019 83.4082 414.312 83.4082H428.887C429.001 83.4082 429.106 83.4408 429.204 83.5059C429.302 83.5547 429.383 83.6361 429.448 83.75C429.513 83.8639 429.562 84.0104 429.595 84.1895C429.627 84.3522 429.644 84.5475 429.644 84.7754C429.644 84.987 429.627 85.1742 429.595 85.3369C429.562 85.4997 429.513 85.638 429.448 85.752C429.383 85.8496 429.302 85.931 429.204 85.9961C429.106 86.0449 429.001 86.0693 428.887 86.0693H415.923V97.1777H427.104C427.235 97.1777 427.349 97.2103 427.446 97.2754C427.544 97.3242 427.625 97.4056 427.69 97.5195C427.756 97.6172 427.804 97.7555 427.837 97.9346C427.869 98.0973 427.886 98.2926 427.886 98.5205C427.886 98.7321 427.869 98.9193 427.837 99.082C427.804 99.2285 427.756 99.3506 427.69 99.4482C427.625 99.5459 427.544 99.6191 427.446 99.668C427.349 99.7168 427.235 99.7412 427.104 99.7412H415.923V112.339H429.106C429.22 112.339 429.326 112.371 429.424 112.437C429.521 112.485 429.603 112.567 429.668 112.681C429.749 112.778 429.806 112.917 429.839 113.096C429.871 113.258 429.888 113.454 429.888 113.682ZM452.666 92.3682C452.666 92.417 452.658 92.474 452.642 92.5391C452.642 92.5879 452.633 92.6367 452.617 92.6855C452.617 92.7344 452.609 92.7913 452.593 92.8564C452.576 92.9053 452.56 92.9541 452.544 93.0029L444.536 114.512C444.487 114.642 444.414 114.748 444.316 114.829C444.219 114.91 444.097 114.976 443.95 115.024C443.804 115.073 443.625 115.106 443.413 115.122C443.218 115.138 442.982 115.146 442.705 115.146C442.428 115.146 442.184 115.13 441.973 115.098C441.761 115.081 441.582 115.049 441.436 115C441.289 114.951 441.167 114.886 441.069 114.805C440.972 114.723 440.898 114.626 440.85 114.512L432.842 93.0029C432.793 92.8727 432.752 92.7669 432.72 92.6855C432.703 92.6042 432.687 92.5391 432.671 92.4902C432.671 92.4414 432.671 92.4007 432.671 92.3682C432.671 92.2542 432.695 92.1566 432.744 92.0752C432.793 91.9938 432.866 91.9368 432.964 91.9043C433.078 91.8555 433.224 91.8229 433.403 91.8066C433.582 91.7904 433.802 91.7822 434.062 91.7822C434.421 91.7822 434.705 91.7985 434.917 91.8311C435.129 91.8473 435.291 91.8799 435.405 91.9287C435.535 91.9775 435.625 92.0426 435.674 92.124C435.739 92.2054 435.796 92.3031 435.845 92.417L442.754 111.704L442.803 111.826L442.852 111.704L449.639 92.417C449.671 92.3031 449.72 92.2054 449.785 92.124C449.85 92.0426 449.94 91.9775 450.054 91.9287C450.184 91.8799 450.347 91.8473 450.542 91.8311C450.754 91.7985 451.022 91.7822 451.348 91.7822C451.608 91.7822 451.82 91.7904 451.982 91.8066C452.161 91.8229 452.3 91.8555 452.397 91.9043C452.495 91.9531 452.56 92.0182 452.593 92.0996C452.642 92.1647 452.666 92.2542 452.666 92.3682ZM472.515 114.512C472.515 114.674 472.458 114.805 472.344 114.902C472.246 114.984 472.108 115.041 471.929 115.073C471.766 115.122 471.538 115.146 471.245 115.146C470.968 115.146 470.732 115.122 470.537 115.073C470.342 115.041 470.187 114.984 470.073 114.902C469.976 114.805 469.927 114.674 469.927 114.512V112.046C468.934 113.12 467.835 113.95 466.631 114.536C465.443 115.122 464.206 115.415 462.92 115.415C461.764 115.415 460.723 115.269 459.795 114.976C458.883 114.666 458.11 114.235 457.476 113.682C456.841 113.112 456.353 112.428 456.011 111.631C455.669 110.833 455.498 109.938 455.498 108.945C455.498 107.725 455.75 106.667 456.255 105.771C456.759 104.86 457.476 104.103 458.403 103.501C459.331 102.899 460.446 102.451 461.748 102.158C463.05 101.849 464.499 101.694 466.094 101.694H469.609V99.79C469.609 98.846 469.512 98.016 469.316 97.2998C469.121 96.5674 468.804 95.957 468.364 95.4688C467.925 94.9805 467.355 94.6143 466.655 94.3701C465.955 94.126 465.101 94.0039 464.092 94.0039C463.115 94.0039 462.236 94.126 461.455 94.3701C460.674 94.598 459.99 94.8584 459.404 95.1514C458.818 95.4443 458.33 95.7129 457.939 95.957C457.565 96.1849 457.297 96.2988 457.134 96.2988C457.036 96.2988 456.947 96.2826 456.865 96.25C456.784 96.2174 456.711 96.1605 456.646 96.0791C456.597 95.9814 456.556 95.8675 456.523 95.7373C456.507 95.5908 456.499 95.4199 456.499 95.2246C456.499 94.8828 456.523 94.6143 456.572 94.4189C456.621 94.2074 456.743 94.0039 456.938 93.8086C457.15 93.597 457.516 93.3529 458.037 93.0762C458.558 92.7995 459.152 92.5472 459.819 92.3193C460.503 92.0752 461.235 91.8799 462.017 91.7334C462.798 91.5869 463.579 91.5137 464.36 91.5137C465.874 91.5137 467.152 91.7008 468.193 92.0752C469.235 92.4333 470.073 92.9541 470.708 93.6377C471.359 94.3213 471.823 95.1676 472.1 96.1768C472.376 97.1696 472.515 98.3008 472.515 99.5703V114.512ZM469.609 104.087H465.581C464.409 104.087 463.384 104.193 462.505 104.404C461.626 104.616 460.894 104.925 460.308 105.332C459.722 105.739 459.282 106.227 458.989 106.797C458.713 107.367 458.574 108.018 458.574 108.75C458.574 110.02 458.973 111.037 459.771 111.802C460.584 112.55 461.724 112.925 463.188 112.925C464.344 112.925 465.418 112.632 466.411 112.046C467.42 111.444 468.486 110.524 469.609 109.287V104.087ZM483.477 114.512C483.477 114.609 483.452 114.699 483.403 114.78C483.354 114.862 483.273 114.927 483.159 114.976C483.062 115.024 482.915 115.065 482.72 115.098C482.541 115.13 482.305 115.146 482.012 115.146C481.735 115.146 481.499 115.13 481.304 115.098C481.125 115.065 480.978 115.024 480.864 114.976C480.75 114.927 480.669 114.862 480.62 114.78C480.588 114.699 480.571 114.609 480.571 114.512V81.6016C480.571 81.5039 480.588 81.4144 480.62 81.333C480.669 81.2516 480.75 81.1865 480.864 81.1377C480.978 81.0726 481.125 81.0319 481.304 81.0156C481.499 80.9831 481.735 80.9668 482.012 80.9668C482.305 80.9668 482.541 80.9831 482.72 81.0156C482.915 81.0319 483.062 81.0726 483.159 81.1377C483.273 81.1865 483.354 81.2516 483.403 81.333C483.452 81.4144 483.477 81.5039 483.477 81.6016V114.512ZM509.429 114.512C509.429 114.609 509.404 114.699 509.355 114.78C509.323 114.862 509.25 114.927 509.136 114.976C509.022 115.024 508.875 115.065 508.696 115.098C508.517 115.13 508.298 115.146 508.037 115.146C507.744 115.146 507.508 115.13 507.329 115.098C507.15 115.065 507.012 115.024 506.914 114.976C506.816 114.927 506.743 114.862 506.694 114.78C506.662 114.699 506.646 114.609 506.646 114.512V111.387C505.376 112.803 504.131 113.828 502.91 114.463C501.706 115.098 500.501 115.415 499.297 115.415C497.848 115.415 496.628 115.171 495.635 114.683C494.642 114.194 493.836 113.535 493.218 112.705C492.616 111.859 492.176 110.882 491.899 109.775C491.639 108.669 491.509 107.334 491.509 105.771V92.417C491.509 92.3193 491.525 92.2298 491.558 92.1484C491.606 92.0671 491.688 92.002 491.802 91.9531C491.916 91.888 492.062 91.8473 492.241 91.8311C492.437 91.7985 492.673 91.7822 492.949 91.7822C493.242 91.7822 493.478 91.7985 493.657 91.8311C493.853 91.8473 493.999 91.888 494.097 91.9531C494.211 92.002 494.292 92.0671 494.341 92.1484C494.39 92.2298 494.414 92.3193 494.414 92.417V105.503C494.414 106.87 494.52 107.985 494.731 108.848C494.943 109.71 495.26 110.451 495.684 111.069C496.107 111.672 496.644 112.144 497.295 112.485C497.962 112.811 498.735 112.974 499.614 112.974C500.737 112.974 501.852 112.575 502.959 111.777C504.082 110.98 505.27 109.808 506.523 108.262V92.417C506.523 92.3193 506.54 92.2298 506.572 92.1484C506.621 92.0671 506.702 92.002 506.816 91.9531C506.93 91.888 507.077 91.8473 507.256 91.8311C507.451 91.7985 507.695 91.7822 507.988 91.7822C508.265 91.7822 508.493 91.7985 508.672 91.8311C508.867 91.8473 509.014 91.888 509.111 91.9531C509.225 92.002 509.307 92.0671 509.355 92.1484C509.404 92.2298 509.429 92.3193 509.429 92.417V114.512ZM533.062 114.512C533.062 114.674 533.005 114.805 532.891 114.902C532.793 114.984 532.655 115.041 532.476 115.073C532.313 115.122 532.085 115.146 531.792 115.146C531.515 115.146 531.279 115.122 531.084 115.073C530.889 115.041 530.734 114.984 530.62 114.902C530.522 114.805 530.474 114.674 530.474 114.512V112.046C529.481 113.12 528.382 113.95 527.178 114.536C525.99 115.122 524.753 115.415 523.467 115.415C522.311 115.415 521.27 115.269 520.342 114.976C519.43 114.666 518.657 114.235 518.022 113.682C517.388 113.112 516.899 112.428 516.558 111.631C516.216 110.833 516.045 109.938 516.045 108.945C516.045 107.725 516.297 106.667 516.802 105.771C517.306 104.86 518.022 104.103 518.95 103.501C519.878 102.899 520.993 102.451 522.295 102.158C523.597 101.849 525.046 101.694 526.641 101.694H530.156V99.79C530.156 98.846 530.059 98.016 529.863 97.2998C529.668 96.5674 529.351 95.957 528.911 95.4688C528.472 94.9805 527.902 94.6143 527.202 94.3701C526.502 94.126 525.648 94.0039 524.639 94.0039C523.662 94.0039 522.783 94.126 522.002 94.3701C521.221 94.598 520.537 94.8584 519.951 95.1514C519.365 95.4443 518.877 95.7129 518.486 95.957C518.112 96.1849 517.843 96.2988 517.681 96.2988C517.583 96.2988 517.493 96.2826 517.412 96.25C517.331 96.2174 517.257 96.1605 517.192 96.0791C517.144 95.9814 517.103 95.8675 517.07 95.7373C517.054 95.5908 517.046 95.4199 517.046 95.2246C517.046 94.8828 517.07 94.6143 517.119 94.4189C517.168 94.2074 517.29 94.0039 517.485 93.8086C517.697 93.597 518.063 93.3529 518.584 93.0762C519.105 92.7995 519.699 92.5472 520.366 92.3193C521.05 92.0752 521.782 91.8799 522.563 91.7334C523.345 91.5869 524.126 91.5137 524.907 91.5137C526.421 91.5137 527.699 91.7008 528.74 92.0752C529.782 92.4333 530.62 92.9541 531.255 93.6377C531.906 94.3213 532.37 95.1676 532.646 96.1768C532.923 97.1696 533.062 98.3008 533.062 99.5703V114.512ZM530.156 104.087H526.128C524.956 104.087 523.931 104.193 523.052 104.404C522.173 104.616 521.44 104.925 520.854 105.332C520.269 105.739 519.829 106.227 519.536 106.797C519.259 107.367 519.121 108.018 519.121 108.75C519.121 110.02 519.52 111.037 520.317 111.802C521.131 112.55 522.271 112.925 523.735 112.925C524.891 112.925 525.965 112.632 526.958 112.046C527.967 111.444 529.033 110.524 530.156 109.287V104.087ZM558.599 91.9043C558.973 91.9043 559.225 92.002 559.355 92.1973C559.486 92.3763 559.551 92.6286 559.551 92.9541V114.512C559.551 114.609 559.526 114.699 559.478 114.78C559.429 114.862 559.347 114.927 559.233 114.976C559.136 115.024 558.989 115.065 558.794 115.098C558.615 115.13 558.387 115.146 558.11 115.146C557.817 115.146 557.573 115.13 557.378 115.098C557.199 115.065 557.052 115.024 556.938 114.976C556.841 114.927 556.768 114.862 556.719 114.78C556.67 114.699 556.646 114.609 556.646 114.512V94.3701H544.438V107.725C544.438 109.401 544.674 110.679 545.146 111.558C545.635 112.437 546.514 112.876 547.783 112.876C548.174 112.876 548.524 112.835 548.833 112.754C549.159 112.673 549.443 112.583 549.688 112.485C549.932 112.388 550.135 112.298 550.298 112.217C550.477 112.135 550.632 112.095 550.762 112.095C550.843 112.095 550.916 112.111 550.981 112.144C551.047 112.176 551.095 112.241 551.128 112.339C551.177 112.42 551.209 112.534 551.226 112.681C551.258 112.811 551.274 112.982 551.274 113.193C551.274 113.535 551.242 113.812 551.177 114.023C551.128 114.235 551.038 114.406 550.908 114.536C550.794 114.65 550.615 114.764 550.371 114.878C550.143 114.976 549.875 115.057 549.565 115.122C549.256 115.203 548.931 115.26 548.589 115.293C548.247 115.342 547.913 115.366 547.588 115.366C546.497 115.366 545.57 115.22 544.805 114.927C544.04 114.634 543.413 114.194 542.925 113.608C542.437 113.006 542.078 112.249 541.851 111.338C541.639 110.426 541.533 109.352 541.533 108.115V94.3701H538.237C538.009 94.3701 537.83 94.2725 537.7 94.0771C537.57 93.8656 537.505 93.5563 537.505 93.1494C537.505 92.9378 537.521 92.7588 537.554 92.6123C537.586 92.4495 537.635 92.3193 537.7 92.2217C537.765 92.1077 537.839 92.0264 537.92 91.9775C538.018 91.9287 538.123 91.9043 538.237 91.9043H541.533V86.4844C541.533 86.3867 541.549 86.2972 541.582 86.2158C541.631 86.1344 541.712 86.0693 541.826 86.0205C541.94 85.9554 542.087 85.9147 542.266 85.8984C542.461 85.8659 542.697 85.8496 542.974 85.8496C543.267 85.8496 543.503 85.8659 543.682 85.8984C543.877 85.9147 544.023 85.9554 544.121 86.0205C544.235 86.0693 544.316 86.1344 544.365 86.2158C544.414 86.2972 544.438 86.3867 544.438 86.4844V91.9043H558.599ZM559.99 84.9707C559.99 85.752 559.852 86.2809 559.575 86.5576C559.299 86.8343 558.794 86.9727 558.062 86.9727C557.345 86.9727 556.849 86.8424 556.572 86.582C556.312 86.3053 556.182 85.7764 556.182 84.9951C556.182 84.2139 556.32 83.6849 556.597 83.4082C556.873 83.1315 557.378 82.9932 558.11 82.9932C558.826 82.9932 559.315 83.1315 559.575 83.4082C559.852 83.6686 559.99 84.1895 559.99 84.9707ZM587.285 103.232C587.285 104.99 587.057 106.61 586.602 108.091C586.146 109.572 585.462 110.858 584.551 111.948C583.656 113.039 582.533 113.893 581.182 114.512C579.831 115.114 578.26 115.415 576.47 115.415C574.744 115.415 573.231 115.146 571.929 114.609C570.643 114.056 569.561 113.275 568.682 112.266C567.819 111.24 567.168 110.003 566.729 108.555C566.305 107.106 566.094 105.47 566.094 103.647C566.094 101.89 566.313 100.27 566.753 98.7891C567.209 97.3079 567.884 96.0303 568.779 94.9561C569.691 93.8656 570.822 93.0192 572.173 92.417C573.524 91.8148 575.103 91.5137 576.909 91.5137C578.634 91.5137 580.14 91.7822 581.426 92.3193C582.728 92.8564 583.81 93.6377 584.673 94.6631C585.535 95.6722 586.187 96.901 586.626 98.3496C587.065 99.7982 587.285 101.426 587.285 103.232ZM584.209 103.501C584.209 102.248 584.087 101.051 583.843 99.9121C583.599 98.7728 583.192 97.7718 582.622 96.9092C582.052 96.0303 581.287 95.3385 580.327 94.834C579.367 94.3132 578.171 94.0527 576.738 94.0527C575.42 94.0527 574.281 94.2887 573.32 94.7607C572.36 95.2327 571.571 95.8919 570.952 96.7383C570.35 97.5684 569.902 98.5531 569.609 99.6924C569.316 100.832 569.17 102.061 569.17 103.379C569.17 104.648 569.292 105.861 569.536 107.017C569.78 108.156 570.187 109.157 570.757 110.02C571.326 110.882 572.091 111.566 573.052 112.07C574.012 112.575 575.208 112.827 576.641 112.827C577.959 112.827 579.098 112.591 580.059 112.119C581.019 111.647 581.8 110.996 582.402 110.166C583.021 109.336 583.477 108.351 583.77 107.212C584.062 106.073 584.209 104.836 584.209 103.501ZM611.724 114.512C611.724 114.609 611.699 114.699 611.65 114.78C611.602 114.862 611.52 114.927 611.406 114.976C611.309 115.024 611.162 115.065 610.967 115.098C610.788 115.13 610.56 115.146 610.283 115.146C609.99 115.146 609.746 115.13 609.551 115.098C609.372 115.065 609.225 115.024 609.111 114.976C609.014 114.927 608.94 114.862 608.892 114.78C608.843 114.699 608.818 114.609 608.818 114.512V101.401C608.818 100.034 608.713 98.9274 608.501 98.0811C608.289 97.2184 607.972 96.486 607.549 95.8838C607.126 95.2653 606.58 94.7933 605.913 94.4678C605.262 94.126 604.497 93.9551 603.618 93.9551C602.495 93.9551 601.372 94.3538 600.249 95.1514C599.126 95.9489 597.946 97.1208 596.709 98.667V114.512C596.709 114.609 596.685 114.699 596.636 114.78C596.587 114.862 596.506 114.927 596.392 114.976C596.294 115.024 596.147 115.065 595.952 115.098C595.773 115.13 595.537 115.146 595.244 115.146C594.967 115.146 594.731 115.13 594.536 115.098C594.357 115.065 594.211 115.024 594.097 114.976C593.983 114.927 593.901 114.862 593.853 114.78C593.82 114.699 593.804 114.609 593.804 114.512V92.417C593.804 92.3193 593.82 92.2298 593.853 92.1484C593.901 92.0671 593.983 92.002 594.097 91.9531C594.211 91.888 594.349 91.8473 594.512 91.8311C594.691 91.7985 594.919 91.7822 595.195 91.7822C595.472 91.7822 595.7 91.7985 595.879 91.8311C596.058 91.8473 596.196 91.888 596.294 91.9531C596.392 92.002 596.457 92.0671 596.489 92.1484C596.538 92.2298 596.562 92.3193 596.562 92.417V95.542C597.832 94.126 599.077 93.1006 600.298 92.4658C601.519 91.8311 602.731 91.5137 603.936 91.5137C605.384 91.5137 606.605 91.7578 607.598 92.2461C608.59 92.7344 609.388 93.3936 609.99 94.2236C610.609 95.0537 611.048 96.0221 611.309 97.1289C611.585 98.2357 611.724 99.5703 611.724 101.133V114.512ZM657.061 98.8379C657.061 101.361 656.768 103.647 656.182 105.698C655.612 107.733 654.749 109.474 653.594 110.923C652.438 112.355 650.981 113.462 649.224 114.243C647.466 115.024 645.415 115.415 643.071 115.415C640.728 115.415 638.709 115.049 637.017 114.316C635.34 113.568 633.957 112.51 632.866 111.143C631.792 109.759 630.994 108.075 630.474 106.089C629.969 104.103 629.717 101.865 629.717 99.375C629.717 96.901 630.002 94.6549 630.571 92.6367C631.141 90.6185 632.004 88.9014 633.159 87.4854C634.331 86.0531 635.788 84.9463 637.529 84.165C639.287 83.3838 641.346 82.9932 643.706 82.9932C646.001 82.9932 647.987 83.3594 649.663 84.0918C651.34 84.8242 652.723 85.874 653.813 87.2412C654.92 88.6084 655.734 90.2686 656.255 92.2217C656.792 94.1748 657.061 96.3802 657.061 98.8379ZM653.887 99.1064C653.887 97.2347 653.708 95.485 653.35 93.8574C653.008 92.2135 652.43 90.7894 651.616 89.585C650.819 88.3643 649.753 87.4121 648.418 86.7285C647.083 86.0286 645.431 85.6787 643.462 85.6787C641.509 85.6787 639.857 86.0449 638.506 86.7773C637.171 87.4935 636.081 88.4619 635.234 89.6826C634.404 90.9033 633.802 92.3275 633.428 93.9551C633.07 95.5827 632.891 97.2998 632.891 99.1064C632.891 101.027 633.053 102.817 633.379 104.478C633.721 106.121 634.29 107.554 635.088 108.774C635.885 109.995 636.951 110.955 638.286 111.655C639.621 112.339 641.289 112.681 643.291 112.681C645.277 112.681 646.945 112.314 648.296 111.582C649.647 110.833 650.737 109.84 651.567 108.604C652.397 107.35 652.992 105.91 653.35 104.282C653.708 102.638 653.887 100.913 653.887 99.1064ZM675.273 82.9932C675.273 83.221 675.257 83.4082 675.225 83.5547C675.208 83.6849 675.176 83.7907 675.127 83.8721C675.094 83.9535 675.046 84.0104 674.98 84.043C674.932 84.0755 674.867 84.0918 674.785 84.0918C674.655 84.0918 674.5 84.0511 674.321 83.9697C674.142 83.8883 673.914 83.7988 673.638 83.7012C673.377 83.6035 673.06 83.514 672.686 83.4326C672.327 83.3512 671.904 83.3105 671.416 83.3105C670.732 83.3105 670.155 83.4245 669.683 83.6523C669.211 83.8639 668.828 84.2139 668.535 84.7021C668.242 85.1742 668.031 85.7926 667.9 86.5576C667.786 87.3063 667.729 88.2178 667.729 89.292V91.9043H673.149C673.263 91.9043 673.361 91.9287 673.442 91.9775C673.524 92.0264 673.597 92.1077 673.662 92.2217C673.727 92.3193 673.776 92.4495 673.809 92.6123C673.841 92.7588 673.857 92.9378 673.857 93.1494C673.857 93.5563 673.792 93.8656 673.662 94.0771C673.532 94.2725 673.361 94.3701 673.149 94.3701H667.729V114.512C667.729 114.609 667.705 114.699 667.656 114.78C667.607 114.862 667.526 114.927 667.412 114.976C667.314 115.024 667.168 115.065 666.973 115.098C666.777 115.13 666.541 115.146 666.265 115.146C665.988 115.146 665.752 115.13 665.557 115.098C665.378 115.065 665.231 115.024 665.117 114.976C665.003 114.927 664.922 114.862 664.873 114.78C664.84 114.699 664.824 114.609 664.824 114.512V94.3701H661.504C661.276 94.3701 661.097 94.2725 660.967 94.0771C660.853 93.8656 660.796 93.5563 660.796 93.1494C660.796 92.9378 660.812 92.7588 660.845 92.6123C660.877 92.4495 660.918 92.3193 660.967 92.2217C661.032 92.1077 661.105 92.0264 661.187 91.9775C661.284 91.9287 661.39 91.9043 661.504 91.9043H664.824V89.3896C664.824 87.8434 664.963 86.5251 665.239 85.4346C665.516 84.3441 665.931 83.457 666.484 82.7734C667.054 82.0898 667.762 81.5934 668.608 81.2842C669.455 80.9749 670.439 80.8203 671.562 80.8203C672.116 80.8203 672.653 80.8773 673.174 80.9912C673.695 81.0889 674.085 81.2028 674.346 81.333C674.622 81.4469 674.801 81.5527 674.883 81.6504C674.98 81.7318 675.054 81.8376 675.103 81.9678C675.168 82.098 675.208 82.2526 675.225 82.4316C675.257 82.5944 675.273 82.7816 675.273 82.9932ZM708.11 113.682C708.11 113.893 708.094 114.08 708.062 114.243C708.029 114.406 707.98 114.544 707.915 114.658C707.85 114.772 707.769 114.862 707.671 114.927C707.573 114.976 707.459 115 707.329 115H688.652C688.343 115 688.083 114.902 687.871 114.707C687.66 114.495 687.554 114.154 687.554 113.682V112.876C687.554 112.729 687.562 112.591 687.578 112.461C687.611 112.314 687.66 112.16 687.725 111.997C687.79 111.834 687.879 111.647 687.993 111.436C688.123 111.224 688.278 110.98 688.457 110.703L704.302 86.0693H688.652C688.522 86.0693 688.408 86.0449 688.311 85.9961C688.213 85.931 688.132 85.8496 688.066 85.752C688.001 85.638 687.952 85.4997 687.92 85.3369C687.887 85.1742 687.871 84.987 687.871 84.7754C687.871 84.5475 687.887 84.3522 687.92 84.1895C687.952 84.0104 688.001 83.8639 688.066 83.75C688.132 83.6361 688.213 83.5547 688.311 83.5059C688.408 83.4408 688.522 83.4082 688.652 83.4082H706.328C706.637 83.4082 706.898 83.514 707.109 83.7256C707.321 83.9209 707.427 84.2546 707.427 84.7266V85.5322C707.427 85.695 707.41 85.8496 707.378 85.9961C707.362 86.1426 707.321 86.2972 707.256 86.46C707.191 86.6227 707.093 86.8099 706.963 87.0215C706.849 87.2168 706.702 87.4447 706.523 87.7051L690.679 112.339H707.329C707.59 112.339 707.785 112.453 707.915 112.681C708.045 112.892 708.11 113.226 708.11 113.682ZM716.191 114.512C716.191 114.609 716.167 114.699 716.118 114.78C716.069 114.862 715.988 114.927 715.874 114.976C715.776 115.024 715.63 115.065 715.435 115.098C715.256 115.13 715.02 115.146 714.727 115.146C714.45 115.146 714.214 115.13 714.019 115.098C713.84 115.065 713.693 115.024 713.579 114.976C713.465 114.927 713.384 114.862 713.335 114.78C713.302 114.699 713.286 114.609 713.286 114.512V92.417C713.286 92.3193 713.302 92.2298 713.335 92.1484C713.384 92.0671 713.465 92.002 713.579 91.9531C713.693 91.888 713.84 91.8473 714.019 91.8311C714.214 91.7985 714.45 91.7822 714.727 91.7822C715.02 91.7822 715.256 91.7985 715.435 91.8311C715.63 91.8473 715.776 91.888 715.874 91.9531C715.988 92.002 716.069 92.0671 716.118 92.1484C716.167 92.2298 716.191 92.3193 716.191 92.417V114.512ZM716.631 84.9707C716.631 85.752 716.493 86.2809 716.216 86.5576C715.939 86.8343 715.435 86.9727 714.702 86.9727C713.986 86.9727 713.49 86.8424 713.213 86.582C712.952 86.3053 712.822 85.7764 712.822 84.9951C712.822 84.2139 712.961 83.6849 713.237 83.4082C713.514 83.1315 714.019 82.9932 714.751 82.9932C715.467 82.9932 715.955 83.1315 716.216 83.4082C716.493 83.6686 716.631 84.1895 716.631 84.9707ZM727.227 114.512C727.227 114.609 727.202 114.699 727.153 114.78C727.104 114.862 727.023 114.927 726.909 114.976C726.812 115.024 726.665 115.065 726.47 115.098C726.291 115.13 726.055 115.146 725.762 115.146C725.485 115.146 725.249 115.13 725.054 115.098C724.875 115.065 724.728 115.024 724.614 114.976C724.5 114.927 724.419 114.862 724.37 114.78C724.338 114.699 724.321 114.609 724.321 114.512V81.6016C724.321 81.5039 724.338 81.4144 724.37 81.333C724.419 81.2516 724.5 81.1865 724.614 81.1377C724.728 81.0726 724.875 81.0319 725.054 81.0156C725.249 80.9831 725.485 80.9668 725.762 80.9668C726.055 80.9668 726.291 80.9831 726.47 81.0156C726.665 81.0319 726.812 81.0726 726.909 81.1377C727.023 81.1865 727.104 81.2516 727.153 81.333C727.202 81.4144 727.227 81.5039 727.227 81.6016V114.512ZM738.262 114.512C738.262 114.609 738.237 114.699 738.188 114.78C738.14 114.862 738.058 114.927 737.944 114.976C737.847 115.024 737.7 115.065 737.505 115.098C737.326 115.13 737.09 115.146 736.797 115.146C736.52 115.146 736.284 115.13 736.089 115.098C735.91 115.065 735.763 115.024 735.649 114.976C735.535 114.927 735.454 114.862 735.405 114.78C735.373 114.699 735.356 114.609 735.356 114.512V81.6016C735.356 81.5039 735.373 81.4144 735.405 81.333C735.454 81.2516 735.535 81.1865 735.649 81.1377C735.763 81.0726 735.91 81.0319 736.089 81.0156C736.284 80.9831 736.52 80.9668 736.797 80.9668C737.09 80.9668 737.326 80.9831 737.505 81.0156C737.7 81.0319 737.847 81.0726 737.944 81.1377C738.058 81.1865 738.14 81.2516 738.188 81.333C738.237 81.4144 738.262 81.5039 738.262 81.6016V114.512ZM765.947 103.232C765.947 104.99 765.719 106.61 765.264 108.091C764.808 109.572 764.124 110.858 763.213 111.948C762.318 113.039 761.195 113.893 759.844 114.512C758.493 115.114 756.922 115.415 755.132 115.415C753.407 115.415 751.893 115.146 750.591 114.609C749.305 114.056 748.223 113.275 747.344 112.266C746.481 111.24 745.83 110.003 745.391 108.555C744.967 107.106 744.756 105.47 744.756 103.647C744.756 101.89 744.976 100.27 745.415 98.7891C745.871 97.3079 746.546 96.0303 747.441 94.9561C748.353 93.8656 749.484 93.0192 750.835 92.417C752.186 91.8148 753.765 91.5137 755.571 91.5137C757.297 91.5137 758.802 91.7822 760.088 92.3193C761.39 92.8564 762.472 93.6377 763.335 94.6631C764.198 95.6722 764.849 96.901 765.288 98.3496C765.728 99.7982 765.947 101.426 765.947 103.232ZM762.871 103.501C762.871 102.248 762.749 101.051 762.505 99.9121C762.261 98.7728 761.854 97.7718 761.284 96.9092C760.715 96.0303 759.95 95.3385 758.989 94.834C758.029 94.3132 756.833 94.0527 755.4 94.0527C754.082 94.0527 752.943 94.2887 751.982 94.7607C751.022 95.2327 750.233 95.8919 749.614 96.7383C749.012 97.5684 748.564 98.5531 748.271 99.6924C747.979 100.832 747.832 102.061 747.832 103.379C747.832 104.648 747.954 105.861 748.198 107.017C748.442 108.156 748.849 109.157 749.419 110.02C749.989 110.882 750.754 111.566 751.714 112.07C752.674 112.575 753.87 112.827 755.303 112.827C756.621 112.827 757.76 112.591 758.721 112.119C759.681 111.647 760.462 110.996 761.064 110.166C761.683 109.336 762.139 108.351 762.432 107.212C762.725 106.073 762.871 104.836 762.871 103.501ZM801.543 92.3682C801.543 92.4495 801.527 92.5472 801.494 92.6611C801.478 92.7588 801.453 92.8727 801.421 93.0029L794.585 114.512C794.552 114.642 794.487 114.748 794.39 114.829C794.308 114.91 794.194 114.976 794.048 115.024C793.901 115.073 793.706 115.106 793.462 115.122C793.234 115.138 792.957 115.146 792.632 115.146C792.29 115.146 791.997 115.13 791.753 115.098C791.509 115.081 791.305 115.049 791.143 115C790.996 114.951 790.874 114.886 790.776 114.805C790.695 114.723 790.638 114.626 790.605 114.512L785.479 97.0801L785.43 96.8848L785.381 97.0801L780.596 114.512C780.563 114.642 780.498 114.748 780.4 114.829C780.303 114.91 780.164 114.976 779.985 115.024C779.823 115.073 779.619 115.106 779.375 115.122C779.131 115.138 778.854 115.146 778.545 115.146C778.219 115.146 777.943 115.13 777.715 115.098C777.487 115.081 777.292 115.049 777.129 115C776.982 114.951 776.868 114.886 776.787 114.805C776.706 114.723 776.649 114.626 776.616 114.512L769.829 93.0029C769.78 92.889 769.74 92.7751 769.707 92.6611C769.691 92.5472 769.683 92.4495 769.683 92.3682C769.683 92.2542 769.707 92.1566 769.756 92.0752C769.805 91.9938 769.886 91.9368 770 91.9043C770.114 91.8555 770.26 91.8229 770.439 91.8066C770.618 91.7904 770.838 91.7822 771.099 91.7822C771.44 91.7822 771.717 91.7985 771.929 91.8311C772.14 91.8473 772.295 91.8799 772.393 91.9287C772.507 91.9775 772.588 92.0426 772.637 92.124C772.686 92.2054 772.726 92.3031 772.759 92.417L778.594 111.704L778.643 111.875L778.691 111.704L783.989 92.417C784.022 92.3031 784.062 92.2054 784.111 92.124C784.176 92.0426 784.258 91.9775 784.355 91.9287C784.469 91.8799 784.616 91.8473 784.795 91.8311C784.99 91.7985 785.234 91.7822 785.527 91.7822C785.804 91.7822 786.032 91.7985 786.211 91.8311C786.39 91.8473 786.536 91.8799 786.65 91.9287C786.764 91.9775 786.846 92.0426 786.895 92.124C786.943 92.2054 786.984 92.3031 787.017 92.417L792.729 111.704L792.778 111.875L792.803 111.704L798.613 92.417C798.646 92.3031 798.687 92.2054 798.735 92.124C798.8 92.0426 798.89 91.9775 799.004 91.9287C799.118 91.8799 799.272 91.8473 799.468 91.8311C799.679 91.7985 799.948 91.7822 800.273 91.7822C800.534 91.7822 800.745 91.7904 800.908 91.8066C801.071 91.8229 801.201 91.8555 801.299 91.9043C801.396 91.9531 801.462 92.0182 801.494 92.0996C801.527 92.1647 801.543 92.2542 801.543 92.3682Z" fill="#EAEAEA"/>
<line x1="254.002" y1="130.5" x2="787.002" y2="132.5" stroke="#EAEAEA"/>
</g>
<defs>
<clipPath id="clip0_45_495">
<rect width="1024" height="187" fill="white"/>
</clipPath>
</defs>
</svg>
