<svg width="1920" height="1080" viewBox="0 0 1920 1080" fill="none" xmlns="http://www.w3.org/2000/svg">
<rect width="1920" height="1080" transform="matrix(-1 0 0 1 1920 0)" fill="#F8F8F8"/>
<rect width="1920" height="1080" transform="matrix(-1 0 0 1 1920 0)" fill="black"/>
<path d="M574.235 481.317V470.273H632.261V481.317H609.782V543H596.714V481.317H574.235ZM666.447 543V470.273H679.621V501.061H713.322V470.273H726.532V543H713.322V512.105H679.621V543H666.447ZM773.2 543H759.138L784.741 470.273H801.006L826.645 543H812.582L793.158 485.188H792.589L773.2 543ZM773.662 514.484H812.014V525.067H773.662V514.484ZM918.99 470.273V543H907.271L873.002 493.462H872.399V543H859.224V470.273H871.014L905.247 519.847H905.886V470.273H918.99ZM956.345 543V470.273H969.52V503.689H970.408L998.781 470.273H1014.87L986.743 502.908L1015.12 543H999.278L977.581 511.821L969.52 521.338V543H956.345ZM1089.85 470.273H1104.73L1122.52 502.446H1123.23L1141.03 470.273H1155.91L1129.45 515.869V543H1116.31V515.869L1089.85 470.273ZM1249.12 506.636C1249.12 514.473 1247.65 521.184 1244.72 526.771C1241.8 532.335 1237.83 536.596 1232.78 539.555C1227.77 542.515 1222.07 543.994 1215.7 543.994C1209.34 543.994 1203.63 542.515 1198.59 539.555C1193.57 536.572 1189.59 532.299 1186.66 526.736C1183.74 521.149 1182.29 514.449 1182.29 506.636C1182.29 498.8 1183.74 492.1 1186.66 486.537C1189.59 480.95 1193.57 476.677 1198.59 473.717C1203.63 470.758 1209.34 469.278 1215.7 469.278C1222.07 469.278 1227.77 470.758 1232.78 473.717C1237.83 476.677 1241.8 480.95 1244.72 486.537C1247.65 492.1 1249.12 498.8 1249.12 506.636ZM1235.87 506.636C1235.87 501.12 1235.01 496.468 1233.28 492.68C1231.58 488.869 1229.21 485.992 1226.18 484.051C1223.15 482.086 1219.66 481.104 1215.7 481.104C1211.75 481.104 1208.26 482.086 1205.23 484.051C1202.2 485.992 1199.82 488.869 1198.09 492.68C1196.39 496.468 1195.53 501.12 1195.53 506.636C1195.53 512.152 1196.39 516.816 1198.09 520.628C1199.82 524.416 1202.2 527.292 1205.23 529.257C1208.26 531.198 1211.75 532.169 1215.7 532.169C1219.66 532.169 1223.15 531.198 1226.18 529.257C1229.21 527.292 1231.58 524.416 1233.28 520.628C1235.01 516.816 1235.87 512.152 1235.87 506.636ZM1330.42 470.273H1343.6V517.787C1343.6 522.995 1342.36 527.576 1339.9 531.53C1337.46 535.483 1334.03 538.573 1329.6 540.798C1325.18 543 1320 544.101 1314.09 544.101C1308.14 544.101 1302.96 543 1298.53 540.798C1294.1 538.573 1290.67 535.483 1288.23 531.53C1285.79 527.576 1284.58 522.995 1284.58 517.787V470.273H1297.75V516.686C1297.75 519.716 1298.41 522.415 1299.74 524.783C1301.09 527.15 1302.98 529.009 1305.42 530.358C1307.86 531.684 1310.75 532.347 1314.09 532.347C1317.42 532.347 1320.31 531.684 1322.75 530.358C1325.21 529.009 1327.11 527.15 1328.43 524.783C1329.76 522.415 1330.42 519.716 1330.42 516.686V470.273Z" fill="#FFA629"/>
<path d="M736.583 369.334C736.583 368.969 736.438 368.619 736.18 368.361C735.922 368.104 735.573 367.959 735.208 367.959C734.843 367.959 734.494 368.104 734.236 368.361C733.978 368.619 733.833 368.969 733.833 369.334V382.167C733.833 382.532 733.978 382.881 734.236 383.139C734.494 383.397 734.843 383.542 735.208 383.542C735.573 383.542 735.922 383.397 736.18 383.139C736.438 382.881 736.583 382.532 736.583 382.167V369.334ZM742.083 369.334C742.083 368.969 741.938 368.619 741.68 368.361C741.422 368.104 741.073 367.959 740.708 367.959C740.343 367.959 739.994 368.104 739.736 368.361C739.478 368.619 739.333 368.969 739.333 369.334V382.167C739.333 382.532 739.478 382.881 739.736 383.139C739.994 383.397 740.343 383.542 740.708 383.542C741.073 383.542 741.422 383.397 741.68 383.139C741.938 382.881 742.083 382.532 742.083 382.167V369.334ZM747.583 369.334C747.583 368.969 747.438 368.619 747.18 368.361C746.922 368.104 746.573 367.959 746.208 367.959C745.843 367.959 745.494 368.104 745.236 368.361C744.978 368.619 744.833 368.969 744.833 369.334V382.167C744.833 382.532 744.978 382.881 745.236 383.139C745.494 383.397 745.843 383.542 746.208 383.542C746.573 383.542 746.922 383.397 747.18 383.139C747.438 382.881 747.583 382.532 747.583 382.167V369.334ZM728.333 360.625C728.333 359.045 728.961 357.53 730.078 356.412C731.196 355.295 732.711 354.667 734.291 354.667H747.125C748.705 354.667 750.22 355.295 751.338 356.412C752.455 357.53 753.083 359.045 753.083 360.625V362H755.375C756.157 362 756.932 362.154 757.655 362.454C758.378 362.753 759.035 363.192 759.588 363.745C760.141 364.299 760.58 364.956 760.879 365.679C761.179 366.401 761.333 367.176 761.333 367.959V378.042C761.333 378.824 761.179 379.599 760.879 380.322C760.58 381.045 760.141 381.702 759.588 382.255C759.035 382.808 758.378 383.247 757.655 383.547C756.932 383.846 756.157 384 755.375 384H753.083V387.209C753.083 388.303 752.648 389.352 751.875 390.125C751.101 390.899 750.052 391.334 748.958 391.334H732.458C731.364 391.334 730.315 390.899 729.541 390.125C728.768 389.352 728.333 388.303 728.333 387.209V360.625ZM750.333 364.75H731.083V387.209C731.083 387.968 731.699 388.584 732.458 388.584H748.958C749.323 388.584 749.672 388.439 749.93 388.181C750.188 387.923 750.333 387.573 750.333 387.209V364.75ZM753.083 381.25H755.375C756.226 381.25 757.042 380.912 757.643 380.311C758.245 379.709 758.583 378.893 758.583 378.042V367.959C758.583 367.108 758.245 366.292 757.643 365.69C757.042 365.088 756.226 364.75 755.375 364.75H753.083V381.25ZM750.333 360.625C750.333 359.774 749.995 358.958 749.393 358.357C748.792 357.755 747.976 357.417 747.125 357.417H734.291C733.44 357.417 732.624 357.755 732.023 358.357C731.421 358.958 731.083 359.774 731.083 360.625V362H750.333V360.625Z" fill="#B7B7B7"/>
<path d="M806.5 392.5H817.5M812 392.5V383.834M800.083 367.12C800.083 366.485 800.089 366.349 800.107 366.26C800.145 366.061 800.23 365.879 800.352 365.735C800.474 365.591 800.628 365.491 800.796 365.445C800.87 365.423 800.987 365.417 801.524 365.417H822.475C823.013 365.417 823.128 365.423 823.203 365.445C823.372 365.49 823.526 365.591 823.648 365.735C823.77 365.879 823.856 366.061 823.894 366.26C823.911 366.346 823.916 366.485 823.916 367.12V368.667C823.916 370.714 823.915 371.633 823.83 372.389C823.54 374.99 822.533 377.405 820.963 379.26C819.394 381.115 817.35 382.306 815.149 382.648C814.508 382.748 813.732 382.75 812 382.75C810.267 382.75 809.49 382.748 808.85 382.648C806.649 382.306 804.606 381.115 803.036 379.26C801.467 377.405 800.459 374.99 800.169 372.389C800.085 371.631 800.083 370.714 800.083 368.667V367.12Z" stroke="#B7B7B7" stroke-width="3" stroke-linecap="round"/>
<path d="M811.12 372.704C811.069 372.973 811.107 373.256 811.226 373.494C811.346 373.732 811.538 373.906 811.763 373.982C811.988 374.058 812.229 374.029 812.436 373.902C812.644 373.775 812.803 373.558 812.88 373.297L811.12 372.704ZM812.882 373.297L816.053 360.176L814.291 359.58L811.12 372.704L812.882 373.297ZM817.678 358.05L825.174 354.506L824.492 352.495L816.996 356.038L817.678 358.05ZM816.053 360.176C816.321 359.071 816.392 358.867 816.502 358.724L815.14 357.273C814.68 357.877 814.51 358.679 814.291 359.58L816.053 360.176ZM816.996 356.038C816.259 356.386 815.602 356.67 815.14 357.273L816.502 358.724C816.612 358.581 816.774 358.477 817.676 358.05L816.996 356.038Z" fill="#B7B7B7"/>
<path d="M888.922 368.765C888.959 368.482 888.888 368.195 888.722 367.965C888.556 367.734 888.309 367.58 888.033 367.533C887.757 367.486 887.474 367.55 887.245 367.713C887.015 367.876 886.856 368.124 886.802 368.405C886.618 369.533 886.095 370.574 885.306 371.384C884.517 372.194 883.501 372.732 882.399 372.923C882.118 372.972 881.867 373.133 881.702 373.371C881.537 373.609 881.471 373.904 881.518 374.192C881.566 374.479 881.723 374.736 881.956 374.905C882.188 375.074 882.477 375.141 882.758 375.093C884.301 374.825 885.723 374.071 886.828 372.937C887.933 371.803 888.665 370.345 888.922 368.765ZM871.825 355.4C871.54 355.4 871.266 355.516 871.065 355.723C870.863 355.929 870.75 356.209 870.75 356.5V368.6C870.75 371.327 871.74 373.957 873.528 375.979C875.315 378.002 877.773 379.273 880.425 379.545V388.4H876.125C875.84 388.4 875.566 388.516 875.365 388.723C875.163 388.929 875.05 389.209 875.05 389.5C875.05 389.792 875.163 390.072 875.365 390.278C875.566 390.484 875.84 390.6 876.125 390.6H886.875C887.16 390.6 887.434 390.484 887.635 390.278C887.837 390.072 887.95 389.792 887.95 389.5C887.95 389.209 887.837 388.929 887.635 388.723C887.434 388.516 887.16 388.4 886.875 388.4H882.575V379.545C885.227 379.273 887.685 378.002 889.472 375.979C891.26 373.957 892.25 371.327 892.25 368.6V356.5C892.25 356.209 892.137 355.929 891.935 355.723C891.734 355.516 891.46 355.4 891.175 355.4H871.825ZM872.9 363.1V357.6H890.1V363.1H872.9ZM872.9 365.3H890.1V368.6C890.1 370.934 889.194 373.173 887.581 374.823C885.968 376.473 883.781 377.4 881.5 377.4C879.219 377.4 877.032 376.473 875.419 374.823C873.806 373.173 872.9 370.934 872.9 368.6V365.3Z" fill="#B7B7B7"/>
<g clip-path="url(#clip0_336_521)">
<path d="M963.842 348.373L956.099 348.373C955.736 348.373 955.388 348.518 955.131 348.774C954.874 349.031 954.73 349.38 954.73 349.743C954.73 350.106 954.874 350.454 955.131 350.711C955.388 350.968 955.736 351.112 956.099 351.112L956.456 351.111L954.788 362.792L951.09 368.341C950.94 368.566 950.859 368.829 950.858 369.099L950.856 389.262C950.856 390.351 951.289 391.395 952.059 392.165C952.829 392.935 953.873 393.368 954.962 393.368L964.979 393.368C966.068 393.368 967.113 392.935 967.883 392.165C968.653 391.395 969.085 390.351 969.085 389.262L969.086 369.103C969.086 368.833 969.006 368.569 968.855 368.344L965.157 362.795L963.489 351.115L963.846 351.116C964.025 351.116 964.204 351.08 964.37 351.012C964.536 350.943 964.687 350.842 964.814 350.715C964.941 350.588 965.042 350.437 965.111 350.27C965.18 350.104 965.215 349.926 965.215 349.746C965.215 349.566 965.18 349.388 965.111 349.222C965.042 349.056 964.941 348.905 964.814 348.778C964.687 348.651 964.536 348.55 964.37 348.481C964.204 348.412 964.025 348.377 963.846 348.377L963.842 348.373ZM953.596 374.339L966.345 374.339L966.345 385.152L953.596 385.152V374.339ZM965.943 390.226C965.817 390.353 965.666 390.454 965.5 390.523C965.334 390.592 965.156 390.627 964.977 390.626L954.965 390.626C954.602 390.626 954.254 390.482 953.997 390.226C953.741 389.969 953.596 389.621 953.596 389.258V387.889L966.345 387.889L966.341 389.262C966.341 389.623 966.198 389.97 965.943 390.226ZM962.487 363.486C962.516 363.688 962.59 363.881 962.704 364.051L966.345 369.514V371.602L953.596 371.602L953.596 369.514L957.238 364.051C957.352 363.881 957.426 363.688 957.454 363.486L959.222 351.111L960.72 351.111L962.487 363.486Z" fill="#B7B7B7"/>
</g>
<path d="M1045.59 368.765C1045.63 368.482 1045.56 368.195 1045.39 367.965C1045.22 367.734 1044.97 367.58 1044.68 367.533C1044.4 367.486 1044.11 367.55 1043.88 367.713C1043.64 367.876 1043.48 368.124 1043.43 368.405C1043.24 369.533 1042.7 370.574 1041.89 371.384C1041.09 372.194 1040.05 372.732 1038.92 372.923C1038.63 372.972 1038.38 373.133 1038.21 373.371C1038.04 373.609 1037.97 373.904 1038.02 374.192C1038.07 374.479 1038.23 374.736 1038.47 374.905C1038.7 375.074 1039 375.141 1039.29 375.093C1040.87 374.825 1042.32 374.071 1043.45 372.937C1044.58 371.803 1045.33 370.345 1045.59 368.765ZM1028.1 355.4C1027.81 355.4 1027.53 355.516 1027.32 355.723C1027.12 355.929 1027 356.209 1027 356.5V368.6C1027 371.327 1028.01 373.957 1029.84 375.979C1031.67 378.002 1034.19 379.273 1036.9 379.545V388.4H1032.5C1032.21 388.4 1031.93 388.516 1031.72 388.723C1031.52 388.929 1031.4 389.209 1031.4 389.5C1031.4 389.792 1031.52 390.072 1031.72 390.278C1031.93 390.484 1032.21 390.6 1032.5 390.6H1043.5C1043.79 390.6 1044.07 390.484 1044.28 390.278C1044.48 390.072 1044.6 389.792 1044.6 389.5C1044.6 389.209 1044.48 388.929 1044.28 388.723C1044.07 388.516 1043.79 388.4 1043.5 388.4H1039.1V379.545C1041.81 379.273 1044.33 378.002 1046.16 375.979C1047.99 373.957 1049 371.327 1049 368.6V356.5C1049 356.209 1048.88 355.929 1048.68 355.723C1048.47 355.516 1048.19 355.4 1047.9 355.4H1028.1ZM1029.2 363.1V357.6H1046.8V363.1H1029.2ZM1029.2 365.3H1046.8V368.6C1046.8 370.934 1045.87 373.173 1044.22 374.823C1042.57 376.473 1040.33 377.4 1038 377.4C1035.67 377.4 1033.43 376.473 1031.78 374.823C1030.13 373.173 1029.2 370.934 1029.2 368.6V365.3Z" fill="#B7B7B7"/>
<path d="M1113.5 392.5H1102.5M1108 392.5V383.834M1119.92 367.12C1119.92 366.485 1119.91 366.349 1119.89 366.26C1119.85 366.061 1119.77 365.879 1119.65 365.735C1119.53 365.591 1119.37 365.491 1119.2 365.445C1119.13 365.423 1119.01 365.417 1118.48 365.417H1097.52C1096.99 365.417 1096.87 365.423 1096.8 365.445C1096.63 365.49 1096.47 365.591 1096.35 365.735C1096.23 365.879 1096.14 366.061 1096.11 366.26C1096.09 366.346 1096.08 366.485 1096.08 367.12V368.667C1096.08 370.714 1096.09 371.633 1096.17 372.389C1096.46 374.99 1097.47 377.405 1099.04 379.26C1100.61 381.115 1102.65 382.306 1104.85 382.648C1105.49 382.748 1106.27 382.75 1108 382.75C1109.73 382.75 1110.51 382.748 1111.15 382.648C1113.35 382.306 1115.39 381.115 1116.96 379.26C1118.53 377.405 1119.54 374.99 1119.83 372.389C1119.92 371.631 1119.92 370.714 1119.92 368.667V367.12Z" stroke="#B7B7B7" stroke-width="3" stroke-linecap="round"/>
<path d="M1108.88 372.704C1108.93 372.973 1108.89 373.256 1108.77 373.494C1108.65 373.732 1108.46 373.906 1108.24 373.982C1108.01 374.058 1107.77 374.029 1107.56 373.902C1107.36 373.775 1107.2 373.558 1107.12 373.297L1108.88 372.704ZM1107.12 373.297L1103.95 360.176L1105.71 359.58L1108.88 372.704L1107.12 373.297ZM1102.32 358.05L1094.83 354.506L1095.51 352.495L1103 356.038L1102.32 358.05ZM1103.95 360.176C1103.68 359.071 1103.61 358.867 1103.5 358.724L1104.86 357.273C1105.32 357.877 1105.49 358.679 1105.71 359.58L1103.95 360.176ZM1103 356.038C1103.74 356.386 1104.4 356.67 1104.86 357.273L1103.5 358.724C1103.39 358.581 1103.23 358.477 1102.32 358.05L1103 356.038Z" fill="#B7B7B7"/>
<path d="M1183.42 369.334C1183.42 368.969 1183.56 368.619 1183.82 368.361C1184.08 368.104 1184.43 367.959 1184.79 367.959C1185.16 367.959 1185.51 368.104 1185.76 368.361C1186.02 368.619 1186.17 368.969 1186.17 369.334V382.167C1186.17 382.532 1186.02 382.881 1185.76 383.139C1185.51 383.397 1185.16 383.542 1184.79 383.542C1184.43 383.542 1184.08 383.397 1183.82 383.139C1183.56 382.881 1183.42 382.532 1183.42 382.167V369.334ZM1177.92 369.334C1177.92 368.969 1178.06 368.619 1178.32 368.361C1178.58 368.104 1178.93 367.959 1179.29 367.959C1179.66 367.959 1180.01 368.104 1180.26 368.361C1180.52 368.619 1180.67 368.969 1180.67 369.334V382.167C1180.67 382.532 1180.52 382.881 1180.26 383.139C1180.01 383.397 1179.66 383.542 1179.29 383.542C1178.93 383.542 1178.58 383.397 1178.32 383.139C1178.06 382.881 1177.92 382.532 1177.92 382.167V369.334ZM1172.42 369.334C1172.42 368.969 1172.56 368.619 1172.82 368.361C1173.08 368.104 1173.43 367.959 1173.79 367.959C1174.16 367.959 1174.51 368.104 1174.76 368.361C1175.02 368.619 1175.17 368.969 1175.17 369.334V382.167C1175.17 382.532 1175.02 382.881 1174.76 383.139C1174.51 383.397 1174.16 383.542 1173.79 383.542C1173.43 383.542 1173.08 383.397 1172.82 383.139C1172.56 382.881 1172.42 382.532 1172.42 382.167V369.334ZM1191.67 360.625C1191.67 359.045 1191.04 357.53 1189.92 356.412C1188.8 355.295 1187.29 354.667 1185.71 354.667H1172.88C1171.3 354.667 1169.78 355.295 1168.66 356.412C1167.54 357.53 1166.92 359.045 1166.92 360.625V362H1164.63C1163.84 362 1163.07 362.154 1162.35 362.454C1161.62 362.753 1160.97 363.192 1160.41 363.745C1159.86 364.299 1159.42 364.956 1159.12 365.679C1158.82 366.401 1158.67 367.176 1158.67 367.959V378.042C1158.67 378.824 1158.82 379.599 1159.12 380.322C1159.42 381.045 1159.86 381.702 1160.41 382.255C1160.97 382.808 1161.62 383.247 1162.35 383.547C1163.07 383.846 1163.84 384 1164.63 384H1166.92V387.209C1166.92 388.303 1167.35 389.352 1168.13 390.125C1168.9 390.899 1169.95 391.334 1171.04 391.334H1187.54C1188.64 391.334 1189.69 390.899 1190.46 390.125C1191.23 389.352 1191.67 388.303 1191.67 387.209V360.625ZM1169.67 364.75H1188.92V387.209C1188.92 387.968 1188.3 388.584 1187.54 388.584H1171.04C1170.68 388.584 1170.33 388.439 1170.07 388.181C1169.81 387.923 1169.67 387.573 1169.67 387.209V364.75ZM1166.92 381.25H1164.63C1163.77 381.25 1162.96 380.912 1162.36 380.311C1161.76 379.709 1161.42 378.893 1161.42 378.042V367.959C1161.42 367.108 1161.76 366.292 1162.36 365.69C1162.96 365.088 1163.77 364.75 1164.63 364.75H1166.92V381.25ZM1169.67 360.625C1169.67 359.774 1170.01 358.958 1170.61 358.357C1171.21 357.755 1172.02 357.417 1172.88 357.417H1185.71C1186.56 357.417 1187.38 357.755 1187.98 358.357C1188.58 358.958 1188.92 359.774 1188.92 360.625V362H1169.67V360.625Z" fill="#B7B7B7"/>
<defs>
<clipPath id="clip0_336_521">
<rect width="43.7992" height="43.7992" fill="white" transform="translate(929 372.971) rotate(-45)"/>
</clipPath>
</defs>
</svg>
