<svg width="1024" height="187" viewBox="0 0 1024 187" fill="none" xmlns="http://www.w3.org/2000/svg">
<g clip-path="url(#clip0_121_2)">
<rect width="1024" height="187" fill="white"/>
<rect width="1024" height="187" fill="#080808"/>
<path d="M304.293 110.703C304.293 110.882 304.285 111.045 304.269 111.191C304.252 111.338 304.228 111.468 304.195 111.582C304.163 111.696 304.114 111.802 304.049 111.899C304 111.997 303.894 112.127 303.731 112.29C303.585 112.437 303.251 112.689 302.73 113.047C302.21 113.389 301.55 113.73 300.753 114.072C299.972 114.414 299.068 114.707 298.043 114.951C297.018 115.195 295.886 115.317 294.649 115.317C292.664 115.317 290.865 114.976 289.254 114.292C287.643 113.592 286.267 112.575 285.128 111.24C284.005 109.906 283.134 108.262 282.516 106.309C281.913 104.355 281.612 102.126 281.612 99.6191C281.612 97.0475 281.938 94.7445 282.589 92.71C283.24 90.6592 284.151 88.9258 285.323 87.5098C286.511 86.0775 287.927 84.987 289.571 84.2383C291.231 83.4733 293.062 83.0908 295.064 83.0908C296.008 83.0908 296.92 83.1803 297.799 83.3594C298.694 83.5384 299.516 83.7663 300.265 84.043C301.013 84.3197 301.681 84.637 302.267 84.9951C302.869 85.3532 303.276 85.6462 303.487 85.874C303.715 86.0856 303.854 86.2402 303.902 86.3379C303.967 86.4355 304.016 86.5495 304.049 86.6797C304.081 86.7936 304.106 86.932 304.122 87.0947C304.138 87.2412 304.146 87.4121 304.146 87.6074C304.146 87.8353 304.13 88.0387 304.098 88.2178C304.081 88.3805 304.041 88.527 303.976 88.6572C303.927 88.7712 303.862 88.8607 303.78 88.9258C303.699 88.9909 303.601 89.0234 303.487 89.0234C303.259 89.0234 302.934 88.8607 302.511 88.5352C302.104 88.1934 301.559 87.819 300.875 87.4121C300.208 87.0052 299.386 86.639 298.409 86.3135C297.433 85.9717 296.269 85.8008 294.918 85.8008C293.437 85.8008 292.078 86.1019 290.841 86.7041C289.604 87.29 288.538 88.1608 287.643 89.3164C286.764 90.472 286.072 91.8962 285.567 93.5889C285.079 95.2816 284.835 97.2266 284.835 99.4238C284.835 101.523 285.063 103.387 285.519 105.015C285.974 106.642 286.633 108.018 287.496 109.141C288.359 110.247 289.425 111.094 290.694 111.68C291.964 112.266 293.404 112.559 295.016 112.559C296.334 112.559 297.481 112.396 298.458 112.07C299.451 111.729 300.297 111.354 300.997 110.947C301.697 110.54 302.267 110.174 302.706 109.849C303.162 109.507 303.512 109.336 303.756 109.336C303.854 109.336 303.935 109.36 304 109.409C304.065 109.442 304.114 109.515 304.146 109.629C304.195 109.727 304.228 109.865 304.244 110.044C304.277 110.223 304.293 110.443 304.293 110.703ZM327.657 114.512C327.657 114.609 327.633 114.699 327.584 114.78C327.551 114.862 327.478 114.927 327.364 114.976C327.25 115.024 327.104 115.065 326.925 115.098C326.746 115.13 326.526 115.146 326.266 115.146C325.973 115.146 325.737 115.13 325.558 115.098C325.379 115.065 325.24 115.024 325.143 114.976C325.045 114.927 324.972 114.862 324.923 114.78C324.89 114.699 324.874 114.609 324.874 114.512V111.387C323.604 112.803 322.359 113.828 321.139 114.463C319.934 115.098 318.73 115.415 317.525 115.415C316.077 115.415 314.856 115.171 313.863 114.683C312.87 114.194 312.065 113.535 311.446 112.705C310.844 111.859 310.405 110.882 310.128 109.775C309.868 108.669 309.737 107.334 309.737 105.771V92.417C309.737 92.3193 309.754 92.2298 309.786 92.1484C309.835 92.0671 309.916 92.002 310.03 91.9531C310.144 91.888 310.291 91.8473 310.47 91.8311C310.665 91.7985 310.901 91.7822 311.178 91.7822C311.471 91.7822 311.707 91.7985 311.886 91.8311C312.081 91.8473 312.228 91.888 312.325 91.9531C312.439 92.002 312.521 92.0671 312.569 92.1484C312.618 92.2298 312.643 92.3193 312.643 92.417V105.503C312.643 106.87 312.748 107.985 312.96 108.848C313.172 109.71 313.489 110.451 313.912 111.069C314.335 111.672 314.872 112.144 315.523 112.485C316.191 112.811 316.964 112.974 317.843 112.974C318.966 112.974 320.081 112.575 321.188 111.777C322.311 110.98 323.499 109.808 324.752 108.262V92.417C324.752 92.3193 324.768 92.2298 324.801 92.1484C324.85 92.0671 324.931 92.002 325.045 91.9531C325.159 91.888 325.305 91.8473 325.484 91.8311C325.68 91.7985 325.924 91.7822 326.217 91.7822C326.493 91.7822 326.721 91.7985 326.9 91.8311C327.096 91.8473 327.242 91.888 327.34 91.9531C327.454 92.002 327.535 92.0671 327.584 92.1484C327.633 92.2298 327.657 92.3193 327.657 92.417V114.512ZM348.8 108.628C348.8 109.686 348.604 110.638 348.214 111.484C347.823 112.314 347.262 113.022 346.529 113.608C345.813 114.194 344.951 114.642 343.941 114.951C342.932 115.26 341.817 115.415 340.597 115.415C339.832 115.415 339.107 115.35 338.424 115.22C337.74 115.106 337.122 114.959 336.568 114.78C336.015 114.585 335.543 114.382 335.152 114.17C334.778 113.958 334.501 113.771 334.322 113.608C334.143 113.446 334.013 113.242 333.932 112.998C333.85 112.754 333.81 112.428 333.81 112.021C333.81 111.81 333.826 111.623 333.858 111.46C333.891 111.297 333.932 111.159 333.98 111.045C334.029 110.931 334.094 110.85 334.176 110.801C334.257 110.736 334.347 110.703 334.444 110.703C334.623 110.703 334.884 110.817 335.226 111.045C335.567 111.273 335.991 111.525 336.495 111.802C337.016 112.062 337.626 112.306 338.326 112.534C339.042 112.762 339.864 112.876 340.792 112.876C341.541 112.876 342.224 112.795 342.843 112.632C343.461 112.469 343.998 112.225 344.454 111.899C344.91 111.574 345.26 111.159 345.504 110.654C345.764 110.133 345.895 109.531 345.895 108.848C345.895 108.164 345.732 107.586 345.406 107.114C345.081 106.642 344.649 106.235 344.112 105.894C343.591 105.535 342.989 105.226 342.306 104.966C341.638 104.689 340.947 104.412 340.23 104.136C339.531 103.843 338.839 103.525 338.155 103.184C337.488 102.842 336.886 102.427 336.349 101.938C335.828 101.45 335.405 100.864 335.079 100.181C334.754 99.4971 334.591 98.6751 334.591 97.7148C334.591 96.9499 334.737 96.2012 335.03 95.4688C335.323 94.7201 335.771 94.0527 336.373 93.4668C336.992 92.8809 337.773 92.4089 338.717 92.0508C339.677 91.6927 340.808 91.5137 342.11 91.5137C342.664 91.5137 343.209 91.5625 343.746 91.6602C344.299 91.7415 344.796 91.8555 345.235 92.002C345.691 92.1484 346.082 92.3112 346.407 92.4902C346.733 92.653 346.977 92.7995 347.14 92.9297C347.319 93.0599 347.433 93.1738 347.481 93.2715C347.547 93.3529 347.587 93.4424 347.604 93.54C347.636 93.6377 347.66 93.7598 347.677 93.9062C347.693 94.0365 347.701 94.1992 347.701 94.3945C347.701 94.5898 347.685 94.7689 347.652 94.9316C347.636 95.0781 347.604 95.2083 347.555 95.3223C347.506 95.4362 347.441 95.5257 347.359 95.5908C347.294 95.6396 347.213 95.6641 347.115 95.6641C346.985 95.6641 346.79 95.5745 346.529 95.3955C346.269 95.2165 345.927 95.0212 345.504 94.8096C345.081 94.598 344.576 94.4027 343.99 94.2236C343.404 94.0446 342.729 93.9551 341.964 93.9551C341.199 93.9551 340.523 94.0446 339.938 94.2236C339.368 94.4027 338.896 94.6549 338.521 94.9805C338.147 95.306 337.862 95.6885 337.667 96.1279C337.488 96.5674 337.398 97.0475 337.398 97.5684C337.398 98.2845 337.561 98.8867 337.887 99.375C338.212 99.8633 338.644 100.286 339.181 100.645C339.718 101.003 340.328 101.32 341.012 101.597C341.695 101.873 342.387 102.15 343.087 102.427C343.803 102.703 344.503 103.013 345.187 103.354C345.87 103.68 346.48 104.079 347.018 104.551C347.555 105.023 347.986 105.592 348.312 106.26C348.637 106.911 348.8 107.7 348.8 108.628ZM365.157 113.193C365.157 113.535 365.125 113.812 365.06 114.023C365.011 114.235 364.921 114.406 364.791 114.536C364.677 114.65 364.498 114.764 364.254 114.878C364.026 114.976 363.757 115.057 363.448 115.122C363.139 115.203 362.813 115.26 362.472 115.293C362.13 115.342 361.796 115.366 361.471 115.366C360.38 115.366 359.452 115.22 358.688 114.927C357.923 114.634 357.296 114.194 356.808 113.608C356.319 113.006 355.961 112.249 355.733 111.338C355.522 110.426 355.416 109.352 355.416 108.115V94.3701H352.12C351.892 94.3701 351.713 94.2725 351.583 94.0771C351.453 93.8656 351.388 93.5563 351.388 93.1494C351.388 92.9378 351.404 92.7588 351.437 92.6123C351.469 92.4495 351.518 92.3193 351.583 92.2217C351.648 92.1077 351.721 92.0264 351.803 91.9775C351.9 91.9287 352.006 91.9043 352.12 91.9043H355.416V86.4844C355.416 86.3867 355.432 86.2972 355.465 86.2158C355.514 86.1344 355.595 86.0693 355.709 86.0205C355.823 85.9554 355.969 85.9147 356.148 85.8984C356.344 85.8659 356.58 85.8496 356.856 85.8496C357.149 85.8496 357.385 85.8659 357.564 85.8984C357.76 85.9147 357.906 85.9554 358.004 86.0205C358.118 86.0693 358.199 86.1344 358.248 86.2158C358.297 86.2972 358.321 86.3867 358.321 86.4844V91.9043H364.425C364.539 91.9043 364.636 91.9287 364.718 91.9775C364.815 92.0264 364.897 92.1077 364.962 92.2217C365.027 92.3193 365.076 92.4495 365.108 92.6123C365.141 92.7588 365.157 92.9378 365.157 93.1494C365.157 93.5563 365.084 93.8656 364.938 94.0771C364.807 94.2725 364.636 94.3701 364.425 94.3701H358.321V107.725C358.321 109.401 358.557 110.679 359.029 111.558C359.518 112.437 360.396 112.876 361.666 112.876C362.057 112.876 362.407 112.835 362.716 112.754C363.041 112.673 363.326 112.583 363.57 112.485C363.814 112.388 364.018 112.298 364.181 112.217C364.36 112.135 364.514 112.095 364.645 112.095C364.726 112.095 364.799 112.111 364.864 112.144C364.929 112.176 364.978 112.241 365.011 112.339C365.06 112.42 365.092 112.534 365.108 112.681C365.141 112.811 365.157 112.982 365.157 113.193ZM390.035 103.232C390.035 104.99 389.807 106.61 389.352 108.091C388.896 109.572 388.212 110.858 387.301 111.948C386.406 113.039 385.283 113.893 383.932 114.512C382.581 115.114 381.01 115.415 379.22 115.415C377.494 115.415 375.981 115.146 374.679 114.609C373.393 114.056 372.311 113.275 371.432 112.266C370.569 111.24 369.918 110.003 369.479 108.555C369.055 107.106 368.844 105.47 368.844 103.647C368.844 101.89 369.063 100.27 369.503 98.7891C369.959 97.3079 370.634 96.0303 371.529 94.9561C372.441 93.8656 373.572 93.0192 374.923 92.417C376.274 91.8148 377.853 91.5137 379.659 91.5137C381.384 91.5137 382.89 91.7822 384.176 92.3193C385.478 92.8564 386.56 93.6377 387.423 94.6631C388.285 95.6722 388.937 96.901 389.376 98.3496C389.815 99.7982 390.035 101.426 390.035 103.232ZM386.959 103.501C386.959 102.248 386.837 101.051 386.593 99.9121C386.349 98.7728 385.942 97.7718 385.372 96.9092C384.802 96.0303 384.037 95.3385 383.077 94.834C382.117 94.3132 380.921 94.0527 379.488 94.0527C378.17 94.0527 377.031 94.2887 376.07 94.7607C375.11 95.2327 374.321 95.8919 373.702 96.7383C373.1 97.5684 372.652 98.5531 372.359 99.6924C372.066 100.832 371.92 102.061 371.92 103.379C371.92 104.648 372.042 105.861 372.286 107.017C372.53 108.156 372.937 109.157 373.507 110.02C374.076 110.882 374.841 111.566 375.802 112.07C376.762 112.575 377.958 112.827 379.391 112.827C380.709 112.827 381.848 112.591 382.809 112.119C383.769 111.647 384.55 110.996 385.152 110.166C385.771 109.336 386.227 108.351 386.52 107.212C386.812 106.073 386.959 104.836 386.959 103.501ZM428.048 114.512C428.048 114.609 428.023 114.699 427.975 114.78C427.926 114.862 427.844 114.927 427.73 114.976C427.633 115.024 427.486 115.065 427.291 115.098C427.112 115.13 426.884 115.146 426.607 115.146C426.314 115.146 426.07 115.13 425.875 115.098C425.696 115.065 425.549 115.024 425.436 114.976C425.322 114.927 425.24 114.862 425.191 114.78C425.159 114.699 425.143 114.609 425.143 114.512V100.913C425.143 99.8714 425.045 98.9274 424.85 98.0811C424.671 97.2184 424.378 96.486 423.971 95.8838C423.58 95.2653 423.076 94.7933 422.457 94.4678C421.855 94.126 421.139 93.9551 420.309 93.9551C419.283 93.9551 418.242 94.3538 417.184 95.1514C416.142 95.9489 414.994 97.1208 413.741 98.667V114.512C413.741 114.609 413.717 114.699 413.668 114.78C413.619 114.862 413.538 114.927 413.424 114.976C413.326 115.024 413.18 115.065 412.984 115.098C412.805 115.13 412.577 115.146 412.301 115.146C412.024 115.146 411.788 115.13 411.593 115.098C411.414 115.065 411.267 115.024 411.153 114.976C411.039 114.927 410.958 114.862 410.909 114.78C410.877 114.699 410.86 114.609 410.86 114.512V100.913C410.86 99.8714 410.763 98.9274 410.567 98.0811C410.372 97.2184 410.071 96.486 409.664 95.8838C409.273 95.2653 408.769 94.7933 408.15 94.4678C407.548 94.126 406.832 93.9551 406.002 93.9551C404.977 93.9551 403.935 94.3538 402.877 95.1514C401.835 95.9489 400.696 97.1208 399.459 98.667V114.512C399.459 114.609 399.435 114.699 399.386 114.78C399.337 114.862 399.256 114.927 399.142 114.976C399.044 115.024 398.897 115.065 398.702 115.098C398.523 115.13 398.287 115.146 397.994 115.146C397.717 115.146 397.481 115.13 397.286 115.098C397.107 115.065 396.961 115.024 396.847 114.976C396.733 114.927 396.651 114.862 396.603 114.78C396.57 114.699 396.554 114.609 396.554 114.512V92.417C396.554 92.3193 396.57 92.2298 396.603 92.1484C396.651 92.0671 396.733 92.002 396.847 91.9531C396.961 91.888 397.099 91.8473 397.262 91.8311C397.441 91.7985 397.669 91.7822 397.945 91.7822C398.222 91.7822 398.45 91.7985 398.629 91.8311C398.808 91.8473 398.946 91.888 399.044 91.9531C399.142 92.002 399.207 92.0671 399.239 92.1484C399.288 92.2298 399.312 92.3193 399.312 92.417V95.542C400.582 94.126 401.786 93.1006 402.926 92.4658C404.065 91.8311 405.196 91.5137 406.319 91.5137C407.247 91.5137 408.069 91.6276 408.785 91.8555C409.518 92.0671 410.16 92.3763 410.714 92.7832C411.267 93.1738 411.739 93.6458 412.13 94.1992C412.521 94.7526 412.838 95.363 413.082 96.0303C413.847 95.1839 414.563 94.4759 415.23 93.9062C415.914 93.3203 416.557 92.8564 417.159 92.5146C417.778 92.1566 418.372 91.9043 418.941 91.7578C419.511 91.5951 420.073 91.5137 420.626 91.5137C422.009 91.5137 423.173 91.7578 424.117 92.2461C425.077 92.7344 425.842 93.3936 426.412 94.2236C426.998 95.0537 427.413 96.0221 427.657 97.1289C427.918 98.2357 428.048 99.4076 428.048 100.645V114.512ZM454.122 102.329C454.122 102.915 453.967 103.322 453.658 103.55C453.349 103.761 453.048 103.867 452.755 103.867H437.691C437.691 105.234 437.822 106.471 438.082 107.578C438.359 108.685 438.806 109.637 439.425 110.435C440.043 111.216 440.849 111.818 441.842 112.241C442.835 112.664 444.055 112.876 445.504 112.876C446.529 112.876 447.449 112.786 448.263 112.607C449.076 112.428 449.776 112.233 450.362 112.021C450.965 111.794 451.453 111.59 451.827 111.411C452.218 111.232 452.494 111.143 452.657 111.143C452.755 111.143 452.844 111.167 452.926 111.216C453.007 111.265 453.072 111.346 453.121 111.46C453.17 111.558 453.202 111.688 453.219 111.851C453.251 112.013 453.268 112.217 453.268 112.461C453.268 112.575 453.259 112.689 453.243 112.803C453.227 112.9 453.202 112.998 453.17 113.096C453.154 113.177 453.121 113.258 453.072 113.34C453.023 113.421 452.958 113.503 452.877 113.584C452.796 113.665 452.543 113.812 452.12 114.023C451.697 114.219 451.144 114.422 450.46 114.634C449.776 114.829 448.979 115.008 448.067 115.171C447.172 115.334 446.204 115.415 445.162 115.415C443.453 115.415 441.939 115.163 440.621 114.658C439.303 114.137 438.196 113.381 437.301 112.388C436.406 111.379 435.722 110.133 435.25 108.652C434.794 107.171 434.566 105.454 434.566 103.501C434.566 101.629 434.802 99.9528 435.274 98.4717C435.763 96.9906 436.454 95.7373 437.35 94.7119C438.245 93.6702 439.319 92.8809 440.572 92.3438C441.842 91.7904 443.25 91.5137 444.796 91.5137C446.456 91.5137 447.872 91.7904 449.044 92.3438C450.216 92.8971 451.176 93.6458 451.925 94.5898C452.69 95.5176 453.243 96.5999 453.585 97.8369C453.943 99.0739 454.122 100.376 454.122 101.743V102.329ZM451.119 101.475C451.168 99.1309 450.631 97.2998 449.508 95.9814C448.385 94.6631 446.749 94.0039 444.601 94.0039C443.494 94.0039 442.517 94.2155 441.671 94.6387C440.841 95.0456 440.133 95.5908 439.547 96.2744C438.977 96.958 438.538 97.7555 438.229 98.667C437.919 99.5622 437.74 100.498 437.691 101.475H451.119ZM473.067 93.54C473.067 93.7842 473.059 93.9958 473.043 94.1748C473.027 94.3376 472.994 94.4759 472.945 94.5898C472.913 94.6875 472.864 94.7689 472.799 94.834C472.75 94.8828 472.677 94.9072 472.579 94.9072C472.433 94.9072 472.262 94.8747 472.066 94.8096C471.871 94.7282 471.643 94.6468 471.383 94.5654C471.122 94.484 470.838 94.4108 470.528 94.3457C470.219 94.2643 469.877 94.2236 469.503 94.2236C469.063 94.2236 468.632 94.3213 468.209 94.5166C467.786 94.6956 467.338 94.9967 466.866 95.4199C466.41 95.8268 465.922 96.3721 465.401 97.0557C464.897 97.7393 464.335 98.5775 463.717 99.5703V114.512C463.717 114.609 463.692 114.699 463.644 114.78C463.595 114.862 463.513 114.927 463.399 114.976C463.302 115.024 463.155 115.065 462.96 115.098C462.781 115.13 462.545 115.146 462.252 115.146C461.975 115.146 461.739 115.13 461.544 115.098C461.365 115.065 461.218 115.024 461.104 114.976C460.991 114.927 460.909 114.862 460.86 114.78C460.828 114.699 460.812 114.609 460.812 114.512V92.417C460.812 92.3193 460.828 92.2298 460.86 92.1484C460.909 92.0671 460.991 92.002 461.104 91.9531C461.218 91.888 461.357 91.8473 461.52 91.8311C461.699 91.7985 461.926 91.7822 462.203 91.7822C462.48 91.7822 462.708 91.7985 462.887 91.8311C463.066 91.8473 463.204 91.888 463.302 91.9531C463.399 92.002 463.465 92.0671 463.497 92.1484C463.546 92.2298 463.57 92.3193 463.57 92.417V95.9082C464.205 94.9805 464.791 94.2318 465.328 93.6621C465.865 93.0924 466.378 92.653 466.866 92.3438C467.354 92.0182 467.826 91.7985 468.282 91.6846C468.754 91.5706 469.234 91.5137 469.723 91.5137C469.934 91.5137 470.178 91.5299 470.455 91.5625C470.732 91.5788 471.025 91.6195 471.334 91.6846C471.66 91.7497 471.944 91.8311 472.188 91.9287C472.449 92.0101 472.628 92.0915 472.726 92.1729C472.823 92.238 472.888 92.3031 472.921 92.3682C472.953 92.417 472.978 92.4902 472.994 92.5879C473.027 92.6693 473.043 92.7913 473.043 92.9541C473.059 93.1006 473.067 93.2959 473.067 93.54ZM496.383 107.48C496.383 108.652 496.277 109.727 496.065 110.703C495.87 111.68 495.52 112.518 495.016 113.218C494.511 113.918 493.844 114.463 493.014 114.854C492.184 115.228 491.15 115.415 489.913 115.415C489.474 115.415 489.042 115.374 488.619 115.293C488.196 115.212 487.805 115.114 487.447 115C487.089 114.87 486.772 114.74 486.495 114.609C486.235 114.463 486.056 114.341 485.958 114.243C485.877 114.146 485.812 114.056 485.763 113.975C485.714 113.893 485.665 113.796 485.616 113.682C485.584 113.568 485.559 113.429 485.543 113.267C485.527 113.104 485.519 112.909 485.519 112.681C485.519 112.437 485.535 112.233 485.567 112.07C485.6 111.908 485.641 111.785 485.689 111.704C485.755 111.606 485.828 111.541 485.909 111.509C485.991 111.46 486.088 111.436 486.202 111.436C486.332 111.436 486.503 111.509 486.715 111.655C486.926 111.785 487.179 111.932 487.472 112.095C487.781 112.241 488.139 112.388 488.546 112.534C488.953 112.664 489.425 112.729 489.962 112.729C490.564 112.729 491.077 112.656 491.5 112.51C491.939 112.363 492.298 112.078 492.574 111.655C492.851 111.232 493.054 110.654 493.185 109.922C493.331 109.173 493.404 108.197 493.404 106.992V83.8965C493.404 83.7988 493.429 83.7093 493.478 83.6279C493.526 83.5465 493.608 83.4814 493.722 83.4326C493.836 83.3838 493.99 83.3431 494.186 83.3105C494.381 83.278 494.617 83.2617 494.894 83.2617C495.17 83.2617 495.406 83.278 495.602 83.3105C495.797 83.3431 495.951 83.3838 496.065 83.4326C496.179 83.4814 496.261 83.5465 496.31 83.6279C496.358 83.7093 496.383 83.7988 496.383 83.8965V107.48ZM524.557 103.232C524.557 104.99 524.329 106.61 523.873 108.091C523.417 109.572 522.734 110.858 521.822 111.948C520.927 113.039 519.804 113.893 518.453 114.512C517.102 115.114 515.532 115.415 513.741 115.415C512.016 115.415 510.502 115.146 509.2 114.609C507.914 114.056 506.832 113.275 505.953 112.266C505.09 111.24 504.439 110.003 504 108.555C503.577 107.106 503.365 105.47 503.365 103.647C503.365 101.89 503.585 100.27 504.024 98.7891C504.48 97.3079 505.156 96.0303 506.051 94.9561C506.962 93.8656 508.093 93.0192 509.444 92.417C510.795 91.8148 512.374 91.5137 514.181 91.5137C515.906 91.5137 517.411 91.7822 518.697 92.3193C519.999 92.8564 521.082 93.6377 521.944 94.6631C522.807 95.6722 523.458 96.901 523.897 98.3496C524.337 99.7982 524.557 101.426 524.557 103.232ZM521.48 103.501C521.48 102.248 521.358 101.051 521.114 99.9121C520.87 98.7728 520.463 97.7718 519.894 96.9092C519.324 96.0303 518.559 95.3385 517.599 94.834C516.638 94.3132 515.442 94.0527 514.01 94.0527C512.691 94.0527 511.552 94.2887 510.592 94.7607C509.632 95.2327 508.842 95.8919 508.224 96.7383C507.621 97.5684 507.174 98.5531 506.881 99.6924C506.588 100.832 506.441 102.061 506.441 103.379C506.441 104.648 506.563 105.861 506.808 107.017C507.052 108.156 507.459 109.157 508.028 110.02C508.598 110.882 509.363 111.566 510.323 112.07C511.284 112.575 512.48 112.827 513.912 112.827C515.23 112.827 516.37 112.591 517.33 112.119C518.29 111.647 519.072 110.996 519.674 110.166C520.292 109.336 520.748 108.351 521.041 107.212C521.334 106.073 521.48 104.836 521.48 103.501ZM548.897 114.512C548.897 114.609 548.873 114.699 548.824 114.78C548.792 114.862 548.718 114.927 548.604 114.976C548.491 115.024 548.344 115.065 548.165 115.098C547.986 115.13 547.766 115.146 547.506 115.146C547.213 115.146 546.977 115.13 546.798 115.098C546.619 115.065 546.48 115.024 546.383 114.976C546.285 114.927 546.212 114.862 546.163 114.78C546.131 114.699 546.114 114.609 546.114 114.512V111.387C544.845 112.803 543.6 113.828 542.379 114.463C541.174 115.098 539.97 115.415 538.766 115.415C537.317 115.415 536.096 115.171 535.104 114.683C534.111 114.194 533.305 113.535 532.687 112.705C532.084 111.859 531.645 110.882 531.368 109.775C531.108 108.669 530.978 107.334 530.978 105.771V92.417C530.978 92.3193 530.994 92.2298 531.026 92.1484C531.075 92.0671 531.157 92.002 531.271 91.9531C531.384 91.888 531.531 91.8473 531.71 91.8311C531.905 91.7985 532.141 91.7822 532.418 91.7822C532.711 91.7822 532.947 91.7985 533.126 91.8311C533.321 91.8473 533.468 91.888 533.565 91.9531C533.679 92.002 533.761 92.0671 533.81 92.1484C533.858 92.2298 533.883 92.3193 533.883 92.417V105.503C533.883 106.87 533.989 107.985 534.2 108.848C534.412 109.71 534.729 110.451 535.152 111.069C535.576 111.672 536.113 112.144 536.764 112.485C537.431 112.811 538.204 112.974 539.083 112.974C540.206 112.974 541.321 112.575 542.428 111.777C543.551 110.98 544.739 109.808 545.992 108.262V92.417C545.992 92.3193 546.008 92.2298 546.041 92.1484C546.09 92.0671 546.171 92.002 546.285 91.9531C546.399 91.888 546.546 91.8473 546.725 91.8311C546.92 91.7985 547.164 91.7822 547.457 91.7822C547.734 91.7822 547.962 91.7985 548.141 91.8311C548.336 91.8473 548.482 91.888 548.58 91.9531C548.694 92.002 548.775 92.0671 548.824 92.1484C548.873 92.2298 548.897 92.3193 548.897 92.417V114.512ZM569.308 93.54C569.308 93.7842 569.299 93.9958 569.283 94.1748C569.267 94.3376 569.234 94.4759 569.186 94.5898C569.153 94.6875 569.104 94.7689 569.039 94.834C568.99 94.8828 568.917 94.9072 568.819 94.9072C568.673 94.9072 568.502 94.8747 568.307 94.8096C568.111 94.7282 567.883 94.6468 567.623 94.5654C567.363 94.484 567.078 94.4108 566.769 94.3457C566.459 94.2643 566.118 94.2236 565.743 94.2236C565.304 94.2236 564.872 94.3213 564.449 94.5166C564.026 94.6956 563.578 94.9967 563.106 95.4199C562.651 95.8268 562.162 96.3721 561.642 97.0557C561.137 97.7393 560.576 98.5775 559.957 99.5703V114.512C559.957 114.609 559.933 114.699 559.884 114.78C559.835 114.862 559.754 114.927 559.64 114.976C559.542 115.024 559.396 115.065 559.2 115.098C559.021 115.13 558.785 115.146 558.492 115.146C558.215 115.146 557.979 115.13 557.784 115.098C557.605 115.065 557.459 115.024 557.345 114.976C557.231 114.927 557.149 114.862 557.101 114.78C557.068 114.699 557.052 114.609 557.052 114.512V92.417C557.052 92.3193 557.068 92.2298 557.101 92.1484C557.149 92.0671 557.231 92.002 557.345 91.9531C557.459 91.888 557.597 91.8473 557.76 91.8311C557.939 91.7985 558.167 91.7822 558.443 91.7822C558.72 91.7822 558.948 91.7985 559.127 91.8311C559.306 91.8473 559.444 91.888 559.542 91.9531C559.64 92.002 559.705 92.0671 559.737 92.1484C559.786 92.2298 559.811 92.3193 559.811 92.417V95.9082C560.445 94.9805 561.031 94.2318 561.568 93.6621C562.105 93.0924 562.618 92.653 563.106 92.3438C563.595 92.0182 564.067 91.7985 564.522 91.6846C564.994 91.5706 565.475 91.5137 565.963 91.5137C566.174 91.5137 566.419 91.5299 566.695 91.5625C566.972 91.5788 567.265 91.6195 567.574 91.6846C567.9 91.7497 568.185 91.8311 568.429 91.9287C568.689 92.0101 568.868 92.0915 568.966 92.1729C569.063 92.238 569.129 92.3031 569.161 92.3682C569.194 92.417 569.218 92.4902 569.234 92.5879C569.267 92.6693 569.283 92.7913 569.283 92.9541C569.299 93.1006 569.308 93.2959 569.308 93.54ZM592.208 114.512C592.208 114.609 592.184 114.699 592.135 114.78C592.086 114.862 592.005 114.927 591.891 114.976C591.793 115.024 591.646 115.065 591.451 115.098C591.272 115.13 591.044 115.146 590.768 115.146C590.475 115.146 590.23 115.13 590.035 115.098C589.856 115.065 589.71 115.024 589.596 114.976C589.498 114.927 589.425 114.862 589.376 114.78C589.327 114.699 589.303 114.609 589.303 114.512V101.401C589.303 100.034 589.197 98.9274 588.985 98.0811C588.774 97.2184 588.456 96.486 588.033 95.8838C587.61 95.2653 587.065 94.7933 586.397 94.4678C585.746 94.126 584.981 93.9551 584.103 93.9551C582.979 93.9551 581.856 94.3538 580.733 95.1514C579.61 95.9489 578.43 97.1208 577.193 98.667V114.512C577.193 114.609 577.169 114.699 577.12 114.78C577.071 114.862 576.99 114.927 576.876 114.976C576.778 115.024 576.632 115.065 576.437 115.098C576.257 115.13 576.021 115.146 575.729 115.146C575.452 115.146 575.216 115.13 575.021 115.098C574.841 115.065 574.695 115.024 574.581 114.976C574.467 114.927 574.386 114.862 574.337 114.78C574.304 114.699 574.288 114.609 574.288 114.512V92.417C574.288 92.3193 574.304 92.2298 574.337 92.1484C574.386 92.0671 574.467 92.002 574.581 91.9531C574.695 91.888 574.833 91.8473 574.996 91.8311C575.175 91.7985 575.403 91.7822 575.68 91.7822C575.956 91.7822 576.184 91.7985 576.363 91.8311C576.542 91.8473 576.681 91.888 576.778 91.9531C576.876 92.002 576.941 92.0671 576.974 92.1484C577.022 92.2298 577.047 92.3193 577.047 92.417V95.542C578.316 94.126 579.562 93.1006 580.782 92.4658C582.003 91.8311 583.215 91.5137 584.42 91.5137C585.868 91.5137 587.089 91.7578 588.082 92.2461C589.075 92.7344 589.872 93.3936 590.475 94.2236C591.093 95.0537 591.533 96.0221 591.793 97.1289C592.07 98.2357 592.208 99.5703 592.208 101.133V114.512ZM618.282 102.329C618.282 102.915 618.128 103.322 617.818 103.55C617.509 103.761 617.208 103.867 616.915 103.867H601.852C601.852 105.234 601.982 106.471 602.242 107.578C602.519 108.685 602.966 109.637 603.585 110.435C604.203 111.216 605.009 111.818 606.002 112.241C606.995 112.664 608.215 112.876 609.664 112.876C610.689 112.876 611.609 112.786 612.423 112.607C613.237 112.428 613.937 112.233 614.522 112.021C615.125 111.794 615.613 111.59 615.987 111.411C616.378 111.232 616.655 111.143 616.817 111.143C616.915 111.143 617.005 111.167 617.086 111.216C617.167 111.265 617.232 111.346 617.281 111.46C617.33 111.558 617.363 111.688 617.379 111.851C617.411 112.013 617.428 112.217 617.428 112.461C617.428 112.575 617.42 112.689 617.403 112.803C617.387 112.9 617.363 112.998 617.33 113.096C617.314 113.177 617.281 113.258 617.232 113.34C617.184 113.421 617.118 113.503 617.037 113.584C616.956 113.665 616.703 113.812 616.28 114.023C615.857 114.219 615.304 114.422 614.62 114.634C613.937 114.829 613.139 115.008 612.228 115.171C611.332 115.334 610.364 115.415 609.322 115.415C607.613 115.415 606.1 115.163 604.781 114.658C603.463 114.137 602.356 113.381 601.461 112.388C600.566 111.379 599.882 110.133 599.41 108.652C598.954 107.171 598.727 105.454 598.727 103.501C598.727 101.629 598.963 99.9528 599.435 98.4717C599.923 96.9906 600.615 95.7373 601.51 94.7119C602.405 93.6702 603.479 92.8809 604.732 92.3438C606.002 91.7904 607.41 91.5137 608.956 91.5137C610.616 91.5137 612.032 91.7904 613.204 92.3438C614.376 92.8971 615.336 93.6458 616.085 94.5898C616.85 95.5176 617.403 96.5999 617.745 97.8369C618.103 99.0739 618.282 100.376 618.282 101.743V102.329ZM615.279 101.475C615.328 99.1309 614.791 97.2998 613.668 95.9814C612.545 94.6631 610.909 94.0039 608.761 94.0039C607.654 94.0039 606.677 94.2155 605.831 94.6387C605.001 95.0456 604.293 95.5908 603.707 96.2744C603.137 96.958 602.698 97.7555 602.389 98.667C602.079 99.5622 601.9 100.498 601.852 101.475H615.279ZM633.321 115L630.245 123.276C630.164 123.455 629.993 123.602 629.732 123.716C629.472 123.846 629.057 123.911 628.487 123.911C628.194 123.911 627.95 123.895 627.755 123.862C627.56 123.83 627.405 123.765 627.291 123.667C627.193 123.586 627.136 123.472 627.12 123.325C627.104 123.195 627.136 123.032 627.218 122.837L630.343 115C630.213 114.951 630.099 114.87 630.001 114.756C629.903 114.642 629.838 114.528 629.806 114.414L621.773 92.8564C621.692 92.6286 621.651 92.4495 621.651 92.3193C621.651 92.1729 621.692 92.0589 621.773 91.9775C621.871 91.8962 622.018 91.8473 622.213 91.8311C622.424 91.7985 622.701 91.7822 623.043 91.7822C623.401 91.7822 623.686 91.7985 623.897 91.8311C624.109 91.8473 624.272 91.8799 624.386 91.9287C624.516 91.9775 624.605 92.0426 624.654 92.124C624.719 92.2054 624.776 92.3031 624.825 92.417L631.734 111.704H631.832L638.619 92.417C638.701 92.1891 638.806 92.0426 638.937 91.9775C639.083 91.8962 639.27 91.8473 639.498 91.8311C639.726 91.7985 640.003 91.7822 640.328 91.7822C640.637 91.7822 640.89 91.7985 641.085 91.8311C641.297 91.8636 641.451 91.9206 641.549 92.002C641.646 92.0833 641.695 92.1973 641.695 92.3438C641.695 92.474 641.655 92.6449 641.573 92.8564L633.321 115ZM691.671 114.512C691.671 114.609 691.646 114.699 691.598 114.78C691.549 114.862 691.459 114.927 691.329 114.976C691.215 115.024 691.061 115.065 690.865 115.098C690.686 115.13 690.45 115.146 690.157 115.146C689.897 115.146 689.669 115.13 689.474 115.098C689.278 115.065 689.124 115.024 689.01 114.976C688.896 114.927 688.814 114.862 688.766 114.78C688.717 114.699 688.692 114.609 688.692 114.512V86.0205H688.644L676.217 114.683C676.184 114.748 676.135 114.813 676.07 114.878C676.005 114.927 675.916 114.967 675.802 115C675.688 115.049 675.549 115.081 675.387 115.098C675.24 115.13 675.061 115.146 674.85 115.146C674.622 115.146 674.426 115.13 674.264 115.098C674.101 115.081 673.963 115.049 673.849 115C673.751 114.967 673.67 114.927 673.604 114.878C673.539 114.813 673.499 114.748 673.482 114.683L661.666 86.0205H661.642V114.512C661.642 114.609 661.617 114.699 661.568 114.78C661.52 114.862 661.43 114.927 661.3 114.976C661.186 115.024 661.031 115.065 660.836 115.098C660.657 115.13 660.413 115.146 660.104 115.146C659.827 115.146 659.591 115.13 659.396 115.098C659.216 115.065 659.07 115.024 658.956 114.976C658.842 114.927 658.761 114.862 658.712 114.78C658.679 114.699 658.663 114.609 658.663 114.512V84.9463C658.663 84.3604 658.818 83.9616 659.127 83.75C659.436 83.5221 659.737 83.4082 660.03 83.4082H661.642C662.049 83.4082 662.407 83.457 662.716 83.5547C663.025 83.6361 663.294 83.7663 663.521 83.9453C663.766 84.1081 663.969 84.3115 664.132 84.5557C664.295 84.7998 664.441 85.0765 664.571 85.3857L674.996 110.483H675.118L685.982 85.4834C686.145 85.0928 686.316 84.7673 686.495 84.5068C686.69 84.2301 686.886 84.0104 687.081 83.8477C687.293 83.6849 687.512 83.571 687.74 83.5059C687.984 83.4408 688.245 83.4082 688.521 83.4082H690.304C690.45 83.4082 690.605 83.4326 690.768 83.4814C690.93 83.5303 691.077 83.6198 691.207 83.75C691.337 83.8639 691.443 84.0186 691.524 84.2139C691.622 84.4092 691.671 84.6533 691.671 84.9463V114.512ZM715.841 114.512C715.841 114.674 715.784 114.805 715.67 114.902C715.572 114.984 715.434 115.041 715.255 115.073C715.092 115.122 714.864 115.146 714.571 115.146C714.295 115.146 714.059 115.122 713.863 115.073C713.668 115.041 713.513 114.984 713.399 114.902C713.302 114.805 713.253 114.674 713.253 114.512V112.046C712.26 113.12 711.161 113.95 709.957 114.536C708.769 115.122 707.532 115.415 706.246 115.415C705.09 115.415 704.049 115.269 703.121 114.976C702.21 114.666 701.437 114.235 700.802 113.682C700.167 113.112 699.679 112.428 699.337 111.631C698.995 110.833 698.824 109.938 698.824 108.945C698.824 107.725 699.076 106.667 699.581 105.771C700.086 104.86 700.802 104.103 701.729 103.501C702.657 102.899 703.772 102.451 705.074 102.158C706.376 101.849 707.825 101.694 709.42 101.694H712.936V99.79C712.936 98.846 712.838 98.016 712.643 97.2998C712.447 96.5674 712.13 95.957 711.69 95.4688C711.251 94.9805 710.681 94.6143 709.981 94.3701C709.282 94.126 708.427 94.0039 707.418 94.0039C706.441 94.0039 705.562 94.126 704.781 94.3701C704 94.598 703.316 94.8584 702.73 95.1514C702.145 95.4443 701.656 95.7129 701.266 95.957C700.891 96.1849 700.623 96.2988 700.46 96.2988C700.362 96.2988 700.273 96.2826 700.191 96.25C700.11 96.2174 700.037 96.1605 699.972 96.0791C699.923 95.9814 699.882 95.8675 699.85 95.7373C699.833 95.5908 699.825 95.4199 699.825 95.2246C699.825 94.8828 699.85 94.6143 699.898 94.4189C699.947 94.2074 700.069 94.0039 700.265 93.8086C700.476 93.597 700.842 93.3529 701.363 93.0762C701.884 92.7995 702.478 92.5472 703.146 92.3193C703.829 92.0752 704.562 91.8799 705.343 91.7334C706.124 91.5869 706.905 91.5137 707.687 91.5137C709.2 91.5137 710.478 91.7008 711.52 92.0752C712.561 92.4333 713.399 92.9541 714.034 93.6377C714.685 94.3213 715.149 95.1676 715.426 96.1768C715.702 97.1696 715.841 98.3008 715.841 99.5703V114.512ZM712.936 104.087H708.907C707.735 104.087 706.71 104.193 705.831 104.404C704.952 104.616 704.22 104.925 703.634 105.332C703.048 105.739 702.608 106.227 702.315 106.797C702.039 107.367 701.9 108.018 701.9 108.75C701.9 110.02 702.299 111.037 703.097 111.802C703.91 112.55 705.05 112.925 706.515 112.925C707.67 112.925 708.744 112.632 709.737 112.046C710.746 111.444 711.812 110.524 712.936 109.287V104.087ZM743.185 103.135C743.185 105.023 742.973 106.724 742.55 108.237C742.143 109.751 741.533 111.037 740.719 112.095C739.921 113.153 738.928 113.975 737.74 114.561C736.552 115.13 735.193 115.415 733.663 115.415C733.012 115.415 732.402 115.342 731.832 115.195C731.262 115.065 730.701 114.854 730.147 114.561C729.61 114.268 729.065 113.901 728.512 113.462C727.975 113.022 727.405 112.493 726.803 111.875V123.276C726.803 123.374 726.778 123.464 726.729 123.545C726.681 123.626 726.599 123.691 726.485 123.74C726.388 123.805 726.241 123.846 726.046 123.862C725.867 123.895 725.631 123.911 725.338 123.911C725.061 123.911 724.825 123.895 724.63 123.862C724.451 123.846 724.304 123.805 724.19 123.74C724.076 123.691 723.995 123.626 723.946 123.545C723.914 123.464 723.897 123.374 723.897 123.276V92.417C723.897 92.3031 723.914 92.2054 723.946 92.124C723.995 92.0426 724.068 91.9775 724.166 91.9287C724.28 91.8799 724.418 91.8473 724.581 91.8311C724.76 91.7985 724.972 91.7822 725.216 91.7822C725.46 91.7822 725.663 91.7985 725.826 91.8311C725.989 91.8473 726.127 91.8799 726.241 91.9287C726.355 91.9775 726.437 92.0426 726.485 92.124C726.534 92.2054 726.559 92.3031 726.559 92.417V95.6152C727.242 94.9154 727.893 94.3132 728.512 93.8086C729.13 93.2878 729.749 92.8564 730.367 92.5146C730.986 92.1729 731.62 91.9206 732.271 91.7578C732.923 91.5951 733.614 91.5137 734.347 91.5137C735.942 91.5137 737.301 91.8229 738.424 92.4414C739.547 93.0436 740.458 93.8737 741.158 94.9316C741.874 95.9896 742.387 97.2266 742.696 98.6426C743.022 100.042 743.185 101.54 743.185 103.135ZM740.133 103.599C740.133 102.362 740.035 101.174 739.84 100.034C739.645 98.8786 739.311 97.8532 738.839 96.958C738.383 96.0628 737.765 95.3467 736.983 94.8096C736.218 94.2725 735.25 94.0039 734.078 94.0039C733.492 94.0039 732.914 94.0853 732.345 94.248C731.791 94.4108 731.222 94.6794 730.636 95.0537C730.05 95.4281 729.439 95.9163 728.805 96.5186C728.17 97.1045 727.503 97.8369 726.803 98.7158V108.335C728.023 109.816 729.187 110.955 730.294 111.753C731.417 112.534 732.589 112.925 733.81 112.925C734.933 112.925 735.893 112.656 736.69 112.119C737.504 111.566 738.163 110.85 738.668 109.971C739.173 109.076 739.539 108.075 739.767 106.968C740.011 105.845 740.133 104.722 740.133 103.599Z" fill="#EAEAEA"/>
<line x1="254.002" y1="130.5" x2="787.002" y2="132.5" stroke="#EAEAEA"/>
</g>
<defs>
<clipPath id="clip0_121_2">
<rect width="1024" height="187" fill="white"/>
</clipPath>
</defs>
</svg>
