<svg width="1024" height="187" viewBox="0 0 1024 187" fill="none" xmlns="http://www.w3.org/2000/svg">
<g clip-path="url(#clip0_121_6)">
<rect width="1024" height="187" fill="white"/>
<rect width="1024" height="187" fill="#080808"/>
<path d="M439.755 84.7754C439.755 84.987 439.739 85.1742 439.706 85.3369C439.674 85.4997 439.625 85.638 439.56 85.752C439.494 85.8496 439.413 85.931 439.315 85.9961C439.218 86.0449 439.112 86.0693 438.998 86.0693H429.574V114.512C429.574 114.609 429.55 114.699 429.501 114.78C429.452 114.862 429.371 114.927 429.257 114.976C429.143 115.024 428.988 115.065 428.793 115.098C428.598 115.13 428.362 115.146 428.085 115.146C427.808 115.146 427.572 115.13 427.377 115.098C427.182 115.065 427.027 115.024 426.913 114.976C426.799 114.927 426.718 114.862 426.669 114.78C426.62 114.699 426.596 114.609 426.596 114.512V86.0693H417.172C417.042 86.0693 416.928 86.0449 416.83 85.9961C416.749 85.931 416.675 85.8496 416.61 85.752C416.545 85.638 416.496 85.4997 416.464 85.3369C416.431 85.1742 416.415 84.987 416.415 84.7754C416.415 84.5475 416.431 84.3522 416.464 84.1895C416.496 84.0104 416.545 83.8639 416.61 83.75C416.675 83.6361 416.749 83.5547 416.83 83.5059C416.928 83.4408 417.042 83.4082 417.172 83.4082H438.998C439.112 83.4082 439.218 83.4408 439.315 83.5059C439.413 83.5547 439.494 83.6361 439.56 83.75C439.625 83.8639 439.674 84.0104 439.706 84.1895C439.739 84.3522 439.755 84.5475 439.755 84.7754ZM455.819 114.512C455.819 114.674 455.762 114.805 455.648 114.902C455.551 114.984 455.412 115.041 455.233 115.073C455.071 115.122 454.843 115.146 454.55 115.146C454.273 115.146 454.037 115.122 453.842 115.073C453.646 115.041 453.492 114.984 453.378 114.902C453.28 114.805 453.231 114.674 453.231 114.512V112.046C452.239 113.12 451.14 113.95 449.936 114.536C448.747 115.122 447.51 115.415 446.225 115.415C445.069 115.415 444.027 115.269 443.1 114.976C442.188 114.666 441.415 114.235 440.78 113.682C440.146 113.112 439.657 112.428 439.315 111.631C438.974 110.833 438.803 109.938 438.803 108.945C438.803 107.725 439.055 106.667 439.56 105.771C440.064 104.86 440.78 104.103 441.708 103.501C442.636 102.899 443.751 102.451 445.053 102.158C446.355 101.849 447.803 101.694 449.398 101.694H452.914V99.79C452.914 98.846 452.816 98.016 452.621 97.2998C452.426 96.5674 452.108 95.957 451.669 95.4688C451.229 94.9805 450.66 94.6143 449.96 94.3701C449.26 94.126 448.406 94.0039 447.396 94.0039C446.42 94.0039 445.541 94.126 444.76 94.3701C443.979 94.598 443.295 94.8584 442.709 95.1514C442.123 95.4443 441.635 95.7129 441.244 95.957C440.87 96.1849 440.601 96.2988 440.438 96.2988C440.341 96.2988 440.251 96.2826 440.17 96.25C440.089 96.2174 440.015 96.1605 439.95 96.0791C439.901 95.9814 439.861 95.8675 439.828 95.7373C439.812 95.5908 439.804 95.4199 439.804 95.2246C439.804 94.8828 439.828 94.6143 439.877 94.4189C439.926 94.2074 440.048 94.0039 440.243 93.8086C440.455 93.597 440.821 93.3529 441.342 93.0762C441.863 92.7995 442.457 92.5472 443.124 92.3193C443.808 92.0752 444.54 91.8799 445.321 91.7334C446.103 91.5869 446.884 91.5137 447.665 91.5137C449.179 91.5137 450.456 91.7008 451.498 92.0752C452.54 92.4333 453.378 92.9541 454.013 93.6377C454.664 94.3213 455.128 95.1676 455.404 96.1768C455.681 97.1696 455.819 98.3008 455.819 99.5703V114.512ZM452.914 104.087H448.886C447.714 104.087 446.688 104.193 445.81 104.404C444.931 104.616 444.198 104.925 443.612 105.332C443.026 105.739 442.587 106.227 442.294 106.797C442.017 107.367 441.879 108.018 441.879 108.75C441.879 110.02 442.278 111.037 443.075 111.802C443.889 112.55 445.028 112.925 446.493 112.925C447.649 112.925 448.723 112.632 449.716 112.046C450.725 111.444 451.791 110.524 452.914 109.287V104.087ZM476.864 108.628C476.864 109.686 476.669 110.638 476.278 111.484C475.888 112.314 475.326 113.022 474.594 113.608C473.878 114.194 473.015 114.642 472.006 114.951C470.997 115.26 469.882 115.415 468.661 115.415C467.896 115.415 467.172 115.35 466.488 115.22C465.805 115.106 465.186 114.959 464.633 114.78C464.079 114.585 463.607 114.382 463.217 114.17C462.842 113.958 462.566 113.771 462.387 113.608C462.208 113.446 462.077 113.242 461.996 112.998C461.915 112.754 461.874 112.428 461.874 112.021C461.874 111.81 461.89 111.623 461.923 111.46C461.955 111.297 461.996 111.159 462.045 111.045C462.094 110.931 462.159 110.85 462.24 110.801C462.322 110.736 462.411 110.703 462.509 110.703C462.688 110.703 462.948 110.817 463.29 111.045C463.632 111.273 464.055 111.525 464.56 111.802C465.08 112.062 465.691 112.306 466.391 112.534C467.107 112.762 467.929 112.876 468.856 112.876C469.605 112.876 470.289 112.795 470.907 112.632C471.526 112.469 472.063 112.225 472.519 111.899C472.974 111.574 473.324 111.159 473.568 110.654C473.829 110.133 473.959 109.531 473.959 108.848C473.959 108.164 473.796 107.586 473.471 107.114C473.145 106.642 472.714 106.235 472.177 105.894C471.656 105.535 471.054 105.226 470.37 104.966C469.703 104.689 469.011 104.412 468.295 104.136C467.595 103.843 466.903 103.525 466.22 103.184C465.552 102.842 464.95 102.427 464.413 101.938C463.892 101.45 463.469 100.864 463.144 100.181C462.818 99.4971 462.655 98.6751 462.655 97.7148C462.655 96.9499 462.802 96.2012 463.095 95.4688C463.388 94.7201 463.835 94.0527 464.438 93.4668C465.056 92.8809 465.837 92.4089 466.781 92.0508C467.742 91.6927 468.873 91.5137 470.175 91.5137C470.728 91.5137 471.273 91.5625 471.811 91.6602C472.364 91.7415 472.86 91.8555 473.3 92.002C473.756 92.1484 474.146 92.3112 474.472 92.4902C474.797 92.653 475.041 92.7995 475.204 92.9297C475.383 93.0599 475.497 93.1738 475.546 93.2715C475.611 93.3529 475.652 93.4424 475.668 93.54C475.701 93.6377 475.725 93.7598 475.741 93.9062C475.757 94.0365 475.766 94.1992 475.766 94.3945C475.766 94.5898 475.749 94.7689 475.717 94.9316C475.701 95.0781 475.668 95.2083 475.619 95.3223C475.57 95.4362 475.505 95.5257 475.424 95.5908C475.359 95.6396 475.277 95.6641 475.18 95.6641C475.049 95.6641 474.854 95.5745 474.594 95.3955C474.333 95.2165 473.992 95.0212 473.568 94.8096C473.145 94.598 472.641 94.4027 472.055 94.2236C471.469 94.0446 470.793 93.9551 470.028 93.9551C469.263 93.9551 468.588 94.0446 468.002 94.2236C467.432 94.4027 466.96 94.6549 466.586 94.9805C466.212 95.306 465.927 95.6885 465.731 96.1279C465.552 96.5674 465.463 97.0475 465.463 97.5684C465.463 98.2845 465.626 98.8867 465.951 99.375C466.277 99.8633 466.708 100.286 467.245 100.645C467.782 101.003 468.393 101.32 469.076 101.597C469.76 101.873 470.451 102.15 471.151 102.427C471.868 102.703 472.567 103.013 473.251 103.354C473.935 103.68 474.545 104.079 475.082 104.551C475.619 105.023 476.05 105.592 476.376 106.26C476.701 106.911 476.864 107.7 476.864 108.628ZM500.058 114.463C500.058 114.577 500.033 114.674 499.984 114.756C499.936 114.837 499.854 114.91 499.74 114.976C499.626 115.024 499.472 115.065 499.276 115.098C499.081 115.13 498.829 115.146 498.52 115.146C498.194 115.146 497.925 115.13 497.714 115.098C497.502 115.081 497.315 115.049 497.152 115C497.006 114.951 496.876 114.886 496.762 114.805C496.664 114.723 496.566 114.626 496.469 114.512L486.117 101.963V114.512C486.117 114.609 486.093 114.699 486.044 114.78C485.995 114.862 485.914 114.927 485.8 114.976C485.702 115.024 485.556 115.065 485.36 115.098C485.181 115.13 484.945 115.146 484.652 115.146C484.376 115.146 484.14 115.13 483.944 115.098C483.765 115.065 483.619 115.024 483.505 114.976C483.391 114.927 483.31 114.862 483.261 114.78C483.228 114.699 483.212 114.609 483.212 114.512V81.6016C483.212 81.5039 483.228 81.4144 483.261 81.333C483.31 81.2516 483.391 81.1865 483.505 81.1377C483.619 81.0726 483.765 81.0319 483.944 81.0156C484.14 80.9831 484.376 80.9668 484.652 80.9668C484.945 80.9668 485.181 80.9831 485.36 81.0156C485.556 81.0319 485.702 81.0726 485.8 81.1377C485.914 81.1865 485.995 81.2516 486.044 81.333C486.093 81.4144 486.117 81.5039 486.117 81.6016V101.914L495.419 92.5146C495.549 92.3682 495.679 92.2542 495.81 92.1729C495.956 92.0752 496.111 92.002 496.273 91.9531C496.436 91.888 496.623 91.8473 496.835 91.8311C497.047 91.7985 497.291 91.7822 497.567 91.7822C497.844 91.7822 498.08 91.7904 498.275 91.8066C498.487 91.8229 498.658 91.8555 498.788 91.9043C498.918 91.9531 499.016 92.0182 499.081 92.0996C499.146 92.1647 499.179 92.2542 499.179 92.3682C499.179 92.5309 499.13 92.6937 499.032 92.8564C498.935 93.0029 498.764 93.1982 498.52 93.4424L489.682 101.792L499.496 113.511C499.708 113.755 499.854 113.942 499.936 114.072C500.017 114.202 500.058 114.333 500.058 114.463ZM533.139 84.7754C533.139 84.987 533.122 85.1742 533.09 85.3369C533.057 85.4997 533 85.638 532.919 85.752C532.854 85.8496 532.772 85.931 532.675 85.9961C532.577 86.0449 532.471 86.0693 532.357 86.0693H520.126V98.0322H531.723C531.837 98.0322 531.942 98.0566 532.04 98.1055C532.138 98.138 532.219 98.2031 532.284 98.3008C532.366 98.3984 532.423 98.5286 532.455 98.6914C532.488 98.8542 532.504 99.0576 532.504 99.3018C532.504 99.5133 532.488 99.7005 532.455 99.8633C532.423 100.026 532.366 100.164 532.284 100.278C532.219 100.376 532.138 100.457 532.04 100.522C531.942 100.571 531.837 100.596 531.723 100.596H520.126V114.512C520.126 114.609 520.102 114.699 520.053 114.78C520.004 114.862 519.923 114.927 519.809 114.976C519.695 115.024 519.54 115.065 519.345 115.098C519.166 115.13 518.93 115.146 518.637 115.146C518.36 115.146 518.124 115.13 517.929 115.098C517.733 115.065 517.579 115.024 517.465 114.976C517.351 114.927 517.27 114.862 517.221 114.78C517.172 114.699 517.147 114.609 517.147 114.512V84.9463C517.147 84.3604 517.302 83.9616 517.611 83.75C517.921 83.5221 518.222 83.4082 518.515 83.4082H532.357C532.471 83.4082 532.577 83.4408 532.675 83.5059C532.772 83.5547 532.854 83.6361 532.919 83.75C533 83.8639 533.057 84.0104 533.09 84.1895C533.122 84.3522 533.139 84.5475 533.139 84.7754ZM542.514 114.512C542.514 114.609 542.489 114.699 542.44 114.78C542.392 114.862 542.31 114.927 542.196 114.976C542.099 115.024 541.952 115.065 541.757 115.098C541.578 115.13 541.342 115.146 541.049 115.146C540.772 115.146 540.536 115.13 540.341 115.098C540.162 115.065 540.015 115.024 539.901 114.976C539.787 114.927 539.706 114.862 539.657 114.78C539.625 114.699 539.608 114.609 539.608 114.512V81.6016C539.608 81.5039 539.625 81.4144 539.657 81.333C539.706 81.2516 539.787 81.1865 539.901 81.1377C540.015 81.0726 540.162 81.0319 540.341 81.0156C540.536 80.9831 540.772 80.9668 541.049 80.9668C541.342 80.9668 541.578 80.9831 541.757 81.0156C541.952 81.0319 542.099 81.0726 542.196 81.1377C542.31 81.1865 542.392 81.2516 542.44 81.333C542.489 81.4144 542.514 81.5039 542.514 81.6016V114.512ZM570.199 103.232C570.199 104.99 569.971 106.61 569.516 108.091C569.06 109.572 568.376 110.858 567.465 111.948C566.57 113.039 565.447 113.893 564.096 114.512C562.745 115.114 561.174 115.415 559.384 115.415C557.659 115.415 556.145 115.146 554.843 114.609C553.557 114.056 552.475 113.275 551.596 112.266C550.733 111.24 550.082 110.003 549.643 108.555C549.219 107.106 549.008 105.47 549.008 103.647C549.008 101.89 549.228 100.27 549.667 98.7891C550.123 97.3079 550.798 96.0303 551.693 94.9561C552.605 93.8656 553.736 93.0192 555.087 92.417C556.438 91.8148 558.017 91.5137 559.823 91.5137C561.549 91.5137 563.054 91.7822 564.34 92.3193C565.642 92.8564 566.724 93.6377 567.587 94.6631C568.45 95.6722 569.101 96.901 569.54 98.3496C569.979 99.7982 570.199 101.426 570.199 103.232ZM567.123 103.501C567.123 102.248 567.001 101.051 566.757 99.9121C566.513 98.7728 566.106 97.7718 565.536 96.9092C564.966 96.0303 564.201 95.3385 563.241 94.834C562.281 94.3132 561.085 94.0527 559.652 94.0527C558.334 94.0527 557.195 94.2887 556.234 94.7607C555.274 95.2327 554.485 95.8919 553.866 96.7383C553.264 97.5684 552.816 98.5531 552.523 99.6924C552.23 100.832 552.084 102.061 552.084 103.379C552.084 104.648 552.206 105.861 552.45 107.017C552.694 108.156 553.101 109.157 553.671 110.02C554.241 110.882 555.006 111.566 555.966 112.07C556.926 112.575 558.122 112.827 559.555 112.827C560.873 112.827 562.012 112.591 562.973 112.119C563.933 111.647 564.714 110.996 565.316 110.166C565.935 109.336 566.391 108.351 566.684 107.212C566.977 106.073 567.123 104.836 567.123 103.501ZM605.795 92.3682C605.795 92.4495 605.779 92.5472 605.746 92.6611C605.73 92.7588 605.705 92.8727 605.673 93.0029L598.837 114.512C598.804 114.642 598.739 114.748 598.642 114.829C598.56 114.91 598.446 114.976 598.3 115.024C598.153 115.073 597.958 115.106 597.714 115.122C597.486 115.138 597.209 115.146 596.884 115.146C596.542 115.146 596.249 115.13 596.005 115.098C595.761 115.081 595.557 115.049 595.395 115C595.248 114.951 595.126 114.886 595.028 114.805C594.947 114.723 594.89 114.626 594.857 114.512L589.73 97.0801L589.682 96.8848L589.633 97.0801L584.848 114.512C584.815 114.642 584.75 114.748 584.652 114.829C584.555 114.91 584.416 114.976 584.237 115.024C584.075 115.073 583.871 115.106 583.627 115.122C583.383 115.138 583.106 115.146 582.797 115.146C582.471 115.146 582.195 115.13 581.967 115.098C581.739 115.081 581.544 115.049 581.381 115C581.234 114.951 581.12 114.886 581.039 114.805C580.958 114.723 580.901 114.626 580.868 114.512L574.081 93.0029C574.032 92.889 573.992 92.7751 573.959 92.6611C573.943 92.5472 573.935 92.4495 573.935 92.3682C573.935 92.2542 573.959 92.1566 574.008 92.0752C574.057 91.9938 574.138 91.9368 574.252 91.9043C574.366 91.8555 574.512 91.8229 574.691 91.8066C574.87 91.7904 575.09 91.7822 575.351 91.7822C575.692 91.7822 575.969 91.7985 576.181 91.8311C576.392 91.8473 576.547 91.8799 576.645 91.9287C576.758 91.9775 576.84 92.0426 576.889 92.124C576.938 92.2054 576.978 92.3031 577.011 92.417L582.846 111.704L582.895 111.875L582.943 111.704L588.241 92.417C588.274 92.3031 588.314 92.2054 588.363 92.124C588.428 92.0426 588.51 91.9775 588.607 91.9287C588.721 91.8799 588.868 91.8473 589.047 91.8311C589.242 91.7985 589.486 91.7822 589.779 91.7822C590.056 91.7822 590.284 91.7985 590.463 91.8311C590.642 91.8473 590.788 91.8799 590.902 91.9287C591.016 91.9775 591.098 92.0426 591.146 92.124C591.195 92.2054 591.236 92.3031 591.269 92.417L596.981 111.704L597.03 111.875L597.055 111.704L602.865 92.417C602.898 92.3031 602.938 92.2054 602.987 92.124C603.052 92.0426 603.142 91.9775 603.256 91.9287C603.37 91.8799 603.524 91.8473 603.72 91.8311C603.931 91.7985 604.2 91.7822 604.525 91.7822C604.786 91.7822 604.997 91.7904 605.16 91.8066C605.323 91.8229 605.453 91.8555 605.551 91.9043C605.648 91.9531 605.714 92.0182 605.746 92.0996C605.779 92.1647 605.795 92.2542 605.795 92.3682Z" fill="#EAEAEA"/>
<line x1="378.993" y1="133.5" x2="661.993" y2="129.5" stroke="#EAEAEA"/>
</g>
<defs>
<clipPath id="clip0_121_6">
<rect width="1024" height="187" fill="white"/>
</clipPath>
</defs>
</svg>
