<svg width="1024" height="187" viewBox="0 0 1024 187" fill="none" xmlns="http://www.w3.org/2000/svg">
<g clip-path="url(#clip0_81_496)">
<rect width="1024" height="187" fill="white"/>
<rect width="1024" height="187" fill="#080808"/>
<path d="M438.39 114.463C438.39 114.577 438.365 114.674 438.316 114.756C438.284 114.837 438.211 114.91 438.097 114.976C437.983 115.024 437.82 115.065 437.608 115.098C437.413 115.13 437.161 115.146 436.852 115.146C436.575 115.146 436.339 115.13 436.144 115.098C435.965 115.081 435.81 115.041 435.68 114.976C435.549 114.894 435.444 114.797 435.362 114.683C435.281 114.552 435.208 114.39 435.143 114.194L432.188 106.528C431.847 105.666 431.48 104.852 431.09 104.087C430.699 103.322 430.227 102.663 429.674 102.109C429.12 101.54 428.453 101.092 427.672 100.767C426.891 100.441 425.955 100.278 424.864 100.278H421.593V114.512C421.593 114.609 421.568 114.699 421.52 114.78C421.471 114.862 421.389 114.927 421.275 114.976C421.161 115.024 421.007 115.065 420.812 115.098C420.632 115.13 420.396 115.146 420.104 115.146C419.827 115.146 419.591 115.13 419.396 115.098C419.2 115.065 419.046 115.024 418.932 114.976C418.818 114.927 418.736 114.862 418.688 114.78C418.639 114.699 418.614 114.609 418.614 114.512V84.9463C418.614 84.3604 418.769 83.9616 419.078 83.75C419.387 83.5221 419.688 83.4082 419.981 83.4082H425.914C426.695 83.4082 427.338 83.4326 427.843 83.4814C428.364 83.514 428.836 83.5628 429.259 83.6279C430.463 83.8395 431.513 84.1813 432.408 84.6533C433.303 85.1253 434.044 85.7113 434.63 86.4111C435.216 87.0947 435.647 87.876 435.924 88.7549C436.217 89.6175 436.363 90.5534 436.363 91.5625C436.363 92.6042 436.217 93.54 435.924 94.3701C435.631 95.1839 435.216 95.9082 434.679 96.543C434.142 97.1615 433.499 97.6986 432.75 98.1543C432.001 98.61 431.179 98.9925 430.284 99.3018C430.821 99.5459 431.301 99.847 431.725 100.205C432.164 100.563 432.563 100.994 432.921 101.499C433.295 102.004 433.645 102.59 433.971 103.257C434.296 103.908 434.622 104.64 434.947 105.454L437.901 112.827C438.113 113.397 438.243 113.787 438.292 113.999C438.357 114.211 438.39 114.365 438.39 114.463ZM433.141 91.8799C433.141 90.529 432.84 89.3896 432.237 88.4619C431.635 87.5179 430.626 86.8424 429.21 86.4355C428.738 86.3053 428.225 86.2158 427.672 86.167C427.118 86.1019 426.394 86.0693 425.499 86.0693H421.593V97.666H426.134C427.354 97.666 428.404 97.5195 429.283 97.2266C430.162 96.9173 430.886 96.5023 431.456 95.9814C432.042 95.4606 432.465 94.8503 432.726 94.1504C433.002 93.4505 433.141 92.6937 433.141 91.8799ZM461.729 102.329C461.729 102.915 461.575 103.322 461.266 103.55C460.956 103.761 460.655 103.867 460.362 103.867H445.299C445.299 105.234 445.429 106.471 445.689 107.578C445.966 108.685 446.414 109.637 447.032 110.435C447.651 111.216 448.456 111.818 449.449 112.241C450.442 112.664 451.663 112.876 453.111 112.876C454.137 112.876 455.056 112.786 455.87 112.607C456.684 112.428 457.384 112.233 457.97 112.021C458.572 111.794 459.06 111.59 459.435 111.411C459.825 111.232 460.102 111.143 460.265 111.143C460.362 111.143 460.452 111.167 460.533 111.216C460.615 111.265 460.68 111.346 460.729 111.46C460.777 111.558 460.81 111.688 460.826 111.851C460.859 112.013 460.875 112.217 460.875 112.461C460.875 112.575 460.867 112.689 460.851 112.803C460.834 112.9 460.81 112.998 460.777 113.096C460.761 113.177 460.729 113.258 460.68 113.34C460.631 113.421 460.566 113.503 460.484 113.584C460.403 113.665 460.151 113.812 459.728 114.023C459.304 114.219 458.751 114.422 458.067 114.634C457.384 114.829 456.586 115.008 455.675 115.171C454.78 115.334 453.811 115.415 452.77 115.415C451.061 115.415 449.547 115.163 448.229 114.658C446.91 114.137 445.803 113.381 444.908 112.388C444.013 111.379 443.329 110.133 442.857 108.652C442.402 107.171 442.174 105.454 442.174 103.501C442.174 101.629 442.41 99.9528 442.882 98.4717C443.37 96.9906 444.062 95.7373 444.957 94.7119C445.852 93.6702 446.926 92.8809 448.18 92.3438C449.449 91.7904 450.857 91.5137 452.403 91.5137C454.063 91.5137 455.479 91.7904 456.651 92.3438C457.823 92.8971 458.784 93.6458 459.532 94.5898C460.297 95.5176 460.851 96.5999 461.192 97.8369C461.55 99.0739 461.729 100.376 461.729 101.743V102.329ZM458.727 101.475C458.775 99.1309 458.238 97.2998 457.115 95.9814C455.992 94.6631 454.356 94.0039 452.208 94.0039C451.101 94.0039 450.125 94.2155 449.278 94.6387C448.448 95.0456 447.74 95.5908 447.154 96.2744C446.585 96.958 446.145 97.7555 445.836 98.667C445.527 99.5622 445.348 100.498 445.299 101.475H458.727ZM477.818 102.646C477.818 103.118 477.753 103.444 477.623 103.623C477.493 103.786 477.322 103.867 477.11 103.867H466.881C466.669 103.867 466.49 103.778 466.344 103.599C466.214 103.42 466.148 103.102 466.148 102.646C466.148 102.191 466.214 101.873 466.344 101.694C466.49 101.515 466.669 101.426 466.881 101.426H477.11C477.208 101.426 477.298 101.45 477.379 101.499C477.477 101.532 477.558 101.597 477.623 101.694C477.688 101.792 477.737 101.922 477.77 102.085C477.802 102.231 477.818 102.419 477.818 102.646ZM501.573 114.512C501.573 114.626 501.549 114.723 501.5 114.805C501.467 114.886 501.394 114.951 501.28 115C501.183 115.049 501.052 115.081 500.89 115.098C500.727 115.13 500.523 115.146 500.279 115.146C500.019 115.146 499.799 115.13 499.62 115.098C499.457 115.081 499.319 115.049 499.205 115C499.107 114.951 499.026 114.886 498.961 114.805C498.912 114.723 498.888 114.626 498.888 114.512V111.338C497.716 112.607 496.503 113.608 495.25 114.341C493.997 115.057 492.63 115.415 491.148 115.415C489.553 115.415 488.194 115.106 487.071 114.487C485.948 113.869 485.029 113.031 484.312 111.973C483.613 110.915 483.1 109.678 482.774 108.262C482.449 106.829 482.286 105.316 482.286 103.721C482.286 101.849 482.49 100.164 482.896 98.667C483.303 97.1533 483.906 95.8675 484.703 94.8096C485.501 93.7516 486.485 92.9378 487.657 92.3682C488.829 91.7985 490.188 91.5137 491.734 91.5137C493.069 91.5137 494.29 91.8148 495.396 92.417C496.503 93.0029 497.594 93.8737 498.668 95.0293V81.7236C498.668 81.626 498.684 81.5365 498.717 81.4551C498.766 81.3737 498.847 81.3086 498.961 81.2598C499.075 81.2109 499.221 81.1702 499.4 81.1377C499.596 81.1051 499.832 81.0889 500.108 81.0889C500.401 81.0889 500.637 81.1051 500.816 81.1377C501.012 81.1702 501.158 81.2109 501.256 81.2598C501.37 81.3086 501.451 81.3737 501.5 81.4551C501.549 81.5365 501.573 81.626 501.573 81.7236V114.512ZM498.668 98.5693C497.447 97.0882 496.267 95.957 495.128 95.1758C494.005 94.3945 492.825 94.0039 491.588 94.0039C490.465 94.0039 489.505 94.2725 488.707 94.8096C487.91 95.3467 487.258 96.0547 486.754 96.9336C486.249 97.8125 485.883 98.8053 485.655 99.9121C485.427 101.019 485.313 102.142 485.313 103.281C485.313 104.502 485.411 105.69 485.606 106.846C485.802 108.001 486.135 109.035 486.607 109.946C487.079 110.841 487.706 111.566 488.487 112.119C489.269 112.656 490.245 112.925 491.417 112.925C492.003 112.925 492.573 112.843 493.126 112.681C493.679 112.518 494.249 112.249 494.835 111.875C495.421 111.501 496.023 111.021 496.642 110.435C497.276 109.832 497.952 109.092 498.668 108.213V98.5693ZM527.745 102.329C527.745 102.915 527.59 103.322 527.281 103.55C526.972 103.761 526.671 103.867 526.378 103.867H511.314C511.314 105.234 511.445 106.471 511.705 107.578C511.982 108.685 512.429 109.637 513.048 110.435C513.666 111.216 514.472 111.818 515.465 112.241C516.458 112.664 517.678 112.876 519.127 112.876C520.152 112.876 521.072 112.786 521.886 112.607C522.7 112.428 523.399 112.233 523.985 112.021C524.588 111.794 525.076 111.59 525.45 111.411C525.841 111.232 526.118 111.143 526.28 111.143C526.378 111.143 526.467 111.167 526.549 111.216C526.63 111.265 526.695 111.346 526.744 111.46C526.793 111.558 526.826 111.688 526.842 111.851C526.874 112.013 526.891 112.217 526.891 112.461C526.891 112.575 526.882 112.689 526.866 112.803C526.85 112.9 526.826 112.998 526.793 113.096C526.777 113.177 526.744 113.258 526.695 113.34C526.646 113.421 526.581 113.503 526.5 113.584C526.419 113.665 526.166 113.812 525.743 114.023C525.32 114.219 524.767 114.422 524.083 114.634C523.399 114.829 522.602 115.008 521.69 115.171C520.795 115.334 519.827 115.415 518.785 115.415C517.076 115.415 515.562 115.163 514.244 114.658C512.926 114.137 511.819 113.381 510.924 112.388C510.029 111.379 509.345 110.133 508.873 108.652C508.417 107.171 508.189 105.454 508.189 103.501C508.189 101.629 508.425 99.9528 508.897 98.4717C509.386 96.9906 510.077 95.7373 510.973 94.7119C511.868 93.6702 512.942 92.8809 514.195 92.3438C515.465 91.7904 516.873 91.5137 518.419 91.5137C520.079 91.5137 521.495 91.7904 522.667 92.3438C523.839 92.8971 524.799 93.6458 525.548 94.5898C526.313 95.5176 526.866 96.5999 527.208 97.8369C527.566 99.0739 527.745 100.376 527.745 101.743V102.329ZM524.742 101.475C524.791 99.1309 524.254 97.2998 523.131 95.9814C522.008 94.6631 520.372 94.0039 518.224 94.0039C517.117 94.0039 516.14 94.2155 515.294 94.6387C514.464 95.0456 513.756 95.5908 513.17 96.2744C512.6 96.958 512.161 97.7555 511.852 98.667C511.542 99.5622 511.363 100.498 511.314 101.475H524.742ZM547.423 108.628C547.423 109.686 547.228 110.638 546.837 111.484C546.446 112.314 545.885 113.022 545.152 113.608C544.436 114.194 543.574 114.642 542.564 114.951C541.555 115.26 540.44 115.415 539.22 115.415C538.455 115.415 537.73 115.35 537.047 115.22C536.363 115.106 535.745 114.959 535.191 114.78C534.638 114.585 534.166 114.382 533.775 114.17C533.401 113.958 533.124 113.771 532.945 113.608C532.766 113.446 532.636 113.242 532.555 112.998C532.473 112.754 532.433 112.428 532.433 112.021C532.433 111.81 532.449 111.623 532.481 111.46C532.514 111.297 532.555 111.159 532.604 111.045C532.652 110.931 532.717 110.85 532.799 110.801C532.88 110.736 532.97 110.703 533.067 110.703C533.246 110.703 533.507 110.817 533.849 111.045C534.19 111.273 534.614 111.525 535.118 111.802C535.639 112.062 536.249 112.306 536.949 112.534C537.665 112.762 538.487 112.876 539.415 112.876C540.164 112.876 540.847 112.795 541.466 112.632C542.084 112.469 542.621 112.225 543.077 111.899C543.533 111.574 543.883 111.159 544.127 110.654C544.387 110.133 544.518 109.531 544.518 108.848C544.518 108.164 544.355 107.586 544.029 107.114C543.704 106.642 543.272 106.235 542.735 105.894C542.215 105.535 541.612 105.226 540.929 104.966C540.261 104.689 539.57 104.412 538.854 104.136C538.154 103.843 537.462 103.525 536.778 103.184C536.111 102.842 535.509 102.427 534.972 101.938C534.451 101.45 534.028 100.864 533.702 100.181C533.377 99.4971 533.214 98.6751 533.214 97.7148C533.214 96.9499 533.36 96.2012 533.653 95.4688C533.946 94.7201 534.394 94.0527 534.996 93.4668C535.615 92.8809 536.396 92.4089 537.34 92.0508C538.3 91.6927 539.431 91.5137 540.733 91.5137C541.287 91.5137 541.832 91.5625 542.369 91.6602C542.923 91.7415 543.419 91.8555 543.858 92.002C544.314 92.1484 544.705 92.3112 545.03 92.4902C545.356 92.653 545.6 92.7995 545.763 92.9297C545.942 93.0599 546.056 93.1738 546.104 93.2715C546.17 93.3529 546.21 93.4424 546.227 93.54C546.259 93.6377 546.284 93.7598 546.3 93.9062C546.316 94.0365 546.324 94.1992 546.324 94.3945C546.324 94.5898 546.308 94.7689 546.275 94.9316C546.259 95.0781 546.227 95.2083 546.178 95.3223C546.129 95.4362 546.064 95.5257 545.982 95.5908C545.917 95.6396 545.836 95.6641 545.738 95.6641C545.608 95.6641 545.413 95.5745 545.152 95.3955C544.892 95.2165 544.55 95.0212 544.127 94.8096C543.704 94.598 543.199 94.4027 542.613 94.2236C542.027 94.0446 541.352 93.9551 540.587 93.9551C539.822 93.9551 539.146 94.0446 538.561 94.2236C537.991 94.4027 537.519 94.6549 537.145 94.9805C536.77 95.306 536.485 95.6885 536.29 96.1279C536.111 96.5674 536.021 97.0475 536.021 97.5684C536.021 98.2845 536.184 98.8867 536.51 99.375C536.835 99.8633 537.267 100.286 537.804 100.645C538.341 101.003 538.951 101.32 539.635 101.597C540.318 101.873 541.01 102.15 541.71 102.427C542.426 102.703 543.126 103.013 543.81 103.354C544.493 103.68 545.104 104.079 545.641 104.551C546.178 105.023 546.609 105.592 546.935 106.26C547.26 106.911 547.423 107.7 547.423 108.628ZM556.676 114.512C556.676 114.609 556.651 114.699 556.603 114.78C556.554 114.862 556.472 114.927 556.358 114.976C556.261 115.024 556.114 115.065 555.919 115.098C555.74 115.13 555.504 115.146 555.211 115.146C554.934 115.146 554.698 115.13 554.503 115.098C554.324 115.065 554.177 115.024 554.063 114.976C553.95 114.927 553.868 114.862 553.819 114.78C553.787 114.699 553.771 114.609 553.771 114.512V92.417C553.771 92.3193 553.787 92.2298 553.819 92.1484C553.868 92.0671 553.95 92.002 554.063 91.9531C554.177 91.888 554.324 91.8473 554.503 91.8311C554.698 91.7985 554.934 91.7822 555.211 91.7822C555.504 91.7822 555.74 91.7985 555.919 91.8311C556.114 91.8473 556.261 91.888 556.358 91.9531C556.472 92.002 556.554 92.0671 556.603 92.1484C556.651 92.2298 556.676 92.3193 556.676 92.417V114.512ZM557.115 84.9707C557.115 85.752 556.977 86.2809 556.7 86.5576C556.424 86.8343 555.919 86.9727 555.187 86.9727C554.47 86.9727 553.974 86.8424 553.697 86.582C553.437 86.3053 553.307 85.7764 553.307 84.9951C553.307 84.2139 553.445 83.6849 553.722 83.4082C553.998 83.1315 554.503 82.9932 555.235 82.9932C555.951 82.9932 556.44 83.1315 556.7 83.4082C556.977 83.6686 557.115 84.1895 557.115 84.9707ZM582.506 93.1494C582.506 93.6051 582.433 93.9225 582.286 94.1016C582.14 94.2806 581.952 94.3701 581.725 94.3701H578.233C578.917 95.07 579.389 95.835 579.649 96.665C579.926 97.4788 580.064 98.3415 580.064 99.2529C580.064 100.506 579.861 101.621 579.454 102.598C579.063 103.574 578.502 104.404 577.77 105.088C577.037 105.755 576.166 106.268 575.157 106.626C574.148 106.984 573.033 107.163 571.812 107.163C570.82 107.163 569.876 107.025 568.98 106.748C568.085 106.471 567.385 106.13 566.881 105.723C566.555 106.048 566.287 106.423 566.075 106.846C565.864 107.269 565.758 107.757 565.758 108.311C565.758 108.929 566.051 109.45 566.637 109.873C567.239 110.296 568.012 110.524 568.956 110.557L574.938 110.801C575.947 110.833 576.891 110.972 577.77 111.216C578.665 111.46 579.446 111.826 580.113 112.314C580.781 112.786 581.31 113.372 581.7 114.072C582.091 114.772 582.286 115.594 582.286 116.538C582.286 117.515 582.083 118.451 581.676 119.346C581.285 120.241 580.667 121.022 579.82 121.689C578.99 122.373 577.924 122.91 576.622 123.301C575.32 123.708 573.766 123.911 571.959 123.911C570.234 123.911 568.761 123.757 567.54 123.447C566.336 123.154 565.343 122.739 564.562 122.202C563.797 121.681 563.235 121.063 562.877 120.347C562.535 119.631 562.364 118.857 562.364 118.027C562.364 117.458 562.429 116.921 562.56 116.416C562.69 115.911 562.885 115.431 563.146 114.976C563.422 114.52 563.756 114.08 564.146 113.657C564.553 113.234 565.017 112.803 565.538 112.363C564.708 111.94 564.098 111.427 563.707 110.825C563.316 110.223 563.121 109.58 563.121 108.896C563.121 107.887 563.316 107 563.707 106.235C564.098 105.454 564.57 104.754 565.123 104.136C564.651 103.517 564.285 102.842 564.024 102.109C563.764 101.377 563.634 100.498 563.634 99.4727C563.634 98.2357 563.837 97.1289 564.244 96.1523C564.651 95.1595 565.213 94.3213 565.929 93.6377C566.661 92.9541 567.532 92.4333 568.541 92.0752C569.55 91.7008 570.657 91.5137 571.861 91.5137C572.496 91.5137 573.09 91.5544 573.644 91.6357C574.213 91.7008 574.734 91.7904 575.206 91.9043H581.725C582.001 91.9043 582.197 92.0101 582.311 92.2217C582.441 92.4333 582.506 92.7425 582.506 93.1494ZM577.062 99.3018C577.062 97.6253 576.598 96.3151 575.67 95.3711C574.758 94.4271 573.456 93.9551 571.764 93.9551C570.901 93.9551 570.144 94.1016 569.493 94.3945C568.842 94.6875 568.305 95.0863 567.882 95.5908C567.459 96.0954 567.141 96.6813 566.93 97.3486C566.718 98.016 566.612 98.724 566.612 99.4727C566.612 101.1 567.068 102.386 567.979 103.33C568.907 104.258 570.201 104.722 571.861 104.722C572.74 104.722 573.505 104.575 574.156 104.282C574.824 103.989 575.369 103.599 575.792 103.11C576.215 102.606 576.533 102.028 576.744 101.377C576.956 100.71 577.062 100.018 577.062 99.3018ZM579.381 116.709C579.381 115.635 578.941 114.813 578.062 114.243C577.2 113.674 576.036 113.364 574.571 113.315L568.15 113.096C567.564 113.551 567.084 113.983 566.71 114.39C566.336 114.797 566.035 115.187 565.807 115.562C565.595 115.952 565.449 116.326 565.367 116.685C565.286 117.059 565.245 117.433 565.245 117.808C565.245 119.012 565.847 119.924 567.052 120.542C568.272 121.16 569.965 121.47 572.13 121.47C573.497 121.47 574.636 121.331 575.548 121.055C576.476 120.794 577.224 120.444 577.794 120.005C578.364 119.565 578.771 119.061 579.015 118.491C579.259 117.922 579.381 117.327 579.381 116.709ZM606.163 114.512C606.163 114.609 606.139 114.699 606.09 114.78C606.041 114.862 605.96 114.927 605.846 114.976C605.748 115.024 605.602 115.065 605.406 115.098C605.227 115.13 604.999 115.146 604.723 115.146C604.43 115.146 604.186 115.13 603.99 115.098C603.811 115.065 603.665 115.024 603.551 114.976C603.453 114.927 603.38 114.862 603.331 114.78C603.282 114.699 603.258 114.609 603.258 114.512V101.401C603.258 100.034 603.152 98.9274 602.94 98.0811C602.729 97.2184 602.411 96.486 601.988 95.8838C601.565 95.2653 601.02 94.7933 600.353 94.4678C599.701 94.126 598.937 93.9551 598.058 93.9551C596.935 93.9551 595.812 94.3538 594.688 95.1514C593.565 95.9489 592.385 97.1208 591.148 98.667V114.512C591.148 114.609 591.124 114.699 591.075 114.78C591.026 114.862 590.945 114.927 590.831 114.976C590.733 115.024 590.587 115.065 590.392 115.098C590.213 115.13 589.977 115.146 589.684 115.146C589.407 115.146 589.171 115.13 588.976 115.098C588.797 115.065 588.65 115.024 588.536 114.976C588.422 114.927 588.341 114.862 588.292 114.78C588.259 114.699 588.243 114.609 588.243 114.512V92.417C588.243 92.3193 588.259 92.2298 588.292 92.1484C588.341 92.0671 588.422 92.002 588.536 91.9531C588.65 91.888 588.788 91.8473 588.951 91.8311C589.13 91.7985 589.358 91.7822 589.635 91.7822C589.911 91.7822 590.139 91.7985 590.318 91.8311C590.497 91.8473 590.636 91.888 590.733 91.9531C590.831 92.002 590.896 92.0671 590.929 92.1484C590.978 92.2298 591.002 92.3193 591.002 92.417V95.542C592.271 94.126 593.517 93.1006 594.737 92.4658C595.958 91.8311 597.171 91.5137 598.375 91.5137C599.824 91.5137 601.044 91.7578 602.037 92.2461C603.03 92.7344 603.827 93.3936 604.43 94.2236C605.048 95.0537 605.488 96.0221 605.748 97.1289C606.025 98.2357 606.163 99.5703 606.163 101.133V114.512Z" fill="#EAEAEA"/>
<line x1="398" y1="131.5" x2="642" y2="131.5" stroke="#EAEAEA"/>
</g>
<defs>
<clipPath id="clip0_81_496">
<rect width="1024" height="187" fill="white"/>
</clipPath>
</defs>
</svg>
