<svg width="1024" height="482" viewBox="0 0 1024 482" fill="none" xmlns="http://www.w3.org/2000/svg">
<g clip-path="url(#clip0_90_1179)">
<rect width="1024" height="482" fill="#EAEAEA"/>
<rect x="-4" y="-23" width="388" height="505" fill="#080808"/>
<g clip-path="url(#clip1_90_1179)">
<path d="M149.71 267.6C211.07 267.57 272.43 268.23 333.78 267.89L333.93 268.91C242.623 268.956 151.313 269.006 60 269.06V267.89C89.9 268.2 119.81 267.61 149.71 267.6Z" fill="#EAEAEA"/>
<path d="M204.32 258.28C204.01 260.47 205.05 261.98 203.15 262.07C203.1 259.79 202.89 256.71 204.32 258.28Z" fill="#262D48"/>
<path d="M201.11 257.99C200.5 259.21 200.95 260.89 200.82 262.21L200.24 262.36C200.68 257.51 199.26 258.35 199.37 258.14C199.52 257.83 200.73 258.06 201.12 257.99H201.11Z" fill="#363E59"/>
<path d="M204.9 239.93C205.25 245.5 204.64 251.24 204.9 256.82C204.91 257.36 205.64 256.99 206.07 257.11C206.09 257.35 206.04 257.66 206.07 257.69C204.2 257.16 205.1 259.39 204.9 262.64C204.1 261.46 205.14 259.18 204.32 258.27C202.89 256.69 203.11 259.78 203.15 262.06C201.25 262.15 204.25 256.4 201.55 257.11C201.1 257.23 201.14 257.94 201.11 257.98C200.72 258.05 199.51 257.82 199.36 258.13C199.26 258.34 200.68 257.5 200.23 262.35C199.79 262.46 199.19 261.99 197.9 262.06C197.79 258.19 198.77 258.11 196.44 257.98C195.72 257.94 195.34 258.12 194.69 258.27C194.88 252.36 194.55 246.42 194.69 240.5L204.88 239.92L204.9 239.93Z" fill="#B3B5BF"/>
<path d="M275.97 262.94C275.39 262.94 274.8 262.94 274.22 262.94L273.93 213.72C274.52 213.58 276.22 215.75 276.26 215.9C277.01 218.8 275.44 255.35 275.97 262.94Z" fill="#4C5878"/>
<path d="M278.01 211.97C277.8 228.76 278.16 245.57 278.01 262.36C277.89 262.36 278.45 262.94 275.97 262.94C275.44 255.35 277.01 218.8 276.26 215.9C276.22 215.75 274.52 213.57 273.93 213.72C274.44 212.15 277.93 215.05 276.55 211.97C277.8 209.01 276.83 211.71 278.01 211.97Z" fill="#363E59"/>
<path d="M210.43 237.6C211.01 243.1 210 256.01 210.43 262.94C209.62 262.82 208.64 263.27 208.1 262.5C207.97 261.38 208.29 257.89 208.1 257.55C207.92 257.21 206.4 257.21 206.06 257.11C205.64 256.99 204.91 257.36 204.89 256.82C205.24 256.91 206.25 256.58 206.35 256.38C206.78 255.5 206.37 239.26 206.35 236.72C210.36 236.61 208.62 240.85 210.43 237.59V237.6Z" fill="#4C5878"/>
<path d="M225.29 262.94C223.56 262.78 224 263.16 222.67 262.36V238.33C222.46 238.03 218.22 238.22 217.43 238.18C215.03 238.08 213.61 238.8 213.35 237.01C213.85 236.9 213.91 236.46 213.93 236.43L225 236.58L225.29 262.94Z" fill="#F1724F"/>
<path d="M173.74 202.94C173.29 206.96 174.65 212.33 172.87 213.57L172.29 259.44L171.42 262.94C171.32 262.94 171.23 262.94 171.13 262.94C171.2 248.91 171.84 234.87 172 220.85C172.07 215.17 172.55 206.61 171.13 202.06L173.75 202.93L173.74 202.94Z" fill="#262D48"/>
<path d="M213.35 237.02C213.61 238.81 215.02 238.09 217.43 238.19C213.69 239.17 213.8 237.36 213.06 239.65C212.46 241.51 213.48 257.41 213.06 261.49L213.35 261.78C212.83 263.95 212.04 263.19 210.44 262.95C210.01 256.02 211.02 243.11 210.44 237.61C210.43 237.51 210.46 237.41 210.44 237.32C211.35 236.97 212.47 237.22 213.35 237.03V237.02Z" fill="#DFAB92"/>
<path d="M222.67 262.36C222.22 262.09 221.63 261.69 221.5 261.19C221.05 259.4 221.83 244.14 221.5 239.78L216.84 239.93C215.87 242.57 217.73 245.13 215.09 244.59C215.04 243.95 214.97 240.09 214.8 239.93C214.25 239.39 213.68 239.71 213.05 239.64C213.79 237.35 213.68 239.17 217.42 238.18C218.21 238.21 222.45 238.02 222.66 238.33V262.36H222.67Z" fill="#B3B5BF"/>
<path d="M225.87 235.85L226.16 262.94C225.87 262.92 225.57 262.97 225.29 262.94L225 236.58L213.93 236.43C213.93 236.43 212.97 236.58 213.49 235.85C216.81 235.56 223.56 236.24 225.87 235.85Z" fill="#221514"/>
<path d="M174.32 252.16C174.25 255.74 173.78 259.34 174.03 262.94C173.16 262.94 172.28 262.95 171.41 262.94L172.28 259.44C173.67 257.59 172.82 255.44 172.86 255.22C172.91 254.94 173.66 255.22 173.73 254.93C174 253.82 173.19 251.95 174.31 252.16H174.32Z" fill="#262D48"/>
<path d="M325.19 262.65C323.53 262.72 321.92 262.92 320.24 262.94C319.82 262.37 319.97 261.83 319.95 261.19C323.65 261.4 325.76 260.36 325.19 262.65Z" fill="#0B0C0B"/>
<path d="M206.07 257.7C206.07 257.7 206.82 257.67 206.94 258.14C207.53 260.31 206.78 265.43 204.9 262.65C205.09 259.4 204.19 257.17 206.07 257.7Z" fill="#DEBAA3"/>
<path d="M196.45 257.99C198.03 258.5 197.08 260.66 197.32 262.36C192.66 262.36 197.6 259.6 194.7 258.57C194.7 258.47 194.7 258.38 194.7 258.28C195.35 258.13 195.72 257.95 196.45 257.99Z" fill="#8D90A0"/>
<path d="M197.91 262.06C197.91 262.06 198.09 262.35 197.33 262.35C197.09 260.65 198.03 258.49 196.46 257.98C198.79 258.11 197.81 258.18 197.92 262.06H197.91Z" fill="#363E59"/>
<path d="M229.95 261.19L230.24 213.86C229.06 212.39 226.24 215.02 228.2 212.26L231.7 212.99L231.41 261.05C231.2 261.35 230.33 261.14 229.95 261.2V261.19Z" fill="#262D48"/>
<path d="M208.69 228.28C208.69 228.28 208.6 228.87 208.84 228.86C210.93 229.15 210.77 228.28 211.02 228.28C215.43 228.19 219.86 228.34 224.27 228.28C225.42 228.58 227.06 232.07 227.33 233.23H191.94C191.71 232.03 195.19 231.66 195.58 229.15C199.06 228.8 202.57 228.74 206.07 228.57C206.16 228.57 206.57 228.6 207.24 228.57C207.5 228.56 208.37 228.29 208.7 228.28H208.69Z" fill="#4C5878"/>
<path d="M227.33 235.56C226.4 235.4 226.1 235.81 225.87 235.85C223.56 236.24 216.82 235.56 213.49 235.85C212.97 236.58 213.95 236.4 213.93 236.43C213.9 236.46 213.85 236.91 213.35 237.01C212.46 237.2 211.35 236.95 210.44 237.3C210.38 236.92 210.6 236.06 210.29 235.84C204.06 235.76 206.35 235.89 206.36 236.71C202.31 236.82 198.19 237.75 194.71 236.13C194.73 235.78 194.44 235.81 194.13 235.84C193.9 235.86 193.65 237.32 190.63 236.42C190.64 236.29 189.75 234.73 190.78 233.8C195.54 234.55 225.26 233.33 226.9 234.09C227.46 234.35 227.35 235.05 227.34 235.55L227.33 235.56Z" fill="#4C5878"/>
<path d="M227.33 233.23C227.48 233.9 228.04 234.95 227.33 235.56C227.34 235.06 227.45 234.36 226.89 234.1C225.25 233.34 195.54 234.56 190.77 233.81C189.74 234.74 190.64 236.3 190.62 236.43C190.51 237.72 190.36 238.9 190.33 240.22C190.16 247.47 190.41 245.07 190.04 239.35C189.68 233.74 189.54 236.81 188.15 235.85C185.84 234.27 195.16 230.18 195.58 229.15C195.19 231.66 191.71 232.03 191.94 233.23H227.33Z" fill="#262D48"/>
<path d="M211.02 228.28C210.77 228.28 210.93 229.16 208.84 228.86C208.6 228.86 208.72 228.28 208.69 228.28C208.95 221.2 209.06 214.2 209.86 207.16C209.89 206.92 210.39 207.19 210.44 206.72H210.73C210.73 213.89 210.49 221.11 211.02 228.27V228.28Z" fill="#363E59"/>
<path d="M208.69 202.65C208.98 202.98 210.02 202.98 210.44 203.38C210.35 204.48 210.56 205.64 210.44 206.73C210.39 207.19 209.88 206.93 209.86 207.17C209.07 214.2 208.96 221.21 208.69 228.29C208.36 228.3 207.49 228.57 207.23 228.58V203.82C208.32 204.6 207.19 202.66 208.69 202.65Z" fill="#4C5878"/>
<path d="M154.8 201.19C154.2 202.54 154.64 204.14 154.51 205.56C153.7 204.61 152.97 203.57 152.18 202.65C152.79 201.37 154.38 198.92 154.8 201.19Z" fill="#57658A"/>
<path d="M73.25 237.31C73.24 237.89 73.26 238.48 73.25 239.06C73.15 246.78 73.0533 254.497 72.96 262.21L67.43 262.36C67.89 260.71 68.19 261.88 70.93 261.34C70.69 257.81 71.76 233.14 70.93 231.92C70.77 231.69 67.66 232.29 68.6 229.15C68.68 230.47 72.84 229.07 72.97 229.3L73.26 237.31H73.25Z" fill="#262D48"/>
<path d="M174.32 202.65C173.77 214.35 174.43 231.99 174.32 244.88C174.3 247.31 174.37 249.74 174.32 252.16C173.19 251.95 174.01 253.81 173.74 254.93C173.67 255.22 172.92 254.93 172.87 255.22C172.83 255.44 173.67 257.59 172.29 259.44L172.87 213.57C174.65 212.33 173.29 206.96 173.74 202.94C173.79 202.49 173.8 202.19 174.32 202.07C174.31 202.26 174.32 202.46 174.32 202.65Z" fill="#262D48"/>
<path d="M194.12 240.8L190.33 240.22C190.36 238.9 190.51 237.73 190.62 236.43C193.64 237.32 193.89 235.87 194.12 235.85V240.8Z" fill="#757D93"/>
<path d="M128.88 218.38C128.88 218.38 129.1 218.17 129.17 218.96C130.3 231.9 128.33 249.47 129.17 262.94C127.38 262.94 125.68 262.72 123.93 262.65V262.07C124.19 262.08 124.22 261.82 124.51 261.78C124.93 261.72 126.04 261.94 126.26 261.63C127.11 260.43 125.61 235.81 126.26 232.21C125.31 231.34 125.25 230.61 123.93 231.19C123.93 230.27 123.64 230.19 123.64 230.02C123.64 229.95 124.14 229.73 123.93 228.56C124.4 228.81 125.6 229.17 125.39 228.27C125.68 228.39 126.9 229.22 127.14 228.71C125.34 226.97 123.44 225.33 121.61 223.61C120.5 222.06 120.28 221.16 119.57 219.53C120.2 220.13 120.98 220.67 121.61 221.28C123.85 223.43 125.85 225.89 128.16 227.98C128.78 224.69 127.57 219.04 128.89 218.37L128.88 218.38Z" fill="#262D48"/>
<path d="M124.51 261.77C124.18 256.51 124.94 234.9 124.51 233.08C124.46 232.86 124.12 232.93 123.93 232.93C123.98 232.36 123.93 231.76 123.93 231.18C125.25 230.6 125.31 231.33 126.26 232.2C125.61 235.8 127.11 260.42 126.26 261.62C126.04 261.93 124.93 261.71 124.51 261.77Z" fill="#4C5878"/>
<path d="M206.36 236.73C206.38 239.27 206.79 255.51 206.36 256.39C206.27 256.59 205.26 256.92 204.9 256.83C204.64 251.25 205.25 245.5 204.9 239.94C204.87 239.47 205.05 238.13 204.75 237.9C201.49 238.98 198.07 238.41 194.7 239.07V236.16C198.18 237.78 202.3 236.85 206.35 236.74L206.36 236.73Z" fill="#757D93"/>
<path d="M204.9 239.93L194.71 240.51V239.05C198.07 238.39 201.5 238.96 204.76 237.88C205.05 238.11 204.88 239.45 204.91 239.92L204.9 239.93Z" fill="#B3B5BF"/>
<path d="M137.62 207.02C136.74 207.9 135.86 209.46 135 210.37C131.79 213.74 128.59 216.14 128.3 216.49C126.9 218.17 126.06 220.03 128.88 217.8C128.9 218 128.84 218.27 128.88 218.38C127.56 219.05 128.77 224.7 128.15 227.99C125.84 225.9 123.84 223.44 121.6 221.29C124.45 219.85 135.18 206.8 136.31 206.44C136.96 206.23 137.15 206.86 137.62 207.02Z" fill="#57658A"/>
<path d="M210.43 237.31C210.45 237.4 210.42 237.51 210.43 237.6C208.62 240.86 210.36 236.62 206.35 236.73C206.35 235.91 204.05 235.78 210.28 235.86C210.59 236.08 210.36 236.93 210.43 237.32V237.31Z" fill="#262D48"/>
<path d="M277.42 199.15C277.48 200.22 277.17 211.71 275.96 205.7C275.77 204.77 276.39 200.87 275.67 197.69C276.97 197.72 277.33 197.77 277.42 199.15Z" fill="#4C5878"/>
<path d="M311.79 228.86C311.09 232.71 311.79 232.01 311.79 232.21C311.7 235.89 311.25 239.58 311.5 243.28C311.65 243.73 313.6 244.8 314.12 245.17C310.84 247.59 315.66 247.21 316.16 248.52C316.47 249.33 315.93 258.99 316.16 261.48C313.29 261.93 309.16 260.35 307.71 262.94C305.6 262.92 306.05 262.36 305.96 262.36C305.89 256.44 306.44 250.51 306.54 244.59C309.83 242.47 306.24 228.38 311.78 228.86H311.79Z" fill="#57658A"/>
<path d="M317.91 262.94C314.52 262.94 311.11 262.97 307.72 262.94C309.16 260.36 313.29 261.93 316.17 261.48C316.72 261.39 317.21 261.7 317.63 261.04L317.34 247.06C317.26 246.85 315.64 245.99 315.3 245.75L314.72 244.88C315.05 245.12 317.38 245.96 318.22 246.77C318.12 252.157 318.023 257.543 317.93 262.93L317.91 262.94Z" fill="#0B0C0B"/>
<path d="M313.83 218.08C312.65 218.97 314.07 219.37 314.12 219.68C314.34 221.08 313.87 224.05 314.12 224.92C314.17 225.11 316.6 228.25 316.74 226.52C316.85 226.68 317.57 226.82 317.61 226.96C317.77 227.42 317.89 235.93 317.03 236.43C316.95 236.14 316.83 236.07 316.74 235.26C316.57 233.76 316.64 230.52 317.03 229C310.34 226.6 315.2 221.85 311.79 218.22C313.04 218.19 312.58 214.99 315.87 213.41C316.9 218.95 312.3 215.08 313.83 218.07V218.08Z" fill="#4C5878"/>
<path d="M315.29 245.75C315.62 245.99 317.25 246.85 317.33 247.06L317.62 261.04C317.21 261.7 316.71 261.39 316.16 261.48C315.93 258.99 316.47 249.33 316.16 248.52C315.66 247.21 310.84 247.6 314.12 245.17C315.07 245.85 315.23 245.71 315.29 245.75Z" fill="#363E59"/>
<path d="M324.61 227.99C319.68 230.58 321.82 232.67 321.41 238.04C321.23 238.54 315.85 240.3 317.62 244.45C317.88 245.07 318.45 244.29 318.49 244.3C318.95 244.44 319.56 244.05 319.95 244.74C320.06 250.22 319.81 255.72 319.95 261.2C319.97 261.83 319.82 262.38 320.24 262.95C319.48 262.96 318.68 262.95 317.91 262.95C318.01 257.563 318.107 252.177 318.2 246.79C317.37 245.98 315.03 245.14 314.7 244.9C314.08 244.45 312.24 243.24 312.08 242.72C312.59 239.98 311.47 231.05 312.37 229.47C314.75 225.3 313.42 238.4 313.83 241.41C313.98 242.52 313.65 243.44 316.45 243.59C316.29 240.71 316.9 237.73 315.87 235C316.4 234.96 316.42 235.2 316.74 235.29C316.83 236.1 316.95 236.16 317.03 236.46C317.19 237.01 317.16 237.17 317.61 237.63C318.48 238.51 319.87 236.32 319.94 236.03C320.18 235.08 320.23 226.43 320.23 224.23V223.36C320.73 223.38 320.95 223.33 321.4 223.65C321.32 226.77 321.15 229.97 322.86 227.15C323.55 226 323.61 225.58 323.44 223.95C323 219.53 320.76 225.5 321.4 215.5C321.46 215.47 321.95 214.41 322.27 215.35C321.55 222.89 323.97 219.67 324.6 220.88C324.82 221.3 324.44 226.58 324.6 228.02L324.61 227.99Z" fill="#DEBAA3"/>
<path d="M320.24 223.33V224.2C317.09 223.31 318.78 224.49 318.78 224.64C318.83 229.12 319.39 236.19 317.61 237.6C317.16 237.14 317.18 236.99 317.03 236.43C317.89 235.93 317.77 227.43 317.61 226.96C317.56 226.82 316.85 226.68 316.74 226.52C316.49 226.16 315.13 225.17 314.99 224.63C314.71 223.53 315.27 220.17 314.99 219.1C314.91 218.81 313.86 218.15 313.82 218.08C312.29 215.09 316.89 218.96 315.86 213.42C315.93 213.39 316.58 212.15 317.03 213.27C318.54 217.09 315.39 217.38 315.28 217.64C315.22 217.77 316.15 218.73 316.15 218.81C316.36 221.08 315.38 223.57 317.46 225.07C316.84 222.21 314.64 223.06 320.23 223.32L320.24 223.33Z" fill="#DEBAA3"/>
<path d="M321.4 215.46C320.76 225.45 323 219.49 323.44 223.91C322.18 223.95 323.05 226.02 322.86 227.11C321.16 229.94 321.32 226.74 321.4 223.61C322.08 222.43 320.31 222.21 320.23 222.01C320.12 221.72 320.12 216.18 320.23 215.89C320.32 215.65 321.19 215.55 321.4 215.45V215.46Z" fill="#363E59"/>
<path d="M318.49 244.3C318.49 244.3 317.88 245.06 317.62 244.45C315.85 240.3 321.23 238.54 321.41 238.04C321.83 232.68 319.69 230.58 324.61 227.99C325.5 228.27 323.4 229.99 321.99 231.05V238.33C319.9 240.32 317.08 240.73 318.49 244.3Z" fill="#262D48"/>
<path d="M312.37 229.44C311.47 231.02 312.59 239.95 312.08 242.69C312.24 243.21 314.09 244.42 314.7 244.87L315.28 245.74C315.23 245.7 315.06 245.84 314.11 245.16C313.59 244.79 311.64 243.72 311.49 243.27C311.24 239.58 311.69 235.88 311.78 232.2C311.78 232 311.08 232.7 311.78 228.85C312.24 228.89 311.91 229.44 312.36 229.43L312.37 229.44Z" fill="#262D48"/>
<path d="M315.87 234.98C316.9 237.71 316.3 240.69 316.45 243.57C313.65 243.42 313.98 242.5 313.83 241.39C316.23 246.19 316.24 239.33 315.87 237.17C315.79 236.7 313.19 235.18 315.87 234.99V234.98Z" fill="#262D48"/>
<path d="M320.24 224.2C320.24 226.39 320.19 235.04 319.95 236C319.88 236.29 318.49 238.49 317.62 237.6C319.4 236.19 318.84 229.11 318.79 224.64C318.79 224.5 317.09 223.31 320.25 224.2H320.24Z" fill="#262D48"/>
<path d="M323.44 223.91C323.6 225.55 323.55 225.96 322.86 227.11C323.06 226.02 322.18 223.95 323.44 223.91Z" fill="#181E24"/>
<path d="M316.74 226.53C316.6 228.26 314.17 225.11 314.12 224.93C313.87 224.06 314.34 221.09 314.12 219.69C314.07 219.38 312.65 218.98 313.83 218.09C313.87 218.16 314.92 218.82 315 219.11C315.28 220.19 314.72 223.55 315 224.64C315.14 225.18 316.5 226.18 316.75 226.53H316.74Z" fill="#262D48"/>
<path d="M158.01 201.19C157.62 200.97 157.33 200.79 156.84 200.9C154.52 201.42 156.4 204.85 155.38 207.02C155.24 206.87 154.96 206.1 154.51 205.56C154.64 204.14 154.2 202.54 154.8 201.19C155.39 199.86 157.54 198.9 158 201.19H158.01Z" fill="#0B0C0B"/>
<path d="M156.84 200.9C156.94 203.28 157.037 205.66 157.13 208.04L156.69 208.48C156.34 207.85 155.84 207.51 155.38 207.02C156.4 204.85 154.52 201.43 156.84 200.9Z" fill="#FACAA0"/>
<path d="M182.47 245.75C182.47 245.75 182.98 245.92 183.05 246.19C183.21 246.79 182.99 249.35 183.05 250.7C183.08 251.28 183.03 251.87 183.05 252.45C183.16 255.84 182.97 259.25 183.05 262.64C182.95 262.64 182.4 263.12 181.01 262.93V245.31L180.72 262.64C178.61 263.16 176.19 262.94 174.02 262.93C173.78 259.33 174.24 255.74 174.31 252.15C174.36 249.72 174.29 247.29 174.31 244.87C183.51 245.36 178.31 241.33 184.94 240.5C185.8 242.25 181.79 242.39 181.59 244.14C181.5 244.94 182.44 245.65 182.46 245.74L182.47 245.75Z" fill="#B3B5BF"/>
<path d="M181.02 262.94L180.73 262.65L181.02 245.32V262.94Z" fill="#585A63"/>
<path d="M208.69 202.65C207.19 202.65 208.32 204.59 207.23 203.82C201.88 197.55 196.19 191.52 190.92 185.18C190.4 184.55 189.47 183.3 189.17 182.56C190.59 182.06 205.48 202.23 206.79 202.07C206.91 202.06 207.33 201.58 207.23 201.34C200.84 194.96 195.38 187.75 189.32 181.1C188.86 181.58 188.47 182.07 188.01 182.56H186.84C187.28 182.11 188.7 180.17 189.32 180.23C195.93 187.55 202.08 195.34 208.69 202.66V202.65Z" fill="#262D48"/>
<path d="M188.01 182.55C184.18 186.55 178.33 195.56 174.03 200.17C173.92 200.59 174.39 201 174.32 202.06C173.8 202.18 173.79 202.49 173.74 202.93L171.12 202.06V201.04C176.8 195.29 181.18 188.29 186.85 182.55H188.02H188.01Z" fill="#181E24"/>
<path d="M206.07 203.52V228.57C202.58 228.74 199.06 228.81 195.58 229.15C195.16 230.18 185.85 234.26 188.15 235.85C189.55 236.81 189.68 233.73 190.04 239.35C182.11 237.76 183.41 235.65 189.02 231.49C195.61 226.6 197.78 228.2 204.89 226.98C204.79 219.26 204.693 211.543 204.6 203.83L206.06 203.54L206.07 203.52Z" fill="#9DA0AF"/>
<path d="M189.17 182.55C187.31 183.2 188.49 184.33 188.88 185.17L174.32 202.65C174.32 202.46 174.31 202.26 174.32 202.07C174.39 201 173.92 200.6 174.03 200.18C178.33 195.57 184.18 186.56 188.01 182.56C188.47 182.08 188.87 181.59 189.32 181.1C195.38 187.75 200.85 194.97 207.23 201.34C207.34 201.58 206.91 202.05 206.79 202.07C205.48 202.22 190.59 182.06 189.17 182.56V182.55Z" fill="#757D93"/>
<path d="M189.17 262.94C187.06 263 185.14 262.79 183.05 262.65C182.97 259.26 183.16 255.85 183.05 252.46C184.6 260.37 181.31 263.52 188 262.22C187.72 255.92 188.04 249.85 186.54 243.73C187.35 243.87 189.22 245.3 189.45 246.21C189.77 247.47 189.42 260.08 189.16 262.96L189.17 262.94Z" fill="#4C5878"/>
<path d="M190.34 262.65C190.28 262.65 190.68 262.9 189.17 262.94C189.43 260.06 189.78 247.45 189.46 246.19C189.23 245.29 187.36 243.86 186.55 243.71C182.55 243.01 183.61 248.2 183.05 250.7C182.99 249.35 183.21 246.78 183.05 246.19C182.98 245.92 182.48 245.79 182.47 245.75C185.72 240.99 187.84 242.44 190.63 246.77L190.34 262.64V262.65Z" fill="#262D48"/>
<path d="M186.55 243.72C188.04 249.84 187.72 255.92 188.01 262.21C181.32 263.51 184.6 260.36 183.06 252.45C183.04 251.87 183.09 251.28 183.06 250.7C183.61 248.2 182.56 243.01 186.56 243.71L186.55 243.72Z" fill="#57658A"/>
<path d="M207.23 203.81V228.57C206.57 228.6 206.15 228.57 206.06 228.57V203.52C202.69 198.92 198.45 195.09 194.7 190.85C194.49 190.62 195.01 190.29 194.99 190.27C193.81 188.93 190.03 186.48 190.91 185.17C196.18 191.51 201.87 197.54 207.22 203.81H207.23Z" fill="#57658A"/>
<path d="M204.61 203.81C204.71 211.53 204.807 219.247 204.9 226.96C197.79 228.18 195.61 226.58 189.03 231.47C183.42 235.64 182.12 237.74 190.05 239.33C190.42 245.05 190.17 247.45 190.34 240.2L194.13 240.78C194.23 248.06 194.327 255.34 194.42 262.62C193.94 263.07 193.87 262.62 193.84 262.62C193.82 256.19 191.59 256.33 192.09 262.91C190.77 263.03 190.45 262.61 190.34 262.62L190.63 246.75C187.84 242.42 185.72 240.97 182.47 245.73C182.45 245.64 181.51 244.93 181.6 244.13C181.8 242.38 185.81 242.24 184.95 240.49C178.32 241.32 183.52 245.35 174.32 244.86C174.43 231.97 173.77 214.33 174.32 202.63L188.88 185.15C190.67 189.01 201.18 199.63 204.61 203.79V203.81Z" fill="#B3B5BF"/>
<path d="M194.71 236.14V240.51C194.57 246.42 194.9 252.37 194.71 258.28C194.71 258.38 194.71 258.47 194.71 258.57C194.66 259.91 194.99 261.36 194.42 262.65C194.32 255.37 194.223 248.09 194.13 240.81V235.86C194.45 235.83 194.73 235.8 194.71 236.15V236.14Z" fill="#343744"/>
<path d="M193.83 262.65C193.08 262.85 192.86 262.87 192.08 262.94C191.58 256.36 193.81 256.22 193.83 262.65Z" fill="#8D90A0"/>
<path d="M190.92 185.17C190.04 186.47 193.82 188.93 195 190.27C195.02 190.29 194.5 190.62 194.71 190.85C198.46 195.09 202.7 198.92 206.07 203.52L204.61 203.81C201.18 199.65 190.67 189.03 188.88 185.17C188.49 184.33 187.32 183.2 189.17 182.55C189.46 183.29 190.4 184.54 190.92 185.17Z" fill="#8D90A0"/>
<path d="M181.45 198.859L182.03 207.309L196.74 207.459L181.16 207.609L181.45 198.869V198.859Z" fill="#757D93"/>
<path d="M183.78 198.859H196.01C197.25 207.469 193.35 208.469 194.12 199.589C189.16 197.259 192.08 204.549 191.06 205.269C188.08 207.379 189.61 199.859 189.02 199.439C188.13 198.809 181.4 200.069 187.71 200.459C181.79 199.909 186.98 209.679 187.27 201.769C187.94 206.009 187.25 205.679 183.63 204.829C185.08 204.449 184.78 199.819 183.78 198.859Z" fill="#757D93"/>
<path d="M194.85 199.15C196.86 198.41 195.8 207.93 194.41 204.54C194.31 204.29 194.21 199.39 194.85 199.15Z" fill="#B3B5BF"/>
<path d="M189.9 199.44C190.97 198.71 190.9 204.19 190.19 204.97C189.51 204.97 189.67 199.59 189.9 199.44Z" fill="#B3B5BF"/>
<path d="M191.07 216.05C191.33 215.94 194.88 216.03 195 216.2C194.64 221.62 196.87 224.5 190.63 222.61C190.84 221.59 190.17 216.46 191.07 216.06V216.05Z" fill="#8D90A0"/>
<path d="M182.33 214.01L195.87 214.45L181.74 214.89V225.38C202.06 224.78 199.01 225.94 180.87 225.67C181.03 223.25 179.53 214.76 182.33 214.02V214.01Z" fill="#6B6F7F"/>
<path d="M183.49 216.339C189.99 215.829 189.04 216.569 188.15 223.039L183.34 222.889C183.387 220.703 183.437 218.519 183.49 216.339Z" fill="#57658A"/>
<path d="M184.08 216.63C187.86 214.94 186.58 222.54 186.12 222.75C182.34 224.44 183.62 216.84 184.08 216.63Z" fill="#8D90A0"/>
<path d="M221.5 261.19C221.38 262.36 216.45 261.53 213.34 261.77L213.05 261.48C215.25 261.65 214.99 261.2 215.09 261.19C215.73 261.14 218.65 261.36 218.88 261.04C219.24 256.83 217.9 251.05 220.05 250.85C218.7 244.11 222.01 238.66 216.85 239.93L221.51 239.78C221.84 244.14 221.06 259.4 221.51 261.19H221.5Z" fill="#757D93"/>
<path d="M214.8 239.93C214.3 239.92 213.6 239.81 213.34 240.37C212.92 241.28 212.94 259.55 213.34 260.47C213.63 261.12 214.58 260.87 215.09 260.91V261.2C214.99 261.2 215.25 261.67 213.05 261.49C213.47 257.41 212.45 241.5 213.05 239.65C213.68 239.72 214.25 239.41 214.8 239.94V239.93Z" fill="#6B6F7F"/>
<path d="M215.09 261.19V260.9C215.32 259.48 214.79 250.98 215.09 250.56C215.39 250.14 218.45 250.62 218.73 250.41C218.99 250.22 219.01 247.76 218.58 247.5C217.64 246.92 216.16 247.33 215.08 247.21C215 246.35 215.14 245.45 215.08 244.59C217.72 245.13 215.85 242.57 216.83 239.93C221.99 238.66 218.68 244.11 220.03 250.85C217.89 251.06 219.23 256.84 218.86 261.04C218.63 261.36 215.71 261.13 215.07 261.19H215.09Z" fill="#8D90A0"/>
<path d="M214.8 239.93C214.97 240.09 215.05 243.95 215.09 244.59C215.15 245.45 215.01 246.35 215.09 247.21C215.21 248.54 214.33 249.68 216.11 250.12C218.52 250.72 218.85 249.61 218.59 247.5C219.02 247.77 219 250.23 218.74 250.41C218.45 250.61 215.4 250.14 215.1 250.56C214.8 250.98 215.33 259.48 215.1 260.9C214.59 260.86 213.64 261.12 213.35 260.46C212.95 259.54 212.93 241.27 213.35 240.36C213.61 239.8 214.31 239.91 214.81 239.92L214.8 239.93Z" fill="#757D93"/>
<path d="M218.59 247.5C218.85 249.61 218.53 250.73 216.11 250.12C214.33 249.67 215.21 248.53 215.09 247.21C216.17 247.33 217.65 246.92 218.59 247.5Z" fill="#D0C7BC"/>
<path d="M297.23 184.01C297.23 184.01 297.15 184.41 297.81 184.3C298.33 187.17 309.9 199.18 310.04 200.17C310.12 200.72 309.45 200.92 309.17 201.19C308.32 201.36 307.43 200.26 306.84 199.59C302.19 194.33 298.37 188.21 294.02 182.7C292.08 180.36 292.39 181.45 292.27 181.39C291.83 181.18 291.58 180.84 291.25 180.52C289.03 183.23 287 186.02 284.7 188.68C281.9 191.91 279.42 195.55 275.67 197.71C276.39 200.89 275.77 204.79 275.96 205.72C277.16 211.72 277.48 200.23 277.42 199.17L278 199.75C277.73 202.75 278.05 208.32 278 211.98C276.82 211.72 277.8 209.02 276.54 211.98C276.48 211.84 275.1 209.79 274.79 209.36C275.09 206.24 275.75 199.33 274.21 198.15C274.49 197.71 274.81 197.29 275.08 196.84C275.95 195.4 279.55 191.59 280.91 189.85C282.52 190.07 285.09 187.43 286.15 186.21C286.69 185.59 287.09 184 287.61 183.3C288.68 181.83 292.6 179.24 290.23 178.49C290.54 178.21 290.68 176.85 291.83 177.03C292.26 177.15 296.42 183.12 297.22 184.02L297.23 184.01Z" fill="#4C5878"/>
<path d="M280.92 189.83C283.13 187 287.34 181.19 289.37 179.05C289.49 178.92 290.08 178.62 290.24 178.47C292.61 179.22 288.69 181.8 287.62 183.28C287.11 183.98 286.71 185.57 286.16 186.19C285.09 187.41 282.53 190.05 280.92 189.83Z" fill="#57658A"/>
<path d="M292.28 181.39C294.53 184.3 306.19 200.66 307.13 201.49C306.32 215.85 306.81 230.23 306.55 244.6C306.44 250.51 305.89 256.44 305.97 262.37C296.66 262.3 287.32 262.33 278.01 262.37C278.16 245.58 277.8 228.77 278.01 211.98C278.06 208.31 277.74 202.74 278.01 199.75C278.07 199.03 277.96 198.29 278.01 197.57C280.243 194.61 282.477 191.65 284.71 188.69C287.01 186.03 289.05 183.25 291.26 180.53C291.59 180.85 291.84 181.2 292.28 181.4V181.39Z" fill="#B3B5BF"/>
<path d="M288.49 242.84L289.07 249.83C289.07 249.83 289.15 249.7 289.07 250.41C288.97 251.32 289.64 253.97 286.16 252.74V243.27C286.68 242.53 287.63 242.93 288.49 242.83V242.84Z" fill="#757D93"/>
<path d="M279.9 243.42C279.99 243.36 281.93 243.35 282.08 243.57C282.33 243.93 282.24 251.9 282.08 252.31C281.79 253.04 280.05 253.2 279.75 252.6C279.55 252.19 279.52 243.69 279.9 243.43V243.42Z" fill="#9DA0AF"/>
<path d="M291.11 243.13V250.7C290.67 250.95 289.58 250.48 289.07 250.41C289.15 249.7 289.07 249.86 289.07 249.83C289.17 247.61 288.99 245.36 289.07 243.13C289.87 243.08 290.37 243.13 291.11 243.13Z" fill="#B3B5BF"/>
<path d="M309.17 201.19C308.28 202.03 308.11 202.34 307.13 201.48C306.19 200.66 294.53 184.29 292.28 181.38C292.4 181.44 292.09 180.35 294.03 182.69C298.38 188.2 302.19 194.32 306.85 199.58C307.44 200.25 308.33 201.35 309.18 201.18L309.17 201.19Z" fill="#262D48"/>
<path d="M278.01 199.74L277.43 199.16C277.35 197.78 276.98 197.74 275.68 197.7C279.43 195.54 281.91 191.9 284.71 188.67C282.477 191.63 280.243 194.59 278.01 197.55C277.96 198.27 278.07 199.02 278.01 199.73V199.74Z" fill="#363E59"/>
<path d="M295.19 252.74C290.73 254.31 292.66 249.38 292.28 243.42C296.88 242.43 294.73 246.29 295.19 252.74Z" fill="#757D93"/>
<path d="M295.48 242.84C295.3 243.66 296.65 252.23 295.19 252.74C294.73 246.29 296.87 242.43 292.28 243.42V243.13C293.27 243.09 294.42 242.56 295.48 242.84Z" fill="#57658A"/>
<path d="M283.98 242.55C285.39 254.63 283.3 256.83 283.83 242.7L283.98 242.55Z" fill="#757D93"/>
<path d="M299.12 243.72C301.13 242.59 299.92 248.19 299.99 252.75C299.34 249.81 300.69 246.03 299.12 243.72Z" fill="#6B6F7F"/>
<path d="M297.52 241.97C297.61 241.95 297.72 241.98 297.81 241.97C297.763 245.563 297.713 249.157 297.66 252.75C297.613 249.157 297.563 245.563 297.51 241.97H297.52Z" fill="#6B6F7F"/>
<path d="M302.76 242.55C303.65 245.63 302.82 249.57 302.91 252.74C302.863 249.34 302.813 245.943 302.76 242.55Z" fill="#8D90A0"/>
<path d="M291.7 243.13C290.91 244.28 291.93 250.23 291.12 250.7V243.13C291.32 243.13 291.52 243.13 291.7 243.13Z" fill="#57658A"/>
<path d="M302.76 242.549C302.74 242.499 301.96 242.079 301.89 241.819L302.76 242.549Z" fill="#8D90A0"/>
<path d="M297.81 241.97C297.71 241.98 297.61 241.95 297.52 241.97C297.36 242 297.05 241.51 296.21 241.68C296.1 243.28 295.5 242.78 295.48 242.85C294.42 242.57 293.27 243.1 292.28 243.14C292.11 243.14 291.9 243.14 291.7 243.14C291.51 243.14 291.31 243.14 291.12 243.14C290.38 243.14 289.88 243.09 289.08 243.14C289.05 243.14 289.22 242.77 288.5 242.85C287.64 242.94 286.69 242.54 286.17 243.29V252.76C285.33 252.46 286.03 241.43 286.75 240.24C304.96 240.99 298.76 239.15 282.24 239.66C282.093 235.293 281.947 230.923 281.8 226.55C282.1 226.18 283.28 224.56 283.4 224.51C284.08 224.22 296.85 224.19 297.96 225.38C298.66 226.13 299.16 238.13 298.98 239.8C298.94 240.16 297.82 240.6 297.81 240.67C297.71 241.99 305.78 240.96 297.81 241.98V241.97Z" fill="#B3B5BF"/>
<path d="M281.79 226.53C281.937 230.897 282.083 235.267 282.23 239.64C298.76 239.13 304.95 240.97 286.74 240.22C279.07 239.91 281.61 241.19 281.21 226.39C281.75 225.93 281.77 226.56 281.79 226.54V226.53Z" fill="#4C5878"/>
<path d="M294.32 238.47C295.39 234.41 293.49 227.05 295.49 225.95C296.18 225.93 296.23 225.51 296.36 225.8C296.62 226.37 296.72 237.81 296.36 238.32C296.22 238.52 294.46 238.54 294.32 238.47Z" fill="#B3B5BF"/>
<path d="M295.48 225.95C293.49 227.05 295.38 234.42 294.31 238.47C293.77 238.17 293.66 226.6 294.02 226.09C294.21 225.82 295.13 225.95 295.48 225.94V225.95Z" fill="#8D90A0"/>
<path d="M283.98 226.53C284.65 226.19 284.45 233.49 284.42 234.54C284.16 242.25 283.6 234.8 283.84 226.68L283.99 226.53H283.98Z" fill="#757D93"/>
<path d="M287.47 225.95C287.66 229.17 287.72 232.68 287.62 236C287.44 242.04 287.08 232.18 287.47 225.95Z" fill="#6B6F7F"/>
<path d="M290.97 226.24C291.16 229.46 291.22 232.97 291.12 236.29C290.94 242.33 290.58 232.47 290.97 226.24Z" fill="#8D90A0"/>
<path d="M289.07 243.129C288.99 245.359 289.17 247.609 289.07 249.829L288.49 242.839C289.21 242.759 289.04 243.129 289.07 243.129Z" fill="#57658A"/>
<path d="M289.51 191.87C289.92 191.79 294.61 191.76 294.61 192.02C283.61 192 285.28 196.05 285.29 205.13L297.67 205.57C297.96 205.65 297.53 206.1 297.38 206.15C296.61 206.4 284.97 206.29 284.71 205.71C285.08 200.82 282.74 193.12 289.52 191.88L289.51 191.87Z" fill="#4C5878"/>
<path d="M290.68 193.621C298.32 192.141 296.69 198.281 296.51 203.521L287.34 203.371C286.99 196.681 288.93 198.091 289.09 197.541C289.17 197.261 286.01 194.521 290.69 193.611L290.68 193.621Z" fill="#57658A"/>
<path d="M295.77 200.03C295.77 200.54 295.89 203.04 295.62 203.23C291.59 202.48 286.98 205.51 288.48 200.03H295.76H295.77Z" fill="#8D90A0"/>
<path d="M292.28 195.661C292.58 197.441 291.44 198.581 293.15 199.161C294.01 199.451 294.59 199.551 295.48 199.451C295.48 199.511 295.76 198.991 295.77 200.031H288.49C288.62 199.551 290.44 198.701 288.78 195.521L289.36 195.081C290.26 195.341 291.36 195.561 292.27 195.661H292.28Z" fill="#D0C7BC"/>
<path d="M295.48 199.441C294.59 199.541 294.01 199.441 293.15 199.151V195.511C292.42 194.581 292.71 195.711 292.28 195.661C291.37 195.561 290.26 195.341 289.37 195.081C296.28 192.431 295.26 195.411 295.49 199.451L295.48 199.441Z" fill="#8D90A0"/>
<path d="M293.15 199.15C291.44 198.58 292.57 197.44 292.28 195.65C292.71 195.7 292.43 194.57 293.15 195.5V199.14V199.15Z" fill="#757D93"/>
<path d="M292.13 216.92C293.86 215.76 292.28 221.75 291.69 218.81C291.67 218.71 292.05 216.97 292.13 216.92Z" fill="#6B6F7F"/>
<path d="M285.58 215.46C284.4 216.08 281.94 222.27 289.22 220.7C290.94 218.08 288.62 213.86 285.58 215.46C287.29 214.54 287.86 214.54 289.51 216.04C290.72 214.77 292.66 214.2 294.17 215.17C295.6 216.08 292.39 214.97 291.55 215.17C289.74 215.59 287.66 222 294.03 220.85L284.27 221C283.62 220.71 283.25 216.72 285.58 215.47V215.46Z" fill="#6B6F7F"/>
<path d="M285.58 215.46C288.62 213.87 290.94 218.08 289.22 220.7C281.94 222.26 284.4 216.08 285.58 215.46Z" fill="#B3B5BF"/>
<path d="M286.6 216.92C287.23 217.05 287.15 219.64 286.89 219.83C285.85 220.63 285.31 216.66 286.6 216.92Z" fill="#757D93"/>
<path d="M256.45 188.09C257.48 189.2 258.35 190.46 259.36 191.59H258.19C257.49 190.81 252.64 185.41 252.22 185.47L230.81 211.25C232.19 213.57 237.59 205.78 240.71 202.08L241 202.66C238.28 206.08 235.53 209.5 232.55 212.71V262.66C230.78 262.63 229.13 262.73 227.31 262.66C226.99 260.37 228.09 261.48 229.93 261.2C230.31 261.14 231.17 261.36 231.39 261.05L231.68 212.99L228.18 212.26C228.67 211.57 229.41 210.55 229.93 209.93C234.68 204.3 239.43 198.65 244.2 193.04C246.89 189.87 249.56 186.66 252.5 183.72C253.77 185.21 255.1 186.65 256.43 188.09H256.45Z" fill="#0B0C0B"/>
<path d="M251.79 188.96C248.6 193.83 244.63 198.11 241.01 202.65L240.72 202.07C244.27 197.87 247.79 192.88 251.5 188.96H251.79Z" fill="#5B1A0E"/>
<path d="M258.2 191.58C260.19 193.8 273.54 209.34 274.22 210.37C274.81 211.26 276.22 212.88 274.07 212.26C272.49 211.81 255.72 190.01 252.52 187.5C251.33 188.45 251.56 188.89 251.5 188.96C247.79 192.88 244.27 197.86 240.72 202.07C237.59 205.77 232.2 213.56 230.82 211.24L252.23 185.46C252.65 185.4 257.5 190.8 258.2 191.58Z" fill="#CA452C"/>
<path d="M273.35 262.65C268.6 262.65 263.83 262.63 259.08 262.65C259.48 256.9 258.54 240.68 259.08 237.6C259.18 237.04 260.18 237.69 259.95 236.58C259.69 236.28 258.88 236.48 258.49 236.43C254.93 232.28 251.63 232.4 248 236.43C247.01 236.53 244.95 236.59 244.8 237.3C244.43 239.02 246.1 237.2 246.55 238.32C247.01 239.46 246.64 259.72 246.84 262.93C242.07 262.91 237.33 262.72 232.57 262.64V212.69C235.55 209.49 238.29 206.06 241.02 202.64C244.63 198.1 248.6 193.82 251.8 188.95C252.09 188.95 252.17 188.54 252.53 188.66C254.04 189.19 270.39 210.32 273.35 212.98V262.64V262.65Z" fill="#F1724F"/>
<path d="M258.2 191.58H259.37C262.87 195.49 272.66 206.26 274.81 209.35C275.11 209.79 276.49 211.83 276.56 211.97C277.94 215.05 274.45 212.15 273.94 213.72L274.23 262.94C273.1 262.94 273.4 262.65 273.36 262.65V212.99C270.4 210.33 254.05 189.2 252.54 188.67C252.19 188.55 252.11 188.96 251.81 188.96H251.52C251.58 188.9 251.35 188.45 252.54 187.5C255.74 190.01 272.52 211.8 274.09 212.26C276.24 212.88 274.83 211.26 274.24 210.37C273.56 209.34 260.21 193.81 258.22 191.58H258.2Z" fill="#221514"/>
<path d="M246.26 219.54V226.82L246.41 227.4H258.79C258.71 227.63 259.41 227.75 258.64 228.27C255.82 228.01 246.67 228.62 245.53 228.27C245.25 228.19 245.44 227.42 245.38 227.4L245.09 220.12C245.76 219.96 245.78 218.62 246.26 219.54Z" fill="#9D3621"/>
<path d="M261.99 219.54L261.7 227.4C260.86 227.07 259.97 226.7 259.08 226.53C259.3 224.37 258.92 221.76 259.08 219.54C260.05 219.54 261.02 219.53 261.99 219.54Z" fill="#F1724F"/>
<path d="M262.86 219.83V226.97C263.07 227.27 263.94 227.06 264.32 227.12C265.82 227.34 268.18 226.96 269.85 227.12C269.79 227.43 270.9 227.42 270.29 228.29H262.13C261.99 228.1 261.74 227.43 261.69 227.42L261.98 219.56C262.99 219.57 262.56 219.85 262.85 219.85L262.86 219.83Z" fill="#7E2618"/>
<path d="M245.09 220.12L245.38 227.4C244.44 227.05 243.5 226.51 242.47 226.53C242.28 224.78 242.73 221.7 242.47 220.41C243.26 219.8 244.29 220.32 245.09 220.12Z" fill="#F1724F"/>
<path d="M263.15 240.51C261.46 240.48 262.6 247.08 262.28 250.85L271.02 251C270.92 251.3 271.19 252.02 270.87 252.17L261.4 252.02L261.69 240.37C262.67 239.85 263.07 240.52 263.15 240.52V240.51Z" fill="#7E2618"/>
<path d="M235.19 219.25V227.11C234.12 227 234.23 226.65 233.44 226.53C232.81 224.96 231.8 219.44 234.46 218.96C234.5 218.96 234.58 219.3 235.19 219.25Z" fill="#CA452C"/>
<path d="M248.88 201.19C246.21 203.95 247.37 207.79 247.13 211.24L258.49 211.68L258.64 212.26L246.26 212.11C246.44 208.33 245.39 203.76 248.44 200.9C248.96 200.81 248.85 201.21 248.88 201.19Z" fill="#7E2618"/>
<path d="M235.48 251C238.1 251.06 240.72 250.96 243.34 251C243.28 251.31 244.39 251.3 243.78 252.17C242.53 251.81 232.24 253.26 233.73 250.57C234.02 250.05 234.18 250.98 235.48 251.01V251Z" fill="#7E2618"/>
<path d="M235.19 227.11C237.27 227.32 239.75 226.96 241.89 227.11C244.44 228.82 234.45 228.71 233.44 227.55C233.34 227.43 233.53 226.76 233.44 226.53C234.22 226.65 234.11 227.01 235.19 227.11Z" fill="#7E2618"/>
<path d="M258.49 236.43C257.78 236.34 256.91 236.46 256.16 236.43C254.87 233.03 251.04 233.5 249.17 236.43C248.79 236.45 248.39 236.39 248 236.43C251.62 232.4 254.93 232.28 258.49 236.43Z" fill="#291610"/>
<path d="M269.85 227.11C268.17 226.95 265.81 227.33 264.32 227.11C265.59 226.61 266.78 226.9 268.11 226.53C268.58 226.4 269.17 226.78 269.57 226.09C269.82 224.09 269.37 222.09 269.28 220.12C269.27 219.85 269.71 219.73 269.57 219.25C269.76 219.3 270.06 219.13 270.44 219.69C270.29 222.06 270.64 224.62 270.44 226.97C270.42 227.21 269.86 227.09 269.86 227.12L269.85 227.11Z" fill="#DEBAA3"/>
<path d="M269.27 220.119C269.36 222.089 269.81 224.089 269.56 226.089C269.17 226.779 268.57 226.399 268.1 226.529C265.92 223.569 271.86 223.549 263.88 223.909C262.85 222.929 263.75 222.249 263.73 222.159C268.36 221.649 267.14 223.319 267.37 223.329C267.64 223.329 269.12 220.859 263.73 221.579C263.76 221.429 262.9 220.609 263.88 219.829L269.27 220.119Z" fill="#6B6F7F"/>
<path d="M269.56 219.25C269.7 219.73 269.26 219.86 269.27 220.12L263.88 219.83C262.9 220.61 263.76 221.42 263.73 221.58C263.67 221.93 263.61 221.41 263.73 222.16C263.74 222.25 262.85 222.92 263.88 223.91C271.86 223.55 265.92 223.57 268.1 226.53C266.77 226.9 265.58 226.61 264.31 227.11C263.93 227.05 263.07 227.26 262.85 226.96V219.82C262.85 219.82 262.76 219.24 263 219.24C264.6 219.24 268.97 219.09 269.55 219.24L269.56 219.25Z" fill="#C8C4C9"/>
<path d="M263.88 224.2C264.9 223.75 268.19 224.02 267.23 226.09C266.38 227.93 261.08 225.44 263.88 224.2Z" fill="#757D93"/>
<path d="M263.73 222.16C263.61 221.41 263.67 221.93 263.73 221.58C269.12 220.86 267.64 223.33 267.37 223.33C267.14 223.33 268.36 221.65 263.73 222.16Z" fill="#8D90A0"/>
<path d="M258.49 211.68L247.13 211.24C247.37 207.79 246.2 203.95 248.88 201.19C256.9 196.22 260.37 204.07 258.49 211.68Z" fill="#EED3CE"/>
<path d="M248.3 208.179L257.62 207.739L248.3 207.589C248.28 207.379 247.33 205.489 248.01 203.509L257.33 203.359L248.59 202.629C251.22 198.849 260.1 198.649 258.2 210.639L248.15 211.079C247.74 210.829 248.31 208.309 248.3 208.169V208.179Z" fill="#757D93"/>
<path d="M248.01 203.52C248.31 202.65 248.56 202.69 248.59 202.65L257.33 203.38L248.01 203.53V203.52Z" fill="#8D90A0"/>
<path d="M248.3 208.18C248.28 207.99 248.31 207.79 248.3 207.6L257.62 207.75L248.3 208.19V208.18Z" fill="#B3B5BF"/>
<path d="M248.44 206.43L257.61 206.58C255.71 207.27 250.92 206.68 248.44 206.43Z" fill="#B3B5BF"/>
<path d="M248.44 208.76C248.69 208.65 253.07 208.74 253.97 208.76C261.15 208.88 256.08 209.3 248.29 208.91C248.33 208.85 248.38 208.79 248.44 208.76Z" fill="#9DA0AF"/>
<path d="M248.73 204.4C248.97 204.29 253.08 204.38 253.97 204.4C260.56 204.53 255.97 204.94 248.58 204.55C248.62 204.49 248.67 204.43 248.73 204.4Z" fill="#B3B5BF"/>
<path d="M249.61 202.07C249.82 201.98 251.41 202.09 252.23 202.07C258.82 201.93 256.15 202.73 249.46 202.22C249.5 202.16 249.55 202.1 249.61 202.07Z" fill="#8D90A0"/>
<path d="M263.15 240.51C264.29 240.46 271 240.25 271.31 240.95C270.88 244.03 272.01 248.03 271.02 251L262.28 250.85C262.61 247.08 261.47 240.48 263.15 240.51Z" fill="#DEBAA3"/>
<path d="M262.86 248.08L269.85 247.93L263.15 247.49C263.09 246.58 263.07 246.37 263.15 245.45L269.85 245.3L263.15 245.15C263.17 245.03 262.52 244.35 263 243.4L269.55 243.25C269.55 242.85 263.28 243.31 263 243.1C262.76 242.93 262.76 241.23 263 241.06C263.3 240.85 269.2 241.22 270.28 241.06C270.327 244.02 270.377 246.98 270.43 249.94L263.29 250.38C262.55 249.86 262.95 248.91 262.85 248.05L262.86 248.08Z" fill="#6B6F7F"/>
<path d="M262.86 248.08C262.83 247.82 263.17 247.77 263.15 247.5L269.85 247.94L262.86 248.09V248.08Z" fill="#8D90A0"/>
<path d="M263.15 245.46C263.15 245.46 263.09 245.54 263.15 245.17L269.85 245.32L263.15 245.47V245.46Z" fill="#B3B5BF"/>
<path d="M263.59 246.34L269.85 246.78C267.28 246.95 263.38 247.3 263.59 246.34Z" fill="#9DA0AF"/>
<path d="M263.59 248.67L269.85 249.11L263.59 249.26V248.68V248.67Z" fill="#8D90A0"/>
<path d="M243.35 251C240.73 250.96 238.1 251.06 235.49 251C235.11 251.02 235.21 250.74 235.2 250.42H235.49L242.92 250.13C243.34 249.82 243.06 246.46 243.07 245.76C243.07 245.51 243.08 245.46 243.07 245.18C243.04 244.53 243.23 241.32 242.92 241.1C238.44 241.4 234.76 240.04 235.49 242.85H235.2C235.24 242.37 235.05 240.73 235.35 240.52L243.94 240.67C243.74 243.92 244.22 247.7 243.94 250.86C243.92 251.1 243.36 250.98 243.36 251.01L243.35 251Z" fill="#EED3CE"/>
<path d="M243.06 245.169C234 245.369 233.04 244.609 242.77 244.439C232.73 244.329 232.74 243.359 242.77 243.269L235.49 242.829C234.76 240.019 238.43 241.379 242.92 241.079C243.22 241.289 243.03 244.499 243.07 245.159L243.06 245.169Z" fill="#757D93"/>
<path d="M243.06 245.17C243.07 245.45 243.06 245.5 243.06 245.75C234 245.55 233.04 246.31 242.77 246.48C242.62 247.22 233.79 246.72 236.22 247.5C237.72 247.98 241.17 246.81 242.77 247.94C237.86 248.67 234.77 246.61 235.49 250.42H235.2C235.11 248.44 235.05 244.69 235.2 242.85H235.49L242.77 243.29C232.74 243.38 232.73 244.35 242.77 244.46C233.04 244.63 234 245.39 243.06 245.19V245.17Z" fill="#8D90A0"/>
<path d="M243.06 245.749C243.06 246.449 243.33 249.809 242.91 250.119L235.48 250.409C234.76 246.609 237.85 248.659 242.76 247.929C241.15 246.799 237.71 247.979 236.21 247.489C233.78 246.709 242.61 247.209 242.76 246.469C233.03 246.299 233.99 245.539 243.05 245.739L243.06 245.749Z" fill="#6B6F7F"/>
<path d="M236.21 248.67L242.76 249.11L236.21 249.26V248.68V248.67Z" fill="#8D90A0"/>
<path d="M242.47 220.42C242.73 221.7 242.28 224.79 242.47 226.54L241.89 227.12C239.75 226.97 237.27 227.33 235.19 227.12V219.26C237.44 219.08 239.77 219.4 242.03 219.26C242.64 219.65 242.39 220.02 242.47 220.43V220.42Z" fill="#EED3CE"/>
<path d="M241.6 221.58C241.68 221.98 241.6 221.86 241.6 221.87C237.31 222.42 243.4 222.51 239.85 223.76L241.89 223.61C241.87 223.9 241.92 224.2 241.89 224.48C238.73 224.04 239.6 226.01 241.89 225.06C241.84 225.34 241.92 225.65 241.89 225.93C238.99 225.19 231.98 226.19 239.56 224.62L235.77 224.47C235.67 223.73 235.77 223.92 235.77 223.89L239.56 223.45L235.77 223.3C235.75 223 235.75 223.04 235.77 222.72L239.56 222.28L235.77 222.13C235.78 221.98 235.73 221.94 235.77 221.55H241.6V221.58Z" fill="#B3B5BF"/>
<path d="M241.89 225.95L241.45 226.53H235.92C234.88 225.52 235.79 224.59 235.77 224.49L239.56 224.64C231.98 226.21 238.99 225.21 241.89 225.95Z" fill="#6B6F7F"/>
<path d="M241.6 221.87C241.62 222.03 241.98 222.25 241.89 223.62L239.85 223.77C243.39 222.52 237.31 222.43 241.6 221.88V221.87Z" fill="#6B6F7F"/>
<path d="M235.77 223.91C235.73 223.29 235.77 223.36 235.77 223.33L239.56 223.48L235.77 223.92V223.91Z" fill="#6B6F7F"/>
<path d="M235.77 222.75C235.78 222.56 235.73 222.56 235.77 222.17L239.56 222.32L235.77 222.76V222.75Z" fill="#6B6F7F"/>
<path d="M241.89 224.49C241.87 224.68 241.92 224.89 241.89 225.07C239.6 226.02 238.73 224.05 241.89 224.49Z" fill="#6B6F7F"/>
<path d="M241.6 221.58H235.77C235.79 221.41 235.14 220.88 235.62 220.12H241.74C242.22 220.88 241.57 221.43 241.59 221.58H241.6Z" fill="#6B6F7F"/>
<path d="M236.21 220.711C237.84 220.001 243.17 221.561 236.06 220.861C236.1 220.801 236.15 220.741 236.21 220.711Z" fill="#B3B5BF"/>
<path d="M259.07 219.54C258.91 221.76 259.29 224.37 259.07 226.53C258.95 227.69 258.79 227.36 258.78 227.4H246.4L246.25 226.82H258.34C258.64 226.61 258.45 224.45 258.49 223.91C258.51 223.63 258.51 223.32 258.49 223.04C258.44 222.12 258.53 221.19 258.49 220.27C257.99 219.54 256.91 219.91 255.87 219.83C252.87 219.45 249.55 219.33 246.55 219.54C250.71 218.7 254.93 219.53 259.07 219.54Z" fill="#DEBAA3"/>
<path d="M255.87 219.83C254.83 219.75 247.67 219.66 247.28 219.83C246.65 220.11 246.75 222.76 246.84 222.89C247.18 223.36 257.05 222.83 258.49 223.04C258.51 223.33 258.51 223.63 258.49 223.91C251.48 223.75 245.31 221.92 246.84 226.82H246.26V219.54C246.36 219.54 246.45 219.54 246.55 219.54C249.55 219.33 252.87 219.46 255.87 219.83Z" fill="#C8C4C9"/>
<path d="M255.87 219.83C256.91 219.91 257.99 219.53 258.49 220.27C258.53 221.19 258.44 222.12 258.49 223.04C257.05 222.84 247.18 223.37 246.84 222.89C246.75 222.76 246.65 220.11 247.28 219.83C247.67 219.66 254.84 219.75 255.87 219.83Z" fill="#757D93"/>
<path d="M258.49 223.909C258.46 224.449 258.64 226.609 258.34 226.819H246.84C245.31 221.919 251.48 223.739 258.49 223.909Z" fill="#757D93"/>
<path d="M250.77 224.489C254.81 222.899 255.6 227.089 251.35 225.949C250.5 225.719 249.92 224.829 250.77 224.489Z" fill="#F5F1F1"/>
<path d="M246.84 237.31C247.87 244.4 246.2 252.12 247.71 258.86C247.74 259.4 247.56 261.56 247.86 261.77H257.76C258.06 257.89 257.87 254 257.91 250.12C257.95 246.69 257.64 240.56 257.91 238.18C257.94 237.87 258.34 237.76 258.2 237.31C258.64 237.34 258.71 237.41 259.07 237.6C258.53 240.68 259.47 256.9 259.07 262.65C255.01 262.67 250.92 262.96 246.84 262.94C246.63 259.72 247 239.47 246.55 238.33C246.1 237.21 244.43 239.04 244.8 237.31H246.84Z" fill="#221514"/>
<path d="M249.17 236.43C251.43 236.29 253.9 236.35 256.16 236.43C256.91 236.46 257.78 236.34 258.49 236.43C258.88 236.48 259.69 236.27 259.95 236.58C260.18 237.69 259.17 237.04 259.08 237.6C258.72 237.41 258.65 237.34 258.21 237.31C254.46 237.06 250.61 237.5 246.85 237.31H244.81C244.96 236.59 247.03 236.53 248.01 236.44C248.39 236.4 248.79 236.46 249.18 236.44L249.17 236.43Z" fill="#C9B5AD"/>
<path d="M257.91 250.12C257.87 254 258.06 257.89 257.76 261.77H247.86C247.56 261.56 247.75 259.39 247.71 258.86C247.53 255.76 247.67 251.86 247.71 248.67H248.58C255.35 248.67 255.5 249.04 256.15 245.76C256.99 245.52 257.01 248.45 257.02 250.57L257.89 250.13L257.91 250.12Z" fill="url(#paint0_linear_90_1179)"/>
<path d="M258.2 237.31C258.34 237.76 257.94 237.87 257.91 238.18H256.45L247.71 238.33C247.68 241.78 247.75 245.22 247.71 248.67C247.67 251.86 247.53 255.77 247.71 258.86C246.19 252.12 247.87 244.39 246.84 237.31C250.6 237.5 254.45 237.06 258.2 237.31Z" fill="#181E24"/>
<path d="M257.91 238.18C257.64 240.56 257.95 246.69 257.91 250.12L257.04 250.56C257.04 248.45 257 245.51 256.17 245.75C256.25 245.32 256.45 244.43 256.46 244.29C256.65 242.33 256.32 240.16 256.46 238.17H257.92L257.91 238.18Z" fill="#262D48"/>
<path d="M256.16 236.43C253.89 236.35 251.43 236.29 249.17 236.43C251.04 233.5 254.87 233.03 256.16 236.43Z" fill="#E25437"/>
<path d="M256.45 238.18C256.31 240.16 256.64 242.34 256.45 244.3C255.67 245.5 252.81 242.06 251.35 241.97C247.85 241.75 251.55 248.31 248.58 248.67H247.71C247.75 245.22 247.68 241.78 247.71 238.33L256.45 238.18Z" fill="#4C5878"/>
<path d="M256.45 244.299C256.44 244.429 256.24 245.329 256.16 245.759C255.51 249.049 255.36 248.669 248.59 248.669C251.55 248.309 247.86 241.749 251.36 241.969C252.82 242.059 255.68 245.499 256.46 244.299H256.45Z" fill="#6B6F7F"/>
<path d="M252.08 244.3C252.08 244.3 252.06 244.64 252.08 244.88C251.82 248.37 249.68 246.92 250.62 244.01C250.89 243.96 252.02 244.25 252.08 244.3Z" fill="#FBEAB5"/>
<path d="M252.08 244.299C252.03 244.249 250.89 243.959 250.62 244.009C251.35 241.749 251.34 242.929 252.08 244.299Z" fill="#1B2738"/>
<path d="M252.08 244.879C252.06 244.639 252.11 244.329 252.08 244.299C252.1 244.339 252.6 244.189 252.66 244.449C252.32 244.909 252.08 244.849 252.08 244.889V244.879Z" fill="#1B2738"/>
<path d="M148.4 198.28C145.89 200.31 143.98 202.46 141.7 204.69C138.99 207.34 129.6 217.23 128.88 217.8C126.06 220.03 126.89 218.17 128.3 216.49C128.59 216.14 131.79 213.75 135 210.37C135.86 209.46 136.74 207.9 137.62 207.02C138.42 206.22 138.17 206.18 138.2 206.15C140.34 203.99 143.01 202.02 145.34 200.03C146.57 198.98 146.65 196.82 148.4 198.28Z" fill="#4C5878"/>
<path d="M74.71 262.94C74.22 262.94 73.74 262.94 73.25 262.94C73.36 254.98 73.1 247.01 73.25 239.06C73.26 238.48 73.24 237.89 73.25 237.31C73.27 236.63 73.23 235.95 73.25 235.27C75.24 234.77 74.07 235.56 74.42 236.58C74.5 236.83 74.96 236.63 75 236.87C75.5 239.39 74.84 258.27 74.71 262.94Z" fill="#DFAB92"/>
<path d="M73.25 262.94C71.17 262.9 69.21 262.77 67.13 262.65C67.1 262.29 67.42 262.38 67.42 262.36L72.95 262.21C73.05 254.49 73.1467 246.773 73.24 239.06C73.09 247.02 73.35 254.99 73.24 262.94H73.25Z" fill="#0B0C0B"/>
<path d="M100.34 201.19C101.14 201.72 112.39 212.47 114.32 214.3C116.1 215.99 117.77 217.83 119.56 219.54C120.27 221.17 120.49 222.06 121.6 223.62C114.06 216.55 106.53 209.47 99.03 202.36C98.55 202.44 98.03 203.04 97.43 203.53L95.97 202.95C95.97 202.95 95.92 202.7 95.97 202.66C96.41 202.27 97.61 200.98 97.72 200.91C98 200.74 98.8 200.29 99.03 200.33C99.83 201.36 100.28 201.16 100.34 201.2V201.19Z" fill="#0B0C0B"/>
<path d="M97.43 203.52C92.95 207.13 78.18 223 71.51 228.42L73.26 229.44C73.21 231.38 73.32 233.33 73.26 235.27C73.24 235.95 73.28 236.63 73.26 237.31L72.97 229.3C72.85 229.08 68.68 230.47 68.6 229.15C77.92 220.63 86.62 211.41 95.98 202.94L97.44 203.52H97.43Z" fill="#0B0C0B"/>
<path d="M121.6 223.62C123.43 225.34 125.33 226.97 127.13 228.72C126.89 229.23 125.68 228.4 125.38 228.28C121.47 226.71 104.15 208.42 99.02 204.4L98.58 204.84C102.59 207.96 122.38 227.77 123.92 228.58C124.13 229.75 123.63 229.96 123.63 230.04C115.037 221.98 106.443 213.923 97.85 205.87C89.6433 213.737 81.44 221.6 73.24 229.46L71.49 228.44C78.16 223.02 92.93 207.15 97.41 203.54C98.01 203.06 98.53 202.45 99.01 202.37C106.51 209.48 114.04 216.56 121.58 223.63L121.6 223.62Z" fill="#C99577"/>
<path d="M115.19 229.44L120 235.27H77.77L82.58 229.44C84.19 229.18 113.59 229.18 115.2 229.44H115.19Z" fill="#57658A"/>
<path d="M82.57 229.441L77.76 235.271H119.99L115.18 229.441C115.51 229.491 115.87 229.411 116.2 229.441C119.58 232.151 121.15 236.381 123.92 235.121C123.96 234.401 123.86 233.651 123.92 232.941C124.12 232.941 124.45 232.871 124.5 233.091C124.93 234.911 124.17 256.521 124.5 261.781C124.21 261.821 124.17 262.081 123.92 262.071C123.53 258.651 124.43 237.751 123.92 236.581C123.62 235.901 122.59 236.021 122.46 236.731H122.17L121.59 236.151C118.19 236.121 114.79 236.201 111.4 236.151C107.48 236.101 80.25 235.211 78.92 236.151C78.65 236.341 78.59 238.171 79.21 238.481L83.43 239.061C82.45 238.861 80.44 239.211 79.21 239.061C77.23 234.301 76.22 236.801 75.57 236.001C75.29 235.661 81.07 230.061 81.54 229.451C81.87 229.421 82.23 229.501 82.56 229.451L82.57 229.441Z" fill="#181E24"/>
<path d="M111.41 236.14L111.12 237.89C109.99 237.31 105.46 237.51 104.13 237.89C103.96 237.94 102.89 240.31 101.95 237.6C97.67 238.04 91.52 236.5 88.84 238.77C84.62 235.17 88.03 238.45 88.4 239.35C87.88 239.35 88.21 240.03 88.11 240.22C86.25 239.41 86.13 238.25 84.03 239.35C83.34 239.46 83.48 239.07 83.45 239.06L79.23 238.48C78.6 238.17 78.67 236.34 78.94 236.15C80.27 235.21 107.5 236.1 111.42 236.15L111.41 236.14Z" fill="#AC8469"/>
<path d="M88.69 240.22C88.98 241.9 88.65 255.45 88.69 259.73C86.72 259.42 87.59 248.85 87.23 244.73C84.62 246.6 81.32 245.6 81.99 242.25C82.46 244.52 83.79 245.86 85.78 244.29C87.09 243.25 87.63 242.49 86.07 241.09C86.05 241.07 85.67 241.18 85.78 240.51C85.99 240.37 86.37 240.28 86.36 239.93C87.81 240.34 87.46 241.41 88.11 240.22C88.21 240.03 87.88 239.35 88.4 239.35C88.42 239.39 88.5 239.09 88.69 240.22Z" fill="#E4B58E"/>
<path d="M89.27 240.22V261.48C89.09 261.51 88.88 261.46 88.69 261.48C88.67 260.9 88.69 260.31 88.69 259.73C88.65 255.44 88.98 241.89 88.69 240.22C88.88 240.2 89.11 240.26 89.27 240.22Z" fill="#533920"/>
<path d="M121.6 236.14C121.89 237.81 118.51 237.3 116.94 238.76C115.69 238.31 113.55 238.36 112.86 239.63C111.4 239.9 112.62 238.65 111.11 237.88L111.4 236.13C114.8 236.18 118.2 236.1 121.59 236.13L121.6 236.14Z" fill="#C99577"/>
<path d="M122.18 236.73V262.94H110.53V238.91C106.67 236.7 107.8 240.48 105.29 239.93C104.39 239.73 103.97 240.2 104.12 237.89C105.45 237.51 109.98 237.31 111.11 237.89C112.62 238.66 111.39 239.9 112.86 239.64C111.66 241.88 116.52 244.69 117.08 244.59C117.98 244.43 120.31 239.97 116.93 238.76C118.5 237.3 121.88 237.81 121.59 236.14L122.17 236.72L122.18 236.73Z" fill="#F8D8B7"/>
<path d="M110.53 262.94L110.24 262.65V248.23L104.27 247.79C103.97 247.97 104.19 248.64 104.12 248.96C104.08 249.13 104.14 249.36 104.12 249.54H103.54C103.54 248.86 103.54 248.18 103.54 247.5C103.8 247.53 103.85 247.18 104.12 247.21C105.06 247.3 109.8 248.06 110.24 247.06C111.52 234.97 105.64 236.78 108.2 245.17C106.34 245.17 107.22 243.03 107.03 240.66C106.55 239.9 105.71 240.38 105.28 240.22V239.93C107.8 240.48 106.66 236.7 110.52 238.91V262.94H110.53Z" fill="#3E2E1E"/>
<path d="M112.14 241.39L115.05 244.89C117.56 244.77 115.7 245.69 114.18 244.89C113.57 244.57 112.27 242.24 112.14 241.39Z" fill="#775641"/>
<path d="M125.39 228.28C125.61 229.18 124.4 228.82 123.93 228.57C122.39 227.76 102.6 207.95 98.59 204.83L99.03 204.39C104.15 208.42 121.48 226.71 125.39 228.27V228.28Z" fill="#291610"/>
<path d="M105.29 240.22C105.72 240.37 106.56 239.89 107.04 240.66C107.22 243.03 106.34 245.17 108.21 245.17C106.64 247.48 105.25 245.46 104.13 243.71C103.93 236.53 103.58 243.97 103.55 247.5C103.55 248.18 103.55 248.86 103.55 249.54C103.54 251.24 103.84 261.37 103.55 261.92C103.3 262.38 102.69 261.87 102.38 261.77C102.24 258.99 101.62 240.77 102.09 239.78C102.83 238.24 103.86 240.19 103.98 240.22C104.38 240.29 105.01 240.12 105.29 240.22Z" fill="#C99577"/>
<path d="M89.27 261.48V240.22C89.55 240.15 89.6 239.96 89.85 239.93C90.09 242.8 90.49 260.05 90.14 261.05C90 261.45 89.58 261.43 89.27 261.49V261.48Z" fill="#B2A8A2"/>
<path d="M123.93 262.06V262.64C123.86 262.64 123.44 263.36 122.47 262.64V236.72C122.6 236.01 123.63 235.89 123.93 236.57C124.44 237.74 123.54 258.63 123.93 262.06Z" fill="#FACAA0"/>
<path d="M122.47 262.65L122.18 262.94V236.73H122.47V262.65Z" fill="#533920"/>
<path d="M122.91 236.731C123.01 236.701 123.55 237.341 123.35 237.751C123.11 238.231 122.39 236.881 122.91 236.731Z" fill="#6A4B2B"/>
<path d="M108.2 262.651C106.77 262.681 105.31 262.931 103.83 262.941C104.7 258.561 103.66 253.91 104.12 249.54C104.14 249.35 104.08 249.13 104.12 248.96C110.77 247.34 107.43 253.771 108.2 262.651Z" fill="#F8D8B7"/>
<path d="M110.24 262.65C108.74 263.42 108.3 262.65 108.2 262.65C107.44 253.77 110.77 247.34 104.12 248.96C104.19 248.64 103.97 247.97 104.27 247.79L110.24 248.23V262.65Z" fill="#DFAB92"/>
<path d="M104.13 247.21C104.11 246.05 104.16 244.88 104.13 243.71C105.25 245.45 106.64 247.48 108.21 245.17C105.65 236.78 111.53 234.97 110.25 247.06C109.81 248.05 105.08 247.29 104.13 247.21Z" fill="#DEBAA3"/>
<path d="M104.13 243.72C104.16 244.88 104.11 246.05 104.13 247.22C103.86 247.19 103.81 247.54 103.55 247.51C103.59 243.98 103.93 236.55 104.13 243.72Z" fill="#7B6656"/>
<path d="M88.11 240.22C87.47 241.41 87.81 240.34 86.36 239.93C86.3 239.91 85.84 239.28 85.34 239.35C81.97 239.81 82.06 245.38 84.76 244.59C86.25 244.16 84.83 241.17 85.78 240.51C85.67 241.18 86.05 241.07 86.07 241.09L85.78 244.29C83.79 245.86 82.46 244.52 81.99 242.25C82.22 241.11 82.99 239.88 84.03 239.34C86.12 238.24 86.25 239.4 88.11 240.21V240.22Z" fill="#3E2E1E"/>
<path d="M86.36 239.93C86.36 240.29 85.98 240.37 85.78 240.51C84.83 241.17 86.26 244.15 84.76 244.59C82.06 245.37 81.97 239.81 85.34 239.35C85.84 239.28 86.3 239.92 86.36 239.93Z" fill="#D0C7BC"/>
<path d="M85.78 244.301L86.07 241.101C87.63 242.511 87.09 243.271 85.78 244.301Z" fill="#F8D8B7"/>
<path d="M116.94 238.76C120.32 239.97 117.99 244.43 117.09 244.59C116.53 244.69 111.67 241.87 112.87 239.64C113.56 238.36 115.69 238.32 116.95 238.77L116.94 238.76Z" fill="#3E2E1E"/>
<path d="M114.17 239.06C121.29 236.8 116.35 249.94 116.35 240.95C116.25 240.72 110.1 240.35 114.17 239.06Z" fill="#E9DACB"/>
<path d="M113.3 241.09C113.99 241.18 115.75 240.97 115.92 241.09C116.17 241.27 116.88 246.19 113.3 241.09Z" fill="#947B5E"/>
<path d="M91.31 239.93V261.63L101.36 261.78C101.29 259.93 101.19 258.1 101.21 256.25C102.73 257.15 100.85 261.29 102.38 261.78C102.69 261.88 103.3 262.39 103.55 261.93C103.84 261.39 103.54 251.25 103.55 249.55H104.13C103.67 253.92 104.7 258.57 103.84 262.95C98.89 262.97 93.94 262.95 88.99 262.95C88.6 262.44 88.72 262.06 88.7 261.49C88.89 261.47 89.1 261.52 89.28 261.49C89.6 261.43 90.01 261.45 90.15 261.05C90.5 260.05 90.09 242.8 89.86 239.93C90.32 239.87 90.92 240.02 91.32 239.93H91.31Z" fill="#181E24"/>
<path d="M104.13 237.89C103.98 240.19 104.39 239.73 105.3 239.93V240.22C105.02 240.12 104.39 240.29 103.99 240.22C103.87 240.2 102.83 238.24 102.1 239.78C101.63 240.77 102.25 258.99 102.39 261.77C100.86 261.28 102.74 257.14 101.22 256.24C101.28 251.39 101.6 246.04 100.93 241.24C100.92 241.16 101.53 240.73 101.51 240.66C99.54 237.59 94.95 239.62 91.46 239.35C91.15 239.61 91.92 239.8 91.31 239.93C90.91 240.02 90.32 239.87 89.85 239.93C89.59 239.96 89.54 240.15 89.27 240.22C89.11 240.26 88.87 240.2 88.69 240.22C88.49 239.08 88.42 239.39 88.4 239.35C88.03 238.45 84.61 235.17 88.84 238.77C91.52 236.51 97.67 238.05 101.95 237.6C102.9 240.32 103.97 237.94 104.13 237.89Z" fill="#0B0C0B"/>
<path d="M101.21 256.24C101.19 258.1 101.28 259.92 101.36 261.77L91.31 261.62V239.92C91.92 239.79 91.14 239.6 91.46 239.34C94.95 239.61 99.54 237.58 101.51 240.65C101.53 240.72 100.92 241.15 100.93 241.23C101.6 246.02 101.28 251.38 101.22 256.23L101.21 256.24Z" fill="#262D48"/>
<path d="M97.43 250.121C93.48 250.621 96.72 249.641 96.85 249.391C97.03 249.011 96.71 246.171 96.85 245.171C97.91 245.501 97.26 248.031 97.43 250.121Z" fill="#E9DACB"/>
<path d="M97.43 250.121C97.26 248.031 97.91 245.501 96.85 245.171C96.89 244.881 96.74 244.371 97 244.301C98.67 245.861 97.83 248.191 98.02 250.271C97.26 251.201 97.5 250.121 97.44 250.121H97.43Z" fill="#343744"/>
<path d="M123.64 230.03C123.64 230.2 123.92 230.27 123.93 231.2C123.93 231.77 123.98 232.38 123.93 232.95C123.87 233.67 123.97 234.41 123.93 235.13C121.16 236.39 119.59 232.16 116.21 229.45C115.88 229.42 115.52 229.5 115.19 229.45C113.58 229.19 84.18 229.19 82.57 229.45C82.24 229.5 81.88 229.42 81.55 229.45C81.08 230.07 75.3 235.66 75.58 236C76.23 236.8 77.24 234.3 79.22 239.06C80.46 239.21 82.47 238.86 83.44 239.06C83.47 239.06 83.34 239.46 84.02 239.35C82.98 239.9 82.21 241.13 81.98 242.26C81.32 245.61 84.61 246.61 87.22 244.74C87.57 248.86 86.71 259.43 88.68 259.74C88.68 260.32 88.66 260.91 88.68 261.49C88.7 262.06 88.59 262.43 88.97 262.95C84.22 262.95 79.45 263.02 74.7 262.95C74.83 258.28 75.49 239.41 74.99 236.88C74.94 236.64 74.49 236.83 74.41 236.59C74.06 235.57 75.23 234.78 73.24 235.28C73.3 233.34 73.19 231.39 73.24 229.45C81.4467 221.584 89.65 213.72 97.85 205.86C106.443 213.92 115.037 221.977 123.63 230.03H123.64Z" fill="#F8D8B7"/>
<path d="M100.78 216.34C107.63 214.97 107.91 225.19 100.05 224.35C100.57 225.76 107.73 223.81 104.27 225.08C97.26 227.65 95.24 217.45 100.77 216.34H100.78Z" fill="#958273"/>
<path d="M103.54 222.75C100.61 223.72 99.53 223.19 99.9 219.84C99.97 219.81 100.02 220.54 100.92 221.01C103.08 222.13 103.36 221.16 103.54 219.12C103.35 217.88 102.61 221.77 100.92 221.01C98.65 220 103.99 217.19 100.05 218.39C100.28 218.14 100.35 218.03 100.63 217.81C104.63 216.78 104.34 219.88 103.54 222.76V222.75Z" fill="#B3B5BF"/>
<path d="M100.63 217.79C100.35 218.02 100.28 218.12 100.05 218.37C97.76 220.91 101.05 223.83 99.32 223.9C98.22 223.94 98.23 220.13 98.01 219.39C98.91 217.84 100.35 216.61 102.23 216.62V217.2C101.48 217.05 101.17 217.35 100.63 217.78V217.79Z" fill="#D0C7BC"/>
<path d="M103.54 222.751C106.25 218.641 102.24 217.151 103.1 216.631C105.51 217.301 106.2 220.841 104.7 222.601C103.91 223.541 103.59 222.731 103.53 222.751H103.54Z" fill="#D0C7BC"/>
<path d="M100.92 221.001C102.61 221.751 103.35 217.871 103.54 219.111C103.36 221.161 103.08 222.121 100.92 221.001Z" fill="#958273"/>
<path d="M152.18 202.65C152.97 203.58 153.7 204.62 154.51 205.56C154.97 206.09 155.24 206.87 155.38 207.02C155.84 207.5 156.35 207.84 156.69 208.48L157.13 208.04C157.03 205.66 156.933 203.28 156.84 200.9C157.33 200.79 157.61 200.98 158.01 201.19C158.32 202.76 157.78 207.44 158.01 209.78C159.63 212.24 169.88 221.86 170.24 222.74C169.84 222.69 169.23 222.82 169.07 222.74C167.39 221.88 151.24 202.98 148.25 199.73C147.59 199.79 147.22 200.69 146.36 201.19C146.19 201.29 145.95 200.88 145.92 200.9C144.63 201.77 143.32 204.15 141.7 204.69C143.98 202.46 145.89 200.31 148.4 198.28C148.62 198.47 151.58 201.94 152.19 202.65H152.18Z" fill="#E9DACB"/>
<path d="M170.24 222.75C170.89 224.32 169.67 223.24 169.37 223.77C168.99 224.45 169.41 237.24 169.37 239.35H168.79C168.97 238.19 168.5 237.72 168.5 237.6C168.53 233.75 168.72 229.82 168.79 225.95C168.81 224.85 168.68 223.81 169.08 222.75C169.23 222.83 169.85 222.7 170.25 222.75H170.24Z" fill="#494D5E"/>
<path d="M168.49 237.6C168.49 237.72 168.96 238.19 168.78 239.35C160.79 239.35 138.12 240.23 133.54 239.64C132.8 239.55 130.76 239.13 131.79 237.75C132.89 236.28 164.41 238.28 168.49 237.6Z" fill="#FACAA0"/>
<path d="M169.08 222.75C168.67 223.81 168.81 224.86 168.79 225.95C166.85 224.19 163.97 221.48 162.96 219.25C168.13 223.9 160.23 215.48 159.46 214.59C159.43 214.53 159.62 214.09 158.73 213.42C158.23 214.01 159.26 214.36 159.46 214.59C159.53 214.71 159.39 215 160.92 216.92C156.05 212.59 151.85 207.5 147.52 202.65C147.12 202.2 146.7 201.69 146.35 201.19C147.21 200.69 147.58 199.79 148.24 199.73C151.24 202.98 167.39 221.88 169.06 222.74L169.08 222.75Z" fill="#AC8469"/>
<path d="M146.36 201.19C146.71 201.69 147.12 202.2 147.53 202.65C147.42 203.37 146.95 202.16 146.51 202.36C144.98 203.05 131.29 218.56 130.2 218.96C129.99 219.04 129.52 218.91 129.18 218.96C129.11 218.17 128.9 218.41 128.89 218.38C128.85 218.27 128.91 218 128.89 217.8C129.61 217.23 139 207.34 141.71 204.69C143.34 204.15 144.65 201.77 145.93 200.9C145.95 200.88 146.2 201.29 146.37 201.19H146.36Z" fill="#FACAA0"/>
<path d="M159.46 214.59C159.26 214.36 158.24 214.01 158.73 213.42C159.61 214.09 159.42 214.53 159.46 214.59Z" fill="#73462D"/>
<path d="M147.52 202.65C151.84 207.5 156.05 212.59 160.92 216.92C161.44 217.57 162.39 218.74 162.96 219.25C163.96 221.48 166.84 224.18 168.79 225.95C168.72 229.82 168.52 233.75 168.5 237.6C164.42 238.27 132.9 236.27 131.8 237.75C130.77 239.13 132.81 239.55 133.55 239.64V239.93C133.13 239.98 132.02 239.77 131.8 240.08V262.94C130.93 262.94 130.05 262.94 129.18 262.94C128.34 249.47 130.31 231.9 129.18 218.96C129.52 218.91 129.99 219.04 130.2 218.96C131.29 218.56 144.98 203.04 146.51 202.36C146.95 202.16 147.42 203.37 147.53 202.65H147.52Z" fill="#FACAA0"/>
<path d="M133.54 239.93C135.37 239.72 139.27 239.96 141.7 239.93V240.51C138.64 240.55 135.58 240.48 132.53 240.51C132.23 240.72 132.44 241.59 132.38 241.97C132.18 243.31 132.41 246.67 132.38 248.67C132.3 253.42 132.68 258.21 132.09 262.94C131.99 262.94 131.9 262.94 131.8 262.94V240.08C132.01 239.78 133.13 239.98 133.55 239.93H133.54Z" fill="#221514"/>
<path d="M162.96 219.25C162.39 218.74 161.44 217.57 160.92 216.92C159.4 215 159.53 214.71 159.46 214.59C160.23 215.48 168.13 223.9 162.96 219.25Z" fill="#73462D"/>
<path d="M149.27 212.84C149.04 212.39 146.71 212.48 146.5 212.55C145.89 212.76 146.66 213.1 146.65 213.13C146.31 214.09 146.3 214.76 146.36 215.75C145.34 215.39 145.69 213.36 146.07 212.25C146.26 212.21 145.21 211.38 149.42 211.67C149.94 212.31 149.27 212.78 149.27 212.84Z" fill="#E9DACB"/>
<path d="M146.07 212.26C145.7 213.36 145.34 215.4 146.36 215.76C146.79 215.91 148.2 215.65 148.98 215.76H149.27C149.56 216.7 145.76 216.54 145.48 215.91C145.43 209.73 145.17 212.45 146.06 212.27L146.07 212.26Z" fill="#775641"/>
<path d="M149.27 212.84C149.33 213.8 149.23 214.79 149.27 215.75H148.98C149.05 213.29 149.3 212.93 146.65 213.13C146.65 213.1 145.9 212.76 146.5 212.55C146.71 212.48 149.04 212.39 149.27 212.84Z" fill="#656666"/>
<path d="M148.98 215.75C148.19 215.64 146.79 215.9 146.36 215.75C146.3 214.76 146.31 214.09 146.65 213.13C149.3 212.93 149.05 213.29 148.98 215.75Z" fill="#B2A8A2"/>
<path d="M159.76 232.359C160.26 231.699 159.74 230.979 159.76 230.319C159.83 227.459 159.71 224.589 159.76 221.729C159.55 221.429 153.43 221.589 152.48 221.579C150.05 221.559 150.54 221.869 150.44 221.869C149.32 221.869 148.4 221.819 147.24 221.869C147.21 221.869 147.21 221.839 146.66 221.869C145.6 221.929 144.51 221.789 143.46 221.869C142.65 221.929 142.17 222.089 141.42 222.159C140.71 222.229 138.01 221.849 137.63 222.449V230.309C137.05 230.319 136.46 230.309 135.88 230.309C135.61 227.699 136.08 224.299 135.88 221.569C135.99 221.419 135.7 220.599 136.03 220.399L161.37 220.689L161.52 231.899C161.07 232.629 160.36 232.199 159.77 232.339L159.76 232.359Z" fill="#E9DACB"/>
<path d="M141.41 222.449V230.309C140.16 230.389 138.88 230.289 137.62 230.309V222.449H141.41Z" fill="#757D93"/>
<path d="M143.45 221.869V230.319C142.77 230.349 142.09 230.269 141.41 230.319V222.159C142.16 222.089 142.64 221.929 143.45 221.869Z" fill="#B3B5BF"/>
<path d="M152.47 221.579V230.319C151.79 230.319 151.11 230.319 150.43 230.319V221.869C150.53 221.869 150.04 221.549 152.47 221.579Z" fill="#D0C7BC"/>
<path d="M150.44 221.87V230.32C149.95 230.32 149.47 230.32 148.98 230.32C149.81 229.3 149.84 222.6 149.13 222.16C148.99 222.08 148.04 222.2 147.53 222.16C147.31 222.14 147.21 222.12 147.24 221.87C148.4 221.82 149.32 221.87 150.44 221.87Z" fill="#4C5878"/>
<path d="M146.65 221.869V230.319C146.46 230.319 146.26 230.319 146.07 230.319C147.92 219.659 142.59 218.249 143.74 230.029L143.45 230.319V221.869C144.51 221.789 145.59 221.929 146.65 221.869Z" fill="#6B6F7F"/>
<path d="M147.23 221.87C147.2 222.12 147.3 222.14 147.52 222.16V230.32C147.23 230.32 146.94 230.32 146.65 230.32V221.87C147.2 221.84 147.2 221.87 147.23 221.87Z" fill="#B3B5BF"/>
<path d="M141.41 222.16V222.45H137.62C137.99 221.85 140.7 222.23 141.41 222.16Z" fill="#494D5E"/>
<path d="M159.76 230.319H152.48V221.579C153.44 221.579 159.55 221.429 159.76 221.729C159.71 224.589 159.83 227.459 159.76 230.319Z" fill="#757D93"/>
<path d="M154.08 225.95C154.35 225.77 155.1 226.18 155.1 226.39C155.1 227.27 153.09 226.62 154.08 225.95Z" fill="#EFF1F9"/>
<path d="M146.07 230.319C145.28 230.299 144.46 230.499 143.74 230.029C142.59 218.249 147.92 219.659 146.07 230.319Z" fill="#757D93"/>
<path d="M148.98 230.319C148.49 230.319 148.01 230.319 147.52 230.319V222.159C148.03 222.199 148.98 222.079 149.12 222.159C149.83 222.599 149.81 229.289 148.97 230.319H148.98Z" fill="#757D93"/>
<path d="M135.87 221.579C136.07 224.309 135.6 227.709 135.87 230.319C135.95 231.049 135.59 231.859 136.31 232.359H159.76C153.83 233.719 142.01 231.939 135.44 232.649L135.29 221.439C135.38 221.079 135.77 221.729 135.87 221.589V221.579Z" fill="#936D52"/>
<path d="M141.41 230.319C142.08 230.269 142.77 230.349 143.45 230.319L143.74 230.029C144.46 230.499 145.28 230.299 146.07 230.319C146.26 230.319 146.46 230.319 146.65 230.319C146.94 230.319 147.23 230.319 147.52 230.319C148.01 230.319 148.49 230.319 148.98 230.319C149.47 230.319 149.95 230.319 150.44 230.319C151.12 230.319 151.8 230.319 152.48 230.319H159.76C159.74 230.979 160.26 231.699 159.76 232.359H136.31C135.59 231.859 135.95 231.059 135.87 230.319C136.45 230.319 137.04 230.329 137.62 230.319C138.88 230.299 140.16 230.399 141.41 230.319Z" fill="#FACAA0"/>
<path d="M142.43 230.899C166.37 230.719 159.55 231.869 140.68 231.479L142.43 230.899Z" fill="#FFF4E4"/>
<path d="M169.08 240.22V262.65L168.79 262.94V240.95L168.21 240.51C161.61 240.54 155.01 240.46 148.4 240.51C146.17 240.53 143.93 240.48 141.7 240.51V239.93C150.81 239.82 159.97 239.77 169.08 240.22Z" fill="#292727"/>
<path d="M168.78 239.35H169.36C169.36 239.65 170.03 239.82 169.07 240.22C159.96 239.77 150.81 239.82 141.69 239.93C139.26 239.96 135.36 239.72 133.53 239.93V239.64C138.12 240.22 160.79 239.35 168.77 239.35H168.78Z" fill="#E9DACB"/>
<path d="M141.12 243.719C141.04 244.119 141.46 248.609 141.41 249.249C141.22 251.919 140.98 254.589 140.83 257.259C140.21 258.179 139.72 257.399 139.66 257.409L139.81 256.539C139.27 257.689 137.29 256.829 137.04 256.099C136.79 255.349 136.94 244.559 137.48 244.299C140.48 242.879 138.28 254.279 139.37 256.099C138.83 251.789 140.64 244.179 138.2 243.719C138.59 241.709 140.01 242.999 141.11 243.719H141.12Z" fill="#F8D8B7"/>
<path d="M168.2 240.509C168.63 241.839 167.54 242.839 166.31 243.129C165.5 243.319 150.52 243.319 149.71 243.129C149.62 243.109 148.73 242.169 148.4 241.959C148.5 241.739 148.33 240.939 148.4 240.499C155 240.449 161.6 240.529 168.21 240.499L168.2 240.509Z" fill="#DFAB92"/>
<path d="M137.91 243.719C135.25 243.989 136.72 252.299 136.74 256.829C136.74 256.999 136.28 257.329 136.45 258.289V258.869C135.98 258.779 135.67 259.059 134.7 257.849L134.12 247.659C132.61 247.289 133.96 249.429 132.37 248.679C132.4 246.679 132.17 243.319 132.37 241.979C135.9 245.749 137.7 241.289 137.9 243.729L137.91 243.719Z" fill="#FACAA0"/>
<path d="M143.15 241.679V242.549C143.25 243.969 143.01 245.509 143.15 246.919L142.86 249.249H141.4C141.45 248.599 141.03 244.109 141.11 243.719C141.57 241.469 142.34 241.489 143.15 241.679Z" fill="#DFAB92"/>
<path d="M137.91 243.72C138 243.72 138.12 243.7 138.2 243.72C140.63 244.17 138.83 251.79 139.37 256.1C138.28 254.28 140.48 242.89 137.48 244.3C136.95 244.55 136.79 255.35 137.04 256.1C137.28 256.82 139.26 257.69 139.81 256.54L139.66 257.41C138.62 257.45 137.68 257.35 136.75 256.83C136.73 252.3 135.26 244 137.92 243.72H137.91Z" fill="#3E2E1E"/>
<path d="M147.52 242.84C148.65 242.11 148.59 245.68 148.39 247.5C145.63 247.97 148.95 242.99 145.77 242.99C145.8 242.65 147.25 242.98 147.52 242.84Z" fill="#514D4F"/>
<path d="M147.67 243.13C149.05 247.54 147.14 249.24 147.52 243.28L147.67 243.13Z" fill="#9DA0AF"/>
<path d="M141.7 240.51C143.93 240.48 146.17 240.53 148.4 240.51C148.33 240.95 148.5 241.75 148.4 241.97C148.37 242.03 147.58 242.82 147.53 242.84C147.26 242.97 145.81 242.65 145.78 242.99C148.96 242.99 145.64 247.97 148.4 247.5C148.35 247.98 148.43 248.48 148.4 248.96H143.59C142.87 248.46 143.23 247.66 143.15 246.92C143.01 245.52 143.25 243.97 143.15 242.55C144.69 241.06 143.25 241.7 143.15 241.68C142.34 241.48 141.57 241.47 141.11 243.72C140 243 138.59 241.71 138.2 243.72C138.12 243.7 137.99 243.72 137.91 243.72C137.71 241.28 135.9 245.74 132.38 241.97C132.44 241.59 132.23 240.73 132.53 240.51C135.59 240.48 138.65 240.55 141.7 240.51Z" fill="#FACAA0"/>
<path d="M148.4 248.96L142.87 249.25L143.16 246.92C143.24 247.65 142.88 248.46 143.6 248.96H148.41H148.4Z" fill="#936D52"/>
<path d="M143.15 242.549V241.679C143.25 241.699 144.69 241.059 143.15 242.549Z" fill="#5C4636"/>
<path d="M143.88 242.84C147.07 241.1 145.15 250.63 143.44 246.77C143.27 246.38 143.39 243.1 143.88 242.84Z" fill="#656666"/>
<path d="M144.46 243.13C145.6 242.86 145.46 247.11 144.46 246.92C143.81 246.79 143.79 243.29 144.46 243.13Z" fill="#B3B5BF"/>
<path d="M168.78 262.94C156.55 262.92 144.31 262.97 132.08 262.94C132.67 258.21 132.29 253.42 132.37 248.67C133.96 249.42 132.61 247.28 134.12 247.65L134.7 257.84C135.67 259.05 135.98 258.77 136.45 258.86C136.82 258.93 140.24 258.9 140.24 258.71L136.45 258.27C136.28 257.32 136.74 256.98 136.74 256.81C137.67 257.33 138.61 257.43 139.65 257.39C139.71 257.39 140.2 258.16 140.82 257.24C140.98 254.57 141.22 251.9 141.4 249.23H142.86L148.39 248.94C148.42 248.46 148.34 247.96 148.39 247.48C148.59 245.66 148.64 242.09 147.52 242.82C147.58 242.79 148.37 242 148.39 241.95C148.72 242.16 149.62 243.09 149.7 243.12C150.51 243.31 165.49 243.31 166.3 243.12C167.53 242.83 168.62 241.82 168.19 240.5L168.77 240.94V262.93L168.78 262.94Z" fill="#FACAA0"/>
<path d="M165.87 258.86C170.85 260.37 157.35 260.73 155.53 260.32C155.34 260.28 154.74 259.87 154.51 259.45V258.87C156.96 259.51 164.03 258.31 165.87 258.87V258.86Z" fill="#DFAB92"/>
<path d="M136.46 258.86V258.28L140.25 258.72C140.25 258.91 136.84 258.94 136.46 258.87V258.86Z" fill="#533920"/>
<path d="M165.87 258.86C164.03 258.3 156.96 259.5 154.51 258.86L154.8 247.79C154.8 247.79 154.82 247.51 155.24 247.21L166.16 247.65C166.49 248.13 166.91 258.45 165.87 258.86Z" fill="#E9DACB"/>
<path d="M154.8 247.79L154.51 258.86V259.44C153.7 257.96 154.51 250.23 154.22 247.94C154.31 247.67 154.76 247.84 154.8 247.79Z" fill="#775641"/>
<path d="M157.43 257.99C158.64 256.53 157.97 255.74 156.26 255.66C156.16 254.6 155.42 248.82 156.41 248.38L164.71 248.53V257.85L157.43 258V257.99Z" fill="#757D93"/>
<path d="M157.43 257.989L155.97 257.259C155.53 255.559 156.29 255.999 156.26 255.659C157.96 255.739 158.63 256.529 157.43 257.989Z" fill="#DEBAA3"/>
<path d="M157.13 250.12C159.88 250.3 160.4 249.29 157.28 249.54L157.13 250.12C154.42 248.74 165.02 248.97 162.52 250.12C161.81 249.18 159 249.08 159.9 250.7C166 250.12 158.42 251.13 159.9 251.87C165.04 250.81 160.18 253.67 159.03 251.58C154.04 251.37 162.53 250.97 157.14 250.12H157.13Z" fill="#757D93"/>
<path d="M160.05 255.069C160.08 255.149 159.67 256.699 159.9 256.819C160.78 257.269 164.73 256.549 160.92 256.089C162.91 255.179 163.46 256.589 162.96 257.259C162.59 257.739 158.91 257.039 158.45 257.699L158.3 256.969C161.06 256.439 156.38 255.909 160.05 255.079V255.069Z" fill="#9DA0AF"/>
<path d="M160.19 253.62C160.29 253.58 162.13 253.58 162.23 253.62C163.08 253.99 159.34 253.99 160.19 253.62Z" fill="#8D90A0"/>
<path d="M160.05 255.069C160.02 254.979 160.08 254.869 160.05 254.779L162.38 254.929C162.38 255.279 160.71 254.929 160.05 255.079V255.069Z" fill="#8D90A0"/>
<path d="M159.46 253.91C159.36 253.83 155.99 252.99 159.02 253.33C159.23 253.35 159.43 253.89 159.46 253.91Z" fill="#8D90A0"/>
<path d="M160.05 254.779C158.58 255.019 159.72 254.099 159.47 253.909C159.75 254.139 159.96 254.449 160.05 254.779Z" fill="#B3B5BF"/>
<path d="M157.13 250.12L157.28 249.54C160.4 249.29 159.88 250.3 157.13 250.12Z" fill="#757D93"/>
</g>
<path d="M151.71 283.443C213.07 283.421 274.43 283.908 335.78 283.657L335.93 284.41C244.623 284.445 153.313 284.481 62 284.521V283.657C91.9 283.886 121.81 283.45 151.71 283.443Z" fill="#EAEAEA"/>
<path d="M477.432 164.816V170.144H463.752V215H457.2V170.144H443.448V164.816H477.432ZM505.081 174.824C508.057 174.824 510.745 175.472 513.145 176.768C515.545 178.016 517.417 179.912 518.761 182.456C520.153 185 520.849 188.096 520.849 191.744V215H514.369V192.68C514.369 188.744 513.385 185.744 511.417 183.68C509.449 181.568 506.761 180.512 503.353 180.512C499.897 180.512 497.137 181.592 495.073 183.752C493.057 185.912 492.049 189.056 492.049 193.184V215H485.497V161.72H492.049V181.16C493.345 179.144 495.121 177.584 497.377 176.48C499.681 175.376 502.249 174.824 505.081 174.824ZM529.104 195.128C529.104 191.096 529.92 187.568 531.552 184.544C533.184 181.472 535.416 179.096 538.248 177.416C541.128 175.736 544.32 174.896 547.824 174.896C551.28 174.896 554.28 175.64 556.824 177.128C559.368 178.616 561.264 180.488 562.512 182.744V175.544H569.136V215H562.512V207.656C561.216 209.96 559.272 211.88 556.68 213.416C554.136 214.904 551.16 215.648 547.752 215.648C544.248 215.648 541.08 214.784 538.248 213.056C535.416 211.328 533.184 208.904 531.552 205.784C529.92 202.664 529.104 199.112 529.104 195.128ZM562.512 195.2C562.512 192.224 561.912 189.632 560.712 187.424C559.512 185.216 557.88 183.536 555.816 182.384C553.8 181.184 551.568 180.584 549.12 180.584C546.672 180.584 544.44 181.16 542.424 182.312C540.408 183.464 538.8 185.144 537.6 187.352C536.4 189.56 535.8 192.152 535.8 195.128C535.8 198.152 536.4 200.792 537.6 203.048C538.8 205.256 540.408 206.96 542.424 208.16C544.44 209.312 546.672 209.888 549.12 209.888C551.568 209.888 553.8 209.312 555.816 208.16C557.88 206.96 559.512 205.256 560.712 203.048C561.912 200.792 562.512 198.176 562.512 195.2ZM599.432 174.824C604.232 174.824 608.12 176.288 611.096 179.216C614.072 182.096 615.56 186.272 615.56 191.744V215H609.08V192.68C609.08 188.744 608.096 185.744 606.128 183.68C604.16 181.568 601.472 180.512 598.064 180.512C594.608 180.512 591.848 181.592 589.784 183.752C587.768 185.912 586.76 189.056 586.76 193.184V215H580.208V175.544H586.76V181.16C588.056 179.144 589.808 177.584 592.016 176.48C594.272 175.376 596.744 174.824 599.432 174.824ZM648.295 215L632.815 197.576V215H626.263V161.72H632.815V193.04L648.007 175.544H657.151L638.575 195.2L657.223 215H648.295ZM481.68 272.816L465.336 304.064V323H458.784V304.064L442.368 272.816H449.64L462.024 298.232L474.408 272.816H481.68ZM505.799 323.648C502.103 323.648 498.743 322.808 495.719 321.128C492.743 319.448 490.391 317.072 488.663 314C486.983 310.88 486.143 307.28 486.143 303.2C486.143 299.168 487.007 295.616 488.735 292.544C490.511 289.424 492.911 287.048 495.935 285.416C498.959 283.736 502.343 282.896 506.087 282.896C509.831 282.896 513.215 283.736 516.239 285.416C519.263 287.048 521.639 289.4 523.367 292.472C525.143 295.544 526.031 299.12 526.031 303.2C526.031 307.28 525.119 310.88 523.295 314C521.519 317.072 519.095 319.448 516.023 321.128C512.951 322.808 509.543 323.648 505.799 323.648ZM505.799 317.888C508.151 317.888 510.359 317.336 512.423 316.232C514.487 315.128 516.143 313.472 517.391 311.264C518.687 309.056 519.335 306.368 519.335 303.2C519.335 300.032 518.711 297.344 517.463 295.136C516.215 292.928 514.583 291.296 512.567 290.24C510.551 289.136 508.367 288.584 506.015 288.584C503.615 288.584 501.407 289.136 499.391 290.24C497.423 291.296 495.839 292.928 494.639 295.136C493.439 297.344 492.839 300.032 492.839 303.2C492.839 306.416 493.415 309.128 494.567 311.336C495.767 313.544 497.351 315.2 499.319 316.304C501.287 317.36 503.447 317.888 505.799 317.888ZM569.638 283.544V323H563.086V317.168C561.838 319.184 560.086 320.768 557.83 321.92C555.622 323.024 553.174 323.576 550.486 323.576C547.414 323.576 544.654 322.952 542.206 321.704C539.758 320.408 537.814 318.488 536.374 315.944C534.982 313.4 534.286 310.304 534.286 306.656V283.544H540.766V305.792C540.766 309.68 541.75 312.68 543.718 314.792C545.686 316.856 548.374 317.888 551.782 317.888C555.286 317.888 558.046 316.808 560.062 314.648C562.078 312.488 563.086 309.344 563.086 305.216V283.544H569.638Z" fill="#F1724F"/>
<line x1="373" y1="501" x2="373" y2="1" stroke="#F8D8B7" stroke-width="2" stroke-linecap="round" stroke-dasharray="12 12"/>
</g>
<defs>
<linearGradient id="paint0_linear_90_1179" x1="252.34" y1="250.82" x2="253.12" y2="258.94" gradientUnits="userSpaceOnUse">
<stop stop-color="#4A506B"/>
<stop offset="1" stop-color="#323955"/>
</linearGradient>
<clipPath id="clip0_90_1179">
<rect width="1024" height="482" fill="white"/>
</clipPath>
<clipPath id="clip1_90_1179">
<rect width="273.93" height="92.06" fill="white" transform="translate(60 177)"/>
</clipPath>
</defs>
</svg>
