<svg width="1024" height="187" viewBox="0 0 1024 187" fill="none" xmlns="http://www.w3.org/2000/svg">
<g clip-path="url(#clip0_6_1040)">
<rect width="1024" height="187" fill="white"/>
<rect width="1024" height="187" fill="black"/>
<path d="M471.71 133C533.07 132.992 594.43 133.181 655.78 133.083L655.93 133.375C564.623 133.389 473.313 133.403 382 133.418V133.083C411.9 133.172 441.81 133.003 471.71 133Z" fill="#EAEAEA"/>
<path d="M409.246 103.379C409.246 105.299 408.969 107.008 408.416 108.506C407.879 110.003 407.106 111.265 406.097 112.29C405.088 113.315 403.867 114.097 402.435 114.634C401.002 115.155 399.399 115.415 397.625 115.415C396.014 115.415 394.524 115.163 393.157 114.658C391.806 114.154 390.634 113.413 389.642 112.437C388.665 111.444 387.9 110.223 387.347 108.774C386.81 107.31 386.541 105.625 386.541 103.721V83.8965C386.541 83.7988 386.565 83.7093 386.614 83.6279C386.663 83.5465 386.744 83.4814 386.858 83.4326C386.989 83.3838 387.143 83.3431 387.322 83.3105C387.501 83.278 387.737 83.2617 388.03 83.2617C388.307 83.2617 388.543 83.278 388.738 83.3105C388.934 83.3431 389.088 83.3838 389.202 83.4326C389.316 83.4814 389.397 83.5465 389.446 83.6279C389.495 83.7093 389.52 83.7988 389.52 83.8965V103.232C389.52 104.811 389.707 106.195 390.081 107.383C390.472 108.571 391.025 109.564 391.741 110.361C392.474 111.143 393.353 111.737 394.378 112.144C395.42 112.534 396.591 112.729 397.894 112.729C399.212 112.729 400.384 112.542 401.409 112.168C402.451 111.777 403.33 111.191 404.046 110.41C404.762 109.629 405.307 108.66 405.682 107.505C406.072 106.333 406.268 104.966 406.268 103.403V83.8965C406.268 83.7988 406.292 83.7093 406.341 83.6279C406.39 83.5465 406.471 83.4814 406.585 83.4326C406.699 83.3838 406.854 83.3431 407.049 83.3105C407.244 83.278 407.48 83.2617 407.757 83.2617C408.034 83.2617 408.27 83.278 408.465 83.3105C408.66 83.3431 408.815 83.3838 408.929 83.4326C409.043 83.4814 409.124 83.5465 409.173 83.6279C409.222 83.7093 409.246 83.7988 409.246 83.8965V103.379ZM430.853 108.628C430.853 109.686 430.657 110.638 430.267 111.484C429.876 112.314 429.314 113.022 428.582 113.608C427.866 114.194 427.003 114.642 425.994 114.951C424.985 115.26 423.87 115.415 422.649 115.415C421.884 115.415 421.16 115.35 420.477 115.22C419.793 115.106 419.174 114.959 418.621 114.78C418.068 114.585 417.596 114.382 417.205 114.17C416.831 113.958 416.554 113.771 416.375 113.608C416.196 113.446 416.066 113.242 415.984 112.998C415.903 112.754 415.862 112.428 415.862 112.021C415.862 111.81 415.879 111.623 415.911 111.46C415.944 111.297 415.984 111.159 416.033 111.045C416.082 110.931 416.147 110.85 416.229 110.801C416.31 110.736 416.399 110.703 416.497 110.703C416.676 110.703 416.937 110.817 417.278 111.045C417.62 111.273 418.043 111.525 418.548 111.802C419.069 112.062 419.679 112.306 420.379 112.534C421.095 112.762 421.917 112.876 422.845 112.876C423.593 112.876 424.277 112.795 424.896 112.632C425.514 112.469 426.051 112.225 426.507 111.899C426.963 111.574 427.312 111.159 427.557 110.654C427.817 110.133 427.947 109.531 427.947 108.848C427.947 108.164 427.785 107.586 427.459 107.114C427.133 106.642 426.702 106.235 426.165 105.894C425.644 105.535 425.042 105.226 424.358 104.966C423.691 104.689 422.999 104.412 422.283 104.136C421.583 103.843 420.892 103.525 420.208 103.184C419.541 102.842 418.938 102.427 418.401 101.938C417.881 101.45 417.457 100.864 417.132 100.181C416.806 99.4971 416.644 98.6751 416.644 97.7148C416.644 96.9499 416.79 96.2012 417.083 95.4688C417.376 94.7201 417.824 94.0527 418.426 93.4668C419.044 92.8809 419.826 92.4089 420.77 92.0508C421.73 91.6927 422.861 91.5137 424.163 91.5137C424.716 91.5137 425.262 91.5625 425.799 91.6602C426.352 91.7415 426.849 91.8555 427.288 92.002C427.744 92.1484 428.134 92.3112 428.46 92.4902C428.785 92.653 429.03 92.7995 429.192 92.9297C429.371 93.0599 429.485 93.1738 429.534 93.2715C429.599 93.3529 429.64 93.4424 429.656 93.54C429.689 93.6377 429.713 93.7598 429.729 93.9062C429.746 94.0365 429.754 94.1992 429.754 94.3945C429.754 94.5898 429.738 94.7689 429.705 94.9316C429.689 95.0781 429.656 95.2083 429.607 95.3223C429.559 95.4362 429.493 95.5257 429.412 95.5908C429.347 95.6396 429.266 95.6641 429.168 95.6641C429.038 95.6641 428.842 95.5745 428.582 95.3955C428.322 95.2165 427.98 95.0212 427.557 94.8096C427.133 94.598 426.629 94.4027 426.043 94.2236C425.457 94.0446 424.782 93.9551 424.017 93.9551C423.252 93.9551 422.576 94.0446 421.99 94.2236C421.421 94.4027 420.949 94.6549 420.574 94.9805C420.2 95.306 419.915 95.6885 419.72 96.1279C419.541 96.5674 419.451 97.0475 419.451 97.5684C419.451 98.2845 419.614 98.8867 419.939 99.375C420.265 99.8633 420.696 100.286 421.233 100.645C421.771 101.003 422.381 101.32 423.064 101.597C423.748 101.873 424.44 102.15 425.14 102.427C425.856 102.703 426.556 103.013 427.239 103.354C427.923 103.68 428.533 104.079 429.07 104.551C429.607 105.023 430.039 105.592 430.364 106.26C430.69 106.911 430.853 107.7 430.853 108.628ZM455.218 102.329C455.218 102.915 455.063 103.322 454.754 103.55C454.445 103.761 454.144 103.867 453.851 103.867H438.787C438.787 105.234 438.917 106.471 439.178 107.578C439.454 108.685 439.902 109.637 440.521 110.435C441.139 111.216 441.945 111.818 442.938 112.241C443.93 112.664 445.151 112.876 446.6 112.876C447.625 112.876 448.545 112.786 449.358 112.607C450.172 112.428 450.872 112.233 451.458 112.021C452.06 111.794 452.549 111.59 452.923 111.411C453.313 111.232 453.59 111.143 453.753 111.143C453.851 111.143 453.94 111.167 454.021 111.216C454.103 111.265 454.168 111.346 454.217 111.46C454.266 111.558 454.298 111.688 454.314 111.851C454.347 112.013 454.363 112.217 454.363 112.461C454.363 112.575 454.355 112.689 454.339 112.803C454.323 112.9 454.298 112.998 454.266 113.096C454.249 113.177 454.217 113.258 454.168 113.34C454.119 113.421 454.054 113.503 453.973 113.584C453.891 113.665 453.639 113.812 453.216 114.023C452.793 114.219 452.239 114.422 451.556 114.634C450.872 114.829 450.075 115.008 449.163 115.171C448.268 115.334 447.299 115.415 446.258 115.415C444.549 115.415 443.035 115.163 441.717 114.658C440.398 114.137 439.292 113.381 438.396 112.388C437.501 111.379 436.818 110.133 436.346 108.652C435.89 107.171 435.662 105.454 435.662 103.501C435.662 101.629 435.898 99.9528 436.37 98.4717C436.858 96.9906 437.55 95.7373 438.445 94.7119C439.34 93.6702 440.415 92.8809 441.668 92.3438C442.938 91.7904 444.345 91.5137 445.892 91.5137C447.552 91.5137 448.968 91.7904 450.14 92.3438C451.312 92.8971 452.272 93.6458 453.021 94.5898C453.785 95.5176 454.339 96.5999 454.681 97.8369C455.039 99.0739 455.218 100.376 455.218 101.743V102.329ZM452.215 101.475C452.264 99.1309 451.727 97.2998 450.604 95.9814C449.48 94.6631 447.845 94.0039 445.696 94.0039C444.59 94.0039 443.613 94.2155 442.767 94.6387C441.937 95.0456 441.229 95.5908 440.643 96.2744C440.073 96.958 439.633 97.7555 439.324 98.667C439.015 99.5622 438.836 100.498 438.787 101.475H452.215ZM474.163 93.54C474.163 93.7842 474.155 93.9958 474.139 94.1748C474.122 94.3376 474.09 94.4759 474.041 94.5898C474.008 94.6875 473.96 94.7689 473.895 94.834C473.846 94.8828 473.772 94.9072 473.675 94.9072C473.528 94.9072 473.357 94.8747 473.162 94.8096C472.967 94.7282 472.739 94.6468 472.479 94.5654C472.218 94.484 471.933 94.4108 471.624 94.3457C471.315 94.2643 470.973 94.2236 470.599 94.2236C470.159 94.2236 469.728 94.3213 469.305 94.5166C468.882 94.6956 468.434 94.9967 467.962 95.4199C467.506 95.8268 467.018 96.3721 466.497 97.0557C465.993 97.7393 465.431 98.5775 464.812 99.5703V114.512C464.812 114.609 464.788 114.699 464.739 114.78C464.69 114.862 464.609 114.927 464.495 114.976C464.397 115.024 464.251 115.065 464.056 115.098C463.877 115.13 463.641 115.146 463.348 115.146C463.071 115.146 462.835 115.13 462.64 115.098C462.461 115.065 462.314 115.024 462.2 114.976C462.086 114.927 462.005 114.862 461.956 114.78C461.924 114.699 461.907 114.609 461.907 114.512V92.417C461.907 92.3193 461.924 92.2298 461.956 92.1484C462.005 92.0671 462.086 92.002 462.2 91.9531C462.314 91.888 462.452 91.8473 462.615 91.8311C462.794 91.7985 463.022 91.7822 463.299 91.7822C463.576 91.7822 463.803 91.7985 463.982 91.8311C464.161 91.8473 464.3 91.888 464.397 91.9531C464.495 92.002 464.56 92.0671 464.593 92.1484C464.642 92.2298 464.666 92.3193 464.666 92.417V95.9082C465.301 94.9805 465.887 94.2318 466.424 93.6621C466.961 93.0924 467.474 92.653 467.962 92.3438C468.45 92.0182 468.922 91.7985 469.378 91.6846C469.85 91.5706 470.33 91.5137 470.818 91.5137C471.03 91.5137 471.274 91.5299 471.551 91.5625C471.827 91.5788 472.12 91.6195 472.43 91.6846C472.755 91.7497 473.04 91.8311 473.284 91.9287C473.545 92.0101 473.724 92.0915 473.821 92.1729C473.919 92.238 473.984 92.3031 474.017 92.3682C474.049 92.417 474.074 92.4902 474.09 92.5879C474.122 92.6693 474.139 92.7913 474.139 92.9541C474.155 93.1006 474.163 93.2959 474.163 93.54ZM509.197 92.4658C509.197 93.9307 508.945 95.2734 508.44 96.4941C507.952 97.7148 507.244 98.7646 506.316 99.6436C505.389 100.522 504.257 101.206 502.923 101.694C501.588 102.183 499.977 102.427 498.089 102.427H493.987V114.512C493.987 114.609 493.963 114.699 493.914 114.78C493.865 114.862 493.784 114.927 493.67 114.976C493.556 115.024 493.401 115.065 493.206 115.098C493.027 115.13 492.791 115.146 492.498 115.146C492.221 115.146 491.985 115.13 491.79 115.098C491.595 115.065 491.44 115.024 491.326 114.976C491.212 114.927 491.131 114.862 491.082 114.78C491.033 114.699 491.009 114.609 491.009 114.512V84.9463C491.009 84.3604 491.163 83.9616 491.473 83.75C491.782 83.5221 492.083 83.4082 492.376 83.4082H498.797C499.432 83.4082 500.05 83.4408 500.652 83.5059C501.255 83.5547 501.954 83.6768 502.752 83.8721C503.566 84.0511 504.388 84.401 505.218 84.9219C506.064 85.4264 506.78 86.0531 507.366 86.8018C507.952 87.5342 508.4 88.3805 508.709 89.3408C509.035 90.2848 509.197 91.3265 509.197 92.4658ZM506.048 92.7344C506.048 91.3672 505.779 90.2116 505.242 89.2676C504.705 88.3073 504.046 87.5993 503.265 87.1436C502.5 86.6715 501.694 86.3786 500.848 86.2646C500.018 86.1344 499.228 86.0693 498.479 86.0693H493.987V99.79H498.284C499.668 99.79 500.823 99.6191 501.751 99.2773C502.679 98.9193 503.46 98.431 504.095 97.8125C504.729 97.194 505.21 96.4535 505.535 95.5908C505.877 94.7119 506.048 93.7598 506.048 92.7344ZM532.757 102.329C532.757 102.915 532.602 103.322 532.293 103.55C531.984 103.761 531.683 103.867 531.39 103.867H516.326C516.326 105.234 516.456 106.471 516.717 107.578C516.993 108.685 517.441 109.637 518.06 110.435C518.678 111.216 519.484 111.818 520.477 112.241C521.469 112.664 522.69 112.876 524.139 112.876C525.164 112.876 526.084 112.786 526.897 112.607C527.711 112.428 528.411 112.233 528.997 112.021C529.599 111.794 530.088 111.59 530.462 111.411C530.853 111.232 531.129 111.143 531.292 111.143C531.39 111.143 531.479 111.167 531.561 111.216C531.642 111.265 531.707 111.346 531.756 111.46C531.805 111.558 531.837 111.688 531.854 111.851C531.886 112.013 531.902 112.217 531.902 112.461C531.902 112.575 531.894 112.689 531.878 112.803C531.862 112.9 531.837 112.998 531.805 113.096C531.788 113.177 531.756 113.258 531.707 113.34C531.658 113.421 531.593 113.503 531.512 113.584C531.43 113.665 531.178 113.812 530.755 114.023C530.332 114.219 529.778 114.422 529.095 114.634C528.411 114.829 527.614 115.008 526.702 115.171C525.807 115.334 524.839 115.415 523.797 115.415C522.088 115.415 520.574 115.163 519.256 114.658C517.938 114.137 516.831 113.381 515.936 112.388C515.04 111.379 514.357 110.133 513.885 108.652C513.429 107.171 513.201 105.454 513.201 103.501C513.201 101.629 513.437 99.9528 513.909 98.4717C514.397 96.9906 515.089 95.7373 515.984 94.7119C516.88 93.6702 517.954 92.8809 519.207 92.3438C520.477 91.7904 521.884 91.5137 523.431 91.5137C525.091 91.5137 526.507 91.7904 527.679 92.3438C528.851 92.8971 529.811 93.6458 530.56 94.5898C531.325 95.5176 531.878 96.5999 532.22 97.8369C532.578 99.0739 532.757 100.376 532.757 101.743V102.329ZM529.754 101.475C529.803 99.1309 529.266 97.2998 528.143 95.9814C527.02 94.6631 525.384 94.0039 523.235 94.0039C522.129 94.0039 521.152 94.2155 520.306 94.6387C519.476 95.0456 518.768 95.5908 518.182 96.2744C517.612 96.958 517.173 97.7555 516.863 98.667C516.554 99.5622 516.375 100.498 516.326 101.475H529.754ZM551.702 93.54C551.702 93.7842 551.694 93.9958 551.678 94.1748C551.661 94.3376 551.629 94.4759 551.58 94.5898C551.548 94.6875 551.499 94.7689 551.434 94.834C551.385 94.8828 551.312 94.9072 551.214 94.9072C551.067 94.9072 550.896 94.8747 550.701 94.8096C550.506 94.7282 550.278 94.6468 550.018 94.5654C549.757 94.484 549.472 94.4108 549.163 94.3457C548.854 94.2643 548.512 94.2236 548.138 94.2236C547.698 94.2236 547.267 94.3213 546.844 94.5166C546.421 94.6956 545.973 94.9967 545.501 95.4199C545.045 95.8268 544.557 96.3721 544.036 97.0557C543.532 97.7393 542.97 98.5775 542.352 99.5703V114.512C542.352 114.609 542.327 114.699 542.278 114.78C542.229 114.862 542.148 114.927 542.034 114.976C541.937 115.024 541.79 115.065 541.595 115.098C541.416 115.13 541.18 115.146 540.887 115.146C540.61 115.146 540.374 115.13 540.179 115.098C540 115.065 539.853 115.024 539.739 114.976C539.625 114.927 539.544 114.862 539.495 114.78C539.463 114.699 539.446 114.609 539.446 114.512V92.417C539.446 92.3193 539.463 92.2298 539.495 92.1484C539.544 92.0671 539.625 92.002 539.739 91.9531C539.853 91.888 539.992 91.8473 540.154 91.8311C540.333 91.7985 540.561 91.7822 540.838 91.7822C541.115 91.7822 541.342 91.7985 541.521 91.8311C541.701 91.8473 541.839 91.888 541.937 91.9531C542.034 92.002 542.099 92.0671 542.132 92.1484C542.181 92.2298 542.205 92.3193 542.205 92.417V95.9082C542.84 94.9805 543.426 94.2318 543.963 93.6621C544.5 93.0924 545.013 92.653 545.501 92.3438C545.989 92.0182 546.461 91.7985 546.917 91.6846C547.389 91.5706 547.869 91.5137 548.357 91.5137C548.569 91.5137 548.813 91.5299 549.09 91.5625C549.367 91.5788 549.66 91.6195 549.969 91.6846C550.294 91.7497 550.579 91.8311 550.823 91.9287C551.084 92.0101 551.263 92.0915 551.36 92.1729C551.458 92.238 551.523 92.3031 551.556 92.3682C551.588 92.417 551.613 92.4902 551.629 92.5879C551.661 92.6693 551.678 92.7913 551.678 92.9541C551.694 93.1006 551.702 93.2959 551.702 93.54ZM568.694 108.628C568.694 109.686 568.499 110.638 568.108 111.484C567.718 112.314 567.156 113.022 566.424 113.608C565.708 114.194 564.845 114.642 563.836 114.951C562.827 115.26 561.712 115.415 560.491 115.415C559.726 115.415 559.002 115.35 558.318 115.22C557.635 115.106 557.016 114.959 556.463 114.78C555.91 114.585 555.438 114.382 555.047 114.17C554.673 113.958 554.396 113.771 554.217 113.608C554.038 113.446 553.908 113.242 553.826 112.998C553.745 112.754 553.704 112.428 553.704 112.021C553.704 111.81 553.72 111.623 553.753 111.46C553.785 111.297 553.826 111.159 553.875 111.045C553.924 110.931 553.989 110.85 554.07 110.801C554.152 110.736 554.241 110.703 554.339 110.703C554.518 110.703 554.778 110.817 555.12 111.045C555.462 111.273 555.885 111.525 556.39 111.802C556.91 112.062 557.521 112.306 558.221 112.534C558.937 112.762 559.759 112.876 560.687 112.876C561.435 112.876 562.119 112.795 562.737 112.632C563.356 112.469 563.893 112.225 564.349 111.899C564.804 111.574 565.154 111.159 565.398 110.654C565.659 110.133 565.789 109.531 565.789 108.848C565.789 108.164 565.626 107.586 565.301 107.114C564.975 106.642 564.544 106.235 564.007 105.894C563.486 105.535 562.884 105.226 562.2 104.966C561.533 104.689 560.841 104.412 560.125 104.136C559.425 103.843 558.733 103.525 558.05 103.184C557.382 102.842 556.78 102.427 556.243 101.938C555.722 101.45 555.299 100.864 554.974 100.181C554.648 99.4971 554.485 98.6751 554.485 97.7148C554.485 96.9499 554.632 96.2012 554.925 95.4688C555.218 94.7201 555.665 94.0527 556.268 93.4668C556.886 92.8809 557.667 92.4089 558.611 92.0508C559.572 91.6927 560.703 91.5137 562.005 91.5137C562.558 91.5137 563.104 91.5625 563.641 91.6602C564.194 91.7415 564.69 91.8555 565.13 92.002C565.586 92.1484 565.976 92.3112 566.302 92.4902C566.627 92.653 566.871 92.7995 567.034 92.9297C567.213 93.0599 567.327 93.1738 567.376 93.2715C567.441 93.3529 567.482 93.4424 567.498 93.54C567.531 93.6377 567.555 93.7598 567.571 93.9062C567.588 94.0365 567.596 94.1992 567.596 94.3945C567.596 94.5898 567.579 94.7689 567.547 94.9316C567.531 95.0781 567.498 95.2083 567.449 95.3223C567.4 95.4362 567.335 95.5257 567.254 95.5908C567.189 95.6396 567.107 95.6641 567.01 95.6641C566.88 95.6641 566.684 95.5745 566.424 95.3955C566.163 95.2165 565.822 95.0212 565.398 94.8096C564.975 94.598 564.471 94.4027 563.885 94.2236C563.299 94.0446 562.623 93.9551 561.858 93.9551C561.093 93.9551 560.418 94.0446 559.832 94.2236C559.262 94.4027 558.79 94.6549 558.416 94.9805C558.042 95.306 557.757 95.6885 557.562 96.1279C557.382 96.5674 557.293 97.0475 557.293 97.5684C557.293 98.2845 557.456 98.8867 557.781 99.375C558.107 99.8633 558.538 100.286 559.075 100.645C559.612 101.003 560.223 101.32 560.906 101.597C561.59 101.873 562.282 102.15 562.981 102.427C563.698 102.703 564.397 103.013 565.081 103.354C565.765 103.68 566.375 104.079 566.912 104.551C567.449 105.023 567.881 105.592 568.206 106.26C568.532 106.911 568.694 107.7 568.694 108.628ZM594.598 103.232C594.598 104.99 594.37 106.61 593.914 108.091C593.458 109.572 592.775 110.858 591.863 111.948C590.968 113.039 589.845 113.893 588.494 114.512C587.143 115.114 585.573 115.415 583.782 115.415C582.057 115.415 580.543 115.146 579.241 114.609C577.955 114.056 576.873 113.275 575.994 112.266C575.132 111.24 574.48 110.003 574.041 108.555C573.618 107.106 573.406 105.47 573.406 103.647C573.406 101.89 573.626 100.27 574.065 98.7891C574.521 97.3079 575.197 96.0303 576.092 94.9561C577.003 93.8656 578.134 93.0192 579.485 92.417C580.836 91.8148 582.415 91.5137 584.222 91.5137C585.947 91.5137 587.452 91.7822 588.738 92.3193C590.04 92.8564 591.123 93.6377 591.985 94.6631C592.848 95.6722 593.499 96.901 593.938 98.3496C594.378 99.7982 594.598 101.426 594.598 103.232ZM591.521 103.501C591.521 102.248 591.399 101.051 591.155 99.9121C590.911 98.7728 590.504 97.7718 589.935 96.9092C589.365 96.0303 588.6 95.3385 587.64 94.834C586.679 94.3132 585.483 94.0527 584.051 94.0527C582.732 94.0527 581.593 94.2887 580.633 94.7607C579.673 95.2327 578.883 95.8919 578.265 96.7383C577.662 97.5684 577.215 98.5531 576.922 99.6924C576.629 100.832 576.482 102.061 576.482 103.379C576.482 104.648 576.604 105.861 576.849 107.017C577.093 108.156 577.5 109.157 578.069 110.02C578.639 110.882 579.404 111.566 580.364 112.07C581.325 112.575 582.521 112.827 583.953 112.827C585.271 112.827 586.411 112.591 587.371 112.119C588.331 111.647 589.113 110.996 589.715 110.166C590.333 109.336 590.789 108.351 591.082 107.212C591.375 106.073 591.521 104.836 591.521 103.501ZM619.036 114.512C619.036 114.609 619.012 114.699 618.963 114.78C618.914 114.862 618.833 114.927 618.719 114.976C618.621 115.024 618.475 115.065 618.279 115.098C618.1 115.13 617.872 115.146 617.596 115.146C617.303 115.146 617.059 115.13 616.863 115.098C616.684 115.065 616.538 115.024 616.424 114.976C616.326 114.927 616.253 114.862 616.204 114.78C616.155 114.699 616.131 114.609 616.131 114.512V101.401C616.131 100.034 616.025 98.9274 615.813 98.0811C615.602 97.2184 615.285 96.486 614.861 95.8838C614.438 95.2653 613.893 94.7933 613.226 94.4678C612.575 94.126 611.81 93.9551 610.931 93.9551C609.808 93.9551 608.685 94.3538 607.562 95.1514C606.438 95.9489 605.258 97.1208 604.021 98.667V114.512C604.021 114.609 603.997 114.699 603.948 114.78C603.899 114.862 603.818 114.927 603.704 114.976C603.606 115.024 603.46 115.065 603.265 115.098C603.086 115.13 602.85 115.146 602.557 115.146C602.28 115.146 602.044 115.13 601.849 115.098C601.67 115.065 601.523 115.024 601.409 114.976C601.295 114.927 601.214 114.862 601.165 114.78C601.132 114.699 601.116 114.609 601.116 114.512V92.417C601.116 92.3193 601.132 92.2298 601.165 92.1484C601.214 92.0671 601.295 92.002 601.409 91.9531C601.523 91.888 601.661 91.8473 601.824 91.8311C602.003 91.7985 602.231 91.7822 602.508 91.7822C602.785 91.7822 603.012 91.7985 603.191 91.8311C603.37 91.8473 603.509 91.888 603.606 91.9531C603.704 92.002 603.769 92.0671 603.802 92.1484C603.851 92.2298 603.875 92.3193 603.875 92.417V95.542C605.145 94.126 606.39 93.1006 607.61 92.4658C608.831 91.8311 610.044 91.5137 611.248 91.5137C612.697 91.5137 613.917 91.7578 614.91 92.2461C615.903 92.7344 616.701 93.3936 617.303 94.2236C617.921 95.0537 618.361 96.0221 618.621 97.1289C618.898 98.2357 619.036 99.5703 619.036 101.133V114.512ZM642.571 114.512C642.571 114.674 642.514 114.805 642.4 114.902C642.303 114.984 642.164 115.041 641.985 115.073C641.823 115.122 641.595 115.146 641.302 115.146C641.025 115.146 640.789 115.122 640.594 115.073C640.398 115.041 640.244 114.984 640.13 114.902C640.032 114.805 639.983 114.674 639.983 114.512V112.046C638.991 113.12 637.892 113.95 636.688 114.536C635.499 115.122 634.262 115.415 632.977 115.415C631.821 115.415 630.779 115.269 629.852 114.976C628.94 114.666 628.167 114.235 627.532 113.682C626.897 113.112 626.409 112.428 626.067 111.631C625.726 110.833 625.555 109.938 625.555 108.945C625.555 107.725 625.807 106.667 626.312 105.771C626.816 104.86 627.532 104.103 628.46 103.501C629.388 102.899 630.503 102.451 631.805 102.158C633.107 101.849 634.555 101.694 636.15 101.694H639.666V99.79C639.666 98.846 639.568 98.016 639.373 97.2998C639.178 96.5674 638.86 95.957 638.421 95.4688C637.981 94.9805 637.412 94.6143 636.712 94.3701C636.012 94.126 635.158 94.0039 634.148 94.0039C633.172 94.0039 632.293 94.126 631.512 94.3701C630.73 94.598 630.047 94.8584 629.461 95.1514C628.875 95.4443 628.387 95.7129 627.996 95.957C627.622 96.1849 627.353 96.2988 627.19 96.2988C627.093 96.2988 627.003 96.2826 626.922 96.25C626.84 96.2174 626.767 96.1605 626.702 96.0791C626.653 95.9814 626.613 95.8675 626.58 95.7373C626.564 95.5908 626.556 95.4199 626.556 95.2246C626.556 94.8828 626.58 94.6143 626.629 94.4189C626.678 94.2074 626.8 94.0039 626.995 93.8086C627.207 93.597 627.573 93.3529 628.094 93.0762C628.615 92.7995 629.209 92.5472 629.876 92.3193C630.56 92.0752 631.292 91.8799 632.073 91.7334C632.854 91.5869 633.636 91.5137 634.417 91.5137C635.931 91.5137 637.208 91.7008 638.25 92.0752C639.292 92.4333 640.13 92.9541 640.765 93.6377C641.416 94.3213 641.88 95.1676 642.156 96.1768C642.433 97.1696 642.571 98.3008 642.571 99.5703V114.512ZM639.666 104.087H635.638C634.466 104.087 633.44 104.193 632.562 104.404C631.683 104.616 630.95 104.925 630.364 105.332C629.778 105.739 629.339 106.227 629.046 106.797C628.769 107.367 628.631 108.018 628.631 108.75C628.631 110.02 629.03 111.037 629.827 111.802C630.641 112.55 631.78 112.925 633.245 112.925C634.401 112.925 635.475 112.632 636.468 112.046C637.477 111.444 638.543 110.524 639.666 109.287V104.087Z" fill="#EAEAEA"/>
<g clip-path="url(#clip1_6_1040)">
<path d="M340.349 136.035C324.916 131.866 316.133 127.596 319.128 109.651C324.002 105.94 325.627 98.7723 326.185 98.4673C326.743 98.1623 327.2 99.789 327.505 99.789C328.571 99.789 330.45 92.2653 330.297 87.3851C330.653 86.7242 330.906 86.0125 331.16 87.2326C333.09 95.163 325.119 106.398 324.408 109.346C320.804 123.783 330.45 128.664 340.299 136.035H340.349Z" fill="#FEFEFD"/>
<path d="M276.178 136.594C275.417 136.442 276.331 135.577 276.94 135.12C289.073 125.614 289.023 125.614 282.372 109.905L285.317 102.534C285.418 101.873 285.012 101.873 285.012 101.212C290.089 101.975 285.469 104.873 284.149 110.82C291.206 113.159 284.91 116.412 289.429 120.53C287.601 121.394 289.429 126.63 290.444 127.189C291.866 127.952 295.216 126.325 295.318 127.342C290.952 133.341 282.677 134.154 276.178 136.645V136.594Z" fill="#FEFEFD"/>
<path d="M284.403 81.1831C288.82 80.9798 285.926 83.3182 285.57 87.5376C285.063 93.282 286.383 98.4164 284.707 98.0097C284.251 92.672 281.864 86.4701 283.54 81.6407C283.946 81.0306 284.403 81.234 284.403 81.1831Z" fill="#FEFEFD"/>
<path d="M300.598 69.6942C301.816 70.6601 303.136 71.6768 304.152 72.9477C303.39 73.456 301.816 75.642 300.344 75.5911C300.141 74.9303 297.45 71.3209 297.095 69.3892C297.907 69.0842 298.516 68.4233 299.176 68.22C299.126 69.2367 300.141 69.2875 300.649 69.6942H300.598Z" fill="#7EC1BE"/>
<path d="M310.904 83.5216L312.528 88.5544C314.864 87.9443 315.321 85.0467 317.961 86.7751C317.808 87.7918 317.301 93.6379 316.641 93.8413C314.001 92.367 311.259 91.0453 308.518 89.7236C308.315 88.4527 307.096 87.6393 306.436 86.1651C305.878 84.945 305.167 82.2507 304.964 80.8782C305.725 81.3865 309.584 83.1658 310.853 83.5216H310.904Z" fill="#A8C55E"/>
<path d="M300.293 76.1505C301.41 77.3706 303.847 80.0648 305.015 80.8782C305.218 82.2508 305.929 84.9959 306.487 86.1651C305.116 84.8942 303.949 83.42 302.679 82.0474C301.715 81.0307 300.953 79.7598 299.887 78.794L292.983 81.7424C292.17 81.3866 286.84 79.8107 286.789 79.2515C287.449 78.4381 288.413 77.7772 289.124 77.0147L299.278 78.1839L295.013 71.4228C295.013 71.4228 295.521 70.3044 296.333 70.5586C297.653 72.4903 298.77 74.4221 300.293 76.1505Z" fill="#FEFEFD"/>
<path d="M309.127 75.5913C308.873 77.4214 310.193 81.2341 311.208 82.9625C311.107 83.115 310.904 83.42 310.904 83.5725C309.635 83.2167 305.776 81.4374 305.015 80.9291C303.847 80.1157 301.41 77.4722 300.293 76.2013C300.293 75.998 300.293 75.7438 300.293 75.5913C301.816 75.6422 303.339 73.4562 304.101 72.9479C304.253 72.8462 304.152 73.7104 307.045 71.4736C307.553 72.7954 308.112 74.7271 309.127 75.5913Z" fill="#E9B541"/>
<path d="M317.961 84.4366C317.961 84.4366 318.265 84.5383 317.961 86.775C315.27 85.0466 314.813 87.8934 312.528 88.5543L310.904 83.5215C310.904 83.5215 311.107 83.064 311.208 82.9115C311.361 82.7082 314.762 80.7256 315.321 80.2681C315.422 80.4714 316.844 81.9456 317.961 84.3858V84.4366Z" fill="#FEFEFD"/>
<path d="M302.679 82.0474C303.949 83.4199 305.116 84.8942 306.487 86.1651C307.147 87.6393 308.315 88.4527 308.568 89.7235C304.202 87.5376 299.989 85.0467 295.623 82.9624L302.679 82.0982V82.0474Z" fill="#378D7F"/>
<path d="M289.124 77.0656C290.495 75.6422 293.693 72.5412 295.013 71.4736L299.278 78.2348L289.124 77.0656Z" fill="#2D69B3"/>
<path d="M318.874 75.2862L312.681 74.422C310.244 67.7117 311.005 67.4575 319.179 72.7952C319.382 74.5236 318.874 75.1845 318.874 75.2862Z" fill="#2EA58F"/>
<path d="M313.239 77.6247C312.935 77.5738 309.279 75.7437 309.127 75.5404C308.112 74.6254 307.604 72.7444 307.045 71.4227C306.639 70.3552 306.132 69.2876 305.878 68.1692C306.741 68.0676 307.502 67.7625 308.365 67.8642C311.005 70.406 311.665 74.3712 313.239 77.5738V77.6247Z" fill="#FEFEFD"/>
<path d="M313.239 77.6247C313.239 77.6247 313.645 77.6247 313.848 77.6247C313.848 77.6756 314.559 78.0823 314.711 78.2348C314.711 78.6923 315.118 79.9632 315.321 80.319C314.762 80.8274 311.361 82.7591 311.208 82.9625C310.244 81.2341 308.924 77.4214 309.127 75.5913C309.279 75.7438 312.985 77.6247 313.239 77.6756V77.6247Z" fill="#409470"/>
<path d="M318.874 75.2861C318.874 77.0654 318.722 78.5905 318.57 80.3189C317.605 79.8105 315.371 78.8446 314.762 78.2346C314.61 78.0821 313.899 77.7262 313.899 77.6246C313.798 77.4721 312.985 75.0828 312.731 74.3711L318.925 75.2353L318.874 75.2861Z" fill="#FEFEFD"/>
<path d="M302.679 82.0474L295.623 82.9116C294.76 82.5049 293.846 82.1491 292.983 81.7424L299.887 78.7939C300.953 79.7598 301.715 80.9799 302.679 82.0474Z" fill="#2EA58F"/>
<path d="M307.096 71.4227C304.202 73.6594 304.304 72.7952 304.152 72.8969C303.187 71.626 301.867 70.6093 300.598 69.6434C302.273 69.1859 304.253 68.3725 305.878 68.1692C306.132 69.2876 306.639 70.3551 307.045 71.4227H307.096Z" fill="#E67B4D"/>
<path d="M318.57 80.2681C318.468 81.6915 318.164 83.0132 317.961 84.3858C316.793 81.9457 315.422 80.4714 315.321 80.2681C315.118 79.9631 314.711 78.6922 314.711 78.1838C315.371 78.743 317.554 79.7597 318.519 80.2681H318.57Z" fill="#C5AE48"/>
<path d="M330.348 87.3851C330.5 92.2653 328.622 99.7382 327.556 99.789C327.251 99.789 326.794 98.1623 326.236 98.4673C325.627 98.7723 324.053 105.991 319.179 109.651C316.184 127.596 324.967 131.917 340.4 136.035C342.228 137.763 345.578 137.56 347.051 139.593C337.506 139.237 274.96 140.763 271.355 139.593C269.629 139.034 275.823 136.797 276.229 136.645C282.778 134.154 291.003 133.391 295.369 127.342C295.267 126.325 291.917 127.952 290.495 127.189C289.48 126.63 287.652 121.394 289.48 120.53C284.961 116.412 291.257 113.108 284.2 110.82C285.57 104.873 290.14 101.975 285.063 101.212C285.063 101.06 284.86 98.7723 284.758 97.9589C286.434 98.3656 285.164 93.2312 285.621 87.4868C285.977 83.2674 288.82 80.929 284.454 81.1323C284.555 80.929 284.149 80.7256 284.149 80.6748C286.23 76.3029 291.917 70.9652 296.384 69.0334C296.739 68.8809 296.892 69.3893 297.146 69.3385C297.501 71.2194 300.192 74.8287 300.395 75.5404C300.395 75.6929 300.395 75.9471 300.395 76.1504C298.872 74.422 297.704 72.4394 296.435 70.5585C295.572 70.3043 295.216 71.3719 295.115 71.4227C293.795 72.4903 290.597 75.6421 289.226 77.0146C288.464 77.7772 287.55 78.3872 286.89 79.2514C286.941 79.8106 292.272 81.3865 293.084 81.7424C293.947 82.149 294.861 82.5049 295.724 82.9116C300.09 84.9958 304.304 87.5376 308.67 89.6727C311.361 91.0453 314.102 92.367 316.793 93.7904C317.453 93.5871 317.961 87.741 318.113 86.7243C318.418 84.4366 318.113 84.4875 318.113 84.3858C318.265 83.0133 318.621 81.6915 318.722 80.2681C318.824 78.5397 319.027 77.0146 319.027 75.2354C319.027 75.1337 319.534 74.4729 319.331 72.7444C311.158 67.4067 310.396 67.6609 312.833 74.3712C313.087 75.0829 313.899 77.4722 314.001 77.6247C313.798 77.6247 313.595 77.6247 313.391 77.6247C311.818 74.3712 311.208 70.406 308.518 67.9151C307.655 67.8134 306.842 68.1184 306.03 68.2201C304.355 68.4234 302.375 69.2368 300.75 69.6943C300.242 69.2876 299.227 69.2368 299.278 68.2201C314.102 63.7974 329.942 71.7786 330.5 87.3851H330.348Z" fill="#101316"/>
<path d="M309.736 131.917C312.681 133.849 320.245 132.578 323.85 131.307C327.81 133.646 332.48 132.832 331.059 137.814L287.449 138.119C284.758 131.053 292.932 137.357 301.867 123.377C302.476 123.377 303.086 131.256 309.685 131.917H309.736Z" fill="#DD5539"/>
<path d="M323.85 131.307C320.194 132.527 312.681 133.798 309.736 131.917C316.844 132.68 318.468 126.63 319.027 126.63C320.245 128.613 321.87 130.138 323.9 131.358L323.85 131.307Z" fill="#D69E81"/>
<path d="M318.874 91.8078C321.21 91.0961 325.474 91.4519 326.54 89.1643C326.743 88.7577 326.794 88.2493 327.15 87.9951C327.15 91.4011 326.845 95.2646 324.662 98.0097L318.316 94.2987C318.164 93.4854 318.824 92.367 318.925 91.8078H318.874Z" fill="#DE7B71"/>
<path d="M326.54 82.9624C327.048 85.0975 327.099 85.7583 327.15 87.9951C326.794 88.3001 326.743 88.7577 326.54 89.1643C324.357 88.046 322.631 85.8092 320.042 85.6058C320.296 83.7249 320.651 81.8948 320.905 80.0139C323.19 80.1156 324.713 81.844 326.49 82.9624H326.54Z" fill="#7C9047"/>
<path d="M326.54 89.1645C325.474 91.4521 321.21 91.0962 318.874 91.8079C319.179 89.7236 319.737 87.6902 320.042 85.606C322.631 85.8093 324.307 88.0461 326.54 89.1645Z" fill="#657A38"/>
<path d="M326.54 82.9624C324.713 81.844 323.24 80.1156 320.956 80.014C321.057 79.3531 320.956 74.8287 321.717 74.7271C324.104 76.9638 325.83 79.8106 326.591 82.9624H326.54Z" fill="#E59993"/>
<path d="M301.055 105.076C307.807 104.568 307.299 116.412 302.222 117.48C295.166 118.903 294.556 105.584 301.055 105.076Z" fill="#375E55"/>
<path d="M293.084 100.348C294.912 100.45 291.561 103.144 290.597 101.111C291.155 101.111 292.983 100.348 293.084 100.348Z" fill="#81695D"/>
</g>
<g clip-path="url(#clip2_6_1040)">
<path d="M697.651 136.035C713.084 131.866 721.867 127.596 718.872 109.651C713.998 105.94 712.373 98.7723 711.815 98.4673C711.256 98.1623 710.8 99.789 710.495 99.789C709.429 99.789 707.55 92.2653 707.703 87.3851C707.347 86.7242 707.094 86.0125 706.84 87.2326C704.91 95.163 712.881 106.398 713.592 109.346C717.196 123.783 707.55 128.664 697.701 136.035H697.651Z" fill="#FEFEFD"/>
<path d="M761.822 136.594C762.583 136.442 761.669 135.577 761.06 135.12C748.926 125.614 748.977 125.614 755.628 109.905L752.683 102.534C752.582 101.873 752.988 101.873 752.988 101.212C747.911 101.975 752.531 104.873 753.851 110.82C746.794 113.159 753.089 116.412 748.571 120.53C750.399 121.394 748.571 126.63 747.556 127.189C746.134 127.952 742.784 126.325 742.682 127.342C747.048 133.341 755.323 134.154 761.822 136.645V136.594Z" fill="#FEFEFD"/>
<path d="M753.597 81.1831C749.18 80.9798 752.074 83.3182 752.43 87.5376C752.937 93.282 751.617 98.4164 753.293 98.0097C753.749 92.672 756.136 86.4701 754.46 81.6407C754.054 81.0306 753.597 81.234 753.597 81.1831Z" fill="#FEFEFD"/>
<path d="M737.402 69.6942C736.184 70.6601 734.864 71.6768 733.848 72.9477C734.61 73.456 736.184 75.642 737.656 75.5911C737.859 74.9303 740.55 71.3209 740.905 69.3892C740.093 69.0842 739.484 68.4233 738.824 68.22C738.874 69.2367 737.859 69.2875 737.351 69.6942H737.402Z" fill="#7EC1BE"/>
<path d="M727.096 83.5216L725.472 88.5544C723.136 87.9443 722.679 85.0467 720.039 86.7751C720.192 87.7918 720.699 93.6379 721.359 93.8413C723.999 92.367 726.741 91.0453 729.482 89.7236C729.685 88.4527 730.904 87.6393 731.564 86.1651C732.122 84.945 732.833 82.2507 733.036 80.8782C732.275 81.3865 728.416 83.1658 727.147 83.5216H727.096Z" fill="#A8C55E"/>
<path d="M737.707 76.1505C736.59 77.3706 734.153 80.0648 732.985 80.8782C732.782 82.2508 732.071 84.9959 731.513 86.1651C732.884 84.8942 734.051 83.42 735.321 82.0474C736.285 81.0307 737.047 79.7598 738.113 78.794L745.017 81.7424C745.83 81.3866 751.16 79.8107 751.211 79.2515C750.551 78.4381 749.586 77.7772 748.876 77.0147L738.722 78.1839L742.987 71.4228C742.987 71.4228 742.479 70.3044 741.667 70.5586C740.347 72.4903 739.23 74.4221 737.707 76.1505Z" fill="#FEFEFD"/>
<path d="M728.873 75.5913C729.127 77.4214 727.807 81.2341 726.792 82.9625C726.893 83.115 727.096 83.42 727.096 83.5725C728.365 83.2167 732.224 81.4374 732.985 80.9291C734.153 80.1157 736.59 77.4722 737.707 76.2013C737.707 75.998 737.707 75.7438 737.707 75.5913C736.184 75.6422 734.661 73.4562 733.899 72.9479C733.747 72.8462 733.848 73.7104 730.955 71.4736C730.447 72.7954 729.888 74.7271 728.873 75.5913Z" fill="#E9B541"/>
<path d="M720.039 84.4366C720.039 84.4366 719.735 84.5383 720.039 86.775C722.73 85.0466 723.187 87.8934 725.472 88.5543L727.096 83.5215C727.096 83.5215 726.893 83.064 726.792 82.9115C726.639 82.7082 723.238 80.7256 722.679 80.2681C722.578 80.4714 721.156 81.9456 720.039 84.3858V84.4366Z" fill="#FEFEFD"/>
<path d="M735.321 82.0474C734.051 83.4199 732.884 84.8942 731.513 86.1651C730.853 87.6393 729.685 88.4527 729.432 89.7235C733.798 87.5376 738.011 85.0467 742.377 82.9624L735.321 82.0982V82.0474Z" fill="#378D7F"/>
<path d="M748.876 77.0656C747.505 75.6422 744.307 72.5412 742.987 71.4736L738.722 78.2348L748.876 77.0656Z" fill="#2D69B3"/>
<path d="M719.126 75.2862L725.319 74.422C727.756 67.7117 726.995 67.4575 718.821 72.7952C718.618 74.5236 719.126 75.1845 719.126 75.2862Z" fill="#2EA58F"/>
<path d="M724.761 77.6247C725.065 77.5738 728.721 75.7437 728.873 75.5404C729.888 74.6254 730.396 72.7444 730.955 71.4227C731.361 70.3552 731.868 69.2876 732.122 68.1692C731.259 68.0676 730.498 67.7625 729.635 67.8642C726.995 70.406 726.335 74.3712 724.761 77.5738V77.6247Z" fill="#FEFEFD"/>
<path d="M724.761 77.6247C724.761 77.6247 724.355 77.6247 724.152 77.6247C724.152 77.6756 723.441 78.0823 723.289 78.2348C723.289 78.6923 722.882 79.9632 722.679 80.319C723.238 80.8274 726.639 82.7591 726.792 82.9625C727.756 81.2341 729.076 77.4214 728.873 75.5913C728.721 75.7438 725.015 77.6247 724.761 77.6756V77.6247Z" fill="#409470"/>
<path d="M719.126 75.2861C719.126 77.0654 719.278 78.5905 719.43 80.3189C720.395 79.8105 722.629 78.8446 723.238 78.2346C723.39 78.0821 724.101 77.7262 724.101 77.6246C724.202 77.4721 725.015 75.0828 725.269 74.3711L719.075 75.2353L719.126 75.2861Z" fill="#FEFEFD"/>
<path d="M735.321 82.0474L742.377 82.9116C743.241 82.5049 744.154 82.1491 745.017 81.7424L738.113 78.7939C737.047 79.7598 736.285 80.9799 735.321 82.0474Z" fill="#2EA58F"/>
<path d="M730.904 71.4227C733.798 73.6594 733.696 72.7952 733.848 72.8969C734.813 71.626 736.133 70.6093 737.402 69.6434C735.727 69.1859 733.747 68.3725 732.122 68.1692C731.868 69.2876 731.361 70.3551 730.955 71.4227H730.904Z" fill="#E67B4D"/>
<path d="M719.43 80.2681C719.532 81.6915 719.836 83.0132 720.039 84.3858C721.207 81.9457 722.578 80.4714 722.679 80.2681C722.882 79.9631 723.289 78.6922 723.289 78.1838C722.629 78.743 720.446 79.7597 719.481 80.2681H719.43Z" fill="#C5AE48"/>
<path d="M707.652 87.3851C707.5 92.2653 709.378 99.7382 710.444 99.789C710.749 99.789 711.206 98.1623 711.764 98.4673C712.373 98.7723 713.947 105.991 718.821 109.651C721.816 127.596 713.033 131.917 697.6 136.035C695.772 137.763 692.422 137.56 690.949 139.593C700.494 139.237 763.04 140.763 766.645 139.593C768.371 139.034 762.177 136.797 761.771 136.645C755.222 134.154 746.997 133.391 742.631 127.342C742.733 126.325 746.083 127.952 747.505 127.189C748.52 126.63 750.348 121.394 748.52 120.53C753.039 116.412 746.743 113.108 753.8 110.82C752.43 104.873 747.86 101.975 752.937 101.212C752.937 101.06 753.14 98.7723 753.242 97.9589C751.566 98.3656 752.836 93.2312 752.379 87.4868C752.023 83.2674 749.18 80.929 753.546 81.1323C753.445 80.929 753.851 80.7256 753.851 80.6748C751.77 76.3029 746.083 70.9652 741.616 69.0334C741.261 68.8809 741.108 69.3893 740.854 69.3385C740.499 71.2194 737.808 74.8287 737.605 75.5404C737.605 75.6929 737.605 75.9471 737.605 76.1504C739.128 74.422 740.296 72.4394 741.565 70.5585C742.428 70.3043 742.784 71.3719 742.885 71.4227C744.205 72.4903 747.403 75.6421 748.774 77.0146C749.536 77.7772 750.45 78.3872 751.11 79.2514C751.059 79.8106 745.728 81.3865 744.916 81.7424C744.053 82.149 743.139 82.5049 742.276 82.9116C737.91 84.9958 733.696 87.5376 729.33 89.6727C726.639 91.0453 723.898 92.367 721.207 93.7904C720.547 93.5871 720.039 87.741 719.887 86.7243C719.582 84.4366 719.887 84.4875 719.887 84.3858C719.735 83.0133 719.379 81.6915 719.278 80.2681C719.176 78.5397 718.973 77.0146 718.973 75.2354C718.973 75.1337 718.466 74.4729 718.669 72.7444C726.842 67.4067 727.604 67.6609 725.167 74.3712C724.913 75.0829 724.101 77.4722 723.999 77.6247C724.202 77.6247 724.405 77.6247 724.609 77.6247C726.182 74.3712 726.792 70.406 729.482 67.9151C730.345 67.8134 731.158 68.1184 731.97 68.2201C733.645 68.4234 735.625 69.2368 737.25 69.6943C737.758 69.2876 738.773 69.2368 738.722 68.2201C723.898 63.7974 708.058 71.7786 707.5 87.3851H707.652Z" fill="#101316"/>
<path d="M728.264 131.917C725.319 133.849 717.755 132.578 714.15 131.307C710.19 133.646 705.52 132.832 706.941 137.814L750.551 138.119C753.242 131.053 745.068 137.357 736.133 123.377C735.524 123.377 734.914 131.256 728.315 131.917H728.264Z" fill="#DD5539"/>
<path d="M714.15 131.307C717.806 132.527 725.319 133.798 728.264 131.917C721.156 132.68 719.532 126.63 718.973 126.63C717.755 128.613 716.13 130.138 714.1 131.358L714.15 131.307Z" fill="#D69E81"/>
<path d="M719.126 91.8078C716.79 91.0961 712.526 91.4519 711.46 89.1643C711.256 88.7577 711.206 88.2493 710.85 87.9951C710.85 91.4011 711.155 95.2646 713.338 98.0097L719.684 94.2987C719.836 93.4854 719.176 92.367 719.075 91.8078H719.126Z" fill="#DE7B71"/>
<path d="M711.46 82.9624C710.952 85.0975 710.901 85.7583 710.85 87.9951C711.206 88.3001 711.256 88.7577 711.46 89.1643C713.643 88.046 715.369 85.8092 717.958 85.6058C717.704 83.7249 717.349 81.8948 717.095 80.0139C714.81 80.1156 713.287 81.844 711.51 82.9624H711.46Z" fill="#7C9047"/>
<path d="M711.46 89.1645C712.526 91.4521 716.79 91.0962 719.126 91.8079C718.821 89.7236 718.262 87.6902 717.958 85.606C715.369 85.8093 713.693 88.0461 711.46 89.1645Z" fill="#657A38"/>
<path d="M711.46 82.9624C713.287 81.844 714.759 80.1156 717.044 80.014C716.943 79.3531 717.044 74.8287 716.283 74.7271C713.896 76.9638 712.17 79.8106 711.409 82.9624H711.46Z" fill="#E59993"/>
<path d="M736.945 105.076C730.193 104.568 730.701 116.412 735.778 117.48C742.834 118.903 743.444 105.584 736.945 105.076Z" fill="#375E55"/>
<path d="M744.916 100.348C743.088 100.45 746.439 103.144 747.404 101.111C746.845 101.111 745.017 100.348 744.916 100.348Z" fill="#81695D"/>
</g>
<g clip-path="url(#clip3_6_1040)">
<path d="M231.874 130.5C217.659 126.666 209.57 122.738 212.329 106.232C216.818 102.818 218.314 96.2251 218.828 95.9445C219.343 95.664 219.764 97.1603 220.044 97.1603C221.026 97.1603 222.756 90.2398 222.616 85.7508C222.943 85.1429 223.177 84.4883 223.411 85.6105C225.188 92.9051 217.846 103.239 217.192 105.951C213.872 119.231 222.756 123.72 231.828 130.5H231.874Z" fill="#FEFEFD"/>
<path d="M172.77 131.015C172.068 130.875 172.91 130.08 173.471 129.659C184.647 120.915 184.6 120.915 178.474 106.466L181.186 99.6855C181.28 99.0776 180.906 99.0776 180.906 98.4697C185.582 99.1711 181.327 101.836 180.111 107.307C186.611 109.458 180.812 112.451 184.974 116.239C183.291 117.034 184.974 121.85 185.909 122.364C187.218 123.066 190.305 121.569 190.398 122.504C186.377 128.022 178.755 128.77 172.77 131.062V131.015Z" fill="#FEFEFD"/>
<path d="M180.345 80.0462C184.413 79.8591 181.747 82.0101 181.42 85.8912C180.953 91.1751 182.168 95.8979 180.625 95.5238C180.204 90.614 178.007 84.9092 179.55 80.467C179.924 79.9059 180.345 80.0929 180.345 80.0462Z" fill="#FEFEFD"/>
<path d="M195.261 69.4784C196.383 70.3668 197.599 71.302 198.534 72.471C197.833 72.9386 196.383 74.9493 195.027 74.9025C194.84 74.2947 192.362 70.9747 192.035 69.1978C192.783 68.9172 193.344 68.3094 193.952 68.1223C193.905 69.0575 194.84 69.1043 195.308 69.4784H195.261Z" fill="#F8DFCF"/>
<path d="M204.754 82.1972L206.25 86.8264C208.401 86.2653 208.822 83.6 211.253 85.1898C211.113 86.125 210.645 91.5024 210.037 91.6895C207.606 90.3334 205.081 89.1177 202.556 87.9019C202.369 86.7329 201.246 85.9847 200.639 84.6287C200.124 83.5064 199.47 81.0282 199.283 79.7656C199.984 80.2332 203.538 81.8698 204.707 82.1972H204.754Z" fill="#F7D6B6"/>
<path d="M194.981 75.4167C196.009 76.539 198.254 79.0172 199.329 79.7654C199.516 81.0279 200.171 83.553 200.685 84.6285C199.423 83.4595 198.347 82.1034 197.178 80.8409C196.29 79.9057 195.589 78.7367 194.607 77.8482L188.247 80.5603C187.499 80.233 182.589 78.7834 182.542 78.2691C183.15 77.5209 184.039 76.913 184.693 76.2116L194.045 77.2871L190.118 71.068C190.118 71.068 190.585 70.0393 191.333 70.2731C192.549 72.05 193.578 73.8269 194.981 75.4167Z" fill="#FEFEFD"/>
<path d="M203.117 74.9026C202.883 76.5859 204.099 80.0929 205.034 81.6828C204.941 81.8231 204.753 82.1036 204.753 82.2439C203.584 81.9166 200.031 80.28 199.329 79.8124C198.254 79.0642 196.009 76.6327 194.981 75.4637C194.981 75.2766 194.981 75.0428 194.981 74.9026C196.383 74.9493 197.786 72.9386 198.488 72.471C198.628 72.3775 198.534 73.1724 201.2 71.115C201.667 72.3308 202.182 74.1076 203.117 74.9026Z" fill="#F7D6B6"/>
<path d="M211.253 83.0387C211.253 83.0387 211.534 83.1322 211.253 85.1897C208.775 83.5998 208.354 86.2184 206.25 86.8263L204.754 82.197C204.754 82.197 204.941 81.7762 205.034 81.6359C205.174 81.4488 208.307 79.6252 208.822 79.2043C208.915 79.3914 210.224 80.7474 211.253 82.9919V83.0387Z" fill="#FEFEFD"/>
<path d="M197.178 80.8411C198.347 82.1036 199.423 83.4596 200.685 84.6286C201.293 85.9847 202.369 86.7328 202.603 87.9019C198.581 85.8912 194.7 83.5999 190.679 81.6827L197.178 80.8878V80.8411Z" fill="#B0A8AA"/>
<path d="M184.693 76.2586C185.956 74.9493 188.902 72.097 190.118 71.115L194.045 77.3341L184.693 76.2586Z" fill="#55678C"/>
<path d="M212.095 74.622L206.39 73.827C204.146 67.6547 204.847 67.4209 212.375 72.3307C212.562 73.9206 212.095 74.5285 212.095 74.622Z" fill="#96C9A4"/>
<path d="M206.904 76.7729C206.624 76.7261 203.257 75.0428 203.117 74.8557C202.182 74.0141 201.714 72.2839 201.2 71.0682C200.826 70.0862 200.358 69.1042 200.124 68.0755C200.919 67.982 201.621 67.7014 202.416 67.7949C204.847 70.133 205.455 73.7802 206.904 76.7261V76.7729Z" fill="#FEFEFD"/>
<path d="M206.904 76.773C206.904 76.773 207.279 76.773 207.466 76.773C207.466 76.8198 208.12 77.1938 208.261 77.3341C208.261 77.755 208.635 78.924 208.822 79.2513C208.307 79.7189 205.174 81.4958 205.034 81.6828C204.146 80.093 202.93 76.586 203.117 74.9026C203.257 75.0429 206.671 76.773 206.904 76.8198V76.773Z" fill="#F7D6B6"/>
<path d="M212.095 74.622C212.095 76.2586 211.955 77.6614 211.814 79.2512C210.926 78.7836 208.868 77.8952 208.307 77.334C208.167 77.1938 207.512 76.8664 207.512 76.7729C207.419 76.6326 206.671 74.4349 206.437 73.7803L212.142 74.5752L212.095 74.622Z" fill="#FEFEFD"/>
<path d="M197.178 80.841L190.679 81.636C189.884 81.2619 189.042 80.9346 188.247 80.5605L194.607 77.8484C195.589 78.7368 196.29 79.8591 197.178 80.841Z" fill="#96C9A4"/>
<path d="M201.246 71.0681C198.581 73.1255 198.675 72.3306 198.534 72.4241C197.646 71.2551 196.43 70.3199 195.261 69.4315C196.804 69.0106 198.628 68.2625 200.124 68.0754C200.358 69.1042 200.826 70.0861 201.2 71.0681H201.246Z" fill="#F7DBBA"/>
<path d="M211.814 79.2045C211.721 80.5138 211.44 81.7296 211.253 82.9921C210.178 80.7476 208.915 79.3916 208.822 79.2045C208.635 78.924 208.261 77.755 208.261 77.2874C208.868 77.8017 210.879 78.7369 211.768 79.2045H211.814Z" fill="#F7D6B6"/>
<path d="M222.663 85.7508C222.803 90.2398 221.073 97.1136 220.091 97.1603C219.81 97.1603 219.389 95.664 218.875 95.9445C218.314 96.2251 216.864 102.865 212.375 106.232C209.617 122.738 217.706 126.713 231.921 130.5C233.605 132.09 236.691 131.903 238.047 133.774C229.256 133.446 171.647 134.849 168.327 133.774C166.737 133.259 172.442 131.202 172.816 131.061C178.848 128.77 186.424 128.069 190.445 122.504C190.351 121.569 187.265 123.065 185.956 122.364C185.021 121.85 183.337 117.033 185.021 116.238C180.859 112.451 186.657 109.411 180.158 107.307C181.42 101.836 185.629 99.171 180.953 98.4696C180.953 98.3293 180.766 96.2251 180.672 95.4769C182.215 95.851 181.046 91.1283 181.467 85.8443C181.794 81.9633 184.413 79.8123 180.391 79.9993C180.485 79.8123 180.111 79.6252 180.111 79.5785C182.028 75.5571 187.265 70.6473 191.38 68.8704C191.707 68.7301 191.848 69.1977 192.082 69.151C192.409 70.8811 194.887 74.2011 195.074 74.8557C195.074 74.996 195.074 75.2298 195.074 75.4168C193.671 73.827 192.596 72.0033 191.427 70.2732C190.632 70.0394 190.305 71.0214 190.211 71.0681C188.995 72.0501 186.049 74.9492 184.787 76.2117C184.086 76.9132 183.244 77.4743 182.636 78.2692C182.683 78.7836 187.593 80.2331 188.341 80.5604C189.136 80.9345 189.977 81.2618 190.772 81.6359C194.794 83.5531 198.675 85.8911 202.696 87.855C205.174 89.1176 207.699 90.3333 210.178 91.6426C210.786 91.4556 211.253 86.0781 211.393 85.1429C211.674 83.0387 211.393 83.0855 211.393 82.992C211.534 81.7295 211.861 80.5137 211.955 79.2044C212.048 77.6146 212.235 76.2117 212.235 74.5751C212.235 74.4816 212.703 73.8737 212.516 72.2839C204.987 67.3741 204.286 67.6079 206.53 73.7802C206.764 74.4349 207.512 76.6326 207.606 76.7729C207.419 76.7729 207.232 76.7729 207.045 76.7729C205.595 73.7802 205.034 70.1329 202.556 67.8417C201.761 67.7482 201.013 68.0287 200.265 68.1222C198.721 68.3093 196.898 69.0574 195.401 69.4783C194.934 69.1042 193.999 69.0574 194.045 68.1222C207.699 64.0541 222.289 71.3954 222.803 85.7508H222.663Z" fill="#101316"/>
<path d="M203.678 126.713C206.39 128.49 213.357 127.321 216.677 126.152C220.325 128.303 224.627 127.555 223.317 132.137L183.15 132.418C180.672 125.918 188.2 131.716 196.43 118.857C196.991 118.857 197.552 126.105 203.631 126.713H203.678Z" fill="#F2AF9A"/>
<path d="M216.677 126.152C213.311 127.274 206.39 128.443 203.678 126.713C210.224 127.414 211.721 121.85 212.235 121.85C213.357 123.674 214.854 125.076 216.724 126.199L216.677 126.152Z" fill="#D9AE8F"/>
<path d="M212.095 89.819C214.246 89.1644 218.174 89.4917 219.156 87.3875C219.343 87.0134 219.389 86.5458 219.717 86.312C219.717 89.4449 219.436 92.9987 217.426 95.5238L211.58 92.1103C211.44 91.3621 212.048 90.3334 212.142 89.819H212.095Z" fill="#F3BF9E"/>
<path d="M219.156 81.6828C219.623 83.6467 219.67 84.2546 219.717 86.3121C219.389 86.5926 219.343 87.0135 219.156 87.3875C217.145 86.3588 215.555 84.3014 213.17 84.1143C213.404 82.3842 213.731 80.7008 213.965 78.9707C216.069 79.0642 217.472 80.6541 219.109 81.6828H219.156Z" fill="#E2C5A4"/>
<path d="M219.156 87.3875C218.174 89.4917 214.246 89.1644 212.095 89.819C212.375 87.9018 212.89 86.0314 213.17 84.1143C215.555 84.3013 217.098 86.3587 219.156 87.3875Z" fill="#CAB08E"/>
<path d="M219.156 81.6828C217.472 80.6541 216.116 79.0642 214.012 78.9707C214.106 78.3628 214.012 74.2012 214.713 74.1077C216.911 76.1651 218.501 78.7837 219.202 81.6828H219.156Z" fill="#F7DBC0"/>
<path d="M195.682 102.023C201.901 101.556 201.434 112.451 196.758 113.433C190.258 114.742 189.697 102.491 195.682 102.023Z" fill="#1C3845"/>
<path d="M188.341 97.6748C190.024 97.7683 186.938 100.247 186.049 98.3762C186.564 98.3762 188.247 97.6748 188.341 97.6748Z" fill="#62464E"/>
</g>
<g clip-path="url(#clip4_6_1040)">
<path d="M806.126 130.5C820.341 126.666 828.43 122.738 825.671 106.232C821.182 102.818 819.686 96.2251 819.172 95.9445C818.657 95.664 818.236 97.1603 817.956 97.1603C816.974 97.1603 815.244 90.2398 815.384 85.7508C815.057 85.1429 814.823 84.4883 814.589 85.6105C812.812 92.9051 820.154 103.239 820.808 105.951C824.128 119.231 815.244 123.72 806.172 130.5H806.126Z" fill="#FEFEFD"/>
<path d="M865.23 131.015C865.932 130.875 865.09 130.08 864.529 129.659C853.353 120.915 853.4 120.915 859.526 106.466L856.814 99.6855C856.72 99.0776 857.094 99.0776 857.094 98.4697C852.418 99.1711 856.673 101.836 857.889 107.307C851.389 109.458 857.188 112.451 853.026 116.239C854.709 117.034 853.026 121.85 852.091 122.364C850.782 123.066 847.695 121.569 847.602 122.504C851.623 128.022 859.245 128.77 865.23 131.062V131.015Z" fill="#FEFEFD"/>
<path d="M857.655 80.0462C853.587 79.8591 856.252 82.0101 856.58 85.8912C857.047 91.1751 855.832 95.8979 857.375 95.5238C857.796 90.614 859.993 84.9092 858.45 80.467C858.076 79.9059 857.655 80.0929 857.655 80.0462Z" fill="#FEFEFD"/>
<path d="M842.739 69.4784C841.617 70.3668 840.401 71.302 839.466 72.471C840.167 72.9386 841.617 74.9493 842.973 74.9025C843.16 74.2947 845.638 70.9747 845.965 69.1978C845.217 68.9172 844.656 68.3094 844.048 68.1223C844.095 69.0575 843.16 69.1043 842.692 69.4784H842.739Z" fill="#F8DFCF"/>
<path d="M833.246 82.1972L831.75 86.8264C829.599 86.2653 829.178 83.6 826.747 85.1898C826.887 86.125 827.355 91.5024 827.963 91.6895C830.394 90.3334 832.919 89.1177 835.444 87.9019C835.631 86.7329 836.753 85.9847 837.361 84.6287C837.876 83.5064 838.53 81.0282 838.717 79.7656C838.016 80.2332 834.462 81.8698 833.293 82.1972H833.246Z" fill="#F7D6B6"/>
<path d="M843.019 75.4167C841.991 76.539 839.746 79.0172 838.671 79.7654C838.484 81.0279 837.829 83.553 837.315 84.6285C838.577 83.4595 839.653 82.1034 840.822 80.8409C841.71 79.9057 842.411 78.7367 843.393 77.8482L849.753 80.5603C850.501 80.233 855.411 78.7834 855.458 78.2691C854.85 77.5209 853.961 76.913 853.307 76.2116L843.955 77.2871L847.882 71.068C847.882 71.068 847.415 70.0393 846.667 70.2731C845.451 72.05 844.422 73.8269 843.019 75.4167Z" fill="#FEFEFD"/>
<path d="M834.883 74.9026C835.117 76.5859 833.901 80.0929 832.966 81.6828C833.059 81.8231 833.246 82.1036 833.246 82.2439C834.415 81.9166 837.969 80.28 838.671 79.8124C839.746 79.0642 841.991 76.6327 843.019 75.4637C843.019 75.2766 843.019 75.0428 843.019 74.9026C841.617 74.9493 840.214 72.9386 839.512 72.471C839.372 72.3775 839.466 73.1724 836.8 71.115C836.333 72.3308 835.818 74.1076 834.883 74.9026Z" fill="#F7D6B6"/>
<path d="M826.747 83.0387C826.747 83.0387 826.466 83.1322 826.747 85.1897C829.225 83.5998 829.646 86.2184 831.75 86.8263L833.246 82.197C833.246 82.197 833.059 81.7762 832.966 81.6359C832.826 81.4488 829.693 79.6252 829.178 79.2043C829.085 79.3914 827.776 80.7474 826.747 82.9919V83.0387Z" fill="#FEFEFD"/>
<path d="M840.822 80.8411C839.653 82.1036 838.577 83.4596 837.315 84.6286C836.707 85.9847 835.631 86.7328 835.397 87.9019C839.419 85.8912 843.3 83.5999 847.321 81.6827L840.822 80.8878V80.8411Z" fill="#B0A8AA"/>
<path d="M853.307 76.2586C852.044 74.9493 849.098 72.097 847.882 71.115L843.955 77.3341L853.307 76.2586Z" fill="#55678C"/>
<path d="M825.905 74.622L831.61 73.827C833.854 67.6547 833.153 67.4209 825.625 72.3307C825.438 73.9206 825.905 74.5285 825.905 74.622Z" fill="#96C9A4"/>
<path d="M831.096 76.7729C831.376 76.7261 834.743 75.0428 834.883 74.8557C835.818 74.0141 836.286 72.2839 836.8 71.0682C837.174 70.0862 837.642 69.1042 837.876 68.0755C837.081 67.982 836.379 67.7014 835.584 67.7949C833.153 70.133 832.545 73.7802 831.096 76.7261V76.7729Z" fill="#FEFEFD"/>
<path d="M831.096 76.773C831.096 76.773 830.721 76.773 830.534 76.773C830.534 76.8198 829.88 77.1938 829.739 77.3341C829.739 77.755 829.365 78.924 829.178 79.2513C829.693 79.7189 832.826 81.4958 832.966 81.6828C833.854 80.093 835.07 76.586 834.883 74.9026C834.743 75.0429 831.329 76.773 831.096 76.8198V76.773Z" fill="#F7D6B6"/>
<path d="M825.905 74.622C825.905 76.2586 826.045 77.6614 826.186 79.2512C827.074 78.7836 829.132 77.8952 829.693 77.334C829.833 77.1938 830.488 76.8664 830.488 76.7729C830.581 76.6326 831.329 74.4349 831.563 73.7803L825.858 74.5752L825.905 74.622Z" fill="#FEFEFD"/>
<path d="M840.822 80.841L847.321 81.636C848.116 81.2619 848.958 80.9346 849.753 80.5605L843.393 77.8484C842.412 78.7368 841.71 79.8591 840.822 80.841Z" fill="#96C9A4"/>
<path d="M836.754 71.0681C839.419 73.1255 839.325 72.3306 839.466 72.4241C840.354 71.2551 841.57 70.3199 842.739 69.4315C841.196 69.0106 839.372 68.2625 837.876 68.0754C837.642 69.1042 837.174 70.0861 836.8 71.0681H836.754Z" fill="#F7DBBA"/>
<path d="M826.186 79.2045C826.279 80.5138 826.56 81.7296 826.747 82.9921C827.822 80.7476 829.085 79.3916 829.178 79.2045C829.365 78.924 829.74 77.755 829.74 77.2874C829.132 77.8017 827.121 78.7369 826.232 79.2045H826.186Z" fill="#F7D6B6"/>
<path d="M815.337 85.7508C815.197 90.2398 816.927 97.1136 817.909 97.1603C818.19 97.1603 818.611 95.664 819.125 95.9445C819.686 96.2251 821.136 102.865 825.625 106.232C828.383 122.738 820.294 126.713 806.079 130.5C804.395 132.09 801.309 131.903 799.953 133.774C808.744 133.446 866.353 134.849 869.673 133.774C871.263 133.259 865.558 131.202 865.184 131.061C859.152 128.77 851.576 128.069 847.555 122.504C847.649 121.569 850.735 123.065 852.044 122.364C852.979 121.85 854.663 117.033 852.979 116.238C857.141 112.451 851.343 109.411 857.842 107.307C856.58 101.836 852.371 99.171 857.047 98.4696C857.047 98.3293 857.234 96.2251 857.328 95.4769C855.785 95.851 856.954 91.1283 856.533 85.8443C856.206 81.9633 853.587 79.8123 857.609 79.9993C857.515 79.8123 857.889 79.6252 857.889 79.5785C855.972 75.5571 850.735 70.6473 846.62 68.8704C846.293 68.7301 846.152 69.1977 845.919 69.151C845.591 70.8811 843.113 74.2011 842.926 74.8557C842.926 74.996 842.926 75.2298 842.926 75.4168C844.329 73.827 845.404 72.0033 846.573 70.2732C847.368 70.0394 847.695 71.0214 847.789 71.0681C849.005 72.0501 851.951 74.9492 853.213 76.2117C853.915 76.9132 854.756 77.4743 855.364 78.2692C855.317 78.7836 850.407 80.2331 849.659 80.5604C848.864 80.9345 848.023 81.2618 847.228 81.6359C843.206 83.5531 839.325 85.8911 835.304 87.855C832.826 89.1176 830.301 90.3333 827.822 91.6426C827.214 91.4556 826.747 86.0781 826.607 85.1429C826.326 83.0387 826.607 83.0855 826.607 82.992C826.466 81.7295 826.139 80.5137 826.045 79.2044C825.952 77.6146 825.765 76.2117 825.765 74.5751C825.765 74.4816 825.297 73.8737 825.484 72.2839C833.013 67.3741 833.714 67.6079 831.47 73.7802C831.236 74.4349 830.488 76.6326 830.394 76.7729C830.581 76.7729 830.768 76.7729 830.955 76.7729C832.405 73.7802 832.966 70.1329 835.444 67.8417C836.239 67.7482 836.987 68.0287 837.735 68.1222C839.279 68.3093 841.102 69.0574 842.599 69.4783C843.066 69.1042 844.001 69.0574 843.955 68.1222C830.301 64.0541 815.711 71.3954 815.197 85.7508H815.337Z" fill="#101316"/>
<path d="M834.322 126.713C831.61 128.49 824.643 127.321 821.323 126.152C817.675 128.303 813.373 127.555 814.683 132.137L854.85 132.418C857.328 125.918 849.8 131.716 841.57 118.857C841.009 118.857 840.448 126.105 834.369 126.713H834.322Z" fill="#F2AF9A"/>
<path d="M821.323 126.152C824.689 127.274 831.61 128.443 834.322 126.713C827.776 127.414 826.279 121.85 825.765 121.85C824.643 123.674 823.146 125.076 821.276 126.199L821.323 126.152Z" fill="#D9AE8F"/>
<path d="M825.905 89.819C823.754 89.1644 819.826 89.4917 818.844 87.3875C818.657 87.0134 818.61 86.5458 818.283 86.312C818.283 89.4449 818.564 92.9987 820.574 95.5238L826.419 92.1103C826.56 91.3621 825.952 90.3334 825.858 89.819H825.905Z" fill="#F3BF9E"/>
<path d="M818.844 81.6828C818.377 83.6467 818.33 84.2546 818.283 86.3121C818.61 86.5926 818.657 87.0135 818.844 87.3875C820.855 86.3588 822.445 84.3014 824.83 84.1143C824.596 82.3842 824.268 80.7008 824.035 78.9707C821.93 79.0642 820.528 80.6541 818.891 81.6828H818.844Z" fill="#E2C5A4"/>
<path d="M818.844 87.3875C819.826 89.4917 823.754 89.1644 825.905 89.819C825.625 87.9018 825.11 86.0314 824.83 84.1143C822.445 84.3013 820.902 86.3587 818.844 87.3875Z" fill="#CAB08E"/>
<path d="M818.844 81.6828C820.528 80.6541 821.884 79.0642 823.988 78.9707C823.894 78.3628 823.988 74.2012 823.287 74.1077C821.089 76.1651 819.499 78.7837 818.798 81.6828H818.844Z" fill="#F7DBC0"/>
<path d="M842.318 102.023C836.099 101.556 836.566 112.451 841.242 113.433C847.742 114.742 848.303 102.491 842.318 102.023Z" fill="#1C3845"/>
<path d="M849.659 97.6748C847.976 97.7683 851.062 100.247 851.951 98.3762C851.436 98.3762 849.753 97.6748 849.659 97.6748Z" fill="#62464E"/>
</g>
<g clip-path="url(#clip5_6_1040)">
<path d="M119.749 121.429C107.565 118.142 100.631 114.775 102.996 100.627C106.844 97.7013 108.126 92.05 108.567 91.8095C109.008 91.569 109.369 92.8516 109.609 92.8516C110.451 92.8516 111.934 86.9197 111.814 83.072C112.094 82.551 112.295 81.9899 112.495 82.9518C114.018 89.2043 107.725 98.062 107.164 100.387C104.319 111.769 111.934 115.617 119.709 121.429H119.749Z" fill="#FEFEFD"/>
<path d="M69.0882 121.87C68.487 121.749 69.2084 121.068 69.6894 120.707C79.2685 113.212 79.2285 113.212 73.978 100.828L76.3026 95.016C76.3828 94.4949 76.0621 94.4949 76.0621 93.9739C80.0701 94.5751 76.4228 96.8596 75.3808 101.549C80.9519 103.393 75.982 105.958 79.5491 109.204C78.1062 109.886 79.5491 114.014 80.3507 114.455C81.4729 115.056 84.1182 113.773 84.1984 114.575C80.7515 119.305 74.2184 119.946 69.0882 121.91V121.87Z" fill="#FEFEFD"/>
<path d="M75.5812 78.1823C79.0681 78.0219 76.7836 79.8656 76.503 83.1923C76.1022 87.7213 77.1443 91.7694 75.8216 91.4488C75.4609 87.2404 73.5772 82.3506 74.8998 78.543C75.2204 78.062 75.5812 78.2223 75.5812 78.1823Z" fill="#FEFEFD"/>
<path d="M88.3667 69.1242C89.3287 69.8858 90.3707 70.6874 91.1723 71.6894C90.5711 72.0902 89.3287 73.8136 88.1663 73.7735C88.006 73.2525 85.8818 70.4068 85.6012 68.8838C86.2425 68.6433 86.7234 68.1222 87.2445 67.9619C87.2044 68.7635 88.006 68.8036 88.4068 69.1242H88.3667Z" fill="#F9E8E0"/>
<path d="M96.503 80.0261L97.7856 83.994C99.6293 83.513 99.99 81.2285 102.074 82.5912C101.954 83.3928 101.553 88.002 101.032 88.1623C98.9479 87 96.7836 85.9579 94.6192 84.9158C94.4589 83.9138 93.497 83.2726 92.976 82.1102C92.5351 81.1483 91.9739 79.0241 91.8136 77.9419C92.4148 78.3427 95.4609 79.7455 96.4629 80.0261H96.503Z" fill="#E7D7C6"/>
<path d="M88.1262 74.2143C89.008 75.1762 90.9319 77.3005 91.8537 77.9418C92.014 79.0239 92.5751 81.1883 93.016 82.1101C91.9339 81.1081 91.012 79.9458 90.01 78.8636C89.2485 78.062 88.6473 77.06 87.8056 76.2985L82.3547 78.6231C81.7134 78.3426 77.505 77.1001 77.4649 76.6592C77.986 76.0179 78.7475 75.4969 79.3086 74.8957L87.3246 75.8175L83.9579 70.4869C83.9579 70.4869 84.3587 69.6051 85 69.8055C86.0421 71.3286 86.9238 72.8516 88.1262 74.2143Z" fill="#FEFEFD"/>
<path d="M95.1002 73.7736C94.8998 75.2165 95.9419 78.2225 96.7435 79.5852C96.6633 79.7055 96.503 79.9459 96.503 80.0662C95.501 79.7856 92.4549 78.3828 91.8537 77.982C90.9319 77.3407 89.008 75.2566 88.1263 74.2546C88.1263 74.0942 88.1263 73.8938 88.1263 73.7736C89.3287 73.8137 90.5311 72.0902 91.1323 71.6894C91.2525 71.6093 91.1723 72.2906 93.4569 70.5271C93.8577 71.5692 94.2986 73.0922 95.1002 73.7736Z" fill="#E7D7C6"/>
<path d="M102.074 80.7475C102.074 80.7475 102.315 80.8277 102.074 82.5912C99.9499 81.2285 99.5892 83.473 97.7856 83.994L96.503 80.0261C96.503 80.0261 96.6633 79.6653 96.7435 79.5451C96.8637 79.3848 99.5491 77.8217 99.99 77.4609C100.07 77.6213 101.192 78.7836 102.074 80.7074V80.7475Z" fill="#FEFEFD"/>
<path d="M90.01 78.8638C91.012 79.9459 91.9339 81.1083 93.016 82.1103C93.5371 83.2726 94.4589 83.9139 94.6593 84.9159C91.2124 83.1924 87.8858 81.2285 84.4389 79.5852L90.01 78.9038V78.8638Z" fill="#C5C3CB"/>
<path d="M79.3086 74.9359C80.3908 73.8137 82.9158 71.3688 83.9579 70.5271L87.3246 75.8578L79.3086 74.9359Z" fill="#747D95"/>
<path d="M102.796 73.533L97.9058 72.8516C95.982 67.561 96.5832 67.3606 103.036 71.5691C103.196 72.9318 102.796 73.4528 102.796 73.533Z" fill="#E7DACB"/>
<path d="M98.3467 75.3768C98.1062 75.3367 95.2204 73.8938 95.1002 73.7335C94.2986 73.0121 93.8978 71.5291 93.4569 70.487C93.1363 69.6453 92.7355 68.8037 92.5351 67.9219C93.2164 67.8417 93.8176 67.6013 94.499 67.6814C96.5832 69.6854 97.1042 72.8117 98.3467 75.3367V75.3768Z" fill="#FEFEFD"/>
<path d="M98.3467 75.3766C98.3467 75.3766 98.6673 75.3766 98.8276 75.3766C98.8276 75.4167 99.3888 75.7374 99.509 75.8576C99.509 76.2183 99.8297 77.2203 99.99 77.5009C99.5491 77.9017 96.8637 79.4247 96.7435 79.5851C95.982 78.2223 94.9399 75.2163 95.1002 73.7734C95.2204 73.8937 98.1463 75.3766 98.3467 75.4167V75.3766Z" fill="#E7D7C6"/>
<path d="M102.796 73.533C102.796 74.9358 102.675 76.1382 102.555 77.5009C101.794 77.1001 100.03 76.3386 99.5491 75.8576C99.4289 75.7374 98.8677 75.4568 98.8677 75.3767C98.7876 75.2564 98.1463 73.3726 97.9459 72.8115L102.836 73.4929L102.796 73.533Z" fill="#FEFEFD"/>
<path d="M90.01 78.8637L84.4389 79.5451C83.7575 79.2244 83.0361 78.9439 82.3547 78.6232L87.8056 76.2986C88.6473 77.0601 89.2485 78.022 90.01 78.8637Z" fill="#E7DACB"/>
<path d="M93.497 70.487C91.2124 72.2505 91.2926 71.5692 91.1723 71.6493C90.4108 70.6473 89.3687 69.8457 88.3667 69.0842C89.6894 68.7235 91.2525 68.0822 92.5351 67.9219C92.7355 68.8036 93.1363 69.6453 93.4569 70.487H93.497Z" fill="#E8DBCA"/>
<path d="M102.555 77.4609C102.475 78.5832 102.234 79.6252 102.074 80.7074C101.152 78.7836 100.07 77.6212 99.99 77.4609C99.8297 77.2204 99.509 76.2184 99.509 75.8176C100.03 76.2585 101.754 77.0601 102.515 77.4609H102.555Z" fill="#E7D7C6"/>
<path d="M111.854 83.0721C111.974 86.9198 110.491 92.8115 109.649 92.8516C109.409 92.8516 109.048 91.5691 108.607 91.8095C108.126 92.05 106.884 97.7414 103.036 100.627C100.671 114.775 107.605 118.182 119.79 121.429C121.232 122.792 123.878 122.631 125.04 124.234C117.505 123.954 68.1262 125.156 65.2806 124.234C63.9178 123.794 68.8076 122.03 69.1283 121.91C74.2986 119.946 80.7916 119.345 84.2385 114.575C84.1583 113.773 81.513 115.056 80.3908 114.455C79.5892 114.014 78.1463 109.886 79.5892 109.204C76.022 105.958 80.992 103.353 75.4208 101.549C76.503 96.8596 80.1102 94.5751 76.1022 93.9739C76.1022 93.8536 75.9419 92.05 75.8617 91.4087C77.1844 91.7294 76.1824 87.6813 76.5431 83.1522C76.8236 79.8256 79.0681 77.9819 75.6212 78.1422C75.7014 77.9819 75.3808 77.8216 75.3808 77.7815C77.024 74.3346 81.513 70.1262 85.0401 68.6031C85.3206 68.4829 85.4409 68.8837 85.6413 68.8436C85.9218 70.3266 88.0461 73.1723 88.2064 73.7334C88.2064 73.8536 88.2064 74.054 88.2064 74.2144C87.004 72.8516 86.0822 71.2885 85.0802 69.8055C84.3988 69.6051 84.1182 70.4468 84.0381 70.4869C82.996 71.3286 80.4709 73.8135 79.3888 74.8957C78.7876 75.4969 78.0661 75.9779 77.5451 76.6592C77.5852 77.1001 81.7936 78.3426 82.4349 78.6232C83.1162 78.9438 83.8377 79.2244 84.519 79.545C87.9659 81.1883 91.2926 83.1923 94.7395 84.8757C96.8637 85.9578 99.0281 86.9999 101.152 88.1222C101.673 87.9618 102.074 83.3526 102.194 82.551C102.435 80.7474 102.194 80.7875 102.194 80.7073C102.315 79.6252 102.595 78.5831 102.675 77.4608C102.756 76.0981 102.916 74.8957 102.916 73.4929C102.916 73.4127 103.317 72.8917 103.156 71.529C96.7034 67.3206 96.1022 67.521 98.0261 72.8115C98.2265 73.3727 98.8677 75.2564 98.9479 75.3767C98.7876 75.3767 98.6273 75.3767 98.4669 75.3767C97.2244 72.8115 96.7435 69.6853 94.6192 67.7214C93.9379 67.6412 93.2966 67.8817 92.6553 67.9618C91.3327 68.1222 89.7695 68.7634 88.487 69.1242C88.0862 68.8035 87.2846 68.7634 87.3246 67.9618C99.0281 64.4749 111.533 70.7675 111.974 83.0721H111.854Z" fill="#101316"/>
<path d="M95.5812 118.182C97.9058 119.705 103.878 118.703 106.723 117.701C109.85 119.545 113.537 118.904 112.415 122.832L77.986 123.072C75.8617 117.501 82.3146 122.471 89.3687 111.449C89.8497 111.449 90.3307 117.661 95.5411 118.182H95.5812Z" fill="#E7D1C9"/>
<path d="M106.723 117.702C103.838 118.663 97.9058 119.665 95.5812 118.182C101.192 118.784 102.475 114.014 102.916 114.014C103.878 115.577 105.16 116.78 106.764 117.742L106.723 117.702Z" fill="#E3CDBE"/>
<path d="M102.796 86.5592C104.639 85.9981 108.006 86.2787 108.848 84.4751C109.008 84.1544 109.048 83.7536 109.329 83.5532C109.329 86.2386 109.088 89.2847 107.365 91.449L102.355 88.5232C102.234 87.8819 102.756 87.0001 102.836 86.5592H102.796Z" fill="#E7DECC"/>
<path d="M108.848 79.5854C109.248 81.2688 109.289 81.7898 109.329 83.5533C109.048 83.7938 109.008 84.1545 108.848 84.4752C107.124 83.5934 105.762 81.8299 103.717 81.6696C103.918 80.1866 104.198 78.7437 104.399 77.2607C106.202 77.3409 107.405 78.7036 108.808 79.5854H108.848Z" fill="#EAE0D0"/>
<path d="M108.848 84.475C108.006 86.2787 104.639 85.9981 102.796 86.5592C103.036 84.9159 103.477 83.3127 103.717 81.6694C105.762 81.8298 107.084 83.5933 108.848 84.475Z" fill="#E7DACB"/>
<path d="M108.848 79.5853C107.405 78.7035 106.242 77.3408 104.439 77.2606C104.519 76.7396 104.439 73.1724 105.04 73.0923C106.924 74.8558 108.287 77.1003 108.888 79.5853H108.848Z" fill="#E7DBCF"/>
<path d="M88.7275 97.0201C94.0581 96.6193 93.6573 105.958 89.6493 106.8C84.0782 107.922 83.5972 97.4209 88.7275 97.0201Z" fill="#265269"/>
<path d="M82.4349 93.2927C83.8778 93.3729 81.2325 95.4971 80.4709 93.8939C80.9118 93.8939 82.3547 93.2927 82.4349 93.2927Z" fill="#846577"/>
</g>
<g clip-path="url(#clip6_6_1040)">
<path d="M918.251 121.429C930.435 118.142 937.369 114.775 935.004 100.627C931.156 97.7013 929.874 92.05 929.433 91.8095C928.992 91.569 928.631 92.8516 928.391 92.8516C927.549 92.8516 926.066 86.9197 926.186 83.072C925.906 82.551 925.705 81.9899 925.505 82.9518C923.982 89.2043 930.275 98.062 930.836 100.387C933.681 111.769 926.066 115.617 918.291 121.429H918.251Z" fill="#FEFEFD"/>
<path d="M968.912 121.87C969.513 121.749 968.792 121.068 968.311 120.707C958.731 113.212 958.772 113.212 964.022 100.828L961.697 95.016C961.617 94.4949 961.938 94.4949 961.938 93.9739C957.93 94.5751 961.577 96.8596 962.619 101.549C957.048 103.393 962.018 105.958 958.451 109.204C959.894 109.886 958.451 114.014 957.649 114.455C956.527 115.056 953.882 113.773 953.802 114.575C957.249 119.305 963.782 119.946 968.912 121.91V121.87Z" fill="#FEFEFD"/>
<path d="M962.419 78.1823C958.932 78.0219 961.216 79.8656 961.497 83.1923C961.898 87.7213 960.856 91.7694 962.178 91.4488C962.539 87.2404 964.423 82.3506 963.1 78.543C962.78 78.062 962.419 78.2223 962.419 78.1823Z" fill="#FEFEFD"/>
<path d="M949.633 69.1242C948.671 69.8858 947.629 70.6874 946.828 71.6894C947.429 72.0902 948.671 73.8136 949.834 73.7735C949.994 73.2525 952.118 70.4068 952.399 68.8838C951.758 68.6433 951.277 68.1222 950.756 67.9619C950.796 68.7635 949.994 68.8036 949.593 69.1242H949.633Z" fill="#F9E8E0"/>
<path d="M941.497 80.0261L940.214 83.994C938.371 83.513 938.01 81.2285 935.926 82.5912C936.046 83.3928 936.447 88.002 936.968 88.1623C939.052 87 941.216 85.9579 943.381 84.9158C943.541 83.9138 944.503 83.2726 945.024 82.1102C945.465 81.1483 946.026 79.0241 946.186 77.9419C945.585 78.3427 942.539 79.7455 941.537 80.0261H941.497Z" fill="#E7D7C6"/>
<path d="M949.874 74.2143C948.992 75.1762 947.068 77.3005 946.146 77.9418C945.986 79.0239 945.425 81.1883 944.984 82.1101C946.066 81.1081 946.988 79.9458 947.99 78.8636C948.752 78.062 949.353 77.06 950.194 76.2985L955.645 78.6231C956.287 78.3426 960.495 77.1001 960.535 76.6592C960.014 76.0179 959.253 75.4969 958.691 74.8957L950.675 75.8175L954.042 70.4869C954.042 70.4869 953.641 69.6051 953 69.8055C951.958 71.3286 951.076 72.8516 949.874 74.2143Z" fill="#FEFEFD"/>
<path d="M942.9 73.7736C943.1 75.2165 942.058 78.2225 941.256 79.5852C941.337 79.7055 941.497 79.9459 941.497 80.0662C942.499 79.7856 945.545 78.3828 946.146 77.982C947.068 77.3407 948.992 75.2566 949.874 74.2546C949.874 74.0942 949.874 73.8938 949.874 73.7736C948.671 73.8137 947.469 72.0902 946.868 71.6894C946.747 71.6093 946.828 72.2906 944.543 70.5271C944.142 71.5692 943.701 73.0922 942.9 73.7736Z" fill="#E7D7C6"/>
<path d="M935.926 80.7475C935.926 80.7475 935.685 80.8277 935.926 82.5912C938.05 81.2285 938.411 83.473 940.214 83.994L941.497 80.0261C941.497 80.0261 941.337 79.6653 941.257 79.5451C941.136 79.3848 938.451 77.8217 938.01 77.4609C937.93 77.6213 936.808 78.7836 935.926 80.7074V80.7475Z" fill="#FEFEFD"/>
<path d="M947.99 78.8638C946.988 79.9459 946.066 81.1083 944.984 82.1103C944.463 83.2726 943.541 83.9139 943.341 84.9159C946.788 83.1924 950.114 81.2285 953.561 79.5852L947.99 78.9038V78.8638Z" fill="#C5C3CB"/>
<path d="M958.691 74.9359C957.609 73.8137 955.084 71.3688 954.042 70.5271L950.675 75.8578L958.691 74.9359Z" fill="#747D95"/>
<path d="M935.204 73.533L940.094 72.8516C942.018 67.561 941.417 67.3606 934.964 71.5691C934.804 72.9318 935.204 73.4528 935.204 73.533Z" fill="#E7DACB"/>
<path d="M939.653 75.3768C939.894 75.3367 942.78 73.8938 942.9 73.7335C943.701 73.0121 944.102 71.5291 944.543 70.487C944.864 69.6453 945.265 68.8037 945.465 67.9219C944.784 67.8417 944.182 67.6013 943.501 67.6814C941.417 69.6854 940.896 72.8117 939.653 75.3367V75.3768Z" fill="#FEFEFD"/>
<path d="M939.653 75.3766C939.653 75.3766 939.333 75.3766 939.172 75.3766C939.172 75.4167 938.611 75.7374 938.491 75.8576C938.491 76.2183 938.17 77.2203 938.01 77.5009C938.451 77.9017 941.136 79.4247 941.257 79.5851C942.018 78.2223 943.06 75.2163 942.9 73.7734C942.78 73.8937 939.854 75.3766 939.653 75.4167V75.3766Z" fill="#E7D7C6"/>
<path d="M935.204 73.533C935.204 74.9358 935.325 76.1382 935.445 77.5009C936.206 77.1001 937.97 76.3386 938.451 75.8576C938.571 75.7374 939.132 75.4568 939.132 75.3767C939.212 75.2564 939.854 73.3726 940.054 72.8115L935.164 73.4929L935.204 73.533Z" fill="#FEFEFD"/>
<path d="M947.99 78.8637L953.561 79.5451C954.242 79.2244 954.964 78.9439 955.645 78.6232L950.194 76.2986C949.353 77.0601 948.751 78.022 947.99 78.8637Z" fill="#E7DACB"/>
<path d="M944.503 70.487C946.788 72.2505 946.707 71.5692 946.828 71.6493C947.589 70.6473 948.631 69.8457 949.633 69.0842C948.311 68.7235 946.747 68.0822 945.465 67.9219C945.265 68.8036 944.864 69.6453 944.543 70.487H944.503Z" fill="#E8DBCA"/>
<path d="M935.445 77.4609C935.525 78.5832 935.766 79.6252 935.926 80.7074C936.848 78.7836 937.93 77.6212 938.01 77.4609C938.17 77.2204 938.491 76.2184 938.491 75.8176C937.97 76.2585 936.246 77.0601 935.485 77.4609H935.445Z" fill="#E7D7C6"/>
<path d="M926.146 83.0721C926.026 86.9198 927.509 92.8115 928.351 92.8516C928.591 92.8516 928.952 91.5691 929.393 91.8095C929.874 92.05 931.116 97.7414 934.964 100.627C937.329 114.775 930.395 118.182 918.21 121.429C916.768 122.792 914.122 122.631 912.96 124.234C920.495 123.954 969.874 125.156 972.719 124.234C974.082 123.794 969.192 122.03 968.872 121.91C963.701 119.946 957.208 119.345 953.762 114.575C953.842 113.773 956.487 115.056 957.609 114.455C958.411 114.014 959.854 109.886 958.411 109.204C961.978 105.958 957.008 103.353 962.579 101.549C961.497 96.8596 957.89 94.5751 961.898 93.9739C961.898 93.8536 962.058 92.05 962.138 91.4087C960.816 91.7294 961.818 87.6813 961.457 83.1522C961.176 79.8256 958.932 77.9819 962.379 78.1422C962.299 77.9819 962.619 77.8216 962.619 77.7815C960.976 74.3346 956.487 70.1262 952.96 68.6031C952.679 68.4829 952.559 68.8837 952.359 68.8436C952.078 70.3266 949.954 73.1723 949.794 73.7334C949.794 73.8536 949.794 74.054 949.794 74.2144C950.996 72.8516 951.918 71.2885 952.92 69.8055C953.601 69.6051 953.882 70.4468 953.962 70.4869C955.004 71.3286 957.529 73.8135 958.611 74.8957C959.212 75.4969 959.934 75.9779 960.455 76.6592C960.415 77.1001 956.206 78.3426 955.565 78.6232C954.884 78.9438 954.162 79.2244 953.481 79.545C950.034 81.1883 946.707 83.1923 943.261 84.8757C941.136 85.9578 938.972 86.9999 936.848 88.1222C936.327 87.9618 935.926 83.3526 935.806 82.551C935.565 80.7474 935.806 80.7875 935.806 80.7073C935.685 79.6252 935.405 78.5831 935.325 77.4608C935.245 76.0981 935.084 74.8957 935.084 73.4929C935.084 73.4127 934.683 72.8917 934.844 71.529C941.297 67.3206 941.898 67.521 939.974 72.8115C939.774 73.3727 939.132 75.2564 939.052 75.3767C939.212 75.3767 939.373 75.3767 939.533 75.3767C940.776 72.8115 941.257 69.6853 943.381 67.7214C944.062 67.6412 944.703 67.8817 945.345 67.9618C946.667 68.1222 948.23 68.7634 949.513 69.1242C949.914 68.8035 950.715 68.7634 950.675 67.9618C938.972 64.4749 926.467 70.7675 926.026 83.0721H926.146Z" fill="#101316"/>
<path d="M942.419 118.182C940.094 119.705 934.122 118.703 931.277 117.701C928.15 119.545 924.463 118.904 925.585 122.832L960.014 123.072C962.138 117.501 955.685 122.471 948.631 111.449C948.15 111.449 947.669 117.661 942.459 118.182H942.419Z" fill="#E7D1C9"/>
<path d="M931.277 117.702C934.162 118.663 940.094 119.665 942.419 118.182C936.808 118.784 935.525 114.014 935.084 114.014C934.122 115.577 932.84 116.78 931.236 117.742L931.277 117.702Z" fill="#E3CDBE"/>
<path d="M935.204 86.5592C933.361 85.9981 929.994 86.2787 929.152 84.4751C928.992 84.1544 928.952 83.7536 928.671 83.5532C928.671 86.2386 928.912 89.2847 930.635 91.449L935.645 88.5232C935.766 87.8819 935.244 87.0001 935.164 86.5592H935.204Z" fill="#E7DECC"/>
<path d="M929.152 79.5854C928.751 81.2688 928.711 81.7898 928.671 83.5533C928.952 83.7938 928.992 84.1545 929.152 84.4752C930.876 83.5934 932.238 81.8299 934.283 81.6696C934.082 80.1866 933.802 78.7437 933.601 77.2607C931.798 77.3409 930.595 78.7036 929.192 79.5854H929.152Z" fill="#EAE0D0"/>
<path d="M929.152 84.475C929.994 86.2787 933.361 85.9981 935.204 86.5592C934.964 84.9159 934.523 83.3127 934.283 81.6694C932.238 81.8298 930.916 83.5933 929.152 84.475Z" fill="#E7DACB"/>
<path d="M929.152 79.5853C930.595 78.7035 931.757 77.3408 933.561 77.2606C933.481 76.7396 933.561 73.1724 932.96 73.0923C931.076 74.8558 929.713 77.1003 929.112 79.5853H929.152Z" fill="#E7DBCF"/>
<path d="M949.273 97.0201C943.942 96.6193 944.343 105.958 948.351 106.8C953.922 107.922 954.403 97.4209 949.273 97.0201Z" fill="#265269"/>
<path d="M955.565 93.2927C954.122 93.3729 956.768 95.4971 957.529 93.8939C957.088 93.8939 955.645 93.2927 955.565 93.2927Z" fill="#846577"/>
</g>
</g>
<defs>
<clipPath id="clip0_6_1040">
<rect width="1024" height="187" fill="white"/>
</clipPath>
<clipPath id="clip1_6_1040">
<rect width="76" height="73" fill="white" transform="translate(271 67)"/>
</clipPath>
<clipPath id="clip2_6_1040">
<rect width="76" height="73" fill="white" transform="matrix(-1 0 0 1 767 67)"/>
</clipPath>
<clipPath id="clip3_6_1040">
<rect width="70" height="67.1476" fill="white" transform="translate(168 67)"/>
</clipPath>
<clipPath id="clip4_6_1040">
<rect width="70" height="67.1476" fill="white" transform="matrix(-1 0 0 1 870 67)"/>
</clipPath>
<clipPath id="clip5_6_1040">
<rect width="60" height="57.5551" fill="white" transform="translate(65 67)"/>
</clipPath>
<clipPath id="clip6_6_1040">
<rect width="60" height="57.5551" fill="white" transform="matrix(-1 0 0 1 973 67)"/>
</clipPath>
</defs>
</svg>
