<svg width="1024" height="187" viewBox="0 0 1024 187" fill="none" xmlns="http://www.w3.org/2000/svg">
<g clip-path="url(#clip0_31_2)">
<rect width="1024" height="187" fill="white"/>
<rect width="1024" height="187" fill="#080808"/>
<path d="M471.71 133C533.07 132.992 594.43 133.181 655.78 133.083L655.93 133.375C564.623 133.389 473.313 133.403 382 133.418V133.083C411.9 133.172 441.81 133.003 471.71 133Z" fill="#EAEAEA"/>
<path d="M330.293 110.703C330.293 110.882 330.285 111.045 330.269 111.191C330.252 111.338 330.228 111.468 330.195 111.582C330.163 111.696 330.114 111.802 330.049 111.899C330 111.997 329.894 112.127 329.731 112.29C329.585 112.437 329.251 112.689 328.73 113.047C328.21 113.389 327.55 113.73 326.753 114.072C325.972 114.414 325.068 114.707 324.043 114.951C323.018 115.195 321.886 115.317 320.649 115.317C318.664 115.317 316.865 114.976 315.254 114.292C313.643 113.592 312.267 112.575 311.128 111.24C310.005 109.906 309.134 108.262 308.516 106.309C307.913 104.355 307.612 102.126 307.612 99.6191C307.612 97.0475 307.938 94.7445 308.589 92.71C309.24 90.6592 310.151 88.9258 311.323 87.5098C312.511 86.0775 313.927 84.987 315.571 84.2383C317.231 83.4733 319.062 83.0908 321.064 83.0908C322.008 83.0908 322.92 83.1803 323.799 83.3594C324.694 83.5384 325.516 83.7663 326.265 84.043C327.013 84.3197 327.681 84.637 328.267 84.9951C328.869 85.3532 329.276 85.6462 329.487 85.874C329.715 86.0856 329.854 86.2402 329.902 86.3379C329.967 86.4355 330.016 86.5495 330.049 86.6797C330.081 86.7936 330.106 86.932 330.122 87.0947C330.138 87.2412 330.146 87.4121 330.146 87.6074C330.146 87.8353 330.13 88.0387 330.098 88.2178C330.081 88.3805 330.041 88.527 329.976 88.6572C329.927 88.7712 329.862 88.8607 329.78 88.9258C329.699 88.9909 329.601 89.0234 329.487 89.0234C329.259 89.0234 328.934 88.8607 328.511 88.5352C328.104 88.1934 327.559 87.819 326.875 87.4121C326.208 87.0052 325.386 86.639 324.409 86.3135C323.433 85.9717 322.269 85.8008 320.918 85.8008C319.437 85.8008 318.078 86.1019 316.841 86.7041C315.604 87.29 314.538 88.1608 313.643 89.3164C312.764 90.472 312.072 91.8962 311.567 93.5889C311.079 95.2816 310.835 97.2266 310.835 99.4238C310.835 101.523 311.063 103.387 311.519 105.015C311.974 106.642 312.633 108.018 313.496 109.141C314.359 110.247 315.425 111.094 316.694 111.68C317.964 112.266 319.404 112.559 321.016 112.559C322.334 112.559 323.481 112.396 324.458 112.07C325.451 111.729 326.297 111.354 326.997 110.947C327.697 110.54 328.267 110.174 328.706 109.849C329.162 109.507 329.512 109.336 329.756 109.336C329.854 109.336 329.935 109.36 330 109.409C330.065 109.442 330.114 109.515 330.146 109.629C330.195 109.727 330.228 109.865 330.244 110.044C330.277 110.223 330.293 110.443 330.293 110.703ZM355.391 103.232C355.391 104.99 355.163 106.61 354.707 108.091C354.251 109.572 353.568 110.858 352.656 111.948C351.761 113.039 350.638 113.893 349.287 114.512C347.936 115.114 346.366 115.415 344.575 115.415C342.85 115.415 341.336 115.146 340.034 114.609C338.748 114.056 337.666 113.275 336.787 112.266C335.924 111.24 335.273 110.003 334.834 108.555C334.411 107.106 334.199 105.47 334.199 103.647C334.199 101.89 334.419 100.27 334.858 98.7891C335.314 97.3079 335.99 96.0303 336.885 94.9561C337.796 93.8656 338.927 93.0192 340.278 92.417C341.629 91.8148 343.208 91.5137 345.015 91.5137C346.74 91.5137 348.245 91.7822 349.531 92.3193C350.833 92.8564 351.916 93.6377 352.778 94.6631C353.641 95.6722 354.292 96.901 354.731 98.3496C355.171 99.7982 355.391 101.426 355.391 103.232ZM352.314 103.501C352.314 102.248 352.192 101.051 351.948 99.9121C351.704 98.7728 351.297 97.7718 350.728 96.9092C350.158 96.0303 349.393 95.3385 348.433 94.834C347.472 94.3132 346.276 94.0527 344.844 94.0527C343.525 94.0527 342.386 94.2887 341.426 94.7607C340.465 95.2327 339.676 95.8919 339.058 96.7383C338.455 97.5684 338.008 98.5531 337.715 99.6924C337.422 100.832 337.275 102.061 337.275 103.379C337.275 104.648 337.397 105.861 337.642 107.017C337.886 108.156 338.293 109.157 338.862 110.02C339.432 110.882 340.197 111.566 341.157 112.07C342.118 112.575 343.314 112.827 344.746 112.827C346.064 112.827 347.204 112.591 348.164 112.119C349.124 111.647 349.906 110.996 350.508 110.166C351.126 109.336 351.582 108.351 351.875 107.212C352.168 106.073 352.314 104.836 352.314 103.501ZM393.403 114.512C393.403 114.609 393.379 114.699 393.33 114.78C393.281 114.862 393.2 114.927 393.086 114.976C392.988 115.024 392.842 115.065 392.646 115.098C392.467 115.13 392.24 115.146 391.963 115.146C391.67 115.146 391.426 115.13 391.23 115.098C391.051 115.065 390.905 115.024 390.791 114.976C390.677 114.927 390.596 114.862 390.547 114.78C390.514 114.699 390.498 114.609 390.498 114.512V100.913C390.498 99.8714 390.4 98.9274 390.205 98.0811C390.026 97.2184 389.733 96.486 389.326 95.8838C388.936 95.2653 388.431 94.7933 387.812 94.4678C387.21 94.126 386.494 93.9551 385.664 93.9551C384.639 93.9551 383.597 94.3538 382.539 95.1514C381.497 95.9489 380.35 97.1208 379.097 98.667V114.512C379.097 114.609 379.072 114.699 379.023 114.78C378.975 114.862 378.893 114.927 378.779 114.976C378.682 115.024 378.535 115.065 378.34 115.098C378.161 115.13 377.933 115.146 377.656 115.146C377.38 115.146 377.144 115.13 376.948 115.098C376.769 115.065 376.623 115.024 376.509 114.976C376.395 114.927 376.313 114.862 376.265 114.78C376.232 114.699 376.216 114.609 376.216 114.512V100.913C376.216 99.8714 376.118 98.9274 375.923 98.0811C375.728 97.2184 375.426 96.486 375.02 95.8838C374.629 95.2653 374.124 94.7933 373.506 94.4678C372.904 94.126 372.188 93.9551 371.357 93.9551C370.332 93.9551 369.29 94.3538 368.232 95.1514C367.191 95.9489 366.051 97.1208 364.814 98.667V114.512C364.814 114.609 364.79 114.699 364.741 114.78C364.692 114.862 364.611 114.927 364.497 114.976C364.399 115.024 364.253 115.065 364.058 115.098C363.879 115.13 363.643 115.146 363.35 115.146C363.073 115.146 362.837 115.13 362.642 115.098C362.463 115.065 362.316 115.024 362.202 114.976C362.088 114.927 362.007 114.862 361.958 114.78C361.925 114.699 361.909 114.609 361.909 114.512V92.417C361.909 92.3193 361.925 92.2298 361.958 92.1484C362.007 92.0671 362.088 92.002 362.202 91.9531C362.316 91.888 362.454 91.8473 362.617 91.8311C362.796 91.7985 363.024 91.7822 363.301 91.7822C363.577 91.7822 363.805 91.7985 363.984 91.8311C364.163 91.8473 364.302 91.888 364.399 91.9531C364.497 92.002 364.562 92.0671 364.595 92.1484C364.644 92.2298 364.668 92.3193 364.668 92.417V95.542C365.938 94.126 367.142 93.1006 368.281 92.4658C369.421 91.8311 370.552 91.5137 371.675 91.5137C372.603 91.5137 373.424 91.6276 374.141 91.8555C374.873 92.0671 375.516 92.3763 376.069 92.7832C376.623 93.1738 377.095 93.6458 377.485 94.1992C377.876 94.7526 378.193 95.363 378.438 96.0303C379.202 95.1839 379.919 94.4759 380.586 93.9062C381.27 93.3203 381.912 92.8564 382.515 92.5146C383.133 92.1566 383.727 91.9043 384.297 91.7578C384.867 91.5951 385.428 91.5137 385.981 91.5137C387.365 91.5137 388.529 91.7578 389.473 92.2461C390.433 92.7344 391.198 93.3936 391.768 94.2236C392.354 95.0537 392.769 96.0221 393.013 97.1289C393.273 98.2357 393.403 99.4076 393.403 100.645V114.512ZM420.747 103.135C420.747 105.023 420.535 106.724 420.112 108.237C419.705 109.751 419.095 111.037 418.281 112.095C417.484 113.153 416.491 113.975 415.303 114.561C414.115 115.13 412.756 115.415 411.226 115.415C410.575 115.415 409.964 115.342 409.395 115.195C408.825 115.065 408.263 114.854 407.71 114.561C407.173 114.268 406.628 113.901 406.074 113.462C405.537 113.022 404.967 112.493 404.365 111.875V123.276C404.365 123.374 404.341 123.464 404.292 123.545C404.243 123.626 404.162 123.691 404.048 123.74C403.95 123.805 403.804 123.846 403.608 123.862C403.429 123.895 403.193 123.911 402.9 123.911C402.624 123.911 402.388 123.895 402.192 123.862C402.013 123.846 401.867 123.805 401.753 123.74C401.639 123.691 401.558 123.626 401.509 123.545C401.476 123.464 401.46 123.374 401.46 123.276V92.417C401.46 92.3031 401.476 92.2054 401.509 92.124C401.558 92.0426 401.631 91.9775 401.729 91.9287C401.842 91.8799 401.981 91.8473 402.144 91.8311C402.323 91.7985 402.534 91.7822 402.778 91.7822C403.022 91.7822 403.226 91.7985 403.389 91.8311C403.551 91.8473 403.69 91.8799 403.804 91.9287C403.918 91.9775 403.999 92.0426 404.048 92.124C404.097 92.2054 404.121 92.3031 404.121 92.417V95.6152C404.805 94.9154 405.456 94.3132 406.074 93.8086C406.693 93.2878 407.311 92.8564 407.93 92.5146C408.548 92.1729 409.183 91.9206 409.834 91.7578C410.485 91.5951 411.177 91.5137 411.909 91.5137C413.504 91.5137 414.863 91.8229 415.986 92.4414C417.109 93.0436 418.021 93.8737 418.721 94.9316C419.437 95.9896 419.95 97.2266 420.259 98.6426C420.584 100.042 420.747 101.54 420.747 103.135ZM417.695 103.599C417.695 102.362 417.598 101.174 417.402 100.034C417.207 98.8786 416.873 97.8532 416.401 96.958C415.946 96.0628 415.327 95.3467 414.546 94.8096C413.781 94.2725 412.812 94.0039 411.641 94.0039C411.055 94.0039 410.477 94.0853 409.907 94.248C409.354 94.4108 408.784 94.6794 408.198 95.0537C407.612 95.4281 407.002 95.9163 406.367 96.5186C405.732 97.1045 405.065 97.8369 404.365 98.7158V108.335C405.586 109.816 406.75 110.955 407.856 111.753C408.979 112.534 410.151 112.925 411.372 112.925C412.495 112.925 413.455 112.656 414.253 112.119C415.067 111.566 415.726 110.85 416.23 109.971C416.735 109.076 417.101 108.075 417.329 106.968C417.573 105.845 417.695 104.722 417.695 103.599ZM445.454 102.329C445.454 102.915 445.299 103.322 444.99 103.55C444.681 103.761 444.38 103.867 444.087 103.867H429.023C429.023 105.234 429.154 106.471 429.414 107.578C429.691 108.685 430.138 109.637 430.757 110.435C431.375 111.216 432.181 111.818 433.174 112.241C434.167 112.664 435.387 112.876 436.836 112.876C437.861 112.876 438.781 112.786 439.595 112.607C440.409 112.428 441.108 112.233 441.694 112.021C442.297 111.794 442.785 111.59 443.159 111.411C443.55 111.232 443.826 111.143 443.989 111.143C444.087 111.143 444.176 111.167 444.258 111.216C444.339 111.265 444.404 111.346 444.453 111.46C444.502 111.558 444.535 111.688 444.551 111.851C444.583 112.013 444.6 112.217 444.6 112.461C444.6 112.575 444.591 112.689 444.575 112.803C444.559 112.9 444.535 112.998 444.502 113.096C444.486 113.177 444.453 113.258 444.404 113.34C444.355 113.421 444.29 113.503 444.209 113.584C444.128 113.665 443.875 113.812 443.452 114.023C443.029 114.219 442.476 114.422 441.792 114.634C441.108 114.829 440.311 115.008 439.399 115.171C438.504 115.334 437.536 115.415 436.494 115.415C434.785 115.415 433.271 115.163 431.953 114.658C430.635 114.137 429.528 113.381 428.633 112.388C427.738 111.379 427.054 110.133 426.582 108.652C426.126 107.171 425.898 105.454 425.898 103.501C425.898 101.629 426.134 99.9528 426.606 98.4717C427.095 96.9906 427.786 95.7373 428.682 94.7119C429.577 93.6702 430.651 92.8809 431.904 92.3438C433.174 91.7904 434.582 91.5137 436.128 91.5137C437.788 91.5137 439.204 91.7904 440.376 92.3438C441.548 92.8971 442.508 93.6458 443.257 94.5898C444.022 95.5176 444.575 96.5999 444.917 97.8369C445.275 99.0739 445.454 100.376 445.454 101.743V102.329ZM442.451 101.475C442.5 99.1309 441.963 97.2998 440.84 95.9814C439.717 94.6631 438.081 94.0039 435.933 94.0039C434.826 94.0039 433.849 94.2155 433.003 94.6387C432.173 95.0456 431.465 95.5908 430.879 96.2744C430.309 96.958 429.87 97.7555 429.561 98.667C429.251 99.5622 429.072 100.498 429.023 101.475H442.451ZM469.868 91.9043C470.243 91.9043 470.495 92.002 470.625 92.1973C470.755 92.3763 470.82 92.6286 470.82 92.9541V114.512C470.82 114.609 470.796 114.699 470.747 114.78C470.698 114.862 470.617 114.927 470.503 114.976C470.405 115.024 470.259 115.065 470.063 115.098C469.884 115.13 469.657 115.146 469.38 115.146C469.087 115.146 468.843 115.13 468.647 115.098C468.468 115.065 468.322 115.024 468.208 114.976C468.11 114.927 468.037 114.862 467.988 114.78C467.939 114.699 467.915 114.609 467.915 114.512V94.3701H455.708V107.725C455.708 109.401 455.944 110.679 456.416 111.558C456.904 112.437 457.783 112.876 459.053 112.876C459.443 112.876 459.793 112.835 460.103 112.754C460.428 112.673 460.713 112.583 460.957 112.485C461.201 112.388 461.405 112.298 461.567 112.217C461.746 112.135 461.901 112.095 462.031 112.095C462.113 112.095 462.186 112.111 462.251 112.144C462.316 112.176 462.365 112.241 462.397 112.339C462.446 112.42 462.479 112.534 462.495 112.681C462.528 112.811 462.544 112.982 462.544 113.193C462.544 113.535 462.511 113.812 462.446 114.023C462.397 114.235 462.308 114.406 462.178 114.536C462.064 114.65 461.885 114.764 461.641 114.878C461.413 114.976 461.144 115.057 460.835 115.122C460.526 115.203 460.2 115.26 459.858 115.293C459.517 115.342 459.183 115.366 458.857 115.366C457.767 115.366 456.839 115.22 456.074 114.927C455.309 114.634 454.683 114.194 454.194 113.608C453.706 113.006 453.348 112.249 453.12 111.338C452.909 110.426 452.803 109.352 452.803 108.115V94.3701H449.507C449.279 94.3701 449.1 94.2725 448.97 94.0771C448.84 93.8656 448.774 93.5563 448.774 93.1494C448.774 92.9378 448.791 92.7588 448.823 92.6123C448.856 92.4495 448.905 92.3193 448.97 92.2217C449.035 92.1077 449.108 92.0264 449.189 91.9775C449.287 91.9287 449.393 91.9043 449.507 91.9043H452.803V86.4844C452.803 86.3867 452.819 86.2972 452.852 86.2158C452.9 86.1344 452.982 86.0693 453.096 86.0205C453.21 85.9554 453.356 85.9147 453.535 85.8984C453.73 85.8659 453.966 85.8496 454.243 85.8496C454.536 85.8496 454.772 85.8659 454.951 85.8984C455.146 85.9147 455.293 85.9554 455.391 86.0205C455.505 86.0693 455.586 86.1344 455.635 86.2158C455.684 86.2972 455.708 86.3867 455.708 86.4844V91.9043H469.868ZM471.26 84.9707C471.26 85.752 471.121 86.2809 470.845 86.5576C470.568 86.8343 470.063 86.9727 469.331 86.9727C468.615 86.9727 468.118 86.8424 467.842 86.582C467.581 86.3053 467.451 85.7764 467.451 84.9951C467.451 84.2139 467.59 83.6849 467.866 83.4082C468.143 83.1315 468.647 82.9932 469.38 82.9932C470.096 82.9932 470.584 83.1315 470.845 83.4082C471.121 83.6686 471.26 84.1895 471.26 84.9707ZM496.968 91.9043C497.342 91.9043 497.594 92.002 497.725 92.1973C497.855 92.3763 497.92 92.6286 497.92 92.9541V114.512C497.92 114.609 497.896 114.699 497.847 114.78C497.798 114.862 497.716 114.927 497.603 114.976C497.505 115.024 497.358 115.065 497.163 115.098C496.984 115.13 496.756 115.146 496.479 115.146C496.187 115.146 495.942 115.13 495.747 115.098C495.568 115.065 495.422 115.024 495.308 114.976C495.21 114.927 495.137 114.862 495.088 114.78C495.039 114.699 495.015 114.609 495.015 114.512V94.3701H482.808V107.725C482.808 109.401 483.044 110.679 483.516 111.558C484.004 112.437 484.883 112.876 486.152 112.876C486.543 112.876 486.893 112.835 487.202 112.754C487.528 112.673 487.812 112.583 488.057 112.485C488.301 112.388 488.504 112.298 488.667 112.217C488.846 112.135 489.001 112.095 489.131 112.095C489.212 112.095 489.285 112.111 489.351 112.144C489.416 112.176 489.465 112.241 489.497 112.339C489.546 112.42 489.578 112.534 489.595 112.681C489.627 112.811 489.644 112.982 489.644 113.193C489.644 113.535 489.611 113.812 489.546 114.023C489.497 114.235 489.408 114.406 489.277 114.536C489.163 114.65 488.984 114.764 488.74 114.878C488.512 114.976 488.244 115.057 487.935 115.122C487.625 115.203 487.3 115.26 486.958 115.293C486.616 115.342 486.283 115.366 485.957 115.366C484.867 115.366 483.939 115.22 483.174 114.927C482.409 114.634 481.782 114.194 481.294 113.608C480.806 113.006 480.448 112.249 480.22 111.338C480.008 110.426 479.902 109.352 479.902 108.115V94.3701H476.606C476.379 94.3701 476.2 94.2725 476.069 94.0771C475.939 93.8656 475.874 93.5563 475.874 93.1494C475.874 92.9378 475.89 92.7588 475.923 92.6123C475.955 92.4495 476.004 92.3193 476.069 92.2217C476.134 92.1077 476.208 92.0264 476.289 91.9775C476.387 91.9287 476.493 91.9043 476.606 91.9043H479.902V86.4844C479.902 86.3867 479.919 86.2972 479.951 86.2158C480 86.1344 480.081 86.0693 480.195 86.0205C480.309 85.9554 480.456 85.9147 480.635 85.8984C480.83 85.8659 481.066 85.8496 481.343 85.8496C481.636 85.8496 481.872 85.8659 482.051 85.8984C482.246 85.9147 482.393 85.9554 482.49 86.0205C482.604 86.0693 482.686 86.1344 482.734 86.2158C482.783 86.2972 482.808 86.3867 482.808 86.4844V91.9043H496.968ZM498.359 84.9707C498.359 85.752 498.221 86.2809 497.944 86.5576C497.668 86.8343 497.163 86.9727 496.431 86.9727C495.715 86.9727 495.218 86.8424 494.941 86.582C494.681 86.3053 494.551 85.7764 494.551 84.9951C494.551 84.2139 494.689 83.6849 494.966 83.4082C495.243 83.1315 495.747 82.9932 496.479 82.9932C497.196 82.9932 497.684 83.1315 497.944 83.4082C498.221 83.6686 498.359 84.1895 498.359 84.9707ZM523.018 92.3682C523.018 92.417 523.009 92.474 522.993 92.5391C522.993 92.5879 522.985 92.6367 522.969 92.6855C522.969 92.7344 522.961 92.7913 522.944 92.8564C522.928 92.9053 522.912 92.9541 522.896 93.0029L514.888 114.512C514.839 114.642 514.766 114.748 514.668 114.829C514.57 114.91 514.448 114.976 514.302 115.024C514.155 115.073 513.976 115.106 513.765 115.122C513.569 115.138 513.333 115.146 513.057 115.146C512.78 115.146 512.536 115.13 512.324 115.098C512.113 115.081 511.934 115.049 511.787 115C511.641 114.951 511.519 114.886 511.421 114.805C511.323 114.723 511.25 114.626 511.201 114.512L503.193 93.0029C503.145 92.8727 503.104 92.7669 503.071 92.6855C503.055 92.6042 503.039 92.5391 503.022 92.4902C503.022 92.4414 503.022 92.4007 503.022 92.3682C503.022 92.2542 503.047 92.1566 503.096 92.0752C503.145 91.9938 503.218 91.9368 503.315 91.9043C503.429 91.8555 503.576 91.8229 503.755 91.8066C503.934 91.7904 504.154 91.7822 504.414 91.7822C504.772 91.7822 505.057 91.7985 505.269 91.8311C505.48 91.8473 505.643 91.8799 505.757 91.9287C505.887 91.9775 505.977 92.0426 506.025 92.124C506.09 92.2054 506.147 92.3031 506.196 92.417L513.105 111.704L513.154 111.826L513.203 111.704L519.99 92.417C520.023 92.3031 520.072 92.2054 520.137 92.124C520.202 92.0426 520.291 91.9775 520.405 91.9287C520.535 91.8799 520.698 91.8473 520.894 91.8311C521.105 91.7985 521.374 91.7822 521.699 91.7822C521.96 91.7822 522.171 91.7904 522.334 91.8066C522.513 91.8229 522.651 91.8555 522.749 91.9043C522.847 91.9531 522.912 92.0182 522.944 92.0996C522.993 92.1647 523.018 92.2542 523.018 92.3682ZM545.649 102.329C545.649 102.915 545.495 103.322 545.186 103.55C544.876 103.761 544.575 103.867 544.282 103.867H529.219C529.219 105.234 529.349 106.471 529.609 107.578C529.886 108.685 530.334 109.637 530.952 110.435C531.571 111.216 532.376 111.818 533.369 112.241C534.362 112.664 535.583 112.876 537.031 112.876C538.057 112.876 538.976 112.786 539.79 112.607C540.604 112.428 541.304 112.233 541.89 112.021C542.492 111.794 542.98 111.59 543.354 111.411C543.745 111.232 544.022 111.143 544.185 111.143C544.282 111.143 544.372 111.167 544.453 111.216C544.535 111.265 544.6 111.346 544.648 111.46C544.697 111.558 544.73 111.688 544.746 111.851C544.779 112.013 544.795 112.217 544.795 112.461C544.795 112.575 544.787 112.689 544.771 112.803C544.754 112.9 544.73 112.998 544.697 113.096C544.681 113.177 544.648 113.258 544.6 113.34C544.551 113.421 544.486 113.503 544.404 113.584C544.323 113.665 544.071 113.812 543.647 114.023C543.224 114.219 542.671 114.422 541.987 114.634C541.304 114.829 540.506 115.008 539.595 115.171C538.7 115.334 537.731 115.415 536.689 115.415C534.98 115.415 533.467 115.163 532.148 114.658C530.83 114.137 529.723 113.381 528.828 112.388C527.933 111.379 527.249 110.133 526.777 108.652C526.322 107.171 526.094 105.454 526.094 103.501C526.094 101.629 526.33 99.9528 526.802 98.4717C527.29 96.9906 527.982 95.7373 528.877 94.7119C529.772 93.6702 530.846 92.8809 532.1 92.3438C533.369 91.7904 534.777 91.5137 536.323 91.5137C537.983 91.5137 539.399 91.7904 540.571 92.3438C541.743 92.8971 542.703 93.6458 543.452 94.5898C544.217 95.5176 544.771 96.5999 545.112 97.8369C545.47 99.0739 545.649 100.376 545.649 101.743V102.329ZM542.646 101.475C542.695 99.1309 542.158 97.2998 541.035 95.9814C539.912 94.6631 538.276 94.0039 536.128 94.0039C535.021 94.0039 534.045 94.2155 533.198 94.6387C532.368 95.0456 531.66 95.5908 531.074 96.2744C530.505 96.958 530.065 97.7555 529.756 98.667C529.447 99.5622 529.268 100.498 529.219 101.475H542.646ZM586.641 113.999C586.738 114.243 586.779 114.447 586.763 114.609C586.763 114.756 586.706 114.87 586.592 114.951C586.494 115.033 586.331 115.081 586.104 115.098C585.892 115.13 585.615 115.146 585.273 115.146C584.932 115.146 584.655 115.13 584.443 115.098C584.248 115.081 584.093 115.049 583.979 115C583.866 114.951 583.776 114.886 583.711 114.805C583.662 114.723 583.613 114.626 583.564 114.512L580.537 106.089H566.67L563.765 114.463C563.732 114.577 563.683 114.674 563.618 114.756C563.553 114.837 563.464 114.91 563.35 114.976C563.236 115.024 563.073 115.065 562.861 115.098C562.666 115.13 562.414 115.146 562.104 115.146C561.763 115.146 561.478 115.13 561.25 115.098C561.022 115.065 560.851 115.008 560.737 114.927C560.64 114.845 560.583 114.731 560.566 114.585C560.566 114.438 560.615 114.243 560.713 113.999L571.772 83.9453C571.821 83.8151 571.895 83.7093 571.992 83.6279C572.09 83.5303 572.212 83.457 572.358 83.4082C572.521 83.3594 572.708 83.3268 572.92 83.3105C573.148 83.278 573.4 83.2617 573.677 83.2617C573.97 83.2617 574.222 83.278 574.434 83.3105C574.661 83.3268 574.849 83.3594 574.995 83.4082C575.158 83.457 575.28 83.5303 575.361 83.6279C575.459 83.7093 575.532 83.8151 575.581 83.9453L586.641 113.999ZM573.53 86.6064H573.506L567.549 103.599H579.634L573.53 86.6064ZM609.761 114.512C609.761 114.609 609.736 114.699 609.688 114.78C609.639 114.862 609.557 114.927 609.443 114.976C609.346 115.024 609.199 115.065 609.004 115.098C608.825 115.13 608.597 115.146 608.32 115.146C608.027 115.146 607.783 115.13 607.588 115.098C607.409 115.065 607.262 115.024 607.148 114.976C607.051 114.927 606.978 114.862 606.929 114.78C606.88 114.699 606.855 114.609 606.855 114.512V101.401C606.855 100.034 606.75 98.9274 606.538 98.0811C606.326 97.2184 606.009 96.486 605.586 95.8838C605.163 95.2653 604.618 94.7933 603.95 94.4678C603.299 94.126 602.534 93.9551 601.655 93.9551C600.532 93.9551 599.409 94.3538 598.286 95.1514C597.163 95.9489 595.983 97.1208 594.746 98.667V114.512C594.746 114.609 594.722 114.699 594.673 114.78C594.624 114.862 594.543 114.927 594.429 114.976C594.331 115.024 594.185 115.065 593.989 115.098C593.81 115.13 593.574 115.146 593.281 115.146C593.005 115.146 592.769 115.13 592.573 115.098C592.394 115.065 592.248 115.024 592.134 114.976C592.02 114.927 591.938 114.862 591.89 114.78C591.857 114.699 591.841 114.609 591.841 114.512V92.417C591.841 92.3193 591.857 92.2298 591.89 92.1484C591.938 92.0671 592.02 92.002 592.134 91.9531C592.248 91.888 592.386 91.8473 592.549 91.8311C592.728 91.7985 592.956 91.7822 593.232 91.7822C593.509 91.7822 593.737 91.7985 593.916 91.8311C594.095 91.8473 594.233 91.888 594.331 91.9531C594.429 92.002 594.494 92.0671 594.526 92.1484C594.575 92.2298 594.6 92.3193 594.6 92.417V95.542C595.869 94.126 597.114 93.1006 598.335 92.4658C599.556 91.8311 600.768 91.5137 601.973 91.5137C603.421 91.5137 604.642 91.7578 605.635 92.2461C606.628 92.7344 607.425 93.3936 608.027 94.2236C608.646 95.0537 609.085 96.0221 609.346 97.1289C609.622 98.2357 609.761 99.5703 609.761 101.133V114.512ZM633.296 114.512C633.296 114.674 633.239 114.805 633.125 114.902C633.027 114.984 632.889 115.041 632.71 115.073C632.547 115.122 632.319 115.146 632.026 115.146C631.75 115.146 631.514 115.122 631.318 115.073C631.123 115.041 630.968 114.984 630.854 114.902C630.757 114.805 630.708 114.674 630.708 114.512V112.046C629.715 113.12 628.617 113.95 627.412 114.536C626.224 115.122 624.987 115.415 623.701 115.415C622.546 115.415 621.504 115.269 620.576 114.976C619.665 114.666 618.892 114.235 618.257 113.682C617.622 113.112 617.134 112.428 616.792 111.631C616.45 110.833 616.279 109.938 616.279 108.945C616.279 107.725 616.532 106.667 617.036 105.771C617.541 104.86 618.257 104.103 619.185 103.501C620.112 102.899 621.227 102.451 622.529 102.158C623.831 101.849 625.28 101.694 626.875 101.694H630.391V99.79C630.391 98.846 630.293 98.016 630.098 97.2998C629.902 96.5674 629.585 95.957 629.146 95.4688C628.706 94.9805 628.136 94.6143 627.437 94.3701C626.737 94.126 625.882 94.0039 624.873 94.0039C623.896 94.0039 623.018 94.126 622.236 94.3701C621.455 94.598 620.771 94.8584 620.186 95.1514C619.6 95.4443 619.111 95.7129 618.721 95.957C618.346 96.1849 618.078 96.2988 617.915 96.2988C617.817 96.2988 617.728 96.2826 617.646 96.25C617.565 96.2174 617.492 96.1605 617.427 96.0791C617.378 95.9814 617.337 95.8675 617.305 95.7373C617.288 95.5908 617.28 95.4199 617.28 95.2246C617.28 94.8828 617.305 94.6143 617.354 94.4189C617.402 94.2074 617.524 94.0039 617.72 93.8086C617.931 93.597 618.298 93.3529 618.818 93.0762C619.339 92.7995 619.933 92.5472 620.601 92.3193C621.284 92.0752 622.017 91.8799 622.798 91.7334C623.579 91.5869 624.36 91.5137 625.142 91.5137C626.655 91.5137 627.933 91.7008 628.975 92.0752C630.016 92.4333 630.854 92.9541 631.489 93.6377C632.14 94.3213 632.604 95.1676 632.881 96.1768C633.158 97.1696 633.296 98.3008 633.296 99.5703V114.512ZM630.391 104.087H626.362C625.19 104.087 624.165 104.193 623.286 104.404C622.407 104.616 621.675 104.925 621.089 105.332C620.503 105.739 620.063 106.227 619.771 106.797C619.494 107.367 619.355 108.018 619.355 108.75C619.355 110.02 619.754 111.037 620.552 111.802C621.366 112.55 622.505 112.925 623.97 112.925C625.125 112.925 626.2 112.632 627.192 112.046C628.201 111.444 629.268 110.524 630.391 109.287V104.087ZM644.258 114.512C644.258 114.609 644.233 114.699 644.185 114.78C644.136 114.862 644.054 114.927 643.94 114.976C643.843 115.024 643.696 115.065 643.501 115.098C643.322 115.13 643.086 115.146 642.793 115.146C642.516 115.146 642.28 115.13 642.085 115.098C641.906 115.065 641.759 115.024 641.646 114.976C641.532 114.927 641.45 114.862 641.401 114.78C641.369 114.699 641.353 114.609 641.353 114.512V81.6016C641.353 81.5039 641.369 81.4144 641.401 81.333C641.45 81.2516 641.532 81.1865 641.646 81.1377C641.759 81.0726 641.906 81.0319 642.085 81.0156C642.28 80.9831 642.516 80.9668 642.793 80.9668C643.086 80.9668 643.322 80.9831 643.501 81.0156C643.696 81.0319 643.843 81.0726 643.94 81.1377C644.054 81.1865 644.136 81.2516 644.185 81.333C644.233 81.4144 644.258 81.5039 644.258 81.6016V114.512ZM660.981 115L657.905 123.276C657.824 123.455 657.653 123.602 657.393 123.716C657.132 123.846 656.717 123.911 656.147 123.911C655.854 123.911 655.61 123.895 655.415 123.862C655.22 123.83 655.065 123.765 654.951 123.667C654.854 123.586 654.797 123.472 654.78 123.325C654.764 123.195 654.797 123.032 654.878 122.837L658.003 115C657.873 114.951 657.759 114.87 657.661 114.756C657.563 114.642 657.498 114.528 657.466 114.414L649.434 92.8564C649.352 92.6286 649.312 92.4495 649.312 92.3193C649.312 92.1729 649.352 92.0589 649.434 91.9775C649.531 91.8962 649.678 91.8473 649.873 91.8311C650.085 91.7985 650.361 91.7822 650.703 91.7822C651.061 91.7822 651.346 91.7985 651.558 91.8311C651.769 91.8473 651.932 91.8799 652.046 91.9287C652.176 91.9775 652.266 92.0426 652.314 92.124C652.38 92.2054 652.437 92.3031 652.485 92.417L659.395 111.704H659.492L666.279 92.417C666.361 92.1891 666.466 92.0426 666.597 91.9775C666.743 91.8962 666.93 91.8473 667.158 91.8311C667.386 91.7985 667.663 91.7822 667.988 91.7822C668.298 91.7822 668.55 91.7985 668.745 91.8311C668.957 91.8636 669.111 91.9206 669.209 92.002C669.307 92.0833 669.355 92.1973 669.355 92.3438C669.355 92.474 669.315 92.6449 669.233 92.8564L660.981 115ZM686.812 108.628C686.812 109.686 686.616 110.638 686.226 111.484C685.835 112.314 685.273 113.022 684.541 113.608C683.825 114.194 682.962 114.642 681.953 114.951C680.944 115.26 679.829 115.415 678.608 115.415C677.843 115.415 677.119 115.35 676.436 115.22C675.752 115.106 675.133 114.959 674.58 114.78C674.027 114.585 673.555 114.382 673.164 114.17C672.79 113.958 672.513 113.771 672.334 113.608C672.155 113.446 672.025 113.242 671.943 112.998C671.862 112.754 671.821 112.428 671.821 112.021C671.821 111.81 671.838 111.623 671.87 111.46C671.903 111.297 671.943 111.159 671.992 111.045C672.041 110.931 672.106 110.85 672.188 110.801C672.269 110.736 672.358 110.703 672.456 110.703C672.635 110.703 672.896 110.817 673.237 111.045C673.579 111.273 674.002 111.525 674.507 111.802C675.028 112.062 675.638 112.306 676.338 112.534C677.054 112.762 677.876 112.876 678.804 112.876C679.552 112.876 680.236 112.795 680.854 112.632C681.473 112.469 682.01 112.225 682.466 111.899C682.922 111.574 683.271 111.159 683.516 110.654C683.776 110.133 683.906 109.531 683.906 108.848C683.906 108.164 683.743 107.586 683.418 107.114C683.092 106.642 682.661 106.235 682.124 105.894C681.603 105.535 681.001 105.226 680.317 104.966C679.65 104.689 678.958 104.412 678.242 104.136C677.542 103.843 676.851 103.525 676.167 103.184C675.5 102.842 674.897 102.427 674.36 101.938C673.84 101.45 673.416 100.864 673.091 100.181C672.765 99.4971 672.603 98.6751 672.603 97.7148C672.603 96.9499 672.749 96.2012 673.042 95.4688C673.335 94.7201 673.783 94.0527 674.385 93.4668C675.003 92.8809 675.785 92.4089 676.729 92.0508C677.689 91.6927 678.82 91.5137 680.122 91.5137C680.675 91.5137 681.221 91.5625 681.758 91.6602C682.311 91.7415 682.808 91.8555 683.247 92.002C683.703 92.1484 684.093 92.3112 684.419 92.4902C684.744 92.653 684.989 92.7995 685.151 92.9297C685.33 93.0599 685.444 93.1738 685.493 93.2715C685.558 93.3529 685.599 93.4424 685.615 93.54C685.648 93.6377 685.672 93.7598 685.688 93.9062C685.705 94.0365 685.713 94.1992 685.713 94.3945C685.713 94.5898 685.697 94.7689 685.664 94.9316C685.648 95.0781 685.615 95.2083 685.566 95.3223C685.518 95.4362 685.452 95.5257 685.371 95.5908C685.306 95.6396 685.225 95.6641 685.127 95.6641C684.997 95.6641 684.801 95.5745 684.541 95.3955C684.281 95.2165 683.939 95.0212 683.516 94.8096C683.092 94.598 682.588 94.4027 682.002 94.2236C681.416 94.0446 680.741 93.9551 679.976 93.9551C679.211 93.9551 678.535 94.0446 677.949 94.2236C677.38 94.4027 676.908 94.6549 676.533 94.9805C676.159 95.306 675.874 95.6885 675.679 96.1279C675.5 96.5674 675.41 97.0475 675.41 97.5684C675.41 98.2845 675.573 98.8867 675.898 99.375C676.224 99.8633 676.655 100.286 677.192 100.645C677.729 101.003 678.34 101.32 679.023 101.597C679.707 101.873 680.399 102.15 681.099 102.427C681.815 102.703 682.515 103.013 683.198 103.354C683.882 103.68 684.492 104.079 685.029 104.551C685.566 105.023 685.998 105.592 686.323 106.26C686.649 106.911 686.812 107.7 686.812 108.628ZM696.064 114.512C696.064 114.609 696.04 114.699 695.991 114.78C695.942 114.862 695.861 114.927 695.747 114.976C695.649 115.024 695.503 115.065 695.308 115.098C695.129 115.13 694.893 115.146 694.6 115.146C694.323 115.146 694.087 115.13 693.892 115.098C693.713 115.065 693.566 115.024 693.452 114.976C693.338 114.927 693.257 114.862 693.208 114.78C693.175 114.699 693.159 114.609 693.159 114.512V92.417C693.159 92.3193 693.175 92.2298 693.208 92.1484C693.257 92.0671 693.338 92.002 693.452 91.9531C693.566 91.888 693.713 91.8473 693.892 91.8311C694.087 91.7985 694.323 91.7822 694.6 91.7822C694.893 91.7822 695.129 91.7985 695.308 91.8311C695.503 91.8473 695.649 91.888 695.747 91.9531C695.861 92.002 695.942 92.0671 695.991 92.1484C696.04 92.2298 696.064 92.3193 696.064 92.417V114.512ZM696.504 84.9707C696.504 85.752 696.366 86.2809 696.089 86.5576C695.812 86.8343 695.308 86.9727 694.575 86.9727C693.859 86.9727 693.363 86.8424 693.086 86.582C692.826 86.3053 692.695 85.7764 692.695 84.9951C692.695 84.2139 692.834 83.6849 693.11 83.4082C693.387 83.1315 693.892 82.9932 694.624 82.9932C695.34 82.9932 695.828 83.1315 696.089 83.4082C696.366 83.6686 696.504 84.1895 696.504 84.9707ZM717.183 108.628C717.183 109.686 716.987 110.638 716.597 111.484C716.206 112.314 715.645 113.022 714.912 113.608C714.196 114.194 713.333 114.642 712.324 114.951C711.315 115.26 710.2 115.415 708.979 115.415C708.215 115.415 707.49 115.35 706.807 115.22C706.123 115.106 705.505 114.959 704.951 114.78C704.398 114.585 703.926 114.382 703.535 114.17C703.161 113.958 702.884 113.771 702.705 113.608C702.526 113.446 702.396 113.242 702.314 112.998C702.233 112.754 702.192 112.428 702.192 112.021C702.192 111.81 702.209 111.623 702.241 111.46C702.274 111.297 702.314 111.159 702.363 111.045C702.412 110.931 702.477 110.85 702.559 110.801C702.64 110.736 702.729 110.703 702.827 110.703C703.006 110.703 703.267 110.817 703.608 111.045C703.95 111.273 704.373 111.525 704.878 111.802C705.399 112.062 706.009 112.306 706.709 112.534C707.425 112.762 708.247 112.876 709.175 112.876C709.924 112.876 710.607 112.795 711.226 112.632C711.844 112.469 712.381 112.225 712.837 111.899C713.293 111.574 713.643 111.159 713.887 110.654C714.147 110.133 714.277 109.531 714.277 108.848C714.277 108.164 714.115 107.586 713.789 107.114C713.464 106.642 713.032 106.235 712.495 105.894C711.974 105.535 711.372 105.226 710.688 104.966C710.021 104.689 709.329 104.412 708.613 104.136C707.913 103.843 707.222 103.525 706.538 103.184C705.871 102.842 705.269 102.427 704.731 101.938C704.211 101.45 703.787 100.864 703.462 100.181C703.136 99.4971 702.974 98.6751 702.974 97.7148C702.974 96.9499 703.12 96.2012 703.413 95.4688C703.706 94.7201 704.154 94.0527 704.756 93.4668C705.374 92.8809 706.156 92.4089 707.1 92.0508C708.06 91.6927 709.191 91.5137 710.493 91.5137C711.047 91.5137 711.592 91.5625 712.129 91.6602C712.682 91.7415 713.179 91.8555 713.618 92.002C714.074 92.1484 714.465 92.3112 714.79 92.4902C715.116 92.653 715.36 92.7995 715.522 92.9297C715.701 93.0599 715.815 93.1738 715.864 93.2715C715.929 93.3529 715.97 93.4424 715.986 93.54C716.019 93.6377 716.043 93.7598 716.06 93.9062C716.076 94.0365 716.084 94.1992 716.084 94.3945C716.084 94.5898 716.068 94.7689 716.035 94.9316C716.019 95.0781 715.986 95.2083 715.938 95.3223C715.889 95.4362 715.824 95.5257 715.742 95.5908C715.677 95.6396 715.596 95.6641 715.498 95.6641C715.368 95.6641 715.173 95.5745 714.912 95.3955C714.652 95.2165 714.31 95.0212 713.887 94.8096C713.464 94.598 712.959 94.4027 712.373 94.2236C711.787 94.0446 711.112 93.9551 710.347 93.9551C709.582 93.9551 708.906 94.0446 708.32 94.2236C707.751 94.4027 707.279 94.6549 706.904 94.9805C706.53 95.306 706.245 95.6885 706.05 96.1279C705.871 96.5674 705.781 97.0475 705.781 97.5684C705.781 98.2845 705.944 98.8867 706.27 99.375C706.595 99.8633 707.026 100.286 707.563 100.645C708.101 101.003 708.711 101.32 709.395 101.597C710.078 101.873 710.77 102.15 711.47 102.427C712.186 102.703 712.886 103.013 713.569 103.354C714.253 103.68 714.863 104.079 715.4 104.551C715.938 105.023 716.369 105.592 716.694 106.26C717.02 106.911 717.183 107.7 717.183 108.628Z" fill="#EAEAEA"/>
</g>
<defs>
<clipPath id="clip0_31_2">
<rect width="1024" height="187" fill="white"/>
</clipPath>
</defs>
</svg>
